<?xml version="1.0" encoding="UTF-8"?>
<!DOCTYPE svg PUBLIC "-//W3C//DTD SVG 1.1//EN" "http://www.w3.org/Graphics/SVG/1.1/DTD/svg11.dtd">
<!-- Creator: CorelDRAW 2020 (64-Bit) -->
<svg xmlns="http://www.w3.org/2000/svg" xml:space="preserve" width="15.748in" height="8.26772in" version="1.1" style="shape-rendering:geometricPrecision; text-rendering:geometricPrecision; image-rendering:optimizeQuality; fill-rule:evenodd; clip-rule:evenodd"
viewBox="0 0 15748.03 8267.72"
 xmlns:xlink="http://www.w3.org/1999/xlink"
 xmlns:xodm="http://www.corel.com/coreldraw/odm/2003">
 <defs>
  <style type="text/css">
   <![CDATA[
    .fil0 {fill:#FEFEFE}
   ]]>
  </style>
 </defs>
 <g id="Layer_x0020_1">
  <metadata id="CorelCorpID_0Corel-Layer"/>
  <path class="fil0" d="M6680.28 4407l320.31 0c28.65,0 49.99,19.22 49.48,47.85l-0.73 41.06 -186.15 137.57c-14.52,9.15 -28.08,8.35 -40.85,-0.72l-190.09 -134.77 -0.47 -49.65c-0.27,-28.65 19.85,-41.34 48.5,-41.34zm17.98 32.21l289.74 -0.98c22.89,-0.08 27.93,-0.13 27.52,22.73l-0.3 16.4 -156.85 120.65c-11.6,7.31 -22.43,6.67 -32.64,-0.57l-159.67 -117.43 -0.45 -17.21c-0.59,-22.88 9.75,-23.5 32.63,-23.58z"/>
  <path class="fil0" d="M6667.66 4561.28l-35.16 -25.39 -1.95 166.01c4.44,22.04 17.69,35.26 37.76,41.67l341.8 -1.3c24.85,-3.62 39.39,-18.74 41.67,-47.53l-2.6 -160.15 -34.51 24.74 0 122.39c0.07,18.83 -6.69,24.79 -20.83,25.39l-309.25 5.21c-13.39,-2.45 -17.26,-11.66 -19.37,-25.39l2.44 -125.64z"/>
 </g>
</svg>
