<?xml version="1.0" encoding="UTF-8"?>
<!DOCTYPE svg PUBLIC "-//W3C//DTD SVG 1.1//EN" "http://www.w3.org/Graphics/SVG/1.1/DTD/svg11.dtd">
<!-- Creator: CorelDRAW 2020 (64-Bit) -->
<svg xmlns="http://www.w3.org/2000/svg" xml:space="preserve" width="15.748in" height="8.26772in" version="1.1" style="shape-rendering:geometricPrecision; text-rendering:geometricPrecision; image-rendering:optimizeQuality; fill-rule:evenodd; clip-rule:evenodd"
viewBox="0 0 15748.03 8267.72"
 xmlns:xlink="http://www.w3.org/1999/xlink"
 xmlns:xodm="http://www.corel.com/coreldraw/odm/2003">
 <defs>
  <style type="text/css">
   <![CDATA[
    .fil0 {fill:#FEFEFE}
   ]]>
  </style>
 </defs>
 <g id="Layer_x0020_1">
  <metadata id="CorelCorpID_0Corel-Layer"/>
  <path class="fil0" d="M1329.99 4404.89l281.8 0c27.07,0 49.21,22.14 49.21,49.21l0 46.62 132.77 -61.35c10.09,-4.66 20.22,9.1 20.22,20.22l0 229.08c0,11.13 -10.18,25 -20.22,20.22l-132.77 -63.15 0 50.42c0,27.07 -22.14,49.21 -49.21,49.21l-281.8 0c-27.07,0 -49.21,-22.14 -49.21,-49.21l0 -242.07c0,-27.07 22.14,-49.21 49.21,-49.21zm331 146.13l0 50.78 94.74 50.29c6.64,3.52 15.63,-1.75 15.63,-9.28l0 -137.37c0,-7.52 -5.82,-12.94 -12.37,-9.28l-98 54.85zm-323.94 -106.11l267.66 0c9.79,0 17.79,8 17.79,17.79l0 224.5c0,9.79 -8,17.79 -17.79,17.79l-267.66 0c-9.79,0 -17.79,-8 -17.79,-17.79l0 -224.5c0,-9.79 8,-17.79 17.79,-17.79z"/>
  <path class="fil0" d="M1473.85 4500.39c42.61,0 77.15,34.54 77.15,77.15 0,42.61 -34.54,77.15 -77.15,77.15 -42.61,0 -77.15,-34.54 -77.15,-77.15 0,-42.61 34.54,-77.15 77.15,-77.15zm0 35.48c23.02,0 41.67,18.65 41.67,41.67 0,23.02 -18.65,41.67 -41.67,41.67 -23.02,0 -41.67,-18.65 -41.67,-41.67 0,-23.02 18.65,-41.67 41.67,-41.67z"/>
 </g>
</svg>
