<?xml version="1.0" encoding="UTF-8"?>
<!DOCTYPE svg PUBLIC "-//W3C//DTD SVG 1.1//EN" "http://www.w3.org/Graphics/SVG/1.1/DTD/svg11.dtd">
<!-- Creator: CorelDRAW 2020 (64-Bit) -->
<svg xmlns="http://www.w3.org/2000/svg" xml:space="preserve" width="15.748in" height="8.26772in" version="1.1" style="shape-rendering:geometricPrecision; text-rendering:geometricPrecision; image-rendering:optimizeQuality; fill-rule:evenodd; clip-rule:evenodd"
viewBox="0 0 15748.03 8267.72"
 xmlns:xlink="http://www.w3.org/1999/xlink"
 xmlns:xodm="http://www.corel.com/coreldraw/odm/2003">
 <defs>
  <style type="text/css">
   <![CDATA[
    .fil0 {fill:#FEFEFE}
   ]]>
  </style>
 </defs>
 <g id="Layer_x0020_1">
  <metadata id="CorelCorpID_0Corel-Layer"/>
  <g id="_1998679990112">
   <path class="fil0" d="M4050.71 4513.01l286.28 0 0 -29.93c0,-7.71 6.31,-14.02 14.02,-14.02l3.21 0c7.71,0 14.02,6.31 14.02,14.02l0 38.37c0,3.09 -1.01,5.94 -2.72,8.27 0,1.14 -0.17,2.3 -0.53,3.47l-51.43 167.96c-3.25,10.61 -9.09,20.19 -20.19,20.19l-207.03 0c-11.1,0 -17.24,-9.48 -20.19,-20.19l-46.22 -167.96c-0.46,-1.68 -0.56,-3.32 -0.34,-4.91 -0.09,-0.63 -0.13,-1.28 -0.13,-1.94l0 -38.37c0,-7.71 6.31,-14.02 14.02,-14.02l3.21 0c7.71,0 14.02,6.31 14.02,14.02l0 25.04zm21.5 31.1l240.37 0.8c8.75,0.02 14.74,9.7 12.33,17.1l-36.97 113.43c-2.41,7.41 -7.17,14 -15.91,14l-163.22 0c-8.73,0 -13.71,-6.55 -15.91,-14l-33.71 -113.76c-2.2,-7.46 4.27,-17.59 13.02,-17.57z"/>
   <rect class="fil0" x="4136" y="4592.9" width="111.33" height="31.25" rx="15.63" ry="15.63"/>
   <rect class="fil0" x="4076.43" y="4455.52" width="226.57" height="31.25" rx="13.67" ry="15.63"/>
   <rect class="fil0" x="4106.05" y="4405.06" width="173.83" height="31.26" rx="14" ry="15.63"/>
  </g>
 </g>
</svg>
