<?xml version="1.0" encoding="UTF-8"?>
<!DOCTYPE svg PUBLIC "-//W3C//DTD SVG 1.1//EN" "http://www.w3.org/Graphics/SVG/1.1/DTD/svg11.dtd">
<!-- Creator: CorelDRAW 2020 (64-Bit) -->
<svg xmlns="http://www.w3.org/2000/svg" xml:space="preserve" width="15.748in" height="8.26772in" version="1.1" style="shape-rendering:geometricPrecision; text-rendering:geometricPrecision; image-rendering:optimizeQuality; fill-rule:evenodd; clip-rule:evenodd"
viewBox="0 0 15748.03 8267.72"
 xmlns:xlink="http://www.w3.org/1999/xlink"
 xmlns:xodm="http://www.corel.com/coreldraw/odm/2003">
 <defs>
  <style type="text/css">
   <![CDATA[
    .fil0 {fill:#FEFEFE;fill-opacity:0.341176}
   ]]>
  </style>
 </defs>
 <g id="Layer_x0020_1">
  <metadata id="CorelCorpID_0Corel-Layer"/>
  <g id="_2005287453568">
   <path class="fil0" d="M4989.86 4658.62c0,-53.32 18.43,-102.28 51.05,-141.08 2.61,-3.1 3.24,-4.21 6.22,-7.13 6.69,-6.56 2.96,-4.32 10.22,-10.33 5.15,-4.26 9.66,-9.63 18.06,-15.85 66.31,-49.04 147.26,-59.99 223.69,-25.95 5.97,2.66 12.15,5.93 17.54,9.17 15.04,9.07 18.26,10.7 32.11,22.35 5.39,4.52 13.02,11.07 17.46,16.44 1.24,1.5 2.16,2.3 3.54,3.65 13.41,13.13 30.7,40.3 38.26,57.29 26.07,58.52 26.06,122.29 0,180.8 -2.66,5.97 -5.93,12.15 -9.17,17.54 -10.58,17.55 -9.72,16.16 -22.22,32.24l-9.85 10.7c-10.62,13.4 -34.85,30.09 -49.49,38.87 -63.58,38.13 -153.46,38.66 -215.88,0.78 -13.61,-8.26 -28.27,-17.13 -39.36,-28.45 -1.34,-1.37 -2.17,-2.31 -3.65,-3.55 -1.99,-1.65 -2.11,-1.31 -4.07,-3.11 -5.09,-4.65 -20.56,-24.31 -24.69,-29.77 -6.44,-8.52 -14.95,-24.63 -19.92,-34.54 -10.83,-21.63 -19.85,-57.92 -19.85,-90.08zm207.8 -264.05l25.39 0c33.24,1.61 66.26,9.56 96.96,24.3 25.48,12.24 66.65,39.73 82.87,60.97l33.9 46.24c24.9,46.33 34.93,78.67 34.93,138.71 0,98.82 -64.55,191.12 -152.4,231.85 -37.54,17.41 -70.55,23.97 -117.82,23.97 -98.46,0 -191,-64.29 -231.85,-152.4 -17.5,-37.75 -23.97,-70.28 -23.97,-117.82 0,-52.23 20.32,-106.21 47.85,-144.27 2.62,-3.62 4.27,-6.03 6.89,-9.54l22.06 -25.21c47.02,-47.02 110.53,-73.7 175.19,-76.8z"/>
   <path class="fil0" d="M5164.52 4584.64l0 147.95c0,4.77 1.26,9.55 3.05,12.37 8.15,12.89 21.58,1.32 29.39,-4.59l53.56 -38.9c6.15,-4.63 11.8,-8.4 17.93,-12.9 6.17,-4.53 11.51,-8.33 17.9,-12.92 15.15,-10.9 23.15,-18.04 3.67,-32.59 -30.44,-22.73 -63.14,-45.22 -93.34,-67.96 -8.41,-6.33 -20.49,-16.53 -29.31,-4.05 -2.07,2.91 -2.84,8.76 -2.84,13.59z"/>
  </g>
 </g>
</svg>
