<svg xmlns="http://www.w3.org/2000/svg" width="368.753" height="326.762" viewBox="0 0 368.753 326.762">
  <g id="illustor_two" data-name="illustor two" transform="translate(-1414.619 -295.443)">
    <g id="Group_1059" data-name="Group 1059" transform="translate(1414.619 295.443)">
      <g id="Background_Simple" data-name="Background Simple" transform="translate(4.797 0)">
        <g id="Background_Simple-2" data-name="Background Simple" transform="translate(0 0)">
          <path id="Path_1613" data-name="Path 1613" d="M162.974,297.571c55.473,8.673,112.886-13.921,143.634-61.431a165.957,165.957,0,0,0,14.759-28.679c12.144-30.429,17.856-65.868,14.485-98.519-3.571-34.556-16.171-72.236-45.871-92.862C262.259-3.17,227.266-3.134,195.753,5.73,171.82,12.454,150.93,24.789,130.9,39.2c-10.358,7.443-20.562,15.141-31.485,21.737s-22.894,10.932-34.364,16.4c-21.118,10.158-40.277,24.6-51.683,45.5-12.9,23.6-10.431,53.45,1.1,77.046C40.841,253.9,105.679,288.616,162.974,297.571Z" transform="translate(-4.704 0.001)" fill="#b7cad9"/>
          <path id="Path_1614" data-name="Path 1614" d="M162.974,297.611c55.473,8.673,112.886-13.93,143.634-61.44a166.212,166.212,0,0,0,14.759-28.67c12.144-30.438,17.856-65.868,14.485-98.528-3.571-34.556-16.171-72.227-45.871-92.853C262.259-3.14,227.266-3.095,195.753,5.761,171.82,12.493,150.93,24.829,130.9,39.232c-10.358,7.443-20.562,15.141-31.485,21.746s-22.894,10.878-34.364,16.4c-21.118,10.158-40.277,24.6-51.683,45.506-12.9,23.587-10.431,53.45,1.1,77.046C40.841,253.926,105.679,288.655,162.974,297.611Z" transform="translate(-4.704 -0.034)" fill="#b7cad9" opacity="0.8"/>
        </g>
      </g>
      <g id="Graphics" transform="translate(12.746 30.111)">
        <g id="Background_details" data-name="Background details" transform="translate(0 0)">
          <path id="Path_1615" data-name="Path 1615" d="M366.7,145.819H228.526a.456.456,0,0,1-.456-.456V50.106a.456.456,0,0,1,.456-.456H366.7a.456.456,0,0,1,.456.456v95.258a.465.465,0,0,1-.456.456Zm-137.721-.911H366.247V50.561H228.981Z" transform="translate(-32.526 -34.527)" fill="#d840e5"/>
          <path id="Path_1616" data-name="Path 1616" d="M365.115,64.54A3.535,3.535,0,1,1,368.65,61a3.535,3.535,0,0,1-3.535,3.535Zm0-6.159A2.624,2.624,0,1,0,367.739,61a2.624,2.624,0,0,0-2.624-2.624Z" transform="translate(-44.403 -35.223)" fill="#263238"/>
          <path id="Path_1617" data-name="Path 1617" d="M356.119,61.052A3.079,3.079,0,1,1,353.039,58a3.079,3.079,0,0,1,3.079,3.052Z" transform="translate(-43.37 -35.27)" fill="#263238"/>
          <path id="Path_1618" data-name="Path 1618" d="M344.007,61.052A3.088,3.088,0,1,1,340.918,58a3.088,3.088,0,0,1,3.088,3.052Z" transform="translate(-42.291 -35.27)" fill="#263238"/>
          <rect id="Rectangle_776" data-name="Rectangle 776" width="119.509" height="66.414" transform="translate(205.684 36.587)" fill="#263238"/>
          <path id="Path_1619" data-name="Path 1619" d="M309.342,128.068h-.137a24.179,24.179,0,1,1,.128-48.358h.146a24.179,24.179,0,1,1-.137,48.358Zm0-47.447a23.268,23.268,0,1,0-.128,46.536h.137a23.268,23.268,0,0,0,.128-46.536Z" transform="translate(-37.598 -37.201)" fill="#fff"/>
          <path id="Path_1620" data-name="Path 1620" d="M306.258,94.54,306.13,116.7l16.244-11.06Z" transform="translate(-39.47 -38.52)" fill="#fff"/>
          <g id="Background_Details-2" data-name="Background Details">
            <path id="Path_1621" data-name="Path 1621" d="M137.487,55.4H25.266a.465.465,0,0,1-.456-.456V37.956a.456.456,0,0,1,.456-.456H137.487a.456.456,0,0,1,.456.456V54.946A.465.465,0,0,1,137.487,55.4ZM25.721,54.491H137.04V38.411H25.721Z" transform="translate(-14.442 -33.446)" fill="#d840e5"/>
            <path id="Path_1622" data-name="Path 1622" d="M39.533,47a3.262,3.262,0,1,1-3.252-3.252A3.261,3.261,0,0,1,39.533,47Z" transform="translate(-15.172 -34.002)" fill="#d840e5"/>
            <path id="Path_1623" data-name="Path 1623" d="M55.363,47A3.262,3.262,0,1,1,52.1,43.75,3.262,3.262,0,0,1,55.363,47Z" transform="translate(-16.58 -34.002)" fill="#d840e5"/>
            <path id="Path_1624" data-name="Path 1624" d="M71.123,47a3.262,3.262,0,1,1-3.252-3.252A3.261,3.261,0,0,1,71.123,47Z" transform="translate(-17.982 -34.002)" fill="#d840e5"/>
            <path id="Path_1625" data-name="Path 1625" d="M152.013,33.961h-7.607a.456.456,0,1,1,0-.911h7.607a.456.456,0,0,1,0,.911Z" transform="translate(-25.042 -33.05)" fill="#d840e5"/>
            <path id="Path_1626" data-name="Path 1626" d="M43.239,63.911H13.886a.456.456,0,1,1,0-.911H43.239a.456.456,0,1,1,0,.911Z" transform="translate(-13.43 -35.715)" fill="#d840e5"/>
          </g>
        </g>
      </g>
      <g id="Plants" transform="translate(0 161.944)">
        <path id="Path_1627" data-name="Path 1627" d="M355.762,327.62a.456.456,0,0,1-.428-.3c-5.922-16.1,2.606-34.92,8.2-44.714,2.05-3.562,4.2-7.07,6.286-10.468,6.213-10.1,12.08-19.66,15.624-31.075,4.5-14.458,5.794-31.886,3.845-51.692a.458.458,0,1,1,.911-.091c1.95,19.961.647,37.471-3.881,52.057-3.58,11.525-9.475,21.118-15.715,31.276-2.086,3.4-4.236,6.9-6.277,10.45-5.53,9.648-13.948,28.2-8.154,43.939a.474.474,0,0,1-.273.592A.465.465,0,0,1,355.762,327.62Z" transform="translate(-31.437 -178.745)" fill="#fff"/>
        <path id="Path_1628" data-name="Path 1628" d="M353.79,331.956s6.815-18.968,15.278-17-14.577,18.858-14.577,18.858Z" transform="translate(-31.478 -189.95)" fill="#fff"/>
        <path id="Path_1629" data-name="Path 1629" d="M356.557,305.691c-.1-.592,1.166-19.851-5.284-19.223s1.157,20.844,4.018,22.329Z" transform="translate(-31.03 -187.427)" fill="#fff"/>
        <path id="Path_1630" data-name="Path 1630" d="M351.961,328.289s-4.947-16.453-10.14-15.205S353.145,332.6,353.145,332.6Z" transform="translate(-30.323 -189.79)" fill="#fff"/>
        <path id="Path_1631" data-name="Path 1631" d="M356.3,310.211s19.8-8.445,19.687-14.9-18.722,11.843-18.722,11.843Z" transform="translate(-31.701 -188.093)" fill="#fff"/>
        <path id="Path_1632" data-name="Path 1632" d="M362.919,292.911s-5.976-20.526-.7-23.222S364.559,290,364.559,290Z" transform="translate(-32.034 -185.916)" fill="#fff"/>
        <path id="Path_1633" data-name="Path 1633" d="M363.2,293.5s22.02-10.632,20.617-16.335S365.6,289.469,365.6,289.469Z" transform="translate(-32.315 -186.501)" fill="#fff"/>
        <path id="Path_1634" data-name="Path 1634" d="M374.19,274.019s-6.487-18.421-2.241-21.245,4.355,17.72,4.355,17.72Z" transform="translate(-32.966 -184.407)" fill="#fff"/>
        <path id="Path_1635" data-name="Path 1635" d="M374.55,274.726s16.49-6.869,16.134-12.882-14.021,9.356-14.021,9.356Z" transform="translate(-33.325 -185.114)" fill="#fff"/>
        <path id="Path_1636" data-name="Path 1636" d="M382.9,258.742s-6.1-14.9-3.325-17.874,4.555,15.242,4.555,15.242Z" transform="translate(-33.708 -183.342)" fill="#fff"/>
        <path id="Path_1637" data-name="Path 1637" d="M384.619,255.63s9.11-15.351,12.672-13.21c4.8,2.87-13.192,14.932-13.192,14.932Z" transform="translate(-34.175 -183.491)" fill="#fff"/>
        <path id="Path_1638" data-name="Path 1638" d="M389.277,241.814S380.549,227.1,384.02,224.7s6.149,13.666,6.149,13.666Z" transform="translate(-34.095 -181.911)" fill="#fff"/>
        <path id="Path_1639" data-name="Path 1639" d="M391.04,236.876c.082-.383,6.45-17.783,11.269-16.572s-12.19,18.421-12.19,18.421Z" transform="translate(-34.71 -181.537)" fill="#fff"/>
        <path id="Path_1640" data-name="Path 1640" d="M392.645,223.1s-2.259-14.358-6.851-13.82,6.851,16.207,6.851,16.207Z" transform="translate(-34.229 -180.56)" fill="#fff"/>
        <path id="Path_1641" data-name="Path 1641" d="M393.914,216.764s4.018-14.531,8.846-14.394-9.11,17.683-9.11,17.683Z" transform="translate(-35.024 -179.946)" fill="#fff"/>
        <path id="Path_1642" data-name="Path 1642" d="M393.251,203.822s-4.774-13.984-9.238-11.843,9.238,15.752,9.238,15.752Z" transform="translate(-34.087 -179.002)" fill="#fff"/>
        <path id="Path_1643" data-name="Path 1643" d="M393.715,196.035s-4.847-16.973-.474-18.221S393.715,196.035,393.715,196.035Z" transform="translate(-34.825 -177.757)" fill="#fff"/>
        <g id="Group_1058" data-name="Group 1058" transform="translate(87.443 95.962)">
          <path id="Path_1661" data-name="Path 1661" d="M109.018,337.058a.455.455,0,0,1-.428-.3,54.862,54.862,0,0,1,6.605-48.777.446.446,0,0,1,.629-.118.465.465,0,0,1,.118.638,53.961,53.961,0,0,0-6.5,47.957.456.456,0,0,1-.282.574.41.41,0,0,1-.146.027Z" transform="translate(-96.842 -283.508)" fill="#fff"/>
          <path id="Path_1662" data-name="Path 1662" d="M108.73,338s11.5-12.372,7.634-15.333S108.73,338,108.73,338Z" transform="translate(-97.119 -286.583)" fill="#fff"/>
          <path id="Path_1663" data-name="Path 1663" d="M106.111,331.634s-4.646-17.118-9.2-13.483S106.111,331.634,106.111,331.634Z" transform="translate(-95.985 -286.164)" fill="#fff"/>
          <path id="Path_1664" data-name="Path 1664" d="M106.11,322.956s11.042-10.24,8.427-13.429S107.021,318.109,106.11,322.956Z" transform="translate(-96.886 -285.394)" fill="#fff"/>
          <path id="Path_1665" data-name="Path 1665" d="M105.924,313.082s1.731-18.776-4.555-17.865S105.924,313.082,105.924,313.082Z" transform="translate(-96.29 -284.166)" fill="#fff"/>
          <path id="Path_1666" data-name="Path 1666" d="M110.4,298.231s13.848-11.716,9.411-14.786S110.4,298.231,110.4,298.231Z" transform="translate(-97.268 -283.09)" fill="#fff"/>
        </g>
        <path id="Path_1673" data-name="Path 1673" d="M78.87,331.21a.465.465,0,0,1-.437-.328c-4.282-14.668-9.11-31.3-20.662-43.01-4.8-4.874-10.65-8.737-16.308-12.463a117.325,117.325,0,0,1-14.157-10.386A59.527,59.527,0,0,1,8.42,229.32a.456.456,0,0,1,.383-.51.465.465,0,0,1,.519.392,58.607,58.607,0,0,0,18.594,35.148,116.918,116.918,0,0,0,14.048,10.295c5.694,3.763,11.588,7.644,16.453,12.59,11.679,11.843,16.572,28.616,20.89,43.393a.446.446,0,0,1-.31.565Z" transform="translate(-0.752 -182.298)" fill="#fff"/>
        <path id="Path_1674" data-name="Path 1674" d="M83.022,335.425s-8.309-16.4-14.577-11.843S83.022,335.425,83.022,335.425Z" transform="translate(-5.988 -190.659)" fill="#fff"/>
        <path id="Path_1675" data-name="Path 1675" d="M79.834,320.475c-.109-.3-2.733-16.235,4.255-18.148S79.834,320.475,79.834,320.475Z" transform="translate(-7.055 -188.828)" fill="#fff"/>
        <path id="Path_1676" data-name="Path 1676" d="M73.16,309.935S58.092,296.27,53.9,301.253,73.16,309.935,73.16,309.935Z" transform="translate(-4.754 -188.646)" fill="#fff"/>
        <path id="Path_1677" data-name="Path 1677" d="M68.541,298.62s-9.976-18.831-3.107-20.954S68.541,298.62,68.541,298.62Z" transform="translate(-5.61 -186.633)" fill="#fff"/>
        <path id="Path_1678" data-name="Path 1678" d="M60.341,291.22s-19.287-11.925-20.708-6.632S60.341,291.22,60.341,291.22Z" transform="translate(-3.523 -187.141)" fill="#fff"/>
        <path id="Path_1679" data-name="Path 1679" d="M52.186,283.094s-11.843-17.31-7.288-19.232C52.186,260.819,52.186,283.094,52.186,283.094Z" transform="translate(-3.905 -185.392)" fill="#fff"/>
        <path id="Path_1680" data-name="Path 1680" d="M38.053,275.711s-18.567-10.987-22.247-5.74S38.053,275.711,38.053,275.711Z" transform="translate(-1.377 -185.834)" fill="#fff"/>
        <path id="Path_1681" data-name="Path 1681" d="M28.924,266.21s-9.356-19.3-4.3-20.216C32.431,244.609,28.924,266.21,28.924,266.21Z" transform="translate(-2.06 -183.822)" fill="#fff"/>
        <path id="Path_1682" data-name="Path 1682" d="M19.25,257.725S3.982,240.078.392,245.808,19.25,257.725,19.25,257.725Z" transform="translate(-0.003 -183.709)" fill="#fff"/>
        <path id="Path_1683" data-name="Path 1683" d="M11.971,241.327s-9.11-18.093-3.252-19.615S11.971,241.327,11.971,241.327Z" transform="translate(-0.604 -181.66)" fill="#fff"/>
        <path id="Path_1695" data-name="Path 1695" d="M327.329,335.729a.483.483,0,0,1-.364-.173c-20.444-26.42,1.7-63.453,1.922-63.827a.458.458,0,1,1,.783.474c-.228.364-22.047,36.851-1.986,62.8a.455.455,0,0,1-.082.638.428.428,0,0,1-.273.091Z" transform="translate(-28.321 -186.097)" fill="#fff"/>
        <path id="Path_1696" data-name="Path 1696" d="M321.113,331.211s-12.162-15.916-16.508-13.328,8.646,12.928,17.474,15.333Z" transform="translate(-27.025 -190.198)" fill="#fff"/>
        <path id="Path_1697" data-name="Path 1697" d="M320.13,322.9c0-.355,2.842-19.414,7.653-17.884s-7.042,20.143-7.042,20.143Z" transform="translate(-28.484 -189.07)" fill="#fff"/>
        <path id="Path_1698" data-name="Path 1698" d="M317.782,312.93s-12.108-15.114-9.42-19.387,9.42,16.6,9.42,16.6Z" transform="translate(-27.402 -188.007)" fill="#fff"/>
        <path id="Path_1699" data-name="Path 1699" d="M319.53,303.652s13.183-9.32,10.641-12.5-10.641,10.3-10.641,10.3Z" transform="translate(-28.43 -187.802)" fill="#fff"/>
        <path id="Path_1700" data-name="Path 1700" d="M321.03,291.738s-6.3-16.891-2.414-20.316,3.435,16.891,3.435,16.891Z" transform="translate(-28.236 -186.055)" fill="#fff"/>
        <path id="Path_1701" data-name="Path 1701" d="M325.55,280.661s15.305-14.522,11.78-17.428S326.935,275.077,325.55,280.661Z" transform="translate(-28.966 -185.328)" fill="#fff"/>
        <g id="Group_1056" data-name="Group 1056" transform="translate(276.715 77.53)" opacity="0.3">
          <path id="Path_1702" data-name="Path 1702" d="M327.329,335.729a.483.483,0,0,1-.364-.173c-20.444-26.42,1.7-63.453,1.922-63.827a.458.458,0,1,1,.783.474c-.228.364-22.047,36.851-1.986,62.8a.455.455,0,0,1-.082.638.428.428,0,0,1-.273.091Z" transform="translate(-305.036 -263.628)" fill="#fff"/>
          <path id="Path_1703" data-name="Path 1703" d="M321.113,331.211s-12.162-15.916-16.508-13.328,8.646,12.928,17.474,15.333Z" transform="translate(-303.74 -267.728)" fill="#fff"/>
          <path id="Path_1704" data-name="Path 1704" d="M320.13,322.9c0-.355,2.842-19.414,7.653-17.884s-7.042,20.143-7.042,20.143Z" transform="translate(-305.199 -266.6)" fill="#fff"/>
          <path id="Path_1705" data-name="Path 1705" d="M317.782,312.93s-12.108-15.114-9.42-19.387,9.42,16.6,9.42,16.6Z" transform="translate(-304.117 -265.537)" fill="#fff"/>
          <path id="Path_1706" data-name="Path 1706" d="M319.53,303.652s13.183-9.32,10.641-12.5-10.641,10.3-10.641,10.3Z" transform="translate(-305.145 -265.332)" fill="#fff"/>
          <path id="Path_1707" data-name="Path 1707" d="M321.03,291.738s-6.3-16.891-2.414-20.316,3.435,16.891,3.435,16.891Z" transform="translate(-304.951 -263.585)" fill="#fff"/>
          <path id="Path_1708" data-name="Path 1708" d="M325.55,280.661s15.305-14.522,11.78-17.428S326.935,275.077,325.55,280.661Z" transform="translate(-305.681 -262.858)" fill="#fff"/>
        </g>
      </g>
      <g id="Character" transform="translate(56.339 25.511)">
        <g id="Character-2" data-name="Character" transform="translate(0 0)">
          <path id="Path_1709" data-name="Path 1709" d="M250.686,335.657c-.984-17.519-1.658-29.645-1.658-29.645-62.624,15.16-96.515-9.192-96.515-9.192s-2.733,17.246-6.213,38.837Z" transform="translate(-68.844 -51.917)" fill="#263238"/>
          <path id="Path_1710" data-name="Path 1710" d="M250.642,336.119H146.256a.474.474,0,0,1-.346-.155.492.492,0,0,1-.1-.374c3.471-21.592,6.213-38.828,6.213-38.828a.456.456,0,0,1,.72-.3c.337.237,34.455,24.042,96.132,9.11a.456.456,0,0,1,.374.082.446.446,0,0,1,.191.337s.674,12.126,1.658,29.654a.474.474,0,0,1-.128.337A.437.437,0,0,1,250.642,336.119Zm-103.858-.911H250.159c-.847-15.1-1.467-26.11-1.6-28.625-57.295,13.666-90.9-5.876-95.741-8.983-.547,3.353-3,18.758-6.022,37.607Z" transform="translate(-68.8 -51.877)" fill="#263238"/>
          <g id="Group_1057" data-name="Group 1057" transform="translate(77.005 244.497)" opacity="0.6">
            <path id="Path_1711" data-name="Path 1711" d="M250.686,335.657c-.984-17.519-1.658-29.645-1.658-29.645-62.624,15.16-96.515-9.192-96.515-9.192s-2.733,17.246-6.213,38.837Z" transform="translate(-145.849 -296.413)" fill="#fff"/>
            <path id="Path_1712" data-name="Path 1712" d="M250.642,336.119H146.256a.474.474,0,0,1-.346-.155.492.492,0,0,1-.1-.374c3.471-21.592,6.213-38.828,6.213-38.828a.456.456,0,0,1,.72-.3c.337.237,34.455,24.042,96.132,9.11a.456.456,0,0,1,.374.082.446.446,0,0,1,.191.337s.674,12.126,1.658,29.654a.474.474,0,0,1-.128.337A.437.437,0,0,1,250.642,336.119Zm-103.858-.911H250.159c-.847-15.1-1.467-26.11-1.6-28.625-57.295,13.666-90.9-5.876-95.741-8.983-.547,3.353-3,18.758-6.022,37.607Z" transform="translate(-145.805 -296.373)" fill="#263238"/>
          </g>
          <path id="Path_1713" data-name="Path 1713" d="M63.806,150.7c-.091,2.824-1.922,5.375-1.986,8.2-.046,2.633,1.439,5.047,1.95,7.634.547,2.779,0,5.639.355,8.445a20.672,20.672,0,0,0,1.5,5.248,8.017,8.017,0,0,0,2.514,3.334c1.822,1.348,4.419,1.294,6.614,1.294a10.13,10.13,0,0,0,6.377-1.822,14.257,14.257,0,0,0,3.316-4.491,9.739,9.739,0,0,0,1.558-4.382,6.815,6.815,0,0,0-.547-2.578c-1.822-4.473-6.377-7.662-7.143-12.417a25.311,25.311,0,0,1,.273-6.14c.173-2.05.064-4.273-1.166-5.913-2.059-2.733-6.86-3.307-10.021-3.3C62.722,143.819,63.915,147.3,63.806,150.7Z" transform="translate(-61.328 -38.304)" fill="#fff"/>
          <path id="Path_1714" data-name="Path 1714" d="M74.08,185.267c-2.132,0-4.491-.064-6.3-1.376a8.363,8.363,0,0,1-2.669-3.507,20.635,20.635,0,0,1-1.494-5.357,24.935,24.935,0,0,1-.128-3.945,21.027,21.027,0,0,0-.228-4.473,20.18,20.18,0,0,0-.911-2.915,14,14,0,0,1-1.075-4.81,14,14,0,0,1,1.02-4.291,13.274,13.274,0,0,0,.975-3.927h0v-1.822c-.073-1.749-.137-3.4.911-4.455a4.145,4.145,0,0,1,3.134-1.02c2.943,0,8.117.428,10.413,3.48,1.1,1.467,1.5,3.453,1.257,6.222q-.073.765-.164,1.531a16.289,16.289,0,0,0-.118,4.5c.419,2.6,2.022,4.7,3.726,6.924a23.431,23.431,0,0,1,3.389,5.4,7.188,7.188,0,0,1,.583,2.733,10.122,10.122,0,0,1-1.613,4.555,14.576,14.576,0,0,1-3.435,4.628,10.368,10.368,0,0,1-6.669,1.922h-.583ZM64.2,150.647a14.085,14.085,0,0,1-1.011,4.227,12.846,12.846,0,0,0-.975,4,12.7,12.7,0,0,0,1.029,4.482,21.445,21.445,0,0,1,.911,3.052,21.756,21.756,0,0,1,.246,4.665,24.161,24.161,0,0,0,.118,3.808,19.741,19.741,0,0,0,1.43,5.12,7.416,7.416,0,0,0,2.36,3.116c1.658,1.212,4.009,1.2,6.077,1.2h.3a9.511,9.511,0,0,0,6.095-1.731,13.957,13.957,0,0,0,3.2-4.355,9.42,9.42,0,0,0,1.5-4.173,6.3,6.3,0,0,0-.519-2.4,22.548,22.548,0,0,0-3.271-5.184c-1.685-2.223-3.435-4.51-3.9-7.334a17.31,17.31,0,0,1,.118-4.756c.055-.5.118-1,.155-1.494.228-2.542-.118-4.327-1.075-5.6-2.132-2.833-7.489-3.1-9.684-3.116a3.343,3.343,0,0,0-2.478.738c-.738.783-.683,2.177-.629,3.79,0,.629.055,1.275,0,1.922Z" transform="translate(-61.28 -38.263)" fill="#263238"/>
          <path id="Path_1715" data-name="Path 1715" d="M70.48,187.487l3.043,24.152s17.2-4.227,22.275-11.005L86.04,179.16" transform="translate(-62.098 -41.449)" fill="#fff"/>
          <path id="Path_1716" data-name="Path 1716" d="M73.48,212.05a.474.474,0,0,1-.264-.082.465.465,0,0,1-.191-.319L70,187.507a.456.456,0,0,1,.392-.51.446.446,0,0,1,.51.392l2.979,23.632c2.815-.738,16.745-4.674,21.364-10.5l-9.666-21.218a.456.456,0,0,1,.228-.6.437.437,0,0,1,.592.264l9.766,21.464a.456.456,0,0,1-.055.456C91,207.732,74.245,211.9,73.58,212.078Z" transform="translate(-62.055 -41.405)" fill="#263238"/>
          <path id="Path_1717" data-name="Path 1717" d="M102.058,201.12l5.466,12.208,56.265-33.107L174.43,166l7.388,17.92-15,35.2a281.807,281.807,0,0,1-36.906,21.865A196.98,196.98,0,0,1,111.1,249.35c-6.131,2.3-12.509,3.854-18.84,5.539a1.886,1.886,0,0,1-1.321,0c-.292-.146-.41-.492-.665-.692-4.628-3.726-16.235-36.952-17.428-47.529Z" transform="translate(-62.309 -40.278)" fill="#263238"/>
          <path id="Path_1718" data-name="Path 1718" d="M260.092,150.15l26.019,37A28.77,28.77,0,0,1,287.6,217.9c-10.021,17.674-26.047,44.641-34.4,52.439,0,0,3.9,7.99,3.307,10.932s-6.095,3.553-6.095,3.553l8.464,14.513S212.964,339.918,148.39,287.2l13.438-47.1-7.115-5.065,28.534-95.34,29.335-3.161,8.919,23.614,9.63-11.342L240.8,160.18Z" transform="translate(-69.03 -37.656)" fill="#263238"/>
          <path id="Path_1719" data-name="Path 1719" d="M268.806,211.338a.454.454,0,0,1-.146-.884c7.908-2.733,15.26-3.936,25.372-4.255a.465.465,0,0,1,.474.437.456.456,0,0,1-.437.474c-10.021.319-17.31,1.54-25.117,4.209Z" transform="translate(-79.703 -43.855)" fill="#fff"/>
          <path id="Path_1720" data-name="Path 1720" d="M242.535,306.921a.446.446,0,0,1-.355-.729,43.42,43.42,0,0,1,17.51-13.665.446.446,0,0,1,.592.237.455.455,0,0,1-.237.6,42.617,42.617,0,0,0-17.127,13.374A.465.465,0,0,1,242.535,306.921Z" transform="translate(-77.365 -51.531)" fill="#fff"/>
          <path id="Path_1721" data-name="Path 1721" d="M105.956,236.993a.437.437,0,0,1-.182,0,.456.456,0,0,1-.237-.592,59.919,59.919,0,0,0,4.236-16.28.474.474,0,0,1,.51-.4.456.456,0,0,1,.4.5,60.985,60.985,0,0,1-4.309,16.526.465.465,0,0,1-.419.246Z" transform="translate(-65.214 -45.057)" fill="#fff"/>
          <path id="Path_1722" data-name="Path 1722" d="M116.692,231.707h0a.465.465,0,0,1-.4-.51,15.87,15.87,0,0,0-2.66-10.668.456.456,0,1,1,.747-.519,16.836,16.836,0,0,1,2.824,11.3.465.465,0,0,1-.51.4Z" transform="translate(-65.929 -45.064)" fill="#fff"/>
          <path id="Path_1723" data-name="Path 1723" d="M175.476,204.249h-.155a.456.456,0,0,1-.273-.583c1.2-3.444,9.11-22.539,11.98-29.363a.455.455,0,0,1,.838.355c-2.842,6.632-10.787,25.928-11.953,29.281a.446.446,0,0,1-.437.31Z" transform="translate(-71.399 -40.992)" fill="#fff"/>
          <path id="Path_1724" data-name="Path 1724" d="M234.187,258.847a.456.456,0,0,1-.446-.346L230.7,247.159l-47.72-28.242a.457.457,0,1,1,.456-.793l47.884,28.324a.474.474,0,0,1,.21.273l2.2,8.2v-9.775a.492.492,0,0,1,.1-.292L254.239,219.7a.456.456,0,0,1,.638-.064.446.446,0,0,1,.064.638l-20.3,25.063v13.082a.455.455,0,0,1-.4.446Z" transform="translate(-72.087 -44.91)" fill="#fff"/>
          <path id="Path_1725" data-name="Path 1725" d="M236.222,294.208a.52.52,0,0,1-.228-.055l-55.354-30.975a.456.456,0,0,1,.446-.793l55.108,30.793,13.082-9.238a.456.456,0,0,1,.638.109.446.446,0,0,1-.109.629l-13.283,9.447a.474.474,0,0,1-.3.082Z" transform="translate(-71.88 -48.849)" fill="#fff"/>
          <ellipse id="Ellipse_28" data-name="Ellipse 28" cx="51.801" cy="52.785" rx="51.801" ry="52.785" transform="translate(11.37 53.878)" fill="#263238"/>
          <circle id="Ellipse_29" data-name="Ellipse 29" cx="49.988" cy="49.988" r="49.988" transform="translate(16.645 53.377)" fill="#d840e5"/>
          <path id="Path_1726" data-name="Path 1726" d="M129.493,186.968a50.444,50.444,0,1,1,50.435-50.438,50.446,50.446,0,0,1-50.435,50.438Zm0-99.968a49.533,49.533,0,1,0,49.524,49.53A49.535,49.535,0,0,0,129.493,87Z" transform="translate(-62.86 -33.168)" fill="#263238"/>
          <path id="Path_1727" data-name="Path 1727" d="M112.71,120.44l15.524,43.748,31.34-34.71Z" transform="translate(-65.856 -36.225)" fill="#fff"/>
          <path id="Path_1728" data-name="Path 1728" d="M177.073,125.619a.456.456,0,0,1-.446-.346,39.4,39.4,0,0,0-21.382-26.548.456.456,0,1,1,.4-.82,40.322,40.322,0,0,1,21.865,27.158.465.465,0,0,1-.337.547Z" transform="translate(-69.617 -34.216)" fill="#fff"/>
          <path id="Path_1729" data-name="Path 1729" d="M149.7,96.593h-.146a39.448,39.448,0,0,0-8.955-1.922.465.465,0,0,1-.41-.5.456.456,0,0,1,.5-.41,40.614,40.614,0,0,1,9.11,1.968.446.446,0,0,1,.292.574A.455.455,0,0,1,149.7,96.593Z" transform="translate(-68.3 -33.851)" fill="#fff"/>
          <path id="Path_1730" data-name="Path 1730" d="M169.605,209.172s-9.657,19.97-16.854,22.147L141.928,217.5l-9.11-11.643-2.314-2.879h0l-.055-.1-9.73-17.565-1.1-1.986-.328-1.439-.774-3.389-.055-.246.146-.4,1.822-5.074,3.252-3.744v-.137l1.175-5.995.128-.638,3.1-1.922h0c-.219-.592-2.505-7.106-.72-10.932a4.282,4.282,0,0,1,1.822-2,5.139,5.139,0,0,1,1.139-.465,2.023,2.023,0,0,1,.292-.428c.282-.319.774-.565,1.348.255h0a4.9,4.9,0,0,1,.62,1.294c.1.255.2.547.3.856.046.146.082.3.128.456l.155.5c.109.355.228.729.346,1.084,1.676,5.22,4.819,14.075,5.047,14.7l7.571,2.487.911.3.446,1.221,2.642,7.224.173.474.082.583,1.676,13.866.064.073,14.312,14.094Z" transform="translate(-66.367 -38.518)" fill="#fff"/>
          <path id="Path_1731" data-name="Path 1731" d="M172.357,212.138a.455.455,0,0,1-.31-.118c-12.809-11.98-18.394-17.938-18.448-18a.465.465,0,0,1-.118-.264l-.856-8.773a51.017,51.017,0,0,0-1.968-9.475,10.786,10.786,0,0,0-2.733-4.92c-1.485-1.4-3.362-1.749-5.357-2.114-.738-.137-1.5-.282-2.25-.483a.471.471,0,1,1,.237-.911c.711.191,1.458.328,2.186.456,2.032.383,4.136.765,5.812,2.35a11.725,11.725,0,0,1,2.961,5.32,51.356,51.356,0,0,1,2,9.648l.847,8.618c.82.911,6.468,6.787,18.294,17.847a.456.456,0,0,1-.31.784Z" transform="translate(-68.28 -40.373)" fill="#263238"/>
          <path id="Path_1732" data-name="Path 1732" d="M142.325,173.749a.465.465,0,0,1-.428-.282c-.966-2.369-1.95-4.865-3-7.644h0c-.374-.911-.729-1.922-1.093-2.9-1.485-3.99-2.733-8.035-3.963-11.843-.118-.355-.237-.729-.346-1.093v-.128a3.207,3.207,0,0,1-.118-.392l-.474-1.458-.064-.2a2.077,2.077,0,0,0-.392-.738l-.046-.055a.72.72,0,0,0-.838-.091,1.914,1.914,0,0,0-.528.246,4.847,4.847,0,0,0-.738.547,5.812,5.812,0,0,0-1.449,1.913l-.091.21c-.993,2.414-.437,5.366,0,7.525.173.911.355,1.877.565,2.806h0c.911,4.218,2.068,8.3,3.1,11.743a.465.465,0,0,1-.31.565.446.446,0,0,1-.565-.31c-1.029-3.453-2.2-7.552-3.116-11.843h0c-.21-.911-.392-1.877-.574-2.833-.419-2.268-.993-5.375.091-8.044l.109-.228A6.541,6.541,0,0,1,129.671,147a5.584,5.584,0,0,1,.911-.647,3.035,3.035,0,0,1,.729-.346,2.051,2.051,0,0,1,.647-.118,1.594,1.594,0,0,1,1.157.483l.055.073a2.969,2.969,0,0,1,.565,1.048l.538,1.676a1.267,1.267,0,0,0,.109.374l.046.137c.1.355.228.72.346,1.075,1.184,3.79,2.46,7.817,3.945,11.843.355.966.72,1.931,1.084,2.888h0c1.048,2.733,2.023,5.257,2.988,7.616a.465.465,0,0,1-.246.592A.655.655,0,0,1,142.325,173.749Z" transform="translate(-67.156 -38.489)" fill="#263238"/>
          <path id="Path_1733" data-name="Path 1733" d="M125.234,176.821a.446.446,0,0,1-.437-.328,27.03,27.03,0,0,1-1.121-6.2,11.488,11.488,0,0,1,1.2-6.122l.073-.137a5.211,5.211,0,0,1,3.134-2.141.472.472,0,0,1,.246.911,4.309,4.309,0,0,0-2.606,1.74l-.064.118a10.5,10.5,0,0,0-1.048,5.612,26.11,26.11,0,0,0,1.084,5.986.456.456,0,0,1-.31.565A.328.328,0,0,1,125.234,176.821Z" transform="translate(-66.828 -39.912)" fill="#263238"/>
          <path id="Path_1734" data-name="Path 1734" d="M152,232.327a.474.474,0,0,1-.355-.173L130.1,205.443a.182.182,0,0,1-.064-.082,174.328,174.328,0,0,1-9.8-17.692c-.6-1.3-1.066-2.432-1.439-3.453a22.53,22.53,0,0,1-.847-2.733.52.52,0,0,1,0-.118,3.4,3.4,0,0,1,.055-.747,6.182,6.182,0,0,1,.1-.683,15.078,15.078,0,0,1,1.822-5.211,11.333,11.333,0,0,1,3.407-3.9.465.465,0,0,1,.629.137.456.456,0,0,1-.137.638,10.586,10.586,0,0,0-3.1,3.571,14.577,14.577,0,0,0-1.74,4.92,5.682,5.682,0,0,0-.082.629,2.413,2.413,0,0,1-.055.629,23.3,23.3,0,0,0,.8,2.56c.364.993.82,2.1,1.412,3.389a174.074,174.074,0,0,0,9.684,17.51.519.519,0,0,1,.064.109l21.519,26.666a.446.446,0,0,1-.064.638A.465.465,0,0,1,152,232.327Z" transform="translate(-66.321 -40.701)" fill="#263238"/>
          <path id="Path_1735" data-name="Path 1735" d="M175.728,211.9a44.877,44.877,0,0,1-4.655,9.338,208.71,208.71,0,0,1-17.1,22.411c-6.514-5.94-15.542-19.733-15.542-19.733,4.473-2.733,11.634-10.677,15.661-15.779,3.872-4.892,6.66-9.047,6.66-9.047Z" transform="translate(-68.144 -43.222)" fill="#fff"/>
          <path id="Path_1736" data-name="Path 1736" d="M153.928,244.068a.437.437,0,0,1-.31-.128c-6.477-5.913-15.488-19.678-15.615-19.815a.483.483,0,0,1-.064-.355.456.456,0,0,1,.2-.282c4.555-2.8,11.78-10.932,15.551-15.679s6.605-8.983,6.632-9.019A.446.446,0,0,1,161,198.7l14.977,12.809a.455.455,0,0,1,.137.492,45.205,45.205,0,0,1-4.7,9.438,210.47,210.47,0,0,1-17.146,22.475.419.419,0,0,1-.31.146Zm-14.914-20.043c1.485,2.223,9.11,13.52,14.877,18.95a207.9,207.9,0,0,0,16.754-22,44.577,44.577,0,0,0,4.5-8.965l-14.376-12.29c-.811,1.184-3.262,4.7-6.377,8.655-3.644,4.683-10.732,12.572-15.378,15.633Z" transform="translate(-68.099 -43.177)" fill="#263238"/>
          <path id="Path_1737" data-name="Path 1737" d="M177.154,211.9c-1.084,3.143-4.856,8.546-6.787,11.57L154.46,209.576c3.872-4.892,7.716-10.486,7.716-10.486Z" transform="translate(-69.57 -43.222)" opacity="0.1"/>
          <path id="Path_1738" data-name="Path 1738" d="M63.924,146.71c-.091-1.367-.128-3,.328-3.553a5.166,5.166,0,0,1,1.74-1.23c6.241-3.262,12.49-6.514,18.94-9.347a1.866,1.866,0,0,1,1.822-.109,1.54,1.54,0,0,1,.4,1.458,8.491,8.491,0,0,1-2.287,4.373,20.681,20.681,0,0,1-5.612,4.473,20.765,20.765,0,0,0-2.1,1.2,19.807,19.807,0,0,0-2.369,2.259,19.129,19.129,0,0,1-1.822,1.631" transform="translate(-61.51 -37.277)" fill="#fff"/>
          <path id="Path_1739" data-name="Path 1739" d="M72.889,148.279a.456.456,0,0,1-.282-.811,19.638,19.638,0,0,0,1.777-1.594l.547-.565a12.646,12.646,0,0,1,1.877-1.74,12.978,12.978,0,0,1,1.631-.966l.51-.273a19.925,19.925,0,0,0,5.466-4.373A7.935,7.935,0,0,0,86.6,133.83c0-.237.064-.82-.228-1.048s-.911,0-1.321.164c-6.432,2.833-12.754,6.14-18.913,9.338a5.029,5.029,0,0,0-1.594,1.121c-.155.191-.392.911-.228,3.225a.446.446,0,0,1-.419.483.456.456,0,0,1-.492-.419c-.146-2.123,0-3.316.428-3.863a5.667,5.667,0,0,1,1.931-1.357c6.149-3.2,12.508-6.514,18.959-9.356a2.2,2.2,0,0,1,2.241-.055,1.941,1.941,0,0,1,.583,1.886,8.719,8.719,0,0,1-2.405,4.61,21.118,21.118,0,0,1-5.73,4.555l-.519.282a12.485,12.485,0,0,0-1.531.911,12.754,12.754,0,0,0-1.749,1.631l-.556.574a20.045,20.045,0,0,1-1.822,1.667A.41.41,0,0,1,72.889,148.279Z" transform="translate(-61.464 -37.234)" fill="#263238"/>
          <path id="Path_1740" data-name="Path 1740" d="M69.88,147.739a8.69,8.69,0,0,1,1.385-.565c4.555-1.376,9.52-1.048,14.121-2.341,2.323-.656,4.555-1.731,7.015-1.713.729,0,1.722.3,1.64,1.212s-.711,1.275-1.193,1.822a20.588,20.588,0,0,1-1.713,1.822,15.2,15.2,0,0,1-4.291,2.642,37.355,37.355,0,0,1-7.106,1.676c-2.332.446-4.555,1.166-6.842,1.822-.565.164-1.139.31-1.722.428" transform="translate(-62.045 -38.243)" fill="#fff"/>
          <path id="Path_1741" data-name="Path 1741" d="M71.126,154.983a.456.456,0,0,1-.446-.364.465.465,0,0,1,.355-.537c.51-.1,1.048-.228,1.685-.419l1.385-.4c1.822-.528,3.644-1.066,5.466-1.43l1.558-.282a25.837,25.837,0,0,0,5.466-1.376,14.459,14.459,0,0,0,4.163-2.56,12.7,12.7,0,0,0,1.221-1.294l.456-.519.3-.319a2.25,2.25,0,0,0,.774-1.23.492.492,0,0,0-.109-.383,1.576,1.576,0,0,0-1.075-.337,15.159,15.159,0,0,0-4.938,1.084c-.647.21-1.3.428-1.959.619a42.456,42.456,0,0,1-6.96,1.13,39.529,39.529,0,0,0-7.143,1.2,8.318,8.318,0,0,0-1.321.528.446.446,0,0,1-.61-.2.456.456,0,0,1,.2-.61,9.329,9.329,0,0,1,1.467-.592,39.631,39.631,0,0,1,7.288-1.23,42.009,42.009,0,0,0,6.815-1.111c.647-.182,1.275-.392,1.913-.6a16.125,16.125,0,0,1,5.229-1.13,2.478,2.478,0,0,1,1.749.638,1.412,1.412,0,0,1,.346,1.075,2.943,2.943,0,0,1-1.029,1.777c-.091.1-.191.2-.273.3s-.3.337-.446.51a15.286,15.286,0,0,1-1.3,1.376,15.488,15.488,0,0,1-4.428,2.733,27.413,27.413,0,0,1-5.658,1.43l-1.54.273c-1.822.355-3.644.911-5.412,1.412l-1.385.4c-.656.191-1.23.337-1.758.437Z" transform="translate(-61.998 -38.198)" fill="#263238"/>
          <path id="Path_1742" data-name="Path 1742" d="M68.92,155.036a8.136,8.136,0,0,1,3.17-1.558,24.079,24.079,0,0,1,6.623,0,65.651,65.651,0,0,0,11.588-.1,5.184,5.184,0,0,1,1.877.046c3.58,1.02-1.248,4.491-2.6,5.084-5.311,2.3-11.6,2.414-17.31,2.268" transform="translate(-61.96 -39.144)" fill="#fff"/>
          <path id="Path_1743" data-name="Path 1743" d="M75.083,161.249H72.24a.456.456,0,0,1-.446-.465.474.474,0,0,1,.465-.446c5.858.146,11.989,0,17.1-2.232,1.084-.474,3.644-2.432,3.644-3.5,0-.31-.337-.556-.957-.729a4.474,4.474,0,0,0-1.676,0,67.024,67.024,0,0,1-11.707.1l-.865-.073a20.044,20.044,0,0,0-5.63,0,7.689,7.689,0,0,0-2.979,1.467.446.446,0,0,1-.638-.073.456.456,0,0,1,.073-.638,8.546,8.546,0,0,1,3.334-1.685,20.954,20.954,0,0,1,5.894-.055l.856.073a65.6,65.6,0,0,0,11.506-.091,5.348,5.348,0,0,1,2.05.055c1.285.364,1.594,1.039,1.622,1.54.128,1.822-3.4,4.063-4.163,4.391C85.277,160.821,80.157,161.249,75.083,161.249Z" transform="translate(-61.918 -39.098)" fill="#263238"/>
          <path id="Path_1744" data-name="Path 1744" d="M76.23,161.87s7.58,9.976,2.059,19.578" transform="translate(-62.61 -39.911)" fill="#fff"/>
          <path id="Path_1745" data-name="Path 1745" d="M78.244,181.859a.5.5,0,0,1-.228-.064.465.465,0,0,1-.173-.62c5.311-9.22-1.95-18.977-2.022-19.077a.456.456,0,0,1,.091-.638.446.446,0,0,1,.638.091c.073.1,7.7,10.331,2.086,20.043A.446.446,0,0,1,78.244,181.859Z" transform="translate(-62.566 -39.866)" fill="#263238"/>
          <path id="Path_1746" data-name="Path 1746" d="M104.323,207.047s-3,4.865-12.5,8.655a63.444,63.444,0,0,1-18.275,4.009L70.76,200.132s6.1,1.093,14.987-2.669a47.119,47.119,0,0,0,9.4-5.4Z" transform="translate(-62.123 -42.597)" fill="#fff"/>
          <path id="Path_1747" data-name="Path 1747" d="M73.5,220.122a.455.455,0,0,1-.446-.392l-2.788-19.569a.446.446,0,0,1,.128-.392.5.5,0,0,1,.4-.128c.064,0,6.086,1.029,14.731-2.633a47.065,47.065,0,0,0,9.311-5.357.446.446,0,0,1,.355-.073.465.465,0,0,1,.3.21l9.147,14.977a.446.446,0,0,1,0,.474c-.128.2-3.18,5.038-12.754,8.846a64.511,64.511,0,0,1-18.412,4.036Zm-2.25-19.505L73.9,219.174a63.28,63.28,0,0,0,17.72-3.936c8.072-3.225,11.4-7.288,12.117-8.254l-8.755-14.312a48.211,48.211,0,0,1-9.11,5.166C78.478,200.972,73.03,200.79,71.253,200.616Z" transform="translate(-62.079 -42.553)" fill="#263238"/>
          <path id="Path_1748" data-name="Path 1748" d="M105.786,207.048s-3,4.865-12.5,8.655L87.21,197.482a47.118,47.118,0,0,0,9.4-5.4Z" transform="translate(-63.587 -42.598)" opacity="0.1"/>
          <path id="Path_1749" data-name="Path 1749" d="M255.053,92.31s2.223,1.111,4.446-2.669,4.136-14.1-.729-14.977c-6.6-3.216-8.819,1.439-8.819,1.439l-4.009-14.422s-1.111-13.319-9.548-12.208S223.076,59.9,223.076,59.9l-22.858.911-.683,12.818s-3.772-2.66-4.883.674-1.111,14.422,8.2,17.975c0,0,3.644,16.535,14.813,25.573l5.466.319-1.2,12.946a21.783,21.783,0,0,0,12.864,11.315c9.329,2.888,17.947-15.269,17.947-15.269S252.958,104.728,255.053,92.31Z" transform="translate(-73.101 -29.905)" fill="#fff"/>
          <path id="Path_1750" data-name="Path 1750" d="M208.19,62.86a38.9,38.9,0,0,0,13.228,5.366,17.974,17.974,0,0,0,13.666-2.842,35.53,35.53,0,0,0,.911,9.429,11.308,11.308,0,0,0,5.375,7.161c.3,3.644.638,7.334.911,11.005.246,3.1.383,7.088-.838,9.939a19.833,19.833,0,0,1-6.514,8.545c-3.006,2.232-5.466,3.061-9.876,5.949-.319.21-.164.966.1.692a21.92,21.92,0,0,0,11.607-4.6s7.534,14.649,7.735,25.846l9.52-12.135s-.565-25.873,2.688-35.057c0,0,4.683.182,5.9-8.573s-4.072-9.566-4.072-9.566S240.422,47.363,235.949,49.8,208.19,62.86,208.19,62.86Z" transform="translate(-74.35 -29.927)" fill="#b7cad9"/>
          <path id="Path_1751" data-name="Path 1751" d="M208.19,62.86a38.9,38.9,0,0,0,13.228,5.366,17.974,17.974,0,0,0,13.666-2.842,35.53,35.53,0,0,0,.911,9.429,11.308,11.308,0,0,0,5.375,7.161c.3,3.644.638,7.334.911,11.005.246,3.1.383,7.088-.838,9.939a19.833,19.833,0,0,1-6.514,8.545c-3.006,2.232-5.466,3.061-9.876,5.949-.319.21-.164.966.1.692a21.92,21.92,0,0,0,11.607-4.6s7.534,14.649,7.735,25.846l9.52-12.135s-.565-25.873,2.688-35.057c0,0,4.683.182,5.9-8.573s-4.072-9.566-4.072-9.566S240.422,47.363,235.949,49.8,208.19,62.86,208.19,62.86Z" transform="translate(-75.1 -28.761)" fill="#fff" opacity="0.5"/>
          <path id="Path_1752" data-name="Path 1752" d="M202.064,94.066h-.109c-4.255-.984-7.188-4.2-8.245-9.047-.966-4.428-.1-9.265,1.257-10.313a2.032,2.032,0,0,1,1.64-.41c2.032.346,4.027,3.4,4.109,3.535a.446.446,0,0,1-.137.629.456.456,0,0,1-.629-.137c-.51-.793-2.141-2.9-3.5-3.125a1.1,1.1,0,0,0-.911.228c-.911.683-1.868,5.029-.911,9.4.692,3.17,2.569,7.188,7.562,8.354a.446.446,0,0,1,.337.547A.455.455,0,0,1,202.064,94.066Z" transform="translate(-73.025 -32.117)" fill="#263238"/>
          <path id="Path_1753" data-name="Path 1753" d="M267.807,151.768v.091a62.2,62.2,0,0,1-6.605,7.407h0c-.364.355-.747.711-1.121,1.048A78.667,78.667,0,0,1,243.4,172.066l-.137.073L239.21,147.9h0a56.557,56.557,0,0,0,15.178-12.754l.292-.319a28.808,28.808,0,0,0,2.032-2.186c1.111-1.722.911-.975.911-.975l-.729-3.453-.383-1.767c.137.064.282.128.41.2C267.835,134.449,268.053,150.365,267.807,151.768Z" transform="translate(-77.11 -36.759)" fill="#fff"/>
          <path id="Path_1754" data-name="Path 1754" d="M243.211,172.583a.419.419,0,0,1-.21-.055.456.456,0,0,1-.246-.328l-4.036-24.261a.437.437,0,0,1,.118-.392.656.656,0,0,1,.228-.146,93.189,93.189,0,0,0,14.431-12.08l1.02-1.093a45.647,45.647,0,0,0,3.79-4.355.465.465,0,0,1,.638-.1.446.446,0,0,1,.109.629,48.226,48.226,0,0,1-3.872,4.455c-.346.364-.692.729-1.011,1.084a95.1,95.1,0,0,1-14.5,12.153l3.863,23.3a146.331,146.331,0,0,0,16.18-11.443c.383-.31.756-.638,1.121-.957,3.271-2.852,5.466-5.33,6.487-7.361.374-1.485-1.075-16.645-10.331-24.6a.456.456,0,1,1,.592-.692c9.73,8.327,11.023,23.86,10.613,25.509a.508.508,0,0,1,0,.109c-1.111,2.2-3.371,4.774-6.723,7.7-.364.328-.756.656-1.139.975a147.814,147.814,0,0,1-16.754,11.853l-.164.1a.537.537,0,0,1-.2,0Z" transform="translate(-77.065 -36.74)" fill="#263238"/>
          <path id="Path_1755" data-name="Path 1755" d="M237.029,148.229,226.306,172.49s-11.333-15.151-11.616-27.723c1.631-6.787,3.4-10.568,10.4-14.677l-.793,4.892S225.6,146.58,237.029,148.229Z" transform="translate(-74.928 -37.083)" fill="#fff"/>
          <path id="Path_1756" data-name="Path 1756" d="M226.261,172.921a.474.474,0,0,1-.374-.191c-.1-.155-10.45-15.387-11.7-27.923a.3.3,0,0,1,0-.128c2.314-12.49,10.085-14.577,10.422-14.64a.446.446,0,0,1,.547.328.465.465,0,0,1-.328.556c-.082,0-7.516,2.032-9.73,13.857,1.1,10.787,9.11,23.687,11.087,26.739l10.231-23.158a54.344,54.344,0,0,1-13.292-14.64.454.454,0,1,1,.774-.474,52.357,52.357,0,0,0,13.365,14.577.465.465,0,0,1,.164.565l-10.75,24.27a.446.446,0,0,1-.374.264Z" transform="translate(-74.883 -37.077)" fill="#263238"/>
          <path id="Path_1757" data-name="Path 1757" d="M269.245,151.659v.091c-1.175,2.3-3.644,4.92-6.587,7.5v-.082h0c-1.376-11.989-7.288-23.5-7.288-23.5l3.535-4.1-.465-5.1C267.933,135.215,269.491,150.256,269.245,151.659Z" transform="translate(-78.547 -36.76)" opacity="0.12"/>
          <path id="Path_1758" data-name="Path 1758" d="M225.325,134.725a.246.246,0,0,1-.118,0,.437.437,0,0,1-.319-.556,26.21,26.21,0,0,0,.547-9.211.455.455,0,1,1,.9-.128,26.666,26.666,0,0,1-.574,9.575A.446.446,0,0,1,225.325,134.725Z" transform="translate(-75.834 -36.58)" fill="#263238"/>
          <path id="Path_1759" data-name="Path 1759" d="M258.857,129.828a.456.456,0,0,1-.456-.437c-1.011-21.008,2.287-33.125,2.314-33.244a.457.457,0,0,1,.884.237c0,.118-3.289,12.117-2.287,32.961a.465.465,0,0,1-.437.483Z" transform="translate(-78.8 -34.034)" fill="#263238"/>
          <path id="Path_1760" data-name="Path 1760" d="M220.661,97.472a7.288,7.288,0,0,1-1.64-.228c-1.5-.355-3.307-.966-3.927-2.587a4.136,4.136,0,0,1,.811-3.808,14.023,14.023,0,0,1,1.029-1.257,11.842,11.842,0,0,0,1.2-1.549c1.449-2.35,1.039-5.339.446-8.445a.456.456,0,0,1,.364-.528.437.437,0,0,1,.528.355c.6,3.161,1.057,6.468-.565,9.11a12.328,12.328,0,0,1-1.294,1.667,12.908,12.908,0,0,0-.975,1.184,3.435,3.435,0,0,0-.692,2.961c.465,1.221,2,1.722,3.28,2.022a3.353,3.353,0,0,0,2.5-.064.456.456,0,1,1,.483.774,2.861,2.861,0,0,1-1.549.392Z" transform="translate(-74.95 -32.543)" fill="#263238"/>
          <path id="Path_1761" data-name="Path 1761" d="M214.4,81.106c.082,1.7-.6,3.116-1.521,3.161s-1.722-1.312-1.822-3.016.6-3.116,1.521-3.152S214.33,79.4,214.4,81.106Z" transform="translate(-74.604 -32.458)" fill="#263238"/>
          <path id="Path_1762" data-name="Path 1762" d="M234.963,80.615c.082,1.7-.6,3.116-1.521,3.161s-1.722-1.312-1.822-3.016.6-3.116,1.521-3.161S234.89,78.875,234.963,80.615Z" transform="translate(-76.433 -32.413)" fill="#263238"/>
          <path id="Path_1763" data-name="Path 1763" d="M225.414,106.059a11.069,11.069,0,0,1-4.883-1,.465.465,0,0,1-.118-.629.456.456,0,0,1,.629-.128,11.515,11.515,0,0,0,6.605.629,9.52,9.52,0,0,0,6.213-4.373.456.456,0,1,1,.756.5,10.413,10.413,0,0,1-6.815,4.774A12.217,12.217,0,0,1,225.414,106.059Z" transform="translate(-75.431 -34.435)" fill="#263238"/>
          <path id="Path_1764" data-name="Path 1764" d="M226.226,70.614a.474.474,0,0,1-.364-.191.456.456,0,0,1,.118-.647c3.972-2.915,6.7-3.034,10.8-.446a.446.446,0,0,1,.146.629.456.456,0,0,1-.629.146c-3.8-2.4-6.086-2.3-9.775.41A.492.492,0,0,1,226.226,70.614Z" transform="translate(-75.914 -31.514)" fill="#263238"/>
          <path id="Path_1765" data-name="Path 1765" d="M207.825,72.416a.519.519,0,0,1-.3-.1.474.474,0,0,1-.055-.647,6.514,6.514,0,0,1,8.4-1.111.465.465,0,0,1,.109.638.446.446,0,0,1-.629.109,5.557,5.557,0,0,0-7.179.911.474.474,0,0,1-.346.2Z" transform="translate(-74.277 -31.693)" fill="#263238"/>
          <path id="Path_1766" data-name="Path 1766" d="M221,119.856a22.139,22.139,0,0,1-2.788-.155.474.474,0,0,1-.21-.091c-.246-.191-6.149-4.81-10.869-14.376-8.035-16.28-6.5-39.812-6.477-40.086a.457.457,0,1,1,.911.064c0,.228-1.54,23.523,6.377,39.575a43.547,43.547,0,0,0,10.513,13.984,28.3,28.3,0,0,0,9.5-.7c5.894-1.439,11.488-6.049,15.141-9.666a.437.437,0,0,1,.638,0,.456.456,0,0,1,0,.647c-3.735,3.7-9.466,8.418-15.56,9.9A30.765,30.765,0,0,1,221,119.856Z" transform="translate(-73.668 -31.268)" fill="#263238"/>
          <path id="Path_1767" data-name="Path 1767" d="M247.535,112.16a.52.52,0,0,1-.228-.055.465.465,0,0,1-.173-.619c4.555-8.072,5.466-13.246,5.512-13.292a.465.465,0,0,1,.538-.364.456.456,0,0,1,.364.528c-.046.219-1.029,5.348-5.621,13.574A.456.456,0,0,1,247.535,112.16Z" transform="translate(-77.81 -34.213)" fill="#263238"/>
          <path id="Path_1768" data-name="Path 1768" d="M260.31,95.019a3.854,3.854,0,0,1-3.535-1.676.457.457,0,0,1,.8-.437c.046.064,1.066,1.822,4.473.911,2.114-.528,4.6-6.313,4.674-10.86,0-1.758-.3-4.81-2.733-5.466-5.648-1.585-8.618,6.714-8.646,6.805a.456.456,0,0,1-.856-.3c0-.091,3.28-9.2,9.748-7.379,2.268.638,3.48,2.906,3.435,6.377-.073,4.7-2.56,11.033-5.366,11.734A8,8,0,0,1,260.31,95.019Z" transform="translate(-78.468 -32.305)" fill="#263238"/>
          <path id="Path_1769" data-name="Path 1769" d="M250.785,78.113c-.692,1.476-3.389.173-4.382-1.111a3.79,3.79,0,0,1,0-4.555c-2.1-.61-4.473-1.567-5.375-3.562a6.678,6.678,0,0,1-.4-3.17c.191-2.924.911-5.84.61-8.755s-2.1-5.976-4.992-6.514c0,0-10.021,17.947-28.925,10.7,0,0-8.427,4.018-12.263-2.879S196.4,44.1,207.128,39.495c0,0-6.705-.191-6.514-3.644s16.481-4.409,27.978-1.913c0,0-1.357-6.049,12.827-4.327s18.795,5.794,20.535,15.67C272.349,50.946,260.67,74.3,260.67,74.3S255.176,68.8,250.785,78.113Z" transform="translate(-73.069 -28.117)" fill="#263238"/>
          <path id="Path_1770" data-name="Path 1770" d="M199.357,61.47a14.786,14.786,0,0,0-1.111,12.372L201.17,78.4l-.456-15.488Z" transform="translate(-73.388 -30.979)" fill="#263238"/>
          <path id="Path_1771" data-name="Path 1771" d="M267.1,47h-.146a.455.455,0,0,1-.292-.574c3.863-11.843-4.382-17.355-4.728-17.583a.446.446,0,0,1-.137-.629.456.456,0,0,1,.629-.137c.091.064,9.183,6.149,5.1,18.631A.446.446,0,0,1,267.1,47Z" transform="translate(-79.113 -28.001)" fill="#263238"/>
          <path id="Path_1772" data-name="Path 1772" d="M204.369,57.673a12.262,12.262,0,0,1-7.6-2.4.456.456,0,1,1,.556-.72c2.824,2.214,7.079,2.806,11.4,1.585,3.735-1.057,7.124-3.216,10.395-5.3l.437-.282c3.644-2.323,7.288-4.482,11.26-5.348a18.776,18.776,0,0,1,14.267,2.733c2.032,1.357,3.107,2.861,3.18,4.482a.465.465,0,0,1-.437.483.437.437,0,0,1-.474-.437c-.064-1.321-.993-2.587-2.733-3.763a18.111,18.111,0,0,0-13.574-2.569c-3.863.838-7.288,2.861-10.932,5.22l-.437.282c-3.334,2.123-6.778,4.327-10.641,5.412A16.7,16.7,0,0,1,204.369,57.673Z" transform="translate(-73.316 -29.496)" fill="#fff"/>
          <path id="Path_1773" data-name="Path 1773" d="M253.023,46.492a.446.446,0,0,1-.437-.328,11.342,11.342,0,0,0-7.224-7.188c-3.143-1.13-6.924-1.275-11.579-.446-1.822.319-3.644.747-5.4,1.166-2.05.492-4.173.993-6.3,1.33-3.17.492-7.434.483-9.666-2.423a.456.456,0,1,1,.72-.556c1.968,2.551,5.876,2.533,8.81,2.077,2.1-.328,4.2-.829,6.231-1.312,1.822-.419,3.644-.856,5.466-1.184,4.819-.847,8.755-.692,12.044.492a12.208,12.208,0,0,1,7.8,7.8.446.446,0,0,1-.31.556A.328.328,0,0,1,253.023,46.492Z" transform="translate(-74.715 -28.81)" fill="#fff"/>
        </g>
      </g>
      <g id="Progess_Bar" data-name="Progess Bar" transform="translate(27.123 293.341)">
        <g id="Progress_Bar" data-name="Progress Bar" transform="translate(0)">
          <path id="Path_1774" data-name="Path 1774" d="M340.592,344.61H32.335a3.125,3.125,0,0,1-3.125-3.125h0a3.134,3.134,0,0,1,3.125-3.125H340.592a3.125,3.125,0,0,1,3.125,3.125h0a3.116,3.116,0,0,1-3.125,3.125Z" transform="translate(-29.21 -323.443)" fill="#263238"/>
          <path id="Path_1775" data-name="Path 1775" d="M339.163,342.2H33.056a.456.456,0,0,1,0-.911H339.163a.456.456,0,1,1,0,.911Z" transform="translate(-29.512 -323.703)" fill="#fff"/>
          <circle id="Ellipse_30" data-name="Ellipse 30" cx="11.825" cy="11.825" r="11.825" transform="matrix(0.679, -0.735, 0.735, 0.679, 4.802, 17.373)" fill="#fff"/>
          <path id="Path_1776" data-name="Path 1776" d="M51.62,351.41a12.29,12.29,0,1,1,12.29-12.281A12.29,12.29,0,0,1,51.62,351.41Zm0-23.687a11.365,11.365,0,1,1,0,.027Z" transform="translate(-30.11 -322.417)" fill="#263238"/>
          <path id="Path_1777" data-name="Path 1777" d="M58.468,339.719a6.259,6.259,0,1,1-6.259-6.259,6.259,6.259,0,0,1,6.259,6.259Z" transform="translate(-30.699 -323.007)" fill="#d840e5"/>
          <path id="Path_1778" data-name="Path 1778" d="M52.164,346.379a6.714,6.714,0,1,1,6.714-6.705A6.714,6.714,0,0,1,52.164,346.379Zm0-12.509a5.785,5.785,0,1,1,0,.036Z" transform="translate(-30.655 -322.961)" fill="#263238"/>
        </g>
      </g>
    </g>
  </g>
</svg>
