<svg xmlns="http://www.w3.org/2000/svg" xmlns:xlink="http://www.w3.org/1999/xlink" width="450.598" height="300.289" viewBox="0 0 450.598 300.289">
  <defs>
    <clipPath id="clip-path">
      <path id="Path_1826" data-name="Path 1826" d="M301.51,138.629s-1.2,2.707-2.9,6.146h0c-2.931,6-9.063,14.058-20.779,13.469-19.04-1.5-24.61-22.925-24.61-22.925s.372-8.494-3.8-11.33S240.35,91.5,240.35,91.5l14.329-24.17,14.268,5.212,19.811,7.249,6.708,4.914.359,10.579-7.621,8.373s2.335,18.722,1.455,24.928C288.846,134.216,301.51,138.629,301.51,138.629Z" transform="translate(-240.35 -67.33)" fill="#263238" opacity="0.2"/>
    </clipPath>
  </defs>
  <g id="illustrator_three" data-name="illustrator three" transform="translate(-0.001 0.017)">
    <g id="Plants" transform="translate(0.001 181.028)">
      <g id="freepik--Plants--inject-32">
        <path id="Path_1779" data-name="Path 1779" d="M394.6,373.8c-.047,0,.812-2.741.887-2.9.853-1.936,3.655-5.164,5.99-4.914a2.8,2.8,0,0,1,2.4,3.147,1.463,1.463,0,0,1-.054.291c-.338,1.631-1.97,2.883-3.384,3.56C398.755,373.774,394.6,373.8,394.6,373.8Z" transform="translate(-127.516 -299.297)" fill="#fff"/>
        <path id="Path_1780" data-name="Path 1780" d="M654.11,328.5c-1.7-.738-4.46-3.838-4.46-3.845s2.6-1.184,2.768-1.245c2.031-.629,6.281-.677,7.648,1.266a2.8,2.8,0,0,1-.778,3.878l-.264.156C657.569,329.533,655.552,329.134,654.11,328.5Z" transform="translate(-209.936 -285.419)" fill="#fff"/>
        <path id="Path_1781" data-name="Path 1781" d="M586.949,327.857q-1.57,1.137-2.877,2.146l-1.6-.44c1.09-.812,2.369-1.719,3.77-2.707.819-.569,1.706-1.164,2.626-1.767a25.457,25.457,0,0,1-1.1-2.931,18.234,18.234,0,0,1-4.833-.968c-.372.914-.718,1.807-1.036,2.653-.724,1.915-1.313,3.628-1.787,5.076l-1.354-.366c.514-1.469,1.164-3.215,1.943-5.158.372-.927.785-1.915,1.218-2.924-.339-.217-3.086-1.97-3.926-3.249a5.146,5.146,0,0,1-.907-4.23,2.47,2.47,0,0,1,3.1-1.591l.244.095c1.875.893,2.477,4.6,2.227,6.437,0,.1-.3,1.266-.494,1.99.183-.426.345-.812.535-1.232.372-.846.765-1.658,1.171-2.545.217-.42.44-.839.677-1.272s.494-.86.738-1.293c.6-.995,1.239-1.97,1.915-2.944a16.1,16.1,0,0,1-4.237-2.558,5.143,5.143,0,0,1-1.536-4.061,2.457,2.457,0,0,1,2.8-2.064,2.033,2.033,0,0,1,.278.061c1.99.6,3.127,4.176,3.181,6.017,0,.115-.129,1.455-.21,2.186.413-.582.819-1.164,1.252-1.74,1.245-1.658,2.565-3.3,3.872-4.941.4-.5.792-1,1.185-1.509-.257-.115-3.384-1.469-4.393-2.626a5.19,5.19,0,0,1-1.536-4.061,2.464,2.464,0,0,1,2.8-2.031,1.837,1.837,0,0,1,.277.061c1.99.6,3.127,4.176,3.181,6.017,0,.142-.183,2.064-.25,2.545.873-1.11,1.726-2.227,2.525-3.384a44.562,44.562,0,0,0,2.965-4.779c-.129-.034-3.384-1.448-4.427-2.633a5.135,5.135,0,0,1-1.536-4.061,2.471,2.471,0,0,1,2.816-2.03l.264.054c1.99.6,3.127,4.176,3.174,6.031,0,.115-.135,1.584-.217,2.274l.115.034a31.073,31.073,0,0,0,2.031-5.259c.3-.988.535-1.963.744-2.9a16.6,16.6,0,0,1-4.569-2.1,5.051,5.051,0,0,1-1.97-3.858,2.464,2.464,0,0,1,2.579-2.342h.264c2.031.379,3.581,3.8,3.818,5.638v1.882c.088-.426.183-.866.257-1.279.284-1.543.454-2.978.6-4.244.075-.724.129-1.354.163-2a16.354,16.354,0,0,1-3.066-3.953,5.188,5.188,0,0,1,0-4.325,2.464,2.464,0,0,1,3.384-.887,1.49,1.49,0,0,1,.217.142c1.638,1.279,1.435,5.022.8,6.769-.047.156-1.191,2.41-1.218,2.382h0c0,.6-.068,1.225-.122,1.916-.115,1.279-.271,2.707-.5,4.271a42.988,42.988,0,0,1-1.063,4.988,32.691,32.691,0,0,1-1.936,5.361v.068c.42-.447,1.624-1.651,1.726-1.733,1.448-1.157,4.941-2.538,6.667-1.354a2.471,2.471,0,0,1,.6,3.432l-.156.176a5.023,5.023,0,0,1-4.1,1.354c-1.564-.068-4.589-1.6-4.833-1.712a42.1,42.1,0,0,1-2.944,5c-.629.941-1.293,1.861-1.97,2.782.372-.372.677-.677.758-.738,1.448-1.164,4.934-2.545,6.667-1.388a2.45,2.45,0,0,1,.6,3.418,2.67,2.67,0,0,1-.169.217,4.938,4.938,0,0,1-4.061,1.354,18.346,18.346,0,0,1-4.7-1.645c-.264.352-.521.677-.785,1.049-1.273,1.672-2.552,3.33-3.743,5-.42.6-.805,1.2-1.218,1.78l.677-.677c1.448-1.151,4.934-2.531,6.667-1.354a2.464,2.464,0,0,1,.6,3.425,2.6,2.6,0,0,1-.169.21,5.118,5.118,0,0,1-4.061,1.394,15.631,15.631,0,0,1-4.576-1.591c-.386.623-.778,1.245-1.13,1.861-.217.413-.474.819-.677,1.259l-.643,1.293c-.372.846-.758,1.692-1.1,2.511-.244.575-.467,1.124-.677,1.672.413-.589,1.252-1.733,1.354-1.821a9.6,9.6,0,0,1,4.156-2.443,2.266,2.266,0,0,1,.406-.359,2.45,2.45,0,0,1,3.452.372c.054.074.108.142.156.217,1.069,1.787-.474,5.2-1.692,6.6-.074.081-.948.887-1.516,1.388.379-.244.738-.481,1.144-.731.772-.487,1.55-.954,2.389-1.462l1.259-.677c.413-.244.88-.44,1.32-.677,1.042-.5,2.125-.961,3.229-1.4a15.74,15.74,0,0,1-2.1-4.46c-.183-1.367-.081-3.181.954-4.224a2.45,2.45,0,0,1,3.465-.142,2.568,2.568,0,0,1,.19.2c1.354,1.591.325,5.2-.677,6.769-.061.1-.907,1.144-1.354,1.712.677-.264,1.32-.521,2-.765,1.956-.677,3.96-1.354,5.956-1.983l1.828-.6c-.162-.237-2.031-3.08-2.213-4.616a5.161,5.161,0,0,1,.948-4.223,2.464,2.464,0,0,1,3.479-.129,2.212,2.212,0,0,1,.176.183c1.354,1.6.325,5.212-.677,6.768-.075.115-1.286,1.611-1.618,1.976,1.354-.44,2.674-.9,3.966-1.4a44.594,44.594,0,0,0,5.1-2.355c-.074-.108-2.03-3.066-2.227-4.636a5.176,5.176,0,0,1,.941-4.223,2.464,2.464,0,0,1,3.479-.135c.068.061.122.122.183.183,1.354,1.6.325,5.212-.677,6.768-.068.1-.988,1.245-1.435,1.78l.074.088a31.745,31.745,0,0,0,4.623-3.249c.8-.677,1.53-1.354,2.22-2.031a16.544,16.544,0,0,1-2.647-4.278,5.068,5.068,0,0,1,.481-4.3,2.444,2.444,0,0,1,3.641-.359c1.5,1.442.893,5.144.074,6.809a17.628,17.628,0,0,1-1.008,1.591c.311-.311.677-.623.92-.927,1.09-1.124,2.031-2.227,2.843-3.215.453-.562.866-1.083,1.232-1.557a16.828,16.828,0,0,1-.372-5,5.105,5.105,0,0,1,2.409-3.608,2.457,2.457,0,0,1,3.3,1.124,1.714,1.714,0,0,1,.1.23c.677,1.976-1.577,4.975-3.086,6.092-.122.095-2.315,1.354-2.322,1.313v-.041c-.352.481-.745.981-1.151,1.53-.8,1.009-1.712,2.132-2.8,3.283a43.109,43.109,0,0,1-3.635,3.574,31.644,31.644,0,0,1-4.6,3.384l-.054.034c.589-.142,2.261-.481,2.389-.494,1.848-.162,5.53.609,6.328,2.525a2.457,2.457,0,0,1-1.394,3.181,1.878,1.878,0,0,1-.257.081,5.127,5.127,0,0,1-4.183-1.1c-1.266-.914-2.951-3.858-3.086-4.061a43.622,43.622,0,0,1-5.212,2.545c-1.07.426-2.132.839-3.181,1.225a8.168,8.168,0,0,1,1.042-.19c1.848-.162,5.523.616,6.322,2.531a2.457,2.457,0,0,1-1.394,3.181,1.876,1.876,0,0,1-.257.081,5.151,5.151,0,0,1-4.183-1.1,16.138,16.138,0,0,1-3.005-3.973l-1.239.447c-1.983.677-3.966,1.354-5.888,2.1-.677.257-1.354.535-2.031.812l.907-.176c1.848-.162,5.523.616,6.322,2.525a2.464,2.464,0,0,1-1.394,3.188,1.8,1.8,0,0,1-.25.081,5.164,5.164,0,0,1-4.19-1.1,15.035,15.035,0,0,1-2.938-3.845c-.677.291-1.354.6-1.963.927-.426.23-.86.42-1.273.677l-1.239.724c-.772.487-1.57.995-2.308,1.489-.514.332-1,.677-1.5,1.009.677-.284,2-.751,2.112-.778,1.807-.454,5.543-.237,6.633,1.536a2.457,2.457,0,0,1-.9,3.384,1.565,1.565,0,0,1-.237.122,5.13,5.13,0,0,1-4.3-.46c-1.354-.677-3.384-3.229-3.648-3.553C588.479,326.78,587.673,327.329,586.949,327.857Z" transform="translate(-186.431 -267.465)" fill="#fff"/>
        <path id="Path_1782" data-name="Path 1782" d="M5.639,334.116c1.536-.6,4.095-3.256,4.095-3.256s-2.288-1.117-2.423-1.2c-1.76-.629-5.55-.805-6.843.866a2.5,2.5,0,0,0,.562,3.472l.23.142A5.213,5.213,0,0,0,5.639,334.116Z" transform="translate(-0.001 -287.416)" fill="#fff"/>
        <path id="Path_1783" data-name="Path 1783" d="M42.4,301.248c.041,0-1.252-2.207-1.354-2.342-1.13-1.5-4.19-3.723-6.173-3.046a2.491,2.491,0,0,0-1.455,3.2.628.628,0,0,0,.108.25c.623,1.354,2.288,2.1,3.662,2.4C38.8,302.06,42.4,301.248,42.4,301.248Z" transform="translate(-10.748 -276.6)" fill="#fff"/>
        <path id="Path_1784" data-name="Path 1784" d="M44.29,335.582q1.354,1.056,2.477,2.031l1.442-.338c-.941-.765-2.031-1.624-3.249-2.531-.677-.535-1.482-1.09-2.267-1.658a23.251,23.251,0,0,0,1.09-2.572,15.725,15.725,0,0,0,4.325-.677c.3.819.575,1.624.826,2.389.575,1.719,1.036,3.262,1.408,4.569l1.171-.271c-.406-1.32-.914-2.9-1.55-4.657-.3-.833-.629-1.733-.975-2.633a14.928,14.928,0,0,0,3.587-2.755,4.664,4.664,0,0,0,.954-3.723,2.186,2.186,0,0,0-2.707-1.516l-.23.074c-1.706.731-2.355,3.993-2.207,5.638,0,.095.23,1.13.379,1.787-.142-.366-.278-.731-.433-1.11-.3-.751-.623-1.5-.968-2.295-.183-.386-.359-.772-.541-1.151s-.406-.785-.609-1.178c-.487-.907-1.029-1.794-1.6-2.707a13.893,13.893,0,0,0,3.845-2.125,4.715,4.715,0,0,0,1.53-3.54,2.193,2.193,0,0,0-2.437-1.909l-.23.041c-1.767.46-2.924,3.587-3.012,5.232,0,.1.061,1.293.108,1.943-.345-.535-.677-1.056-1.049-1.584-1.049-1.516-2.166-3.019-3.262-4.521-.345-.46-.677-.921-1.009-1.354a14.976,14.976,0,0,0,3.993-2.18,4.681,4.681,0,0,0,1.53-3.547,2.186,2.186,0,0,0-2.437-1.909l-.23.034c-1.767.467-2.924,3.594-3.012,5.239,0,.122.088,1.834.135,2.267-.738-1.022-1.455-2.031-2.119-3.073a38.094,38.094,0,0,1-2.457-4.345,14.444,14.444,0,0,0,4.014-2.186,4.675,4.675,0,0,0,1.523-3.547,2.179,2.179,0,0,0-2.43-1.909,1.35,1.35,0,0,0-.23.041c-1.767.46-2.924,3.587-3.012,5.232,0,.108.061,1.394.115,2.031h-.1a27.943,27.943,0,0,1-1.787-4.738c-.237-.887-.413-1.753-.562-2.6a14.07,14.07,0,0,0,4.129-1.712,4.488,4.488,0,0,0,1.888-3.35,2.193,2.193,0,0,0-2.22-2.166h-.223c-1.814.264-3.31,3.249-3.567,4.867,0,.088-.068,1.008-.081,1.672-.061-.386-.135-.778-.19-1.151-.2-1.354-.3-2.66-.372-3.79-.041-.643-.068-1.225-.081-1.773a14.869,14.869,0,0,0,2.863-3.384,4.515,4.515,0,0,0,.129-3.838,2.193,2.193,0,0,0-2.958-.907l-.2.122c-1.5,1.076-1.448,4.406-.961,5.983,0,.135.975,2.173.968,2.159h0c0,.521,0,1.083.041,1.706.054,1.13.122,2.416.3,3.8A39.991,39.991,0,0,0,32.263,300a28.644,28.644,0,0,0,1.557,4.806v.047c-.345-.393-1.354-1.516-1.469-1.6-1.245-1.076-4.318-2.416-5.868-1.455a2.186,2.186,0,0,0-.677,3.019,1.311,1.311,0,0,0,.142.2,4.563,4.563,0,0,0,3.6,1.354,14.884,14.884,0,0,0,4.345-1.354,38.632,38.632,0,0,0,2.464,4.535q.792,1.279,1.658,2.538a7.448,7.448,0,0,1-.629-.677c-1.252-1.076-4.3-2.423-5.875-1.455a2.186,2.186,0,0,0-.562,3.019,1.784,1.784,0,0,0,.142.2,4.578,4.578,0,0,0,3.608,1.354,14.427,14.427,0,0,0,4.224-1.3l.677.961c1.069,1.523,2.146,3.046,3.154,4.569.359.535.677,1.083,1.029,1.638-.284-.3-.521-.555-.562-.589-1.252-1.076-4.318-2.416-5.875-1.455a2.186,2.186,0,0,0-.677,3.019,1.261,1.261,0,0,0,.142.19,4.554,4.554,0,0,0,3.608,1.354,13.356,13.356,0,0,0,4.115-1.252c.318.562.677,1.124.934,1.692.19.386.4.745.569,1.144s.345.785.514,1.164c.3.751.623,1.53.893,2.274.2.514.379,1.008.562,1.5-.352-.535-1.056-1.577-1.124-1.658a8.536,8.536,0,0,0-3.669-2.335,3.262,3.262,0,0,0-.345-.338,2.186,2.186,0,0,0-3.086.217l-.142.183c-1.009,1.543.237,4.643,1.272,5.922.061.074.812.819,1.3,1.279-.325-.223-.636-.453-.981-.711-.677-.46-1.354-.9-2.078-1.394l-1.1-.677c-.359-.23-.765-.42-1.151-.643-.907-.481-1.848-.927-2.809-1.354a14.215,14.215,0,0,0,2.031-3.9,4.647,4.647,0,0,0-.677-3.777,2.179,2.179,0,0,0-3.08-.25,1.272,1.272,0,0,0-.169.162c-1.239,1.354-.474,4.609.352,6.024.054.081.765,1.042,1.164,1.557-.575-.25-1.157-.508-1.746-.745-1.712-.677-3.472-1.32-5.219-1.97l-1.591-.541a15.115,15.115,0,0,0,2.119-4.02,4.623,4.623,0,0,0-.677-3.784,2.193,2.193,0,0,0-3.1-.189l-.169.162c-1.232,1.354-.467,4.609.359,6.024.068.108,1.09,1.476,1.354,1.814-1.171-.44-2.335-.893-3.465-1.354a38.586,38.586,0,0,1-4.447-2.254,15.354,15.354,0,0,0,2.139-4.061,4.608,4.608,0,0,0-.677-3.777,2.186,2.186,0,0,0-3.086-.25,1.848,1.848,0,0,0-.169.156c-1.232,1.354-.467,4.616.359,6.024.054.095.833,1.144,1.218,1.631l-.074.081a28.207,28.207,0,0,1-3.993-3.053c-.677-.609-1.313-1.232-1.909-1.855a15.156,15.156,0,0,0,2.5-3.709,4.5,4.5,0,0,0-.278-3.838,2.193,2.193,0,0,0-3.032-.589l-.19.142c-1.354,1.232-.975,4.542-.3,6.051,0,.081.5.866.839,1.442-.257-.284-.541-.575-.785-.853-.927-1.042-1.719-2.031-2.4-2.951-.393-.514-.738-.995-1.049-1.435a14.555,14.555,0,0,0,.508-4.42,4.522,4.522,0,0,0-2.031-3.289,2.186,2.186,0,0,0-2.965.88c0,.068-.068.135-.095.2-.677,1.733,1.225,4.474,2.511,5.523.115.095,2.031,1.279,2.031,1.252a.088.088,0,0,0,0-.041c.3.44.616.9.975,1.4.677.921,1.442,1.956,2.349,3.019a39.838,39.838,0,0,0,3.147,3.276,28.655,28.655,0,0,0,3.96,3.161l.054.034c-.508-.156-2-.508-2.112-.521-1.631-.21-4.914.352-5.7,2.031a2.179,2.179,0,0,0,1.09,2.87,1.582,1.582,0,0,0,.25.095,4.629,4.629,0,0,0,3.75-.826,14.984,14.984,0,0,0,2.877-3.533A37.758,37.758,0,0,0,21.4,323.6c.907.426,1.834.819,2.775,1.2l-.921-.223c-1.638-.2-4.921.359-5.7,2.031a2.186,2.186,0,0,0,1.11,2.89l.237.088a4.653,4.653,0,0,0,3.757-.833,13.928,13.928,0,0,0,2.809-3.418l1.083.433c1.733.677,3.472,1.354,5.178,2.085.6.25,1.171.521,1.746.785-.406-.1-.745-.176-.8-.183-1.638-.21-4.914.345-5.7,2.031a2.179,2.179,0,0,0,1.117,2.883,1.412,1.412,0,0,0,.237.088,4.613,4.613,0,0,0,3.75-.833,13.034,13.034,0,0,0,2.741-3.31c.582.291,1.164.582,1.712.887a12.183,12.183,0,0,1,1.09.677l1.1.677c.677.46,1.354.934,2.031,1.415.453.325.873.636,1.293.954-.589-.257-1.746-.731-1.848-.765-1.584-.453-4.914-.406-5.943,1.13a2.193,2.193,0,0,0,.677,3.019l.2.115a4.562,4.562,0,0,0,3.831-.257,15.756,15.756,0,0,0,3.384-3.032C43,334.566,43.661,335.088,44.29,335.582Z" transform="translate(-0.492 -272.002)" fill="#fff"/>
      </g>
    </g>
    <g id="Background_Simple" data-name="Background Simple" transform="translate(42.802 -0.017)">
      <path id="Path_1785" data-name="Path 1785" d="M367.632,13.8C327.651-9.894,274.45-1.535,237,26.872c-26.8,20.305-51.671,44-82.257,57.992-23.514,10.748-50.371,15.913-67.9,36.286C59.388,153.1,63.05,198.135,82.1,233.311c22.119,40.814,62.27,59.157,107.016,64.977,44.584,5.814,91.544-.866,130.666-23.818,52.117-30.58,80.058-89.033,90.021-146.876C417.279,84.046,408.141,37.769,367.632,13.8Z" transform="translate(-64.462 0.017)" fill="#b7cad9"/>
      <path id="Path_1786" data-name="Path 1786" d="M367.632,13.8C327.651-9.894,274.45-1.535,237,26.872c-26.8,20.305-51.671,44-82.257,57.992-23.514,10.748-50.371,15.913-67.9,36.286C59.388,153.1,63.05,198.135,82.1,233.311c22.119,40.814,62.27,59.157,107.016,64.977,44.584,5.814,91.544-.866,130.666-23.818,52.117-30.58,80.058-89.033,90.021-146.876C417.279,84.046,408.141,37.769,367.632,13.8Z" transform="translate(-67.03 0.017)" fill="#b7cad9" opacity="0.7"/>
    </g>
    <g id="Interface" transform="translate(46.419 35.468)">
      <g id="Capa_6" data-name="Capa 6">
        <path id="Path_1787" data-name="Path 1787" d="M419.736,62.766V284.549a10.376,10.376,0,0,1-10.376,10.369H78.949A10.369,10.369,0,0,1,68.58,284.549V62.333a10.363,10.363,0,0,1,9.835-9.923h331.48a10.369,10.369,0,0,1,9.828,9.923C419.729,62.475,419.736,62.624,419.736,62.766Z" transform="translate(-68.58 -52.41)" fill="#fff" stroke="#263238" stroke-linecap="round" stroke-linejoin="round" stroke-width="1"/>
        <path id="Path_1788" data-name="Path 1788" d="M419.729,62.333H68.6a10.363,10.363,0,0,1,9.821-9.923H409.9A10.369,10.369,0,0,1,419.729,62.333Z" transform="translate(-68.586 -52.41)" fill="#d840e5" stroke="#263238" stroke-miterlimit="10" stroke-width="1"/>
        <path id="Path_1789" data-name="Path 1789" d="M93.589,58.954a1.618,1.618,0,1,1-.474-1.151,1.624,1.624,0,0,1,.474,1.151Z" transform="translate(-75.612 -54)" fill="#263238"/>
        <path id="Path_1790" data-name="Path 1790" d="M103.049,58.954a1.618,1.618,0,1,1-.474-1.151A1.624,1.624,0,0,1,103.049,58.954Z" transform="translate(-78.669 -54)" fill="#263238"/>
        <path id="Path_1791" data-name="Path 1791" d="M112.509,58.954a1.618,1.618,0,1,1-.474-1.151A1.624,1.624,0,0,1,112.509,58.954Z" transform="translate(-81.726 -54)" fill="#263238"/>
      </g>
      <circle id="Ellipse_31" data-name="Ellipse 31" cx="8.332" cy="8.332" r="8.332" transform="translate(9.381 101.033)" fill="#fff" stroke="#263238" stroke-linecap="round" stroke-linejoin="round" stroke-width="1"/>
      <path id="Path_1792" data-name="Path 1792" d="M95.092,206.72l-4.122,4.921,4.122,3.993" transform="translate(-75.815 -102.276)" fill="#fff" stroke="#263238" stroke-linecap="round" stroke-linejoin="round" stroke-width="1"/>
    </g>
    <g id="Progress_bar" data-name="Progress bar" transform="translate(82.596 234.259)">
      <path id="Path_1793" data-name="Path 1793" d="M342.105,373.412a4.244,4.244,0,0,0,.8,3.3,4.3,4.3,0,0,0,2.315,1.828v7.1s-6.335,1.239-7.838.332c-1.029-.609-.981-3.824-.853-5.821a1.888,1.888,0,0,1,1.719-1.746l2.031-.169S339.79,372.607,342.105,373.412Z" transform="translate(-191.324 -354.907)" fill="#263238"/>
      <rect id="Rectangle_777" data-name="Rectangle 777" width="2.308" height="7.533" transform="translate(154.829 23.324)" fill="#263238"/>
      <path id="Path_1794" data-name="Path 1794" d="M362.333,385.375v.6a1.557,1.557,0,0,1-3.113,0v-.19l.941-.095v.21c0,.521.223.738.6.738a.562.562,0,0,0,.6-.677v-.677c0-.514-.223-.738-.738-.738h-.386v-.893h.325c.514,0,.731-.217.731-.738v-.494a.514.514,0,0,0-.548-.582c-.352,0-.555.2-.555.677v.149h-.941v-.223a1.516,1.516,0,1,1,3.026,0v.426a1.455,1.455,0,0,0,.061,2.511Z" transform="translate(-198.678 -357.327)" fill="#263238"/>
      <path id="Path_1795" data-name="Path 1795" d="M365,386.04v-3.52a1.57,1.57,0,1,1,3.141,0v3.52a1.57,1.57,0,1,1-3.141,0Zm2.159,0v-3.52a.589.589,0,1,0-1.178,0v3.52a.589.589,0,1,0,1.178,0Z" transform="translate(-200.546 -357.369)" fill="#263238"/>
      <path id="Path_1796" data-name="Path 1796" d="M375.127,384.9l-.372.677v1.949h-.975V381.1h.975v2.64l1.293-2.619H377.1l-1.354,2.707,1.476,3.716h-1.049Z" transform="translate(-203.383 -357.417)" fill="#263238"/>
      <path id="Path_1797" data-name="Path 1797" d="M398.738,391.607a4.881,4.881,0,0,1,3.113-5.124v-7.1s-6.329-1.239-7.838-.332c-1.022.616-.975,3.824-.846,5.821a1.882,1.882,0,0,0,1.719,1.746l2.031.169S396.417,392.446,398.738,391.607Z" transform="translate(-209.627 -356.648)" fill="#263238"/>
      <rect id="Rectangle_778" data-name="Rectangle 778" width="2.308" height="7.533" transform="translate(193.504 22.6)" fill="#263238"/>
      <path id="Path_1798" data-name="Path 1798" d="M419.47,382.5h-1.11v-.677a1.638,1.638,0,0,0,1.4-.677h.677v6.45h-.968Z" transform="translate(-217.79 -357.433)" fill="#263238"/>
      <path id="Path_1799" data-name="Path 1799" d="M423.732,386.583h1.936v.92h-3.1v-.846L424,384.369a3.262,3.262,0,0,0,.677-1.787c0-.453-.217-.677-.6-.677s-.589.244-.589.677v.379h-.941v-.3a1.5,1.5,0,0,1,1.543-1.7,1.455,1.455,0,0,1,1.557,1.6,4.061,4.061,0,0,1-.866,2.315Z" transform="translate(-219.141 -357.37)" fill="#263238"/>
      <path id="Path_1800" data-name="Path 1800" d="M428.208,386.075v-.19l.941-.095V386c0,.514.223.724.582.724a.548.548,0,0,0,.582-.629v-1.5c0-.379-.2-.562-.514-.562a.589.589,0,0,0-.609.636v.108h-.941V381.1h2.8v.921H429.19v1.6a1.056,1.056,0,0,1,.927-.474,1.157,1.157,0,0,1,1.171,1.3v1.624a1.543,1.543,0,1,1-3.08,0Z" transform="translate(-220.971 -357.417)" fill="#263238"/>
      <path id="Path_1801" data-name="Path 1801" d="M224.01,387.235V382.26h2.538l3.858-3.75v11.764l-3.195-3.242Z" transform="translate(-154.985 -356.58)" fill="#263238"/>
      <path id="Path_1802" data-name="Path 1802" d="M237.882,385.549a3.743,3.743,0,0,1-2.342,3.472V382.07a3.75,3.75,0,0,1,2.342,3.479Z" transform="translate(-158.711 -357.731)" fill="#263238"/>
      <path id="Path_1803" data-name="Path 1803" d="M235,378.5a5.983,5.983,0,0,1,.372,11.709" transform="translate(-158.536 -356.577)" fill="none" stroke="#263238" stroke-miterlimit="10" stroke-width="1"/>
      <path id="Path_1804" data-name="Path 1804" d="M161.387,390.45h0a1.1,1.1,0,0,1-1.1-1.1v-8.19a1.1,1.1,0,0,1,1.1-1.1h0a1.1,1.1,0,0,1,1.1,1.1v8.19A1.1,1.1,0,0,1,161.387,390.45Z" transform="translate(-134.394 -357.081)" fill="#263238"/>
      <path id="Path_1805" data-name="Path 1805" d="M167.9,390.45h0a1.1,1.1,0,0,1-1.1-1.1v-8.19a1.1,1.1,0,0,1,1.1-1.1h0a1.1,1.1,0,0,1,1.1,1.1v8.19a1.1,1.1,0,0,1-1.1,1.1Z" transform="translate(-136.497 -357.081)" fill="#263238"/>
      <path id="Path_1806" data-name="Path 1806" d="M128.94,380.21h0a1.11,1.11,0,0,1,1.11,1.11v8.224a1.11,1.11,0,0,1-1.11,1.11h0a1.1,1.1,0,0,1-1.11-1.11V381.32a1.1,1.1,0,0,1,1.11-1.11Z" transform="translate(-123.904 -357.129)" fill="#263238"/>
      <path id="Path_1807" data-name="Path 1807" d="M138.477,381.3v8.65a.454.454,0,0,1-.738.352l-5.706-4.515a.454.454,0,0,1,0-.724l5.713-4.129a.453.453,0,0,1,.731.366Z" transform="translate(-125.204 -357.333)" fill="#263238"/>
      <path id="Path_1808" data-name="Path 1808" d="M200.176,390h0a1.11,1.11,0,0,1-1.1-1.124l.1-8.251a1.11,1.11,0,0,1,1.124-1.1h0a1.117,1.117,0,0,1,1.1,1.124l-.1,8.251a1.1,1.1,0,0,1-1.124,1.1Z" transform="translate(-146.929 -356.91)" fill="#263238"/>
      <path id="Path_1809" data-name="Path 1809" d="M188.549,389.237l.1-8.65a.453.453,0,0,1,.738-.345l5.658,4.582a.46.46,0,0,1,0,.724l-5.76,4.061a.447.447,0,0,1-.738-.372Z" transform="translate(-143.525 -357.107)" fill="#263238"/>
      <rect id="Rectangle_779" data-name="Rectangle 779" width="205.038" height="14.058" rx="7.029" fill="#fff" stroke="#263238" stroke-linecap="round" stroke-linejoin="round" stroke-width="1"/>
      <path id="Path_1810" data-name="Path 1810" d="M323.953,355.707a1.577,1.577,0,0,1-1.577,1.577H134.557a1.577,1.577,0,0,1,0-3.154H322.376a1.577,1.577,0,0,1,1.577,1.577Z" transform="translate(-125.568 -348.702)" fill="#263238"/>
      <path id="Path_1811" data-name="Path 1811" d="M182.045,354.13l-.108,3.154H134.557a1.577,1.577,0,1,1,0-3.154Z" transform="translate(-125.568 -348.702)" fill="#b7cad9"/>
      <path id="Path_1812" data-name="Path 1812" d="M206.406,353.948a4.291,4.291,0,1,1-1.254-3.039A4.3,4.3,0,0,1,206.406,353.948Z" transform="translate(-146.518 -347.254)" fill="#263238"/>
      <path id="Path_1813" data-name="Path 1813" d="M205.063,355.076a1.746,1.746,0,1,1-1.746-1.746A1.746,1.746,0,0,1,205.063,355.076Z" transform="translate(-147.733 -348.443)" fill="#fff"/>
    </g>
    <g id="Window" transform="translate(82.576 53.655)">
      <path id="Path_1814" data-name="Path 1814" d="M334.659,112.894V245.657a9.984,9.984,0,0,1-9.984,9.983H132a9.977,9.977,0,0,1-10-9.983V112.894a9.064,9.064,0,0,1,.122-1.557,9.984,9.984,0,0,1,9.862-8.427H324.675a10,10,0,0,1,9.855,8.427,9.8,9.8,0,0,1,.129,1.557Z" transform="translate(-122 -86.916)" fill="#fff" stroke="#263238" stroke-linecap="round" stroke-linejoin="round" stroke-width="1"/>
      <rect id="Rectangle_780" data-name="Rectangle 780" width="68.423" height="7.249" transform="translate(3.649)" fill="#263238"/>
    </g>
    <g id="Character" transform="translate(92.372 33.655)">
      <path id="Path_1815" data-name="Path 1815" d="M171.388,198.863s3.384,13.232,9.225,21.4c7.967,7.445,13,7.865,19.08,7.865s9.043-3.059,9.043-3.059l1.049-7.208-3.141-11.141s-11.141-12.63-15.128-15.94-12.562-13.111-15.094-25.795-6.5-18.573-6.5-18.573-1.408-12.461-3.262-12.3-3.865,7.087-3.384,11.506c0,0-4.873-3.547-6.342-4.914s-7.181-7.967-8.19-7.087,2.4,9.828,7.344,14.011a12.387,12.387,0,0,1-6.186-2.978c-2.4-2.416-6.951-7.4-9.043-6.518a2.558,2.558,0,0,0-1.618,2.9s-2.24.643-1.55,4.1c0,0-2.085,3.059.853,7.412s8.657,8.8,13.754,11.188,7.188,3.865,9.043,8.122S171.388,198.863,171.388,198.863Z" transform="translate(-136.634 -76.814)" fill="#fff"/>
      <path id="Path_1816" data-name="Path 1816" d="M209.767,217.891l-.677,4.6-.379,2.606s-2.931,3.059-9.009,3.059-11.121-.44-19.087-7.865c-5.862-8.17-9.225-21.4-9.225-21.4s-8.2-22.7-10.024-26.966-3.939-5.719-9.043-8.122-10.83-6.843-13.754-11.188c-1.99-2.944-1.679-5.307-1.266-6.511a4.022,4.022,0,0,1,.413-.9c-.677-3.459,1.543-4.108,1.543-4.108a2.565,2.565,0,0,1,1.631-2.89c2.085-.887,6.647,4.1,9.036,6.511a12.469,12.469,0,0,0,6.186,2.985c-4.948-4.19-8.346-13.124-7.344-14s6.728,5.713,8.19,7.08,6.342,4.914,6.342,4.914c-.467-4.427,1.543-11.351,3.384-11.506s3.256,12.305,3.256,12.305,3.98,5.9,6.5,18.566,11.121,22.505,15.1,25.781,15.1,15.94,15.1,15.94Z" transform="translate(-136.643 -76.837)" fill="#263238" opacity="0.2"/>
      <path id="Path_1817" data-name="Path 1817" d="M214.4,197.941s8.2-11.506,9.564-14.891,7.581-13.72,14.288-14.5A45.964,45.964,0,0,0,250.8,165.06l35.663,2.071s7.526,2.816,14.363,5.415c6.444,2.45,13.618,6.552,13.842,12.962.19,5.611,10.891,26.059,18.383,32.489l-29.4,8.955s-1.029,8.542-5.57,11.946c0,0,9.956,23.277,5.855,37.125l-80.965-.3s-3.174-31.744,10.863-42.872c0,0-3.655-8.122-3.905-15.243C229.927,217.617,227.443,210.883,214.4,197.941Z" transform="translate(-161.656 -87)" fill="#92e3a9"/>
      <path id="Path_1818" data-name="Path 1818" d="M209.1,228.449l-3.114,3.3s-1.286,2.031-6.714,2.193c-6.092.2-10.681-.271-18.647-7.7-5.861-8.17-9.225-21.4-9.225-21.4s-8.21-22.7-10.031-26.966-3.939-5.719-9.043-8.122-10.83-6.843-13.754-11.188c-1.99-2.944-1.679-5.306-1.266-6.511a80.427,80.427,0,0,1,7.445,5.286c4.19,2.525,7.114,4.494,11.385,6.823,8.494,4.63,12.935,14.5,16.163,23.906s6.092,19.493,13.056,26.343a32.7,32.7,0,0,0,14.356,7.939c3.188.873,6.816,1.6,8.67,4.433A6.647,6.647,0,0,1,209.1,228.449Z" transform="translate(-136.643 -82.799)" fill="#263238" opacity="0.1"/>
      <path id="Path_1819" data-name="Path 1819" d="M298.052,238.694c.589.21,10.972,23.636,5.855,37.125l-45.247-.3-36.414-.447s-2.166-31.379,11.872-42.506c0,0-4.061-8.122-4.312-15.27,0,0-2.369-6.092-15.425-19.06,0,0,8.075-12.183,9.476-15.534s7.222-13.341,13.93-14.119A34.337,34.337,0,0,0,250.1,164.41l35.656,2.078a46.829,46.829,0,0,0,7.3,3.425c2.207.805,4.589,1.266,6.951,2.159,8.961,3.384,13.205,7.229,13.957,12.792s10.891,26.059,18.383,32.489l-29.693,10.22S301.436,235.973,298.052,238.694Z" transform="translate(-161.649 -86.79)" fill="#b7cad9"/>
      <path id="Path_1820" data-name="Path 1820" d="M315.363,241.37s10.721,20.2,5.875,37.118l-45.247-.3a24.819,24.819,0,0,1-.677-9.11c-.92-1.733-.237-3.858-.162-5.828.115-3.053-1.286-5.936-2.822-8.528s-3.3-5.144-4.061-8.122-.189-6.511,2.173-8.325c2.633-2.031,6.281-1.171,9.476-.42,5.239,1.232,10.681,1.963,15.96.975s10.417-3.885,13.259-8.623a9.623,9.623,0,0,0,1.354-3.452,14.091,14.091,0,0,0-.257-4.576c-.772-4.487-1.719-9.029-1.279-13.537.3-2.985,1.178-5.882,1.564-8.853a26.864,26.864,0,0,0-4.224-18.207c1.9-2.5,2.382-6.288,4.061-8.894,2.213.805,4.738,1.638,7.154,2.267,7.087,1.807,13.713,7.107,14.458,12.677s8.413,23.595,17.876,32.732L320.9,229.119S320.189,237.992,315.363,241.37Z" transform="translate(-178.961 -89.465)" opacity="0.1"/>
      <path id="Path_1821" data-name="Path 1821" d="M366.06,223.914s2.1-2.572,4.061-2.031c0,0,4.691,6.3,6.667,8.61,1.6,1.875,3.039,6.2,2.606,9.963a5.056,5.056,0,0,1-2.234,3.635c-2.531,1.665-7.662,4.582-12.346,4.4-6.538-.257-17.517-5.415-21.341-13.5s-4.691-18.64-4.691-18.64-5.063-5.523-4.318-10.924,4.108-12.752,4.894-14.857,1.767-5.063,3.127-4.677,3.154,5.151.44,13.117c0,0,2.274,0,4-2.836s7.06-15.385,10.4-11.506c0,0,3.08-2.132,4.366-.047,0,0,2.322-1.53,2.389.481a90.385,90.385,0,0,1-.873,10.051s2.45-1.834,2.45,2.274-1.421,11.554-6.728,16.055C358.932,213.477,361.741,220.314,366.06,223.914Z" transform="translate(-200.431 -93.026)" fill="#fff"/>
      <path id="Path_1822" data-name="Path 1822" d="M379.4,240.4a5.1,5.1,0,0,1-2.261,3.655c-2.383,1.57-7.019,4.2-11.432,4.379h-.88c-6.538-.257-17.524-5.415-21.355-13.5s-4.684-18.64-4.684-18.64-5.063-5.53-4.325-10.924,4.115-12.745,4.894-14.891,1.773-5.063,3.127-4.67,3.161,5.151.44,13.124c0,0,2.274,0,4.007-2.85s7.06-15.378,10.4-11.506c0,0,3.073-2.132,4.366-.047,0,0,2.308-1.536,2.382.481a87.116,87.116,0,0,1-.839,9.774h0v.271s2.45-1.848,2.45,2.274-1.415,11.554-6.728,16.048c0,0,2.8,6.836,7.127,10.437,0,0,1.482-2.146,3.513-2.125,0,0,5.246,6.369,7.222,8.677A15.4,15.4,0,0,1,379.4,240.4Z" transform="translate(-200.431 -92.997)" fill="#263238" opacity="0.2"/>
      <path id="Path_1823" data-name="Path 1823" d="M288.21,103.979l7.615-8.318-.365-10.579-6.708-4.907L254.672,67.72,240.35,91.9s4.894,29.646,9.063,32.489,3.811,11.33,3.811,11.33,5.462,21.124,24.5,22.634c17.6,1.171,23.636-19.629,23.636-19.629s-10.451-3.7-12.63-9.557S288.21,103.979,288.21,103.979Z" transform="translate(-170.042 -55.544)" fill="#fff"/>
      <path id="Path_1824" data-name="Path 1824" d="M301.51,138.629s-1.2,2.707-2.9,6.146h0c-2.931,6-9.063,14.058-20.779,13.469-19.04-1.5-24.61-22.925-24.61-22.925s.372-8.494-3.8-11.33S240.35,91.5,240.35,91.5l14.329-24.17,14.268,5.212,19.811,7.249,6.708,4.914.359,10.579-7.621,8.373s2.335,18.722,1.455,24.928C288.846,134.216,301.51,138.629,301.51,138.629Z" transform="translate(-170.042 -55.418)" fill="#263238" opacity="0.2"/>
      <g id="Group_1062" data-name="Group 1062" transform="translate(70.308 11.912)" clip-path="url(#clip-path)">
        <path id="Path_1825" data-name="Path 1825" d="M307.939,140.893s-1.09,2.64-2.782,6.092h0l-.677,1.293c-11.7-8.461-17.178-21.5-17.659-36.374-.054-1.5,1.245-20.224,1.854-20.217C271.078,91.422,260.6,74.21,260.6,74.21l14.891.555L295.3,82.014l6.708,4.914.359,10.579-7.621,8.373s.142,18.8,1.455,24.928C297.421,136.338,307.939,140.893,307.939,140.893Z" transform="translate(-246.894 -69.553)" fill="#263238" opacity="0.1"/>
      </g>
      <path id="Path_1827" data-name="Path 1827" d="M303.47,99.489s2.477-6.68,7.56-5.415,2.748,14.931-1.794,16.244-4.812-2.707-4.812-2.707" transform="translate(-190.439 -64.009)" fill="none" stroke="#263238" stroke-linecap="round" stroke-linejoin="round" stroke-width="0.98"/>
      <path id="Path_1828" data-name="Path 1828" d="M267.089,103.806V103.4c.081,1.536.426,3.059.44,4.6a5.711,5.711,0,0,1-1.455,4.224c-.724.677-1.787,1.191-1.936,2.2a2.708,2.708,0,0,0,.406,1.57,6.465,6.465,0,0,0,1.53,2.031,2.836,2.836,0,0,0,2.349.677" transform="translate(-177.728 -67.074)" fill="none" stroke="#263238" stroke-linecap="round" stroke-linejoin="round" stroke-width="0.98"/>
      <path id="Path_1829" data-name="Path 1829" d="M268,130.548s10.64-2.322,13.063-9.868c0,0,1.719,8.027-3.1,11.371C272.562,135.787,268,130.548,268,130.548Z" transform="translate(-178.977 -72.658)" fill="#fff" stroke="#263238" stroke-linecap="round" stroke-linejoin="round" stroke-width="0.98"/>
      <path id="Path_1830" data-name="Path 1830" d="M245.21,91.83c1.218,9.652,2.152,19.263,5.083,28.583,2.031,6.4,6.389,12.7,13.666,12.278,8.8-.514,15.507-2.031,21.26-9.131" transform="translate(-171.612 -63.335)" fill="none" stroke="#263238" stroke-linecap="round" stroke-linejoin="round" stroke-width="0.98"/>
      <path id="Path_1831" data-name="Path 1831" d="M275.13,95.305a5.482,5.482,0,0,1,7.249-.169" transform="translate(-181.281 -63.988)" fill="none" stroke="#263238" stroke-linecap="round" stroke-linejoin="round" stroke-width="0.98"/>
      <path id="Path_1832" data-name="Path 1832" d="M258.768,97.437c-1.591-.677-4.284-1.042-6.768,2.423" transform="translate(-173.806 -65.003)" fill="none" stroke="#263238" stroke-linecap="round" stroke-linejoin="round" stroke-width="0.98"/>
      <path id="Path_1833" data-name="Path 1833" d="M256.112,151.92S256.457,162,253.4,163.6s-15.229-2.152-21.7,4.271-13.787,23.412-17.375,25.9" transform="translate(-161.633 -82.753)" fill="none" stroke="#263238" stroke-linecap="round" stroke-linejoin="round" stroke-width="0.98"/>
      <path id="Path_1834" data-name="Path 1834" d="M280.982,105.239c0,1.435-.514,2.606-1.157,2.606s-1.164-1.171-1.164-2.606.521-2.619,1.164-2.619S280.982,103.791,280.982,105.239Z" transform="translate(-182.422 -66.822)" fill="#263238"/>
      <path id="Path_1835" data-name="Path 1835" d="M258.992,107.349c0,1.442-.521,2.606-1.164,2.606s-1.157-1.164-1.157-2.606.521-2.619,1.157-2.619S258.992,105.9,258.992,107.349Z" transform="translate(-175.315 -67.504)" fill="#263238"/>
      <path id="Path_1836" data-name="Path 1836" d="M237.8,82.253s4.65-1.225,9.753-15.919c0,0,14.43,18.667,29.951,16.292,0,0,4.3-5.225,8.075-1.354,3.161,3.256,0,13.537-2.633,14.485s-3.526.047-3.526.047-7.445,14.166-.061,26.133,22.972,5.516,27.981-3.682a16.607,16.607,0,0,0,.142-16.569,6.954,6.954,0,0,1,3.682,6.288s2.944-5.212-1.469-12.576S300.481,80.669,296.02,73.21c-4.311-7.2-7.526-16.772-15.52-20.59-9.361-4.515-21.036-3.276-30.384.535-7.709,3.134-11.676,10.66-14.762,18.336-2.193,5.415-3.438,11.249-5.753,16.644-2.031,4.738-5.638,8.434-7.7,13.178-5.53,12.725-.413,27.582,11.358,33.572,0,0,1.036-2.626,5.9-3.086s5.889-.921,10.457-.765,6.038-.311,7.066-3.073,1.354-8.758,1.354-8.758-5.963,1.279-10.2-2.43c-4.251-5.09-5.787-7.77-6.823-14.065S237.8,82.253,237.8,82.253Z" transform="translate(-163.361 -49.731)" fill="#263238"/>
      <path id="Path_1837" data-name="Path 1837" d="M276.33,148.339s-.873,5.78,5.415,4.108S294.889,140,294.889,140,287.275,147.445,276.33,148.339Z" transform="translate(-181.655 -78.901)" fill="#263238"/>
      <path id="Path_1838" data-name="Path 1838" d="M226.2,307.919S221.824,279.674,237.669,265" transform="translate(-165.289 -119.295)" fill="none" stroke="#263238" stroke-linecap="round" stroke-linejoin="round" stroke-width="0.98"/>
      <path id="Path_1839" data-name="Path 1839" d="M242.29,251.414c-5.57-8.637-7.648-23.5.433-31.284" transform="translate(-169.078 -104.796)" fill="none" stroke="#263238" stroke-linecap="round" stroke-linejoin="round" stroke-width="0.98"/>
      <path id="Path_1840" data-name="Path 1840" d="M304.75,143.84s1.388,14.891,19.182,19.981c14.288,4.061,17.544,8.677,18.451,10.484" transform="translate(-190.853 -80.142)" fill="none" stroke="#263238" stroke-linecap="round" stroke-linejoin="round" stroke-width="0.98"/>
      <path id="Path_1841" data-name="Path 1841" d="M259.88,169.25s7.236,21.943,26.519,22.234c14.078.21,21.341-19.71,21.341-19.71" transform="translate(-176.353 -88.354)" fill="none" stroke="#263238" stroke-linecap="round" stroke-linejoin="round" stroke-width="0.98"/>
      <path id="Path_1842" data-name="Path 1842" d="M263,269.24c10.072,4.318,21.24,4.657,32.116,4.941" transform="translate(-177.361 -120.666)" fill="none" stroke="#263238" stroke-linecap="round" stroke-linejoin="round" stroke-width="0.98"/>
      <path id="Path_1843" data-name="Path 1843" d="M205.3,232.523a9.34,9.34,0,0,1-3.459,1.184c-8.914,1.5-17.233-1.442-22.688-9.049-3.039-4.244-4.542-9.022-6.139-14-3.553-11.019-7.269-21.91-11.506-32.665a13.2,13.2,0,0,0-2.525-3.838c-2.3-1.915-6.768-5.07-10.153-6.058-4.907-1.408-13.7-12.183-12.183-15.148s9.476,7.222,12.86,8.122" transform="translate(-136.474 -82.913)" fill="none" stroke="#263238" stroke-linecap="round" stroke-linejoin="round" stroke-width="0.98"/>
      <path id="Path_1844" data-name="Path 1844" d="M241.278,202.662s-.86-9.144,2.234-17.212" transform="translate(-170.306 -93.589)" fill="none" stroke="#263238" stroke-linecap="round" stroke-linejoin="round" stroke-width="0.98"/>
      <g id="Group_1063" data-name="Group 1063" transform="translate(67.594 5.495)" opacity="0.42">
        <path id="Path_1845" data-name="Path 1845" d="M273.67,64.17s7.98,13.855,21.943,15.243" transform="translate(-248.403 -59.892)" fill="none" stroke="#fff" stroke-linecap="round" stroke-linejoin="round" stroke-width="0.98"/>
        <path id="Path_1846" data-name="Path 1846" d="M317.581,119.45a43.867,43.867,0,0,0,3.8,27.074" transform="translate(-262.37 -77.756)" fill="none" stroke="#fff" stroke-linecap="round" stroke-linejoin="round" stroke-width="0.98"/>
        <path id="Path_1847" data-name="Path 1847" d="M313,78.43c4.535,4.136,8.934,8.542,11.107,14.329,2.031,5.367,1.868,11.31,2.031,17.07s.717,11.831,3.872,16.569" transform="translate(-261.113 -64.5)" fill="none" stroke="#fff" stroke-linecap="round" stroke-linejoin="round" stroke-width="0.98"/>
        <path id="Path_1848" data-name="Path 1848" d="M291.51,57.85q4.738,4.948,9.787,9.6" transform="translate(-254.168 -57.85)" fill="none" stroke="#fff" stroke-linecap="round" stroke-linejoin="round" stroke-width="0.98"/>
        <path id="Path_1849" data-name="Path 1849" d="M240.848,113.83a36.5,36.5,0,0,0-3.086,27.656" transform="translate(-236.34 -75.94)" fill="none" stroke="#fff" stroke-linecap="round" stroke-linejoin="round" stroke-width="0.98"/>
      </g>
      <path id="Path_1851" data-name="Path 1851" d="M314.29,200.6a17.17,17.17,0,0,0,3.662-3.784" transform="translate(-193.935 -97.263)" fill="none" stroke="#263238" stroke-linecap="round" stroke-linejoin="round" stroke-width="0.98"/>
      <path id="Path_1852" data-name="Path 1852" d="M289.87,205.34s6.511,2.559,13.016,0" transform="translate(-186.044 -100.016)" fill="none" stroke="#263238" stroke-linecap="round" stroke-linejoin="round" stroke-width="0.98"/>
      <path id="Path_1853" data-name="Path 1853" d="M352.512,203.785s-4.907-3.465-10.153-2.64c0,0,4.115-13.2.948-14.214-2.159-.677-3.256,3.141-3.784,4.6-1.036,2.85-2.288,5.53-3.384,8.352-2.031,5.158-1.665,12.495,2.579,16.407" transform="translate(-200.61 -94.042)" fill="none" stroke="#263238" stroke-linecap="round" stroke-linejoin="round" stroke-width="0.98"/>
      <path id="Path_1854" data-name="Path 1854" d="M369.27,219.494c2.288-2.031,4.643-4.176,5.868-7.046a20.183,20.183,0,0,0,1.225-5c.244-1.672.46-3.384.636-5.043a2.159,2.159,0,0,0-.325-1.753,1.266,1.266,0,0,0-1.435-.162,3.275,3.275,0,0,0-1.137,1.042,13.942,13.942,0,0,0-2.031,3.878,20.957,20.957,0,0,1-1.557,4.325c-.068.115-.142.223-.217.332" transform="translate(-211.702 -98.399)" fill="none" stroke="#263238" stroke-linecap="round" stroke-linejoin="round" stroke-width="0.98"/>
      <path id="Path_1855" data-name="Path 1855" d="M371.959,196.816a38.932,38.932,0,0,0,1.733-12.508,2.87,2.87,0,0,0-2.531.941,8.4,8.4,0,0,0-1.482,2.45c-1.882,4.156-3.432,8.528-5.618,12.5" transform="translate(-210.019 -93.211)" fill="none" stroke="#263238" stroke-linecap="round" stroke-linejoin="round" stroke-width="0.98"/>
      <path id="Path_1856" data-name="Path 1856" d="M370,184.2a1.947,1.947,0,0,0-2.64-.873,5.212,5.212,0,0,0-2.112,2.3c-2.308,4.02-3.7,8.549-5.848,12.657" transform="translate(-208.513 -92.839)" fill="none" stroke="#263238" stroke-linecap="round" stroke-linejoin="round" stroke-width="0.98"/>
      <path id="Path_1857" data-name="Path 1857" d="M361.225,185.3c.189-.961-.914-1.767-1.841-1.6a3.81,3.81,0,0,0-2.2,1.719c-1.888,2.572-3.08,5.618-4.738,8.352s-3.134,4.968-6.186,5.6" transform="translate(-204.267 -93.016)" fill="none" stroke="#263238" stroke-linecap="round" stroke-linejoin="round" stroke-width="0.98"/>
      <path id="Path_1858" data-name="Path 1858" d="M340.5,227.423s1.821,10.83,3.465,16.732c1.6,5.733,14.593,24.6,34.952,13.205a5.036,5.036,0,0,0,2.484-3.479,12.691,12.691,0,0,0-2.207-9.726c-4.379-6.274-13.537-15.209-15.513-20.915" transform="translate(-202.405 -105.801)" fill="none" stroke="#263238" stroke-linecap="round" stroke-linejoin="round" stroke-width="0.98"/>
      <path id="Path_1859" data-name="Path 1859" d="M370.33,228.08a21.727,21.727,0,0,0,3.96,6.687c2.031,2.376,4.6,4.237,6.8,6.471s4.129,5,4.433,8.183" transform="translate(-212.045 -107.365)" fill="none" stroke="#263238" stroke-linecap="round" stroke-linejoin="round" stroke-width="0.98"/>
      <path id="Path_1860" data-name="Path 1860" d="M341.8,256.2s-.487,10.978-8.8,14.3" transform="translate(-199.982 -116.452)" fill="none" stroke="#263238" stroke-linecap="round" stroke-linejoin="round" stroke-width="0.98"/>
      <path id="Path_1861" data-name="Path 1861" d="M338,274.16s10.755,18.492,5.855,37.125" transform="translate(-201.597 -122.255)" fill="none" stroke="#263238" stroke-linecap="round" stroke-linejoin="round" stroke-width="0.98"/>
      <path id="Path_1862" data-name="Path 1862" d="M138.131,149.532s-1.191-3.289.677-4.521,11.337,8.989,13.875,8.8" transform="translate(-136.889 -80.487)" fill="none" stroke="#263238" stroke-linecap="round" stroke-linejoin="round" stroke-width="0.98"/>
      <path id="Path_1863" data-name="Path 1863" d="M140.4,143.594a2.193,2.193,0,0,1,1.11-2.707,3.33,3.33,0,0,1,3.039.291,11.2,11.2,0,0,1,2.4,2.132c3.2,3.384,6.43,6.322,10.978,6.809" transform="translate(-137.701 -79.111)" fill="none" stroke="#263238" stroke-linecap="round" stroke-linejoin="round" stroke-width="0.98"/>
      <path id="Path_1864" data-name="Path 1864" d="M161.83,147.66s-8.664-8.386-8.055-12.975,6.362,6.8,11.987,9.016" transform="translate(-142.055 -76.835)" fill="none" stroke="#263238" stroke-linecap="round" stroke-linejoin="round" stroke-width="0.98"/>
      <path id="Path_1865" data-name="Path 1865" d="M180.363,148.414c-.311-1-.731-2.112-.961-3.188-.372-1.733-.548-3.506-.772-5.266-.156-1.232-.426-6.281-2.707-4.86-3.6,2.247-2.518,15.006-2.518,15.006-4.325,2.619-5.225,8.8-5.225,8.8" transform="translate(-146.72 -77.237)" fill="#fff"/>
      <path id="Path_1866" data-name="Path 1866" d="M180.363,148.473a18.13,18.13,0,0,1-.961-3.3c-.372-1.733-.548-3.506-.772-5.266-.156-1.232-.426-6.281-2.707-4.86-3.6,2.247-2.518,15.006-2.518,15.006-4.325,2.619-5.225,8.8-5.225,8.8" transform="translate(-146.72 -77.221)" fill="#263238" opacity="0.2"/>
      <path id="Path_1867" data-name="Path 1867" d="M180.5,147.65a14.074,14.074,0,0,1-1.029-2.924c-.372-1.733-.555-3.506-.778-5.266-.156-1.232-.426-6.281-2.707-4.86-3.587,2.22-2.477,14.972-2.477,14.972-4.318,2.626-5.219,8.8-5.219,8.8" transform="translate(-146.755 -77.076)" fill="none" stroke="#263238" stroke-linecap="round" stroke-linejoin="round" stroke-width="0.98"/>
      <path id="Path_1868" data-name="Path 1868" d="M220.636,213.13c-1.726-6.295-19.432-19.033-25.179-32.11-1.6-3.628-2.464-7.648-3.533-11.466a134.646,134.646,0,0,0-4.738-13.7c-.264-.677-.548-1.279-.826-1.9" transform="translate(-152.595 -83.413)" fill="none" stroke="#263238" stroke-linecap="round" stroke-linejoin="round" stroke-width="0.98"/>
      <path id="Path_1869" data-name="Path 1869" d="M384.2,249.352c-2.383,1.57-7.019,4.2-11.432,4.379a35.671,35.671,0,0,1-3.851-2.809c-7.73-6.457-13.151-16.441-12.65-26.756a13.041,13.041,0,0,1,1.726-6.417c1.875-2.937,5.252-4.291,7.3-7.053,2.342-3.168,2.322-7.445,5.009-10.545v.271s2.45-1.848,2.45,2.274-1.415,11.554-6.728,16.048c0,0,2.8,6.836,7.127,10.437A5.6,5.6,0,0,1,376.577,227s5.334,6.43,7.31,8.738c1.6,1.875,3.032,6.2,2.606,9.963A5.1,5.1,0,0,1,384.2,249.352Z" transform="translate(-207.489 -98.294)" fill="#263238" opacity="0.1"/>
      <path id="Path_1870" data-name="Path 1870" d="M224.45,215.632c0-.474,9.286-10.335,11.7-20.712,0,0-.23,10.261-.366,11.953v.487c.2,5.564.751,6.538.751,6.538s-3.465,8.014-3.465,11.006Z" transform="translate(-164.903 -96.649)" opacity="0.1"/>
      <path id="Path_1873" data-name="Path 1873" d="M255.92,279.254a4.86,4.86,0,0,0,1.354-3.472,8.84,8.84,0,0,0-1.083-4.542,13.158,13.158,0,0,0-1.212-1.767c-.474-.609-.975-1.191-1.5-1.753-.061-.061-.176-.061-.217-.142s.149-.081.074-.034" transform="translate(-174.214 -120.107)" fill="none" stroke="#263238" stroke-linecap="round" stroke-linejoin="round" stroke-width="0.98"/>
      <path id="Path_1874" data-name="Path 1874" d="M275.39,251.041a13.943,13.943,0,0,0,5.489-13.171" transform="translate(-181.365 -110.528)" fill="none" stroke="#263238" stroke-linecap="round" stroke-linejoin="round" stroke-width="0.98"/>
      <path id="Path_1875" data-name="Path 1875" d="M279.092,222.876s-1.929-5.415-6.092-7.906" transform="translate(-180.592 -103.128)" fill="none" stroke="#263238" stroke-linecap="round" stroke-linejoin="round" stroke-width="0.98"/>
    </g>
    <g id="Videos" transform="translate(257.46 61.087)">
      <rect id="Rectangle_781" data-name="Rectangle 781" width="42.181" height="4.19" transform="translate(84.66 11.459)" fill="#263238"/>
      <rect id="Rectangle_782" data-name="Rectangle 782" width="42.181" height="4.19" transform="translate(84.66 19.561)" fill="#263238"/>
      <rect id="Rectangle_783" data-name="Rectangle 783" width="42.181" height="4.19" transform="translate(84.66 27.663)" fill="#263238"/>
      <rect id="Rectangle_784" data-name="Rectangle 784" width="73.898" height="46.236" rx="8.91" transform="translate(0 3.56)" opacity="0.1"/>
      <rect id="Rectangle_785" data-name="Rectangle 785" width="73.898" height="46.236" rx="8.91" transform="translate(4.921)" fill="#2699fb" stroke="#263238" stroke-miterlimit="10" stroke-width="1"/>
      <circle id="Ellipse_32" data-name="Ellipse 32" cx="15.642" cy="15.642" r="15.642" transform="translate(26.262 7.689)" fill="#fff"/>
      <path id="Path_1880" data-name="Path 1880" d="M435.72,129.84V112.56l13.733,8.637Z" transform="translate(-398.263 -97.466)" fill="#263238"/>
      <rect id="Rectangle_786" data-name="Rectangle 786" width="42.181" height="4.19" transform="translate(84.66 72.673)" fill="#263238"/>
      <rect id="Rectangle_787" data-name="Rectangle 787" width="42.181" height="4.19" transform="translate(84.66 80.775)" fill="#263238"/>
      <rect id="Rectangle_788" data-name="Rectangle 788" width="42.181" height="4.19" transform="translate(84.66 88.877)" fill="#263238"/>
      <rect id="Rectangle_789" data-name="Rectangle 789" width="73.898" height="46.236" rx="8.91" transform="translate(0 63.556)" opacity="0.1"/>
      <rect id="Rectangle_790" data-name="Rectangle 790" width="73.898" height="46.236" rx="8.91" transform="translate(4.921 60.26)" fill="#2699fb" stroke="#263238" stroke-miterlimit="10" stroke-width="1"/>
      <circle id="Ellipse_33" data-name="Ellipse 33" cx="15.642" cy="15.642" r="15.642" transform="translate(21.517 75.162) rotate(-22.17)" fill="#fff"/>
      <path id="Path_1881" data-name="Path 1881" d="M435.72,219.093V201.82l13.733,8.637Z" transform="translate(-398.263 -126.311)" fill="#263238"/>
      <rect id="Rectangle_791" data-name="Rectangle 791" width="42.181" height="4.19" transform="translate(84.66 132.473)" fill="#263238"/>
      <rect id="Rectangle_792" data-name="Rectangle 792" width="42.181" height="4.19" transform="translate(84.66 140.575)" fill="#263238"/>
      <rect id="Rectangle_793" data-name="Rectangle 793" width="42.181" height="4.19" transform="translate(84.66 148.677)" fill="#263238"/>
      <rect id="Rectangle_794" data-name="Rectangle 794" width="73.898" height="46.236" rx="8.91" transform="translate(0 123.207)" opacity="0.1"/>
      <rect id="Rectangle_795" data-name="Rectangle 795" width="73.898" height="46.236" rx="8.91" transform="translate(4.921 120.52)" fill="#2699fb" stroke="#263238" stroke-miterlimit="10" stroke-width="1"/>
      <circle id="Ellipse_34" data-name="Ellipse 34" cx="15.642" cy="15.642" r="15.642" transform="translate(21.489 135.654) rotate(-22.33)" fill="#fff"/>
      <path id="Path_1882" data-name="Path 1882" d="M435.72,308.343V291.07l13.733,8.637Z" transform="translate(-398.263 -155.152)" fill="#263238"/>
    </g>
    <g id="Group_1064" data-name="Group 1064" transform="matrix(0.848, 0.53, -0.53, 0.848, 8856.914, 1606.896)">
      <path id="Path_1894" data-name="Path 1894" d="M952.5,567.943a5.014,5.014,0,0,1-3.047,2.416l-59.622,16.619a5.025,5.025,0,0,1-6.158-3.4L873.832,550.8l-3.282-10.92-1.271-4.247h-.009l-.586-1.965a5.022,5.022,0,0,1,3.355-6.252l.072-.027,9.044-2.735,10.758-3.256,9.079-2.751L911.7,515.4l9.134-2.753,10.667-3.229,1.2-.361a5,5,0,0,1,6.222,3.386l.469,1.723,1.4,5.158,12.156,44.9a5,5,0,0,1-.451,3.717Z" transform="translate(-9043.094 2870.091)" fill="#565656"/>
      <path id="Path_1895" data-name="Path 1895" d="M940.775,519.341l-6.284,1.839-8.909,2.6-11.154,3.264-8.864,2.588-11.2,3.282-8.828,2.579L874.3,538.789l-3.769,1.1-1.28-4.247-.586-1.965a5.022,5.022,0,0,1,3.355-6.252l.072-.027,9.044-2.735,10.758-3.256,9.079-2.751,10.713-3.246,9.137-2.752,10.667-3.227,1.2-.361a5,5,0,0,1,6.222,3.386l.469,1.723Z" transform="translate(-9043.076 2870.148)" fill="#fff"/>
      <path id="Path_1896" data-name="Path 1896" d="M1290.5,523.13l-6.284,1.839-13.67-8.522,10.667-3.227,7.89,4.753Z" transform="translate(-9392.806 2866.293)" fill="#565656"/>
      <path id="Path_1897" data-name="Path 1897" d="M1142.778,567.558l-11.154,3.264-13.454-8.386,10.712-3.246Z" transform="translate(-9260.272 2826.31)" fill="#565656"/>
      <path id="Path_1898" data-name="Path 1898" d="M990.287,613.454l-11.2,3.282-13.228-8.251,10.758-3.255Z" transform="translate(-9127.801 2786.267)" fill="#565656"/>
      <path id="Path_1899" data-name="Path 1899" d="M885.555,659.28l-11.236,3.291-5.04-3.147h-.009l-.586-1.965a5.022,5.022,0,0,1,3.355-6.252l.072-.027h.009Z" transform="translate(-9043.094 2746.301)" fill="#565656"/>
      <path id="Path_1900" data-name="Path 1900" d="M988.306,848.071a5.014,5.014,0,0,1-3.048,2.416l-59.621,16.619a5.025,5.025,0,0,1-6.158-3.4L909.64,830.93Z" transform="translate(-9078.902 2589.963)" fill="#3a3a3a"/>
      <circle id="Ellipse_36" data-name="Ellipse 36" cx="11.817" cy="11.817" r="11.817" transform="translate(-8141.688 3410.935)" fill="#fff"/>
      <path id="Path_1901" data-name="Path 1901" d="M1171.647,813.345l2.037,7.163a1.361,1.361,0,0,0,2.192.666l6.321-5.367a1.362,1.362,0,0,0-.6-2.369l-8.349-1.8a1.361,1.361,0,0,0-1.6,1.7Z" transform="translate(-9306.739 2606.767)" fill="#565656"/>
      <rect id="Rectangle_796" data-name="Rectangle 796" width="73.188" height="0.903" transform="translate(-8172.666 3409.552) rotate(-16.33)" fill="#fff"/>
    </g>
  </g>
</svg>
