<svg xmlns="http://www.w3.org/2000/svg" xmlns:xlink="http://www.w3.org/1999/xlink" width="466.629" height="469.72" viewBox="0 0 466.629 469.72">
  <defs>
    <clipPath id="clip-path">
      <path id="Path_1511" data-name="Path 1511" d="M164.641,161.6s-33.133-3.938-55.027,13.1S68.988,262.942,69.422,297.043s13.113,51.1,45,65.081,91.282,8.742,124.479-1.746,44.118-47.151,43.685-66.827-22.276-42.372-29.705-47.151-28.393-14.846-38.868-30.585S188.23,165.963,164.641,161.6Z" transform="translate(-69.414 -161.211)" fill="#0f4c81" stroke="#263238" stroke-linecap="round" stroke-linejoin="round" stroke-width="1"/>
    </clipPath>
    <clipPath id="clip-path-2">
      <path id="Path_1519" data-name="Path 1519" d="M146.338,164.443s-11.89,3.823-13.6,6.805-.421,23.779-.421,26.328,1.491-1.478,2.765-4.46,5.735-7.429,7.213-7.009,2.345,2.128,2.345,4.894,3.39,6.576,6.372,8.7,5.735,4.244,5.735,4.244,6.155-8.921,7.646-11.253,1.274-7.226,1.478-8.921,4.04,4.677,4.894,2.969-1.912-3.186-4.894-7.85-2.115-9.558-6.576-12.96S149.741,163.6,146.338,164.443Z" transform="translate(-131.855 -163.593)" fill="#fff" stroke="#263238" stroke-linecap="round" stroke-linejoin="round" stroke-width="1"/>
    </clipPath>
    <clipPath id="clip-path-3">
      <path id="Path_1524" data-name="Path 1524" d="M129.287,234.338s-7.328-10.513-16.248-11.469-19.753,6.372-20.071,8.92-2.549,16.248-.956,18.16,7.646,3.5,19.434-.319S128.013,241.028,129.287,234.338Z" transform="translate(-91.444 -222.783)" fill="#fff" stroke="#263238" stroke-linecap="round" stroke-linejoin="round" stroke-width="1"/>
    </clipPath>
    <clipPath id="clip-path-4">
      <path id="Path_1529" data-name="Path 1529" d="M104.316,238.627s-11.966,4.741-12.425,14.018c-.268,5.1,8.283,7.328,17.2,7.328s21.664-11.151,29.947-15.929,27.4-15.929,29.629-16.885,9.876,1.593,13.062,2.549a43.086,43.086,0,0,0,9.239.956s4.46,7.009,6.69,7.009-4.779-10.513-5.735-12.744S175.362,217.6,173.45,217.6s-46.514,11.151-53.2,13.7S104.316,238.627,104.316,238.627Z" transform="translate(-91.885 -217.6)" fill="#fff" stroke="#263238" stroke-linecap="round" stroke-linejoin="round" stroke-width="1"/>
    </clipPath>
    <clipPath id="clip-path-5">
      <path id="Path_1535" data-name="Path 1535" d="M174.49,221.35l-34.14,24.136,78.054-2.23,26.175-21.588Z" transform="translate(-140.35 -221.35)" fill="#fff" stroke="#263238" stroke-linecap="round" stroke-linejoin="round" stroke-width="1"/>
    </clipPath>
    <clipPath id="clip-path-6">
      <path id="Path_1540" data-name="Path 1540" d="M187.39,248.3s28.036-24.531,55.753-32.815,33.452-7.009,32.815,5.416-14.018,77.417-22.938,93.984-20.071,46.833-19.753,52.567,11.151,22.62,20.708,28.673,8.6,13.381,2.549,14.655-13.062,3.5-33.77-9.876-29.31-32.5-28.036-37.275,14.655-11.151,20.071-20.708,14.336-45.24,14.974-61.488a96.544,96.544,0,0,1,6.372-29.947s-35.045,6.372-45.24,12.744Z" transform="translate(-187.39 -210.222)" fill="#fff" stroke="#263238" stroke-linecap="round" stroke-linejoin="round" stroke-width="1"/>
    </clipPath>
    <clipPath id="clip-path-7">
      <path id="Path_1547" data-name="Path 1547" d="M214.789,342.918a23.422,23.422,0,0,1-1.364,2.09,32.777,32.777,0,0,1,17.93,7.468,58.825,58.825,0,0,1,4.358,4.205c6.1-8.194,12.973-34.089,20.721-44.73,20.02-27.513,18.886-78.628,19.523-91.053s-5.1-13.7-32.815-5.416S187.39,248.3,187.39,248.3l3.5,15.929c10.195-6.372,45.24-12.744,45.24-12.744a96.545,96.545,0,0,0-6.372,29.947C229.125,297.679,220.2,333.361,214.789,342.918Z" transform="translate(-187.39 -210.222)" fill="#263238" stroke="#263238" stroke-linecap="round" stroke-linejoin="round" stroke-width="1"/>
    </clipPath>
    <clipPath id="clip-path-8">
      <path id="Path_1553" data-name="Path 1553" d="M124.949,249.221s-10.195,5.735-13.7,12.106,11.571,16.987,27.5,16.35,45.138-17.943,45.138-17.943.319,28.036,5.735,38.231,30.266,35.045,40.142,41.417,43.01,30.266,48.107,34.089,14.655,10.832,16.885,11.151,25.487-28.036,30.9-37.594,10.195-29.629,8.283-34.089-5.735-.637-9.558,2.549-38.868,26.443-42.054,28.036a34.965,34.965,0,0,1-5.416,2.23s-28.673-27.4-43.965-48.426-16.567-48.107-22.3-58.3-14.018-14.655-26.443-13.381S145.976,233.61,124.949,249.221Z" transform="translate(-110.738 -225.433)" fill="#fff" stroke="#263238" stroke-linecap="round" stroke-linejoin="round" stroke-width="1"/>
    </clipPath>
    <clipPath id="clip-path-9">
      <path id="Path_1558" data-name="Path 1558" d="M275.778,343.884c-6.729-6.563-32.012-40.474-41.977-59.971-14.617-28.571-16.2-38.307-21.932-48.5s-14.387-10.985-26.761-9.711-34.663,3.581-61.934,19.115c0,0-11.469,6.219-14.961,12.591s9.252,22.416,31.438,20.39c15.878-1.453,45.138-17.943,45.138-17.943s.319,28.036,5.735,38.231,30.266,35.045,40.142,41.417c6.257,4.04,21.868,15.127,33.758,23.665C267.393,352.434,272.618,346.585,275.778,343.884Z" transform="translate(-107.641 -225.237)" fill="#263238" stroke="#263238" stroke-linecap="round" stroke-linejoin="round" stroke-width="1"/>
    </clipPath>
    <clipPath id="clip-path-10">
      <path id="Path_1564" data-name="Path 1564" d="M287.209,328.623c5.416-9.558,10.195-29.629,8.283-34.089-1.109-2.549-2.867-2.383-4.881-1.147,1.338,5.964,0,17.446-6.588,29.82-5.875,11.036-24.022,30.585-33.133,40.04a21.664,21.664,0,0,0,5.454,2.969C258.536,366.535,281.793,338.181,287.209,328.623Z" transform="translate(-250.89 -292.517)" fill="#fff" stroke="#263238" stroke-linecap="round" stroke-linejoin="round" stroke-width="1"/>
    </clipPath>
    <clipPath id="clip-path-11">
      <path id="Path_1570" data-name="Path 1570" d="M252.424,363.856a41.774,41.774,0,0,1-8.5-7.646c-6.576-2.791-15.292-6.372-23.04-11.151-8.283-5.1-6.372-8.283-11.151-13.062-3.67-3.67-10.883-4.142-14.018-4.167a8.6,8.6,0,0,0-2.549,3.53c-1.274,4.779,7.328,23.894,28.036,37.275s27.717,11.151,33.77,9.876S261.982,369.909,252.424,363.856Z" transform="translate(-193.044 -327.83)" fill="#fff" stroke="#263238" stroke-linecap="round" stroke-linejoin="round" stroke-width="1"/>
    </clipPath>
    <clipPath id="clip-path-12">
      <path id="Path_1574" data-name="Path 1574" d="M254.011,365.536c-8.283-4.779-25.169-7.965-36-15.292s-7.965-13.7-15.929-18.8a8.092,8.092,0,0,0-8.921-.51c-1.109,4.957,7.519,23.869,28.036,37.147s27.717,11.151,33.77,9.876c4.014-.854,5.773-4.371,3.7-8.423a17.521,17.521,0,0,0-4.651-4Z" transform="translate(-193.066 -329.836)" fill="#263238" stroke="#263238" stroke-linecap="round" stroke-linejoin="round" stroke-width="1"/>
    </clipPath>
    <clipPath id="clip-path-13">
      <path id="Path_1585" data-name="Path 1585" d="M140.54,151.385s1.478,16.1,2.1,21.18,2.052,19.689,3.517,24.519,9.456,13.228,10.195,11.278S161.083,193.3,159.5,185.5s-2.064-14.591-1.083-16.567,4.511-4.218,4.511-4.218a126.264,126.264,0,0,1-11.966-6.958C145.319,153.959,141.317,149.652,140.54,151.385Z" transform="translate(-140.54 -150.99)" fill="#fff" stroke="#263238" stroke-linecap="round" stroke-linejoin="round" stroke-width="1"/>
    </clipPath>
    <clipPath id="clip-path-14">
      <path id="Path_1590" data-name="Path 1590" d="M141.574,161.55S150.762,169.2,157.8,172s17.841,2.625,19.37-1.045-2.663-32.611-6.3-40.244-7.519-7.748-13.916-8.322-19.23,4.639-21.486,10.832.319,14.961,2.179,20.16a39.122,39.122,0,0,0,3.925,8.169Z" transform="translate(-134.589 -122.346)" fill="#fff" stroke="#263238" stroke-linecap="round" stroke-linejoin="round" stroke-width="1"/>
    </clipPath>
    <clipPath id="clip-path-15">
      <path id="Path_1607" data-name="Path 1607" d="M144.5,148.025s-4.116-5.939-8.462-3.543-.956,10.858,1.657,13.8,7.646-2.549,8.169-3.925" transform="translate(-133.954 -143.913)" fill="#fff" stroke="#263238" stroke-linecap="round" stroke-linejoin="round" stroke-width="1"/>
    </clipPath>
  </defs>
  <g id="illustrator_one" data-name="illustrator one" transform="translate(0.005)">
    <g id="Background_Simple" data-name="Background Simple" transform="translate(-0.005 53.414)">
      <path id="Path_1504" data-name="Path 1504" d="M438.737,322.837c9.532-77.736-36.625-181.213-84.49-223.917-86.389-77.086-158.16-62.176-213.99-34.561s-63.794,119.79-102.344,161.5-60.468,97.769-1.988,153.662,105.67,27.462,166.8,23.92,142.218,24.353,186.056.1C419.443,386.605,434.557,357.219,438.737,322.837Z" transform="translate(0.005 -42.022)" fill="#0f4c81"/>
      <path id="Path_1505" data-name="Path 1505" d="M438.737,322.837c9.532-77.736-36.625-181.213-84.49-223.917-86.389-77.086-158.16-62.176-213.99-34.561s-63.794,119.79-102.344,161.5-60.468,97.769-1.988,153.662,105.67,27.462,166.8,23.92,142.218,24.353,186.056.1C419.443,386.605,434.557,357.219,438.737,322.837Z" transform="translate(0.005 -42.022)" fill="#fff" opacity="0.7"/>
    </g>
    <g id="Background" transform="translate(10.464 0.5)">
      <line id="Line_2" data-name="Line 2" y1="286.654" transform="translate(186.336 44.335)" fill="none" stroke="#263238" stroke-linecap="round" stroke-linejoin="round" stroke-width="1"/>
      <path id="Path_1506" data-name="Path 1506" d="M8.21,262.45H189.028l274.713,88.682" transform="translate(-8.21 71.368)" fill="none" stroke="#263238" stroke-linecap="round" stroke-linejoin="round" stroke-width="1"/>
      <path id="Path_1507" data-name="Path 1507" d="M81.975,310.29H69.423V103.768H95.228L84.1,63.6H50.715L39.59,103.768H65.37V310.29H52.856a12.234,12.234,0,0,0-12.221,12v.191h0c.37,2.88,12.2,5.2,26.761,5.2s26.379-2.319,26.761-5.2h0A12.234,12.234,0,0,0,81.975,310.29Z" transform="translate(0.399 16.812)" fill="#263238"/>
      <path id="Path_1508" data-name="Path 1508" d="M203.41,30.626V273.849l183.074,30.075V.5Zm178.333,69.631-93.092,5.263V21.043L381.743,6.235Zm-93.092,14.158,93.092-4.269v84.949l-93.092-4.346Zm-7.557,75.977L206.481,186.9V118.187l74.614-3.428Zm0-168.151v83.712l-74.614,4.231V34.118ZM206.481,194.916l74.614,4.282v82.973l-74.614-11.864Zm82.17,88.466V199.644L381.743,205V298.19Z" transform="translate(45.344 -0.5)" fill="#263238" stroke="#263238" stroke-linecap="round" stroke-linejoin="round" stroke-width="1"/>
    </g>
    <g id="Character" transform="translate(31.401 134.871)">
      <ellipse id="Ellipse_24" data-name="Ellipse 24" cx="146.487" cy="45.635" rx="146.487" ry="45.635" transform="translate(18.185 226.412)" fill="#0f4c81"/>
      <ellipse id="Ellipse_25" data-name="Ellipse 25" cx="146.487" cy="45.635" rx="146.487" ry="45.635" transform="translate(18.185 226.412)" fill="#fff" opacity="0.5"/>
      <path id="Path_1509" data-name="Path 1509" d="M164.641,161.6s-33.133-3.938-55.027,13.1S68.988,262.942,69.422,297.043s13.113,51.1,45,65.081,91.282,8.742,124.479-1.746,44.118-47.151,43.685-66.827-22.276-42.372-29.705-47.151-28.393-14.846-38.868-30.585S188.23,165.963,164.641,161.6Z" transform="translate(-12.356 -90.779)" fill="#0f4c81"/>
      <g id="Group_1037" data-name="Group 1037" transform="translate(57.058 70.432)" clip-path="url(#clip-path)">
        <path id="Path_1510" data-name="Path 1510" d="M244.99,355.176c-12.552-1.695-27.437-5.1-38.7-11.941-23.792-14.451-29.731-41.633-38.231-51.828s-23.792-9.341-30.585-20.39,4.244-92.607-15.292-97.7a44.844,44.844,0,0,0-12.2-1.733,4.007,4.007,0,0,0-.37.28C87.772,188.9,68.988,260.1,69.422,294.2s13.113,51.1,45,65.081,91.282,8.742,124.479-1.746a54.794,54.794,0,0,0,6.091-2.358Z" transform="translate(-69.414 -158.366)" opacity="0.13"/>
      </g>
      <path id="Path_1512" data-name="Path 1512" d="M164.641,161.6s-33.133-3.938-55.027,13.1S68.988,262.942,69.422,297.043s13.113,51.1,45,65.081,91.282,8.742,124.479-1.746,44.118-47.151,43.685-66.827-22.276-42.372-29.705-47.151-28.393-14.846-38.868-30.585S188.23,165.963,164.641,161.6Z" transform="translate(-12.356 -90.779)" fill="none" stroke="#263238" stroke-linecap="round" stroke-linejoin="round" stroke-width="1"/>
      <path id="Path_1513" data-name="Path 1513" d="M143.63,174.14s-21.664,4.142-25.487,7.965S98.39,245.822,98.39,245.822a23.7,23.7,0,0,1,13.381.637c6.372,2.549,7.009,9.239,7.646,12.425a114,114,0,0,1,.956,11.469s64.393-5.76,78.093-8.921,34.51-4.677,34.51-4.677-35.223-79.431-40.639-82.3-28.036-3.186-31.222-2.549S143.63,174.14,143.63,174.14Z" transform="translate(-4.406 -87.919)" fill="#263238" stroke="#263238" stroke-linecap="round" stroke-linejoin="round" stroke-width="1"/>
      <line id="Line_3" data-name="Line 3" y1="44.284" x2="5.416" transform="translate(117.878 115.53)" fill="none" stroke="#fff" stroke-linecap="round" stroke-linejoin="round" stroke-width="1"/>
      <line id="Line_4" data-name="Line 4" y1="9.558" x2="7.328" transform="translate(122.02 117.76)" fill="none" stroke="#fff" stroke-linecap="round" stroke-linejoin="round" stroke-width="1"/>
      <path id="Path_1514" data-name="Path 1514" d="M137.64,211.79s20.708-6.69,34.408-6.69" transform="translate(6.362 -78.738)" fill="none" stroke="#fff" stroke-linecap="round" stroke-linejoin="round" stroke-width="1"/>
      <path id="Path_1515" data-name="Path 1515" d="M153.3,196l-1.376,10.628s3.5,0,3.823,1.593a4.231,4.231,0,0,1-1.274,3.186s9.876,5.416,11.151,11.788" transform="translate(10.28 -81.234)" fill="none" stroke="#fff" stroke-linecap="round" stroke-linejoin="round" stroke-width="1"/>
      <path id="Path_1516" data-name="Path 1516" d="M146.338,164.443s-11.89,3.823-13.6,6.805-.421,23.779-.421,26.328,1.491-1.478,2.765-4.46,5.735-7.429,7.213-7.009,2.345,2.128,2.345,4.894,3.39,6.576,6.372,8.7,5.735,4.244,5.735,4.244,6.155-8.921,7.646-11.253,1.274-7.226,1.478-8.921,4.04,4.677,4.894,2.969-1.912-3.186-4.894-7.85-2.115-9.558-6.576-12.96S149.741,163.6,146.338,164.443Z" transform="translate(4.775 -90.125)" fill="#fff"/>
      <g id="Group_1038" data-name="Group 1038" transform="translate(136.63 73.468)" clip-path="url(#clip-path-2)">
        <path id="Path_1517" data-name="Path 1517" d="M132.74,171.06c-1.134,1.975-.943,11.9-.688,19.115,2.714-3.5,8.3-10.093,11.546-8.844,4.116,1.593,5.709,13.33,5.709,13.33l-2.791-30.381h-.178S134.448,168.078,132.74,171.06Z" transform="translate(-131.854 -163.405)" fill="#0f4c81"/>
        <path id="Path_1518" data-name="Path 1518" d="M132.74,171.06c-1.134,1.975-.943,11.9-.688,19.115,2.714-3.5,8.3-10.093,11.546-8.844,4.116,1.593,5.709,13.33,5.709,13.33l-2.791-30.381h-.178S134.448,168.078,132.74,171.06Z" transform="translate(-131.854 -163.405)" fill="#fff" opacity="0.5"/>
      </g>
      <path id="Path_1520" data-name="Path 1520" d="M146.338,164.443s-11.89,3.823-13.6,6.805-.421,23.779-.421,26.328,1.491-1.478,2.765-4.46,5.735-7.429,7.213-7.009,2.345,2.128,2.345,4.894,3.39,6.576,6.372,8.7,5.735,4.244,5.735,4.244,6.155-8.921,7.646-11.253,1.274-7.226,1.478-8.921,4.04,4.677,4.894,2.969-1.912-3.186-4.894-7.85-2.115-9.558-6.576-12.96S149.741,163.6,146.338,164.443Z" transform="translate(4.775 -90.125)" fill="none" stroke="#263238" stroke-linecap="round" stroke-linejoin="round" stroke-width="1"/>
      <path id="Path_1521" data-name="Path 1521" d="M129.287,234.338s-7.328-10.513-16.248-11.469-19.753,6.372-20.071,8.92-2.549,16.248-.956,18.16,7.646,3.5,19.434-.319S128.013,241.028,129.287,234.338Z" transform="translate(-6.312 -73.886)" fill="#fff"/>
      <g id="Group_1039" data-name="Group 1039" transform="translate(85.132 148.897)" clip-path="url(#clip-path-3)">
        <path id="Path_1522" data-name="Path 1522" d="M99.47,249.549s-2.549-7.289-1.274-9.838,6.372-6.372,9.519-10.195-7.43,2.154-7.939,0c-.4-1.733,5.594-5.2,7.952-6.486-7.417,1.427-14.515,6.576-14.77,8.64-.319,2.549-2.549,16.248-.956,18.16.816.981,2.842,1.873,6.219,2C99,250.531,99.47,249.549,99.47,249.549Z" transform="translate(-91.447 -222.715)" fill="#0f4c81"/>
        <path id="Path_1523" data-name="Path 1523" d="M99.47,249.549s-2.549-7.289-1.274-9.838,6.372-6.372,9.519-10.195-7.43,2.154-7.939,0c-.4-1.733,5.594-5.2,7.952-6.486-7.417,1.427-14.515,6.576-14.77,8.64-.319,2.549-2.549,16.248-.956,18.16.816.981,2.842,1.873,6.219,2C99,250.531,99.47,249.549,99.47,249.549Z" transform="translate(-91.447 -222.715)" fill="#fff" opacity="0.5"/>
      </g>
      <path id="Path_1525" data-name="Path 1525" d="M129.287,234.338s-7.328-10.513-16.248-11.469-19.753,6.372-20.071,8.92-2.549,16.248-.956,18.16,7.646,3.5,19.434-.319S128.013,241.028,129.287,234.338Z" transform="translate(-6.312 -73.886)" fill="none" stroke="#263238" stroke-linecap="round" stroke-linejoin="round" stroke-width="1"/>
      <path id="Path_1526" data-name="Path 1526" d="M104.316,238.627s-11.966,4.741-12.425,14.018c-.268,5.1,8.283,7.328,17.2,7.328s21.664-11.151,29.947-15.929,27.4-15.929,29.629-16.885,9.876,1.593,13.062,2.549a43.086,43.086,0,0,0,9.239.956s4.46,7.009,6.69,7.009-4.779-10.513-5.735-12.744S175.362,217.6,173.45,217.6s-46.514,11.151-53.2,13.7S104.316,238.627,104.316,238.627Z" transform="translate(-6.191 -75.308)" fill="#fff"/>
      <g id="Group_1040" data-name="Group 1040" transform="translate(85.694 142.292)" clip-path="url(#clip-path-4)">
        <path id="Path_1527" data-name="Path 1527" d="M129.294,237.3c18.223-9.112,44.156-19.7,44.156-19.7-1.912,0-46.514,11.151-53.2,13.7s-15.929,7.328-15.929,7.328-11.966,4.741-12.425,14.018c-.268,5.1,8.283,7.328,17.2,7.328s21.664-11.151,29.947-15.929l5.021-2.905C131.881,242.7,115.62,244.132,129.294,237.3Z" transform="translate(-91.885 -217.6)" fill="#0f4c81"/>
        <path id="Path_1528" data-name="Path 1528" d="M129.294,237.3c18.223-9.112,44.156-19.7,44.156-19.7-1.912,0-46.514,11.151-53.2,13.7s-15.929,7.328-15.929,7.328-11.966,4.741-12.425,14.018c-.268,5.1,8.283,7.328,17.2,7.328s21.664-11.151,29.947-15.929l5.021-2.905C131.881,242.7,115.62,244.132,129.294,237.3Z" transform="translate(-91.885 -217.6)" fill="#fff" opacity="0.5"/>
      </g>
      <path id="Path_1530" data-name="Path 1530" d="M104.316,238.627s-11.966,4.741-12.425,14.018c-.268,5.1,8.283,7.328,17.2,7.328s21.664-11.151,29.947-15.929,27.4-15.929,29.629-16.885,9.876,1.593,13.062,2.549a43.086,43.086,0,0,0,9.239.956s4.46,7.009,6.69,7.009-4.779-10.513-5.735-12.744S175.362,217.6,173.45,217.6s-46.514,11.151-53.2,13.7S104.316,238.627,104.316,238.627Z" transform="translate(-6.191 -75.308)" fill="none" stroke="#263238" stroke-linecap="round" stroke-linejoin="round" stroke-width="1"/>
      <path id="Path_1531" data-name="Path 1531" d="M176.838,179.045l-9.7,54.619,70.09.319,10.424-51.739a3.224,3.224,0,0,0-3.058-3.823l-64.482-1.95a3.237,3.237,0,0,0-3.275,2.574Z" transform="translate(14.456 -86.593)" fill="#fff" stroke="#263238" stroke-linecap="round" stroke-linejoin="round" stroke-width="1"/>
      <path id="Path_1532" data-name="Path 1532" d="M174.49,221.35l-34.14,24.136,78.054-2.23,26.175-21.588Z" transform="translate(7.106 -74.279)" fill="#fff"/>
      <g id="Group_1041" data-name="Group 1041" transform="translate(147.456 147.071)" clip-path="url(#clip-path-5)">
        <path id="Path_1533" data-name="Path 1533" d="M174.49,221.35l-34.14,24.136,78.054-2.23,26.175-21.588Z" transform="translate(-140.35 -221.35)" fill="#0f4c81"/>
        <path id="Path_1534" data-name="Path 1534" d="M174.49,221.35l-34.14,24.136,78.054-2.23,26.175-21.588Z" transform="translate(-140.35 -221.35)" fill="#fff" opacity="0.5"/>
      </g>
      <path id="Path_1536" data-name="Path 1536" d="M174.49,221.35l-34.14,24.136,78.054-2.23,26.175-21.588Z" transform="translate(7.106 -74.279)" fill="none" stroke="#263238" stroke-linecap="round" stroke-linejoin="round" stroke-width="1"/>
      <path id="Path_1537" data-name="Path 1537" d="M187.39,248.3s28.036-24.531,55.753-32.815,33.452-7.009,32.815,5.416-14.018,77.417-22.938,93.984-20.071,46.833-19.753,52.567,11.151,22.62,20.708,28.673,8.6,13.381,2.549,14.655-13.062,3.5-33.77-9.876-29.31-32.5-28.036-37.275,14.655-11.151,20.071-20.708,14.336-45.24,14.974-61.488a96.544,96.544,0,0,1,6.372-29.947s-35.045,6.372-45.24,12.744Z" transform="translate(20.011 -77.332)" fill="#fff"/>
      <g id="Group_1042" data-name="Group 1042" transform="translate(207.401 132.889)" clip-path="url(#clip-path-6)">
        <path id="Path_1538" data-name="Path 1538" d="M187.39,248.3s28.036-24.531,55.753-32.815,33.452-7.009,32.815,5.416-14.018,77.417-22.938,93.984-20.071,46.833-19.753,52.567,11.151,22.62,20.708,28.673,8.6,13.381,2.549,14.655-13.062,3.5-33.77-9.876-29.31-32.5-28.036-37.275,14.655-11.151,20.071-20.708,14.336-45.24,14.974-61.488a96.544,96.544,0,0,1,6.372-29.947s-35.045,6.372-45.24,12.744Z" transform="translate(-187.39 -210.222)" fill="#0f4c81"/>
        <path id="Path_1539" data-name="Path 1539" d="M187.39,248.3s28.036-24.531,55.753-32.815,33.452-7.009,32.815,5.416-14.018,77.417-22.938,93.984-20.071,46.833-19.753,52.567,11.151,22.62,20.708,28.673,8.6,13.381,2.549,14.655-13.062,3.5-33.77-9.876-29.31-32.5-28.036-37.275,14.655-11.151,20.071-20.708,14.336-45.24,14.974-61.488a96.544,96.544,0,0,1,6.372-29.947s-35.045,6.372-45.24,12.744Z" transform="translate(-187.39 -210.222)" fill="#fff" opacity="0.5"/>
      </g>
      <path id="Path_1541" data-name="Path 1541" d="M187.39,248.3s28.036-24.531,55.753-32.815,33.452-7.009,32.815,5.416-14.018,77.417-22.938,93.984-20.071,46.833-19.753,52.567,11.151,22.62,20.708,28.673,8.6,13.381,2.549,14.655-13.062,3.5-33.77-9.876-29.31-32.5-28.036-37.275,14.655-11.151,20.071-20.708,14.336-45.24,14.974-61.488a96.544,96.544,0,0,1,6.372-29.947s-35.045,6.372-45.24,12.744Z" transform="translate(20.011 -77.332)" fill="none" stroke="#263238" stroke-linecap="round" stroke-linejoin="round" stroke-width="1"/>
      <path id="Path_1542" data-name="Path 1542" d="M214.789,342.918a23.422,23.422,0,0,1-1.364,2.09,32.777,32.777,0,0,1,17.93,7.468,58.825,58.825,0,0,1,4.358,4.205,279.092,279.092,0,0,1,17.306-41.8c8.92-16.567,22.3-81.559,22.938-93.984s-5.1-13.7-32.815-5.416S187.39,248.3,187.39,248.3l3.5,15.929c10.195-6.372,45.24-12.744,45.24-12.744a96.545,96.545,0,0,0-6.372,29.947C229.125,297.679,220.2,333.361,214.789,342.918Z" transform="translate(20.011 -77.332)" fill="#fff" stroke="#263238" stroke-linecap="round" stroke-linejoin="round" stroke-width="1"/>
      <path id="Path_1543" data-name="Path 1543" d="M214.789,342.918a23.422,23.422,0,0,1-1.364,2.09,32.777,32.777,0,0,1,17.93,7.468,58.825,58.825,0,0,1,4.358,4.205c6.1-8.194,12.973-34.089,20.721-44.73,20.02-27.513,18.886-78.628,19.523-91.053s-5.1-13.7-32.815-5.416S187.39,248.3,187.39,248.3l3.5,15.929c10.195-6.372,45.24-12.744,45.24-12.744a96.545,96.545,0,0,0-6.372,29.947C229.125,297.679,220.2,333.361,214.789,342.918Z" transform="translate(20.011 -77.332)" fill="#263238"/>
      <g id="Group_1043" data-name="Group 1043" transform="translate(207.401 132.889)" clip-path="url(#clip-path-7)">
        <path id="Path_1544" data-name="Path 1544" d="M214.789,342.918a23.422,23.422,0,0,1-1.364,2.09,32.777,32.777,0,0,1,17.93,7.468,58.825,58.825,0,0,1,4.358,4.205c6.1-8.194,12.973-34.089,20.721-44.73,20.02-27.513,18.886-78.628,19.523-91.053s-5.1-13.7-32.815-5.416S187.39,248.3,187.39,248.3l3.5,15.929c10.195-6.372,45.24-12.744,45.24-12.744a96.545,96.545,0,0,0-6.372,29.947C229.125,297.679,220.2,333.361,214.789,342.918Z" transform="translate(-187.39 -210.222)" fill="#fff" opacity="0.53"/>
        <path id="Path_1545" data-name="Path 1545" d="M262.488,217.417c-.51-4.524-49.776,16.325-70.561,25.334-2.88,2.294-4.537,3.747-4.537,3.747l3.5,15.929c10.195-6.372,45.24-12.744,45.24-12.744a96.545,96.545,0,0,0-6.372,29.947c-.637,16.248-9.558,51.93-14.974,61.488a23.439,23.439,0,0,1-1.364,2.09,36.539,36.539,0,0,1,10.195,2.625c7.723-16.312,15.891-35.223,19.778-50.044C250.381,269.028,263.125,223.151,262.488,217.417Z" transform="translate(-187.39 -208.422)" opacity="0.14"/>
        <path id="Path_1546" data-name="Path 1546" d="M225.64,248.5s9.558-19.434,17.841-27.4" transform="translate(-176.896 -207.237)" fill="none" stroke="#263238" stroke-linecap="round" stroke-linejoin="round" stroke-width="1"/>
      </g>
      <path id="Path_1548" data-name="Path 1548" d="M214.789,342.918a23.422,23.422,0,0,1-1.364,2.09,32.777,32.777,0,0,1,17.93,7.468,58.825,58.825,0,0,1,4.358,4.205c6.1-8.194,12.973-34.089,20.721-44.73,20.02-27.513,18.886-78.628,19.523-91.053s-5.1-13.7-32.815-5.416S187.39,248.3,187.39,248.3l3.5,15.929c10.195-6.372,45.24-12.744,45.24-12.744a96.545,96.545,0,0,0-6.372,29.947C229.125,297.679,220.2,333.361,214.789,342.918Z" transform="translate(20.011 -77.332)" fill="none" stroke="#263238" stroke-linecap="round" stroke-linejoin="round" stroke-width="1"/>
      <path id="Path_1549" data-name="Path 1549" d="M154.455,263.849a109.349,109.349,0,0,0,30.139-5.684c14.413-5.238-11.8-14.846-21.842-9.609a14.935,14.935,0,0,0-8.3,15.292Z" transform="translate(10.944 -67.231)" fill="#263238" stroke="#263238" stroke-linecap="round" stroke-linejoin="round" stroke-width="1"/>
      <path id="Path_1550" data-name="Path 1550" d="M124.949,249.221s-10.195,5.735-13.7,12.106,11.571,16.987,27.5,16.35,45.138-17.943,45.138-17.943.319,28.036,5.735,38.231,30.266,35.045,40.142,41.417,43.01,30.266,48.107,34.089,14.655,10.832,16.885,11.151,25.487-28.036,30.9-37.594,10.195-29.629,8.283-34.089-5.735-.637-9.558,2.549-38.868,26.443-42.054,28.036a34.965,34.965,0,0,1-5.416,2.23s-28.673-27.4-43.965-48.426-16.567-48.107-22.3-58.3-14.018-14.655-26.443-13.381S145.976,233.61,124.949,249.221Z" transform="translate(-1.018 -73.159)" fill="#fff"/>
      <g id="Group_1044" data-name="Group 1044" transform="translate(109.72 152.274)" clip-path="url(#clip-path-8)">
        <path id="Path_1551" data-name="Path 1551" d="M227.67,332.93c8.513,6.091,15.917,11.469,18.121,13.126,5.1,3.823,14.655,10.832,16.885,11.151.79.115,4.231-3.39,8.576-8.373L234.768,325.36Z" transform="translate(-78.658 -198.018)" fill="#0f4c81"/>
        <path id="Path_1552" data-name="Path 1552" d="M227.67,332.93c8.513,6.091,15.917,11.469,18.121,13.126,5.1,3.823,14.655,10.832,16.885,11.151.79.115,4.231-3.39,8.576-8.373L234.768,325.36Z" transform="translate(-78.658 -198.018)" fill="#fff" opacity="0.5"/>
      </g>
      <path id="Path_1554" data-name="Path 1554" d="M124.949,249.221s-10.195,5.735-13.7,12.106,11.571,16.987,27.5,16.35,45.138-17.943,45.138-17.943.319,28.036,5.735,38.231,30.266,35.045,40.142,41.417,43.01,30.266,48.107,34.089,14.655,10.832,16.885,11.151,25.487-28.036,30.9-37.594,10.195-29.629,8.283-34.089-5.735-.637-9.558,2.549-38.868,26.443-42.054,28.036a34.965,34.965,0,0,1-5.416,2.23s-28.673-27.4-43.965-48.426-16.567-48.107-22.3-58.3-14.018-14.655-26.443-13.381S145.976,233.61,124.949,249.221Z" transform="translate(-1.018 -73.159)" fill="none" stroke="#263238" stroke-linecap="round" stroke-linejoin="round" stroke-width="1"/>
      <path id="Path_1555" data-name="Path 1555" d="M275.778,343.884c-6.729-6.563-32.012-40.474-41.977-59.971-14.617-28.571-16.2-38.307-21.932-48.5s-14.387-10.985-26.761-9.711-34.663,3.581-61.934,19.115c0,0-11.469,6.219-14.961,12.591s9.252,22.416,31.438,20.39c15.878-1.453,45.138-17.943,45.138-17.943s.319,28.036,5.735,38.231,30.266,35.045,40.142,41.417c6.257,4.04,21.868,15.127,33.758,23.665C267.393,352.434,272.618,346.585,275.778,343.884Z" transform="translate(-1.868 -73.213)" fill="#263238"/>
      <g id="Group_1045" data-name="Group 1045" transform="translate(105.773 152.024)" clip-path="url(#clip-path-9)">
        <path id="Path_1556" data-name="Path 1556" d="M275.778,343.884c-6.729-6.563-32.012-40.474-41.977-59.971-14.617-28.571-16.2-38.307-21.932-48.5s-14.387-10.985-26.761-9.711-34.663,3.581-61.934,19.115c0,0-11.469,6.219-14.961,12.591s9.252,22.416,31.438,20.39c15.878-1.453,45.138-17.943,45.138-17.943s.319,28.036,5.735,38.231,30.266,35.045,40.142,41.417c6.257,4.04,21.868,15.127,33.758,23.665C267.393,352.434,272.618,346.585,275.778,343.884Z" transform="translate(-107.641 -225.237)" fill="#fff" opacity="0.53"/>
        <path id="Path_1557" data-name="Path 1557" d="M211.664,297.17c-9.558-24.213-3.823-72.638-30.585-66.267-19.5,4.639-55.243,21.129-73.2,29.731,2.115,7.3,13.852,17.331,31.655,15.7,15.878-1.453,45.138-17.943,45.138-17.943s.319,28.036,5.735,38.231,30.266,35.045,40.142,41.417c6.257,4.04,21.868,15.127,33.758,23.665a45.548,45.548,0,0,1,4.448-10.666C245.026,333.5,216.99,310.678,211.664,297.17Z" transform="translate(-107.576 -223.839)" opacity="0.14"/>
        <line id="Line_5" data-name="Line 5" x1="0.956" y1="16.567" transform="translate(76.141 17.986)" fill="none" stroke="#263238" stroke-linecap="round" stroke-linejoin="round" stroke-width="1"/>
      </g>
      <path id="Path_1559" data-name="Path 1559" d="M275.778,343.884c-6.729-6.563-32.012-40.474-41.977-59.971-14.617-28.571-16.2-38.307-21.932-48.5s-14.387-10.985-26.761-9.711-34.663,3.581-61.934,19.115c0,0-11.469,6.219-14.961,12.591s9.252,22.416,31.438,20.39c15.878-1.453,45.138-17.943,45.138-17.943s.319,28.036,5.735,38.231,30.266,35.045,40.142,41.417c6.257,4.04,21.868,15.127,33.758,23.665C267.393,352.434,272.618,346.585,275.778,343.884Z" transform="translate(-1.868 -73.213)" fill="none" stroke="#263238" stroke-linecap="round" stroke-linejoin="round" stroke-width="1"/>
      <path id="Path_1560" data-name="Path 1560" d="M242.332,355.069c5.1,3.823,14.655,10.832,16.885,11.151s25.487-28.036,30.9-37.594S300.315,299,298.4,294.537s-5.735-.637-9.558,2.549-38.868,26.443-42.054,28.036c-.841.408-1.606.765-2.281,1.058-.93,1.746-2.039,4.448-1.274,6.27,1.274,2.867,6.69,6.69,6.69,6.69l-9.647,14.451Z" transform="translate(34.522 -54.757)" fill="#263238" stroke="#263238" stroke-linecap="round" stroke-linejoin="round" stroke-width="1"/>
      <path id="Path_1561" data-name="Path 1561" d="M287.209,328.623c5.416-9.558,10.195-29.629,8.283-34.089-1.109-2.549-2.867-2.383-4.881-1.147,1.338,5.964,0,17.446-6.588,29.82-5.875,11.036-24.022,30.585-33.133,40.04a21.664,21.664,0,0,0,5.454,2.969C258.536,366.535,281.793,338.181,287.209,328.623Z" transform="translate(37.433 -54.754)" fill="#fff"/>
      <g id="Group_1046" data-name="Group 1046" transform="translate(288.323 237.763)" clip-path="url(#clip-path-10)">
        <path id="Path_1562" data-name="Path 1562" d="M256.633,352.826l.28-.153h.076c.127-.076.28-.191.433-.306l.153-.127.37-.319.2-.178.535-.548.306-.293.421-.408.357-.357.357-.37.9-.943.153-.153.561-.624.229-.242c.663-.714,1.376-1.5,2.115-2.345h0c.255-.293.522-.586.777-.892h0L259.322,341c-3.173,3.441-6.1,6.55-8.462,8.921h0l.867.561.127.076.777.5h0a14.189,14.189,0,0,0,1.274.726l.344.2.37.191.4.2.28.127.4.166.191.076a2.83,2.83,0,0,0,.459.127.688.688,0,0,0,.242,0Z" transform="translate(-250.898 -279.216)" fill="#0f4c81"/>
        <path id="Path_1563" data-name="Path 1563" d="M256.633,352.826l.28-.153h.076c.127-.076.28-.191.433-.306l.153-.127.37-.319.2-.178.535-.548.306-.293.421-.408.357-.357.357-.37.9-.943.153-.153.561-.624.229-.242c.663-.714,1.376-1.5,2.115-2.345h0c.255-.293.522-.586.777-.892h0L259.322,341c-3.173,3.441-6.1,6.55-8.462,8.921h0l.867.561.127.076.777.5h0a14.189,14.189,0,0,0,1.274.726l.344.2.37.191.4.2.28.127.4.166.191.076a2.83,2.83,0,0,0,.459.127.688.688,0,0,0,.242,0Z" transform="translate(-250.898 -279.216)" fill="#fff" opacity="0.5"/>
      </g>
      <path id="Path_1565" data-name="Path 1565" d="M287.209,328.623c5.416-9.558,10.195-29.629,8.283-34.089-1.109-2.549-2.867-2.383-4.881-1.147,1.338,5.964,0,17.446-6.588,29.82-5.875,11.036-24.022,30.585-33.133,40.04a21.664,21.664,0,0,0,5.454,2.969C258.536,366.535,281.793,338.181,287.209,328.623Z" transform="translate(37.433 -54.754)" fill="none" stroke="#263238" stroke-linecap="round" stroke-linejoin="round" stroke-width="1"/>
      <path id="Path_1566" data-name="Path 1566" d="M252.432,365.137c-9.558-6.053-20.39-22.938-20.708-28.673a10.043,10.043,0,0,1,.14-1.886,9.163,9.163,0,0,0-5.238,1.886,121.79,121.79,0,0,0-12.425-9.876,26.023,26.023,0,0,0-11.469-3.428c-4.626,3.823-8.921,6.881-9.6,9.481-1.274,4.779,7.328,23.894,28.036,37.275s27.717,11.151,33.77,9.876S261.99,371.191,252.432,365.137Z" transform="translate(21.554 -46.347)" fill="#263238" stroke="#263238" stroke-linecap="round" stroke-linejoin="round" stroke-width="1"/>
      <path id="Path_1567" data-name="Path 1567" d="M252.424,363.856a41.774,41.774,0,0,1-8.5-7.646c-6.576-2.791-15.292-6.372-23.04-11.151-8.283-5.1-6.372-8.283-11.151-13.062-3.67-3.67-10.883-4.142-14.018-4.167a8.6,8.6,0,0,0-2.549,3.53c-1.274,4.779,7.328,23.894,28.036,37.275s27.717,11.151,33.77,9.876S261.982,369.909,252.424,363.856Z" transform="translate(21.563 -45.066)" fill="#fff"/>
      <g id="Group_1047" data-name="Group 1047" transform="translate(214.606 282.764)" clip-path="url(#clip-path-11)">
        <path id="Path_1568" data-name="Path 1568" d="M252.424,363.856a41.774,41.774,0,0,1-8.5-7.646c-6.576-2.791-15.292-6.372-23.04-11.151-8.283-5.1-6.372-8.283-11.151-13.062-3.67-3.67-10.883-4.142-14.018-4.167a8.6,8.6,0,0,0-2.549,3.53c-1.274,4.779,7.328,23.894,28.036,37.275s27.717,11.151,33.77,9.876S261.982,369.909,252.424,363.856Z" transform="translate(-193.044 -327.83)" fill="#0f4c81"/>
        <path id="Path_1569" data-name="Path 1569" d="M252.424,363.856a41.774,41.774,0,0,1-8.5-7.646c-6.576-2.791-15.292-6.372-23.04-11.151-8.283-5.1-6.372-8.283-11.151-13.062-3.67-3.67-10.883-4.142-14.018-4.167a8.6,8.6,0,0,0-2.549,3.53c-1.274,4.779,7.328,23.894,28.036,37.275s27.717,11.151,33.77,9.876S261.982,369.909,252.424,363.856Z" transform="translate(-193.044 -327.83)" fill="#fff" opacity="0.5"/>
      </g>
      <path id="Path_1571" data-name="Path 1571" d="M252.424,363.856a41.774,41.774,0,0,1-8.5-7.646c-6.576-2.791-15.292-6.372-23.04-11.151-8.283-5.1-6.372-8.283-11.151-13.062-3.67-3.67-10.883-4.142-14.018-4.167a8.6,8.6,0,0,0-2.549,3.53c-1.274,4.779,7.328,23.894,28.036,37.275s27.717,11.151,33.77,9.876S261.982,369.909,252.424,363.856Z" transform="translate(21.563 -45.066)" fill="none" stroke="#263238" stroke-linecap="round" stroke-linejoin="round" stroke-width="1"/>
      <path id="Path_1572" data-name="Path 1572" d="M254.011,365.536c-8.283-4.779-25.169-7.965-36-15.292s-7.965-13.7-15.929-18.8a8.092,8.092,0,0,0-8.921-.51c-1.109,4.957,7.519,23.869,28.036,37.147s27.717,11.151,33.77,9.876c4.014-.854,5.773-4.371,3.7-8.423a17.521,17.521,0,0,0-4.651-4Z" transform="translate(21.569 -44.516)" fill="#263238"/>
      <g id="Group_1048" data-name="Group 1048" transform="translate(214.635 285.32)" clip-path="url(#clip-path-12)">
        <path id="Path_1573" data-name="Path 1573" d="M254.011,365.536c-8.283-4.779-25.169-7.965-36-15.292s-7.965-13.7-15.929-18.8a8.092,8.092,0,0,0-8.921-.51c-1.109,4.957,7.519,23.869,28.036,37.147s27.717,11.151,33.77,9.876c4.014-.854,5.773-4.371,3.7-8.423a17.521,17.521,0,0,0-4.651-4Z" transform="translate(-193.066 -329.836)" fill="#fff" opacity="0.53"/>
      </g>
      <path id="Path_1575" data-name="Path 1575" d="M254.011,365.536c-8.283-4.779-25.169-7.965-36-15.292s-7.965-13.7-15.929-18.8a8.092,8.092,0,0,0-8.921-.51c-1.109,4.957,7.519,23.869,28.036,37.147s27.717,11.151,33.77,9.876c4.014-.854,5.773-4.371,3.7-8.423a17.521,17.521,0,0,0-4.651-4Z" transform="translate(21.569 -44.516)" fill="none" stroke="#263238" stroke-linecap="round" stroke-linejoin="round" stroke-width="1"/>
      <path id="Path_1576" data-name="Path 1576" d="M117.251,310.837s6.117-7.429,6.983-1.746-.433,16.159-4.8,20.084S112.88,327,112.88,327l2.625-3.492s2.179,4.358,3.925-2.625-3.492-6.117-3.492-6.117Z" transform="translate(-0.431 -50.794)" fill="#fff" stroke="#263238" stroke-linecap="round" stroke-linejoin="round" stroke-width="1"/>
      <path id="Path_1577" data-name="Path 1577" d="M118.128,339.117c-3.619,2.689-15.42,2.689-19.039,0-7.646-5.671-6.372-33.057-6.372-33.057H124.4S125.787,333.395,118.128,339.117Z" transform="translate(-5.984 -51.039)" fill="#fff" stroke="#263238" stroke-linecap="round" stroke-linejoin="round" stroke-width="1"/>
      <path id="Path_1578" data-name="Path 1578" d="M95.43,309.23c0-3.453,3.186-3.453,3.186-6.894s-3.186-3.453-3.186-6.894,3.186-3.453,3.186-6.907-3.186-3.453-3.186-6.907,3.186-3.453,3.186-6.907" transform="translate(-5.218 -59.637)" fill="none" stroke="#263238" stroke-linecap="round" stroke-linejoin="round" stroke-width="1"/>
      <path id="Path_1579" data-name="Path 1579" d="M104,307.441c0-2.612,3.186-2.612,3.186-5.238S104,299.591,104,296.966s3.186-2.625,3.186-5.238S104,289.1,104,286.478s3.186-2.625,3.186-5.238" transform="translate(-2.867 -57.848)" fill="none" stroke="#263238" stroke-linecap="round" stroke-linejoin="round" stroke-width="1"/>
      <path id="Path_1580" data-name="Path 1580" d="M113.47,309.23c0-3.453,3.186-3.453,3.186-6.894s-3.186-3.453-3.186-6.894,3.186-3.453,3.186-6.907-3.186-3.453-3.186-6.907,3.186-3.453,3.186-6.907" transform="translate(-0.269 -59.637)" fill="none" stroke="#263238" stroke-linecap="round" stroke-linejoin="round" stroke-width="1"/>
      <path id="Path_1581" data-name="Path 1581" d="M124.41,306.31c0,.79-7.1,1.44-15.84,1.44s-15.84-.65-15.84-1.44,7.085-1.44,15.84-1.44S124.41,305.533,124.41,306.31Z" transform="translate(-5.959 -51.365)" fill="#fff" stroke="#263238" stroke-linecap="round" stroke-linejoin="round" stroke-width="1"/>
      <path id="Path_1582" data-name="Path 1582" d="M140.54,151.385s1.478,16.1,2.1,21.18,2.052,19.689,3.517,24.519,9.456,13.228,10.195,11.278S161.083,193.3,159.5,185.5s-2.064-14.591-1.083-16.567,4.511-4.218,4.511-4.218a126.264,126.264,0,0,1-11.966-6.958C145.319,153.959,141.317,149.652,140.54,151.385Z" transform="translate(7.158 -93.583)" fill="#fff"/>
      <g id="Group_1049" data-name="Group 1049" transform="translate(147.698 57.407)" clip-path="url(#clip-path-13)">
        <path id="Path_1583" data-name="Path 1583" d="M160.985,165.5l-1.274-2.549c-2.332-1.274-5.594-3.148-8.691-5.225-5.671-3.823-9.672-8.13-10.45-6.372,0,0,1.478,16.1,2.1,21.18s2.052,19.689,3.517,24.519a15.967,15.967,0,0,0,2.052,3.963c-1.542-9.609.127-26.953.127-26.953Z" transform="translate(-140.532 -151.001)" fill="#0f4c81"/>
        <path id="Path_1584" data-name="Path 1584" d="M160.985,165.5l-1.274-2.549c-2.332-1.274-5.594-3.148-8.691-5.225-5.671-3.823-9.672-8.13-10.45-6.372,0,0,1.478,16.1,2.1,21.18s2.052,19.689,3.517,24.519a15.967,15.967,0,0,0,2.052,3.963c-1.542-9.609.127-26.953.127-26.953Z" transform="translate(-140.532 -151.001)" fill="#fff" opacity="0.5"/>
      </g>
      <path id="Path_1586" data-name="Path 1586" d="M140.54,151.385s1.478,16.1,2.1,21.18,2.052,19.689,3.517,24.519,9.456,13.228,10.195,11.278S161.083,193.3,159.5,185.5s-2.064-14.591-1.083-16.567,4.511-4.218,4.511-4.218a126.264,126.264,0,0,1-11.966-6.958C145.319,153.959,141.317,149.652,140.54,151.385Z" transform="translate(7.158 -93.583)" fill="none" stroke="#263238" stroke-linecap="round" stroke-linejoin="round" stroke-width="1"/>
      <path id="Path_1587" data-name="Path 1587" d="M141.574,161.55S150.762,169.2,157.8,172s17.841,2.625,19.37-1.045-2.663-32.611-6.3-40.244-7.519-7.748-13.916-8.322-19.23,4.639-21.486,10.832.319,14.961,2.179,20.16a39.122,39.122,0,0,0,3.925,8.169Z" transform="translate(5.525 -101.442)" fill="#fff"/>
      <g id="Group_1050" data-name="Group 1050" transform="translate(140.114 20.904)" clip-path="url(#clip-path-14)">
        <path id="Path_1588" data-name="Path 1588" d="M158.057,161.207c-3.25-9.66-4.04-24.8-4.04-28.851,0-3.122,8.13-6.537,11.839-7.939-2.434-1.5-5.263-1.695-8.921-2.026-6.372-.586-19.23,4.639-21.486,10.832s.319,14.961,2.179,20.16a39.123,39.123,0,0,0,3.925,8.169s9.188,7.646,16.223,10.45a29.31,29.31,0,0,0,15.216,1.465C168.048,171.605,160.236,167.642,158.057,161.207Z" transform="translate(-134.595 -122.346)" fill="#0f4c81"/>
        <path id="Path_1589" data-name="Path 1589" d="M158.057,161.207c-3.25-9.66-4.04-24.8-4.04-28.851,0-3.122,8.13-6.537,11.839-7.939-2.434-1.5-5.263-1.695-8.921-2.026-6.372-.586-19.23,4.639-21.486,10.832s.319,14.961,2.179,20.16a39.123,39.123,0,0,0,3.925,8.169s9.188,7.646,16.223,10.45a29.31,29.31,0,0,0,15.216,1.465C168.048,171.605,160.236,167.642,158.057,161.207Z" transform="translate(-134.595 -122.346)" fill="#fff" opacity="0.5"/>
      </g>
      <path id="Path_1591" data-name="Path 1591" d="M141.574,161.55S150.762,169.2,157.8,172s17.841,2.625,19.37-1.045-2.663-32.611-6.3-40.244-7.519-7.748-13.916-8.322-19.23,4.639-21.486,10.832.319,14.961,2.179,20.16a39.122,39.122,0,0,0,3.925,8.169Z" transform="translate(5.525 -101.442)" fill="none" stroke="#263238" stroke-linecap="round" stroke-linejoin="round" stroke-width="1"/>
      <path id="Path_1592" data-name="Path 1592" d="M165.917,139.623c.153,3.67-2.154,6.741-5.1,6.856s-5.518-2.765-5.658-6.372,2.154-6.741,5.1-6.856S165.777,135.952,165.917,139.623Z" transform="translate(11.168 -98.451)" fill="none" stroke="#263238" stroke-linecap="round" stroke-linejoin="round" stroke-width="1"/>
      <path id="Path_1593" data-name="Path 1593" d="M170.514,138.568c.14,3.67-1.032,6.69-2.638,6.754s-3.033-2.855-3.173-6.525,1.032-6.7,2.638-6.767S170.373,134.9,170.514,138.568Z" transform="translate(13.784 -98.785)" fill="none" stroke="#263238" stroke-linecap="round" stroke-linejoin="round" stroke-width="1"/>
      <path id="Path_1594" data-name="Path 1594" d="M163.89,137.21s10.526,2,9.519,4.537-8.13,5.276-8.13,5.276" transform="translate(13.564 -97.364)" fill="#fff" stroke="#263238" stroke-linecap="round" stroke-linejoin="round" stroke-width="1"/>
      <path id="Path_1595" data-name="Path 1595" d="M163.39,136.459s.153-1.274,1.771-.472" transform="translate(13.427 -97.772)" fill="none" stroke="#263238" stroke-linecap="round" stroke-linejoin="round" stroke-width="1"/>
      <line id="Line_6" data-name="Line 6" x1="19.141" y2="7.531" transform="translate(146.844 42.191)" fill="none" stroke="#263238" stroke-linecap="round" stroke-linejoin="round" stroke-width="1"/>
      <path id="Path_1596" data-name="Path 1596" d="M155.09,134.822a4.868,4.868,0,0,1,4.779-2.88" transform="translate(11.15 -98.812)" fill="none" stroke="#263238" stroke-linecap="round" stroke-linejoin="round" stroke-width="2"/>
      <line id="Line_7" data-name="Line 7" x1="2.944" y2="1.121" transform="translate(176.052 33.207)" fill="none" stroke="#263238" stroke-linecap="round" stroke-linejoin="round" stroke-width="2"/>
      <path id="Path_1597" data-name="Path 1597" d="M158,148.827s3.823-.994,6,1.274" transform="translate(11.948 -94.236)" fill="none" stroke="#263238" stroke-linecap="round" stroke-linejoin="round" stroke-width="1"/>
      <path id="Path_1598" data-name="Path 1598" d="M160.265,139.275c.178,1.274,0,2.37-.522,2.434s-.981-.93-1.16-2.2.064-2.37.522-2.434S160.1,138,160.265,139.275Z" transform="translate(12.092 -97.403)" fill="#263238"/>
      <path id="Path_1599" data-name="Path 1599" d="M145.363,155.716s-1.274,2.549,2.319,2.676,6.04-1.618,4.295-3.823-4.333-4.269-1.669-7.149,7.837-5.3,4.932-8.513-13.6-.293-10.934-2.893,15.05-5.314,20.606-4.97,15.929-3.963,18.211-9.6-.918-16.057-8.373-15.483-13.037,7.175-16.35,7.582-10.106-3.211-15.8.064-5.887,12.438-6.372,13.559-8.207,2.829-9.57,10.641a20.8,20.8,0,0,0,5.4,17.535c3.186,3.479,4.626,4.817,4.626,4.817Z" transform="translate(3.278 -105.942)" fill="#263238" stroke="#263238" stroke-linecap="round" stroke-linejoin="round" stroke-width="1"/>
      <path id="Path_1600" data-name="Path 1600" d="M128.552,133.93a6,6,0,0,0,.828,3.39" transform="translate(3.866 -98.264)" fill="none" stroke="#fff" stroke-linecap="round" stroke-linejoin="round" stroke-width="0.75"/>
      <path id="Path_1601" data-name="Path 1601" d="M160.769,119.409s-2.791-6.079,4.307-6.079,8.1,8.921.765,12.157-23.308,4.052-31.9,7.812a11.2,11.2,0,0,0-4.384,3.109" transform="translate(4.145 -103.915)" fill="none" stroke="#fff" stroke-linecap="round" stroke-linejoin="round" stroke-width="0.75"/>
      <path id="Path_1602" data-name="Path 1602" d="M147.212,135c-2.549.9-5.849,2.192-9.214,3.747-7.085,3.288-5.569,6.588-5.569,6.588" transform="translate(4.895 -97.97)" fill="none" stroke="#fff" stroke-linecap="round" stroke-linejoin="round" stroke-width="0.75"/>
      <path id="Path_1603" data-name="Path 1603" d="M148.052,133.8l-1.682.535" transform="translate(8.757 -98.299)" fill="none" stroke="#fff" stroke-linecap="round" stroke-linejoin="round" stroke-width="0.75"/>
      <path id="Path_1604" data-name="Path 1604" d="M144.5,148.025s-4.116-5.939-8.462-3.543-.956,10.858,1.657,13.8,7.646-2.549,8.169-3.925" transform="translate(5.351 -95.525)" fill="#fff"/>
      <g id="Group_1051" data-name="Group 1051" transform="translate(139.305 48.389)" clip-path="url(#clip-path-15)">
        <path id="Path_1605" data-name="Path 1605" d="M144.5,148.025s-4.116-5.939-8.462-3.543-.956,10.858,1.657,13.8,7.646-2.549,8.169-3.925" transform="translate(-133.954 -143.913)" fill="#0f4c81"/>
        <path id="Path_1606" data-name="Path 1606" d="M144.5,148.025s-4.116-5.939-8.462-3.543-.956,10.858,1.657,13.8,7.646-2.549,8.169-3.925" transform="translate(-133.954 -143.913)" fill="#fff" opacity="0.5"/>
      </g>
      <path id="Path_1608" data-name="Path 1608" d="M144.5,148.025s-4.116-5.939-8.462-3.543-.956,10.858,1.657,13.8,7.646-2.549,8.169-3.925" transform="translate(5.351 -95.525)" fill="none" stroke="#263238" stroke-linecap="round" stroke-linejoin="round" stroke-width="1"/>
      <rect id="Rectangle_772" data-name="Rectangle 772" width="104.395" height="79.826" rx="5.12" transform="translate(0 47.085)" fill="#fff" stroke="#263238" stroke-linecap="round" stroke-linejoin="round" stroke-width="1"/>
      <path id="Path_1609" data-name="Path 1609" d="M105,190.978l61.169,15.929L105,176.96" transform="translate(-2.593 -86.458)" fill="#fff" stroke="#263238" stroke-linecap="round" stroke-linejoin="round" stroke-width="1"/>
      <rect id="Rectangle_773" data-name="Rectangle 773" width="24.557" height="64.482" transform="translate(8.436 54.769)" fill="#d840e5" stroke="#263238" stroke-linecap="round" stroke-linejoin="round" stroke-width="1"/>
      <rect id="Rectangle_774" data-name="Rectangle 774" width="3.071" height="64.482" transform="translate(95.895 54.769)" fill="#d840e5" stroke="#263238" stroke-linecap="round" stroke-linejoin="round" stroke-width="1"/>
      <rect id="Rectangle_775" data-name="Rectangle 775" width="3.071" height="5.505" transform="translate(95.895 84.245)" fill="#263238" stroke="#263238" stroke-linecap="round" stroke-linejoin="round" stroke-width="1"/>
      <line id="Line_8" data-name="Line 8" x2="48.362" transform="translate(40.677 56.298)" fill="#fff" stroke="#263238" stroke-linecap="round" stroke-linejoin="round" stroke-width="1"/>
      <line id="Line_9" data-name="Line 9" x2="48.362" transform="translate(40.677 63.205)" fill="#fff" stroke="#263238" stroke-linecap="round" stroke-linejoin="round" stroke-width="1"/>
      <line id="Line_10" data-name="Line 10" x2="48.362" transform="translate(40.677 70.112)" fill="#fff" stroke="#263238" stroke-linecap="round" stroke-linejoin="round" stroke-width="1"/>
      <line id="Line_11" data-name="Line 11" x2="48.362" transform="translate(40.677 77.019)" fill="#fff" stroke="#263238" stroke-linecap="round" stroke-linejoin="round" stroke-width="1"/>
      <line id="Line_12" data-name="Line 12" x2="48.362" transform="translate(40.677 93.917)" fill="#fff" stroke="#263238" stroke-linecap="round" stroke-linejoin="round" stroke-width="1"/>
      <line id="Line_13" data-name="Line 13" x2="48.362" transform="translate(40.677 100.047)" fill="#fff" stroke="#263238" stroke-linecap="round" stroke-linejoin="round" stroke-width="1"/>
      <line id="Line_14" data-name="Line 14" x2="48.362" transform="translate(40.677 106.189)" fill="#fff" stroke="#263238" stroke-linecap="round" stroke-linejoin="round" stroke-width="1"/>
      <line id="Line_15" data-name="Line 15" x2="48.362" transform="translate(40.677 118.933)" fill="#fff" stroke="#263238" stroke-linecap="round" stroke-linejoin="round" stroke-width="1"/>
      <line id="Line_16" data-name="Line 16" y1="64.47" x2="24.57" transform="translate(8.436 54.769)" fill="none" stroke="#263238" stroke-linecap="round" stroke-linejoin="round" stroke-width="1"/>
    </g>
    <g id="Plants" transform="translate(380.212 256.011)">
      <ellipse id="Ellipse_26" data-name="Ellipse 26" cx="21.32" cy="9.558" rx="21.32" ry="9.558" transform="translate(8.404 157.431)" fill="#0f4c81"/>
      <ellipse id="Ellipse_27" data-name="Ellipse 27" cx="21.32" cy="9.558" rx="21.32" ry="9.558" transform="translate(8.404 157.431)" fill="#fff" opacity="0.5"/>
      <path id="Path_1610" data-name="Path 1610" d="M303.14,223.075c2.281.994,7.863.867,7.876.867s-1.2-3.657-1.274-3.823c-1.274-2.549-5.1-6.792-8.245-6.372a3.823,3.823,0,0,0-3.02,4.715C298.96,220.6,301.2,222.221,303.14,223.075Z" transform="translate(-298.355 -197.514)" fill="#263238"/>
      <path id="Path_1611" data-name="Path 1611" d="M376.112,207.562c-3.16-.344-6.907,3.989-8.067,6.588-.1.217-1.274,3.9-1.2,3.9h.064c-.6.688-1.274,1.415-1.9,2.23-1.274,1.529-2.625,3.25-4,5.238a64.179,64.179,0,0,0-4.142,6.6,47.955,47.955,0,0,0-3.543,7.977v-3.645c-.357-2.816-2.714-8.041-5.849-8.615a3.823,3.823,0,0,0-4.333,3.543c-.191,2.23,1.44,4.473,3.02,5.888,1.784,1.593,6.729,3.135,7.124,3.25a66.271,66.271,0,0,0-2.09,8.64c-.306,1.695-.561,3.428-.79,5.1v-1.618c-.37-2.816-2.727-8.041-5.849-8.627a3.823,3.823,0,0,0-4.346,3.543c-.178,2.243,1.44,4.473,3.02,5.887s5.8,2.829,6.92,3.186c-.089.675-.178,1.338-.255,2-.382,3.186-.752,6.372-1.2,9.481-.166,1.1-.357,2.179-.561,3.25v-1.4c-.357-2.816-2.714-8.041-5.849-8.627a3.823,3.823,0,0,0-4.333,3.543c-.191,2.23,1.44,4.473,3.02,5.887s5.391,2.689,6.716,3.122c-.242,1.1-.472,2.192-.739,3.25-.2.714-.357,1.415-.6,2.115s-.446,1.4-.675,2.09c-.472,1.274-.956,2.676-1.453,3.938-.344.892-.688,1.72-1.019,2.549.166-1.1.459-3.237.459-3.415a14.6,14.6,0,0,0-1.95-7.111,6.032,6.032,0,0,0,0-.828,3.823,3.823,0,0,0-4.6-3.2c-3.084.828-5.021,6.219-5.174,9.048,0,.166.1,2,.191,3.148-.153-.675-.293-1.274-.459-2-.331-1.364-.688-2.714-1.07-4.167-.217-.688-.421-1.389-.637-2.1s-.5-1.427-.739-2.141c-.612-1.669-1.274-3.313-2.052-4.97,1.2-.28,5.4-1.351,7.085-2.651s3.466-3.4,3.454-5.645a3.747,3.747,0,0,0-4.065-3.823c-3.16.331-5.9,5.378-6.474,8.156,0,.166-.217,2.217-.306,3.339-.446-.994-.892-1.988-1.389-2.969-1.4-2.842-2.931-5.684-4.435-8.513-.459-.867-.9-1.746-1.351-2.612.421-.089,5.454-1.274,7.34-2.714,1.682-1.274,3.466-3.4,3.453-5.645a3.747,3.747,0,0,0-4.065-3.823c-3.16.344-5.9,5.378-6.474,8.156,0,.2-.306,3.148-.344,3.9-.994-1.924-1.963-3.823-2.855-5.773a66.046,66.046,0,0,1-3.1-8.016c.191,0,5.454-1.274,7.391-2.727,1.682-1.274,3.466-3.4,3.441-5.645a3.823,3.823,0,0,0-4.052-3.823c-3.16.344-5.913,5.378-6.487,8.156,0,.217-.319,3.377-.331,3.963a1.818,1.818,0,0,0-.166-.484,46.976,46.976,0,0,1-1.606-8.462c-.178-1.58-.268-3.1-.306-4.575.994-.115,5.569-.726,7.468-1.873s3.823-3.008,4.04-5.238a3.823,3.823,0,0,0-3.606-4.269c-3.186,0-6.461,4.69-7.34,7.391,0,.153-.37,1.695-.586,2.829v-2c0-2.409.153-4.6.306-6.55.089-1.109.2-2.115.319-3.046.918-.637,4.588-3.224,5.722-5.1s2-4.422,1.185-6.512a3.823,3.823,0,0,0-5.187-2.128c-2.816,1.466-3.555,7.149-3.1,9.953,0,.242,1.109,3.951,1.16,3.912h0c-.127.9-.242,1.861-.357,2.918-.191,1.95-.4,4.154-.446,6.563a68.062,68.062,0,0,0,.178,7.8,48.431,48.431,0,0,0,1.453,8.6.306.306,0,0,0,0,.1c-.5-.79-1.975-2.931-2.1-3.084-1.861-2.154-6.7-5.212-9.634-3.963a3.747,3.747,0,0,0-1.669,5.34c1.083,1.975,3.67,2.944,5.773,3.25,2.358.344,7.34-1.1,7.735-1.274a67.221,67.221,0,0,0,3.02,8.36c.688,1.593,1.427,3.16,2.192,4.741-.459-.675-.867-1.274-.93-1.338-1.861-2.141-6.716-5.2-9.634-3.963a3.823,3.823,0,0,0-1.669,5.352c1.083,1.962,3.67,2.931,5.76,3.237s6.372-.828,7.531-1.147c.293.6.586,1.2.892,1.8,1.44,2.867,2.893,5.735,4.231,8.576.472,1.007.892,2.013,1.274,3.02l-.8-1.16c-1.861-2.141-6.716-5.2-9.634-3.963a3.823,3.823,0,0,0-1.669,5.352c1.083,1.962,3.67,2.931,5.76,3.237s5.99-.726,7.328-1.1c.408,1.045.828,2.09,1.172,3.109.229.714.5,1.376.675,2.1s.4,1.415.586,2.115c.331,1.351.675,2.753.956,4.091.217.93.382,1.81.574,2.7-.459-1.007-1.4-2.957-1.491-3.109-1.516-2.4-5.849-6.155-8.921-5.365a3.734,3.734,0,0,0-2.447,5.021c.765,2.115,3.173,3.466,5.2,4.091,2.23.675,7.175,0,7.8,0,.293,1.478.573,2.918.8,4.282.828,4.715,1.351,8.678,1.669,11.469a10.652,10.652,0,0,0,.153,1.351h-9.57l3.071,60.022a8.589,8.589,0,0,0,8.576,8.143h0a8.576,8.576,0,0,0,8.564-8.141l3.071-60.024h-8.921l.2-.421c1.274-2.549,2.918-6.206,4.741-10.679.586-1.415,1.185-2.944,1.771-4.511.6.127,5.492,1.121,7.774.6,2.064-.459,4.575-1.631,5.505-3.683a3.823,3.823,0,0,0-2.077-5.2c-3.02-1.007-7.646,2.409-9.3,4.7-.1.127-1.019,1.708-1.58,2.727.242-.65.484-1.274.726-1.937.472-1.274.918-2.625,1.4-4.052.2-.688.42-1.389.624-2.1s.382-1.465.574-2.2c.408-1.72.739-3.479,1.032-5.263,1.147.421,5.25,1.848,7.378,1.695s4.766-.93,5.99-2.8a3.823,3.823,0,0,0-1.274-5.454c-2.829-1.466-7.9,1.274-9.9,3.224-.127.127-1.414,1.72-2.1,2.549.166-1.07.344-2.141.484-3.237.382-3.148.688-6.372.994-9.545l.306-2.931c.408.153,5.25,1.963,7.646,1.8,2.115-.153,4.779-.93,6-2.816a3.747,3.747,0,0,0-1.274-5.441c-2.816-1.466-7.888,1.274-9.9,3.224-.14.153-1.988,2.459-2.434,3.058.229-2.141.484-4.282.8-6.372a68.426,68.426,0,0,1,1.835-8.4c.191.064,5.238,1.975,7.646,1.8,2.115-.14,4.766-.918,5.989-2.8a3.823,3.823,0,0,0-1.274-5.454c-2.829-1.453-7.888,1.274-9.9,3.237-.166.153-2.141,2.638-2.472,3.109a2.086,2.086,0,0,1,.127-.484,48.819,48.819,0,0,1,3.326-7.952c.726-1.415,1.5-2.727,2.281-3.989.892.459,5.1,2.472,7.251,2.549s4.843-.4,6.27-2.141a3.823,3.823,0,0,0-.663-5.556c-2.638-1.759-7.978.357-10.195,2.128-.115.089-1.274,1.211-2.039,2.026.357-.561.714-1.147,1.07-1.682,1.338-2,2.676-3.747,3.823-5.289.688-.879,1.338-1.644,1.937-2.37,1.121,0,5.62-.153,7.646-1.083s4.116-2.549,4.575-4.766a3.823,3.823,0,0,0-3.25-4.575Zm-35.007,84.923c-1.912,4.4-3.67,7.99-4.932,10.475-.255.51-.484.943-.688,1.364h-.217c-.064-.5-.127-1.019-.217-1.618-.382-2.8-.994-6.792-1.937-11.546-.293-1.491-.637-3.1-1.007-4.728a42.049,42.049,0,0,0,4.346-2.052,27.374,27.374,0,0,0,6.372,4.091C342.24,289.873,341.679,291.224,341.105,292.485Z" transform="translate(-298.23 -201.002)" fill="#263238"/>
      <path id="Path_1612" data-name="Path 1612" d="M348.065,225.039s1.007-3.708,1.045-3.951c.4-2.816-.51-8.474-3.364-9.864a3.823,3.823,0,0,0-5.1,2.268c-.765,2.115.2,4.7,1.351,6.474C343.338,222.082,348.053,225.039,348.065,225.039Z" transform="translate(-286.827 -198.28)" fill="#263238"/>
    </g>
  </g>
</svg>
