<svg xmlns="http://www.w3.org/2000/svg" width="17.763" height="17.514" viewBox="0 0 17.763 17.514">
  <path id="comment-alt-dots_disable" data-name="comment-alt-dots disable" d="M9.991,7.771a1.11,1.11,0,1,1-1.11-1.11A1.111,1.111,0,0,1,9.991,7.771Zm2.59-1.11a1.11,1.11,0,1,0,1.11,1.11A1.111,1.111,0,0,0,12.581,6.661Zm-7.4,0a1.11,1.11,0,1,0,1.11,1.11A1.111,1.111,0,0,0,5.18,6.661Zm12.582-3.7v8.881A2.963,2.963,0,0,1,14.8,14.8H12.691L9.843,17.155a1.432,1.432,0,0,1-.956.358,1.488,1.488,0,0,1-.99-.375L5.123,14.8H2.959A2.963,2.963,0,0,1,0,11.842V2.96A2.964,2.964,0,0,1,2.96,0H14.8A2.963,2.963,0,0,1,17.762,2.96Zm-1.48,0A1.482,1.482,0,0,0,14.8,1.48H2.96A1.482,1.482,0,0,0,1.48,2.96v8.881a1.482,1.482,0,0,0,1.48,1.48H5.394a.743.743,0,0,1,.477.174l3,2.524,3.087-2.528a.739.739,0,0,1,.471-.169H14.8a1.482,1.482,0,0,0,1.48-1.48V2.96Z" transform="translate(0.001)" fill="#fff"/>
</svg>
