<svg xmlns="http://www.w3.org/2000/svg" width="25.822" height="39.755" viewBox="0 0 25.822 39.755">
  <g id="Group_1149" data-name="Group 1149" transform="translate(20831.167 -3784.096)">
    <path id="Path_1503" data-name="Path 1503" d="M474.231,336.44h24.549a.563.563,0,0,1,.564.564v3.135a.563.563,0,0,1-.564.564H474.231a.563.563,0,0,1-.564-.564V337A.563.563,0,0,1,474.231,336.44Zm11.876-3.589-12.074-12.078a1.469,1.469,0,0,1-.411-.762,1.485,1.485,0,0,1,1.461-1.773h5.695V301.512a.563.563,0,0,1,.564-.564h10.33a.565.565,0,0,1,.564.564v16.727h5.695a1.493,1.493,0,0,1,1.461,1.773,1.469,1.469,0,0,1-.411.762L486.9,332.851A.565.565,0,0,1,486.107,332.851Z" transform="translate(-21304.762 3483.148)" fill="#fff"/>
  </g>
</svg>
