<svg xmlns="http://www.w3.org/2000/svg" width="19" height="17.405" viewBox="0 0 19 17.405">
  <g id="meta_data" data-name="meta data" transform="translate(-0.003 -1.017)">
    <path id="Path_1903" data-name="Path 1903" d="M18.707,15.334A2.364,2.364,0,0,0,17.063,16L14.719,14.83a2.3,2.3,0,0,0,.029-.287,2.3,2.3,0,0,0-.029-.287l2.344-1.173a2.37,2.37,0,1,0-.731-1.707,2.3,2.3,0,0,0,.029.287l-2.344,1.173a2.375,2.375,0,1,0,0,3.414l2.344,1.173a2.3,2.3,0,0,0-.029.287,2.375,2.375,0,1,0,2.375-2.375Zm0-4.751a.792.792,0,1,1-.792.792A.792.792,0,0,1,18.707,10.583Zm-6.334,4.751a.792.792,0,1,1,.792-.792A.792.792,0,0,1,12.373,15.334ZM18.707,18.5a.792.792,0,1,1,.792-.792A.792.792,0,0,1,18.707,18.5Z" transform="translate(-2.08 -1.662)" fill="#fff"/>
    <path id="Path_1904" data-name="Path 1904" d="M12.669,16.839H4.355a2.764,2.764,0,0,1-.69-5.442L4.8,11.1l-.7-.944A4.739,4.739,0,1,1,12.621,6.7l.079.583L14.084,5.9a6.334,6.334,0,0,0-12.5,1.435A6.264,6.264,0,0,0,2.3,10.244a4.347,4.347,0,0,0,2.059,8.178h8.313a6.323,6.323,0,0,0,.77-.051,3.916,3.916,0,0,1-.69-1.532h-.079Z" transform="translate(0 0)" fill="#fff"/>
  </g>
</svg>
