<svg xmlns="http://www.w3.org/2000/svg" width="20.954" height="20.954" viewBox="0 0 20.954 20.954">
  <path id="navigation_navbar" data-name="navigation navbar" d="M10.477,0A10.477,10.477,0,1,0,20.954,10.477,10.477,10.477,0,0,0,10.477,0Zm0,19.208a8.731,8.731,0,1,1,8.731-8.731A8.731,8.731,0,0,1,10.477,19.208ZM4.366,9.631A1.7,1.7,0,0,0,5.548,11.29L8.5,12.462l1.178,2.916a1.73,1.73,0,0,0,1.662,1.211h.012a1.737,1.737,0,0,0,1.678-1.29l2.6-9.973L5.641,7.957A1.73,1.73,0,0,0,4.366,9.631Zm8.818-1.861-1.846,7.072-1.5-3.729L6.193,9.666,6.1,9.642Z" fill="#fff"/>
</svg>
