<svg xmlns="http://www.w3.org/2000/svg" width="19" height="17.417" viewBox="0 0 19 17.417">
  <path id="page_layout" data-name="page layout" d="M15.042,1H3.958A3.96,3.96,0,0,0,0,4.958v9.5a3.96,3.96,0,0,0,3.958,3.958H15.042A3.96,3.96,0,0,0,19,14.458v-9.5A3.96,3.96,0,0,0,15.042,1ZM3.958,2.583H15.042a2.382,2.382,0,0,1,2.375,2.375V6.542H1.583V4.958A2.382,2.382,0,0,1,3.958,2.583Zm11.083,14.25H3.958a2.382,2.382,0,0,1-2.375-2.375V8.125H17.417v6.333A2.382,2.382,0,0,1,15.042,16.833Z" transform="translate(0 -1)" fill="#fff"/>
</svg>
