<svg xmlns="http://www.w3.org/2000/svg" width="52.592" height="41.088" viewBox="0 0 52.592 41.088">
  <path id="subtitles" d="M46.429,36.756H6.163A6.17,6.17,0,0,1,0,30.593V1.831A6.17,6.17,0,0,1,6.163-4.332H46.429a6.17,6.17,0,0,1,6.163,6.163V30.593A6.17,6.17,0,0,1,46.429,36.756ZM6.163-.223A2.057,2.057,0,0,0,4.109,1.831V30.593a2.057,2.057,0,0,0,2.054,2.054H46.429a2.057,2.057,0,0,0,2.054-2.054V1.831A2.057,2.057,0,0,0,46.429-.223Zm13.97,19.517V19.5a3.9,3.9,0,0,1-7.807,0V12.925a3.9,3.9,0,1,1,7.807,0v.205h4.109v-.205a8.012,8.012,0,1,0-16.024,0V19.5a8.012,8.012,0,0,0,16.024,0v-.205Zm20.133,0V19.5a3.9,3.9,0,0,1-7.807,0V12.925a3.9,3.9,0,1,1,7.807,0v.205h4.109v-.205a8.012,8.012,0,1,0-16.024,0V19.5a8.012,8.012,0,0,0,16.024,0v-.205Zm0,0" transform="translate(0 4.332)" fill="#fff"/>
</svg>
