<svg xmlns="http://www.w3.org/2000/svg" width="15.69" height="18.5" viewBox="0 0 15.69 18.5">
  <g id="mirrow_COLOR" data-name="mirrow COLOR" transform="translate(-1630.78 -1538.063)">
    <g id="_1918613326400" transform="translate(1631.03 1538.313)">
      <path id="Path_6014" data-name="Path 6014" d="M1632.085,2283.256v-10.831l2.351.708c.242.082.553.181.813.242v8.931C1634.726,2282.428,1632.276,2283.24,1632.085,2283.256Zm-1.055-11.639v12.448a.506.506,0,0,0,.563.457,12.731,12.731,0,0,0,1.253-.365c.431-.126.821-.25,1.239-.378s.844-.243,1.24-.377c.351-.119.98-.2.98-.637v-9.845c0-.437-.629-.519-.98-.638-.4-.134-.836-.254-1.24-.378a23.276,23.276,0,0,0-2.6-.743A.514.514,0,0,0,1631.03,2271.617Z" transform="translate(-1631.03 -2268.841)" fill="#570880" stroke="#570880" stroke-width="0.5" fill-rule="evenodd"/>
      <path id="Path_6015" data-name="Path 6015" d="M4765.686,2273.346a3.838,3.838,0,0,0,.382-.11c.125-.042.261-.074.4-.123.269-.09.5-.161.78-.24.216-.061,1.435-.463,1.6-.477v10.83a2.183,2.183,0,0,1-.387-.105c-.147-.041-.244-.075-.407-.12l-1.558-.482c-.243-.082-.553-.181-.813-.241Zm-1.055-.457v9.845c0,.437.629.519.979.637.247.083,3.582,1.121,3.732,1.121a.506.506,0,0,0,.563-.457v-12.448a.506.506,0,0,0-.562-.457,3.467,3.467,0,0,0-.638.171c-.2.069-.406.132-.615.193-.431.127-.821.25-1.239.379s-.844.244-1.24.377C4765.259,2272.37,4764.63,2272.451,4764.63,2272.889Z" transform="translate(-4754.714 -2268.812)" fill="#570880" stroke="#570880" stroke-width="0.5" fill-rule="evenodd"/>
      <path id="Path_6016" data-name="Path 6016" d="M3864.55,1538.768v2.6c0,.607,1.055.607,1.055,0v-2.6C3865.605,1538.161,3864.55,1538.161,3864.55,1538.768Z" transform="translate(-3857.482 -1538.313)" fill="#570880" stroke="#570880" stroke-width="0.5" fill-rule="evenodd"/>
      <path id="Path_6017" data-name="Path 6017" d="M3864.55,3061.128v2.6c0,.607,1.055.607,1.055,0v-2.6C3865.605,3060.521,3864.55,3060.521,3864.55,3061.128Z" transform="translate(-3857.482 -3055.855)" fill="#570880" stroke="#570880" stroke-width="0.5" fill-rule="evenodd"/>
      <path id="Path_6018" data-name="Path 6018" d="M3864.55,4594.587v2.6c0,.608,1.055.608,1.055,0v-2.6C3865.605,4593.98,3864.55,4593.98,3864.55,4594.587Z" transform="translate(-3857.482 -4584.462)" fill="#570880" stroke="#570880" stroke-width="0.5" fill-rule="evenodd"/>
      <path id="Path_6019" data-name="Path 6019" d="M3864.55,6116.948v2.6c0,.607,1.055.607,1.055,0v-2.6C3865.605,6116.341,3864.55,6116.341,3864.55,6116.948Z" transform="translate(-3857.482 -6102.005)" fill="#570880" stroke="#570880" stroke-width="0.5" fill-rule="evenodd"/>
    </g>
  </g>
</svg>
