<svg xmlns="http://www.w3.org/2000/svg" width="165.355" height="165.356" viewBox="0 0 165.355 165.356">
  <g id="access_restricted_icon" data-name="access restricted icon" transform="translate(-561.29 -2263.46)">
    <path id="Path_6039" data-name="Path 6039" d="M643.968,2404.27a65.02,65.02,0,0,1-9.138-.874c-13.808-2.25-20.036-7.668-22.189-8.169.333-1.248,1.324-1.812,2.179-2.664l7.59-7.59,10.012-10.012,50.221-50.22c1.206-1.206,9.008-9.555,10.415-9.93a16.537,16.537,0,0,0,1.613,3.231c4.443,8.594,7.43,17.6,7.43,27.773a57.387,57.387,0,0,1-16.986,41.146,59.243,59.243,0,0,1-41.147,17.308Zm2.831,24.545h-4.463a87.356,87.356,0,0,1-18.78-2.519,79.785,79.785,0,0,1-21.269-8.766c-15.457-9.32-25.449-20.6-33.466-36.617-5.727-11.445-7.531-23.3-7.531-37.682,0-16.641,6.678-32.2,15.24-44.831,4.532-6.684,13.153-15.268,19.963-20.083,1.98-1.4,3.991-2.613,6.117-3.9,2.059-1.241,4.274-2.275,6.581-3.43,11.2-5.6,23.148-7.532,37.36-7.532,16.087,0,33.4,6.54,45.078,14.992,1.069.773,1.936,1.406,2.942,2.225a107.027,107.027,0,0,1,12.651,12.218c.78.967,1.56,1.827,2.351,2.817.738.924,1.352,1.756,2.081,2.764,8.346,11.535,14.992,28.914,14.992,44.756,0,14.341-1.275,21.983-6.318,34.7-.556,1.4-.94,2.039-1.478,3.367a22.6,22.6,0,0,1-1.756,3.411c-.677,1.134-1.112,2.082-1.732,3.112-9.329,15.471-20.425,25.3-36.4,33.356a76.194,76.194,0,0,1-32.158,7.641Zm-51.921-51.351c-.627-2.689-13.393-19.563-7.5-44.313,2.65-11.125,7.973-21.12,16.44-28.775,3.917-3.541,6.169-5.878,11.3-8.727a58.232,58.232,0,0,1,38.035-6.819c6.085.956,9.981,2.532,15.315,4.709,2.332.952,5.521,3.2,6.826,3.507-.378,1.414-8.577,9.061-9.769,10.254l-10.012,10.012-55.226,55.226c-1.124,1.124-4.126,4.582-5.41,4.925Z" transform="translate(0)" fill="red" fill-rule="evenodd"/>
  </g>
</svg>
