<svg xmlns="http://www.w3.org/2000/svg" width="28" height="28" viewBox="0 0 28 28">
  <g id="blue_thumbs" data-name="blue thumbs" transform="translate(-427 -967)">
    <circle id="Ellipse_265" data-name="Ellipse 265" cx="14" cy="14" r="14" transform="translate(427 967)" fill="#2699fb"/>
    <g id="thumbs-up" transform="translate(431.297 972.258)">
      <path id="Path_2110" data-name="Path 2110" d="M19.943,6.324a4.037,4.037,0,0,0-3.05-1.391H13.668l.272-1.65A2.455,2.455,0,0,0,9.315,1.8L8,4.461v12.6h8.327a4.062,4.062,0,0,0,4-3.476L20.9,9.54a4.037,4.037,0,0,0-.956-3.217Z" transform="translate(-1.532)" fill="#fff"/>
      <path id="Path_2111" data-name="Path 2111" d="M0,10.042v4.042a4.047,4.047,0,0,0,4.042,4.042h.808V6H4.042A4.047,4.047,0,0,0,0,10.042Z" transform="translate(0 -1.068)" fill="#fff"/>
    </g>
  </g>
</svg>
