<svg xmlns="http://www.w3.org/2000/svg" width="19.452" height="19.45" viewBox="0 0 19.452 19.45">
  <g id="pens" transform="translate(-3680.57 -3917.67)">
    <g id="_1917163400032" transform="translate(3680.57 3917.67)">
      <path id="Path_6020" data-name="Path 6020" d="M3768.34,3997.786l4.407,4.426,10.695-10.676-4.426-4.407Z" transform="translate(-3765.88 -3985.183)" fill="#fff" fill-rule="evenodd"/>
      <path id="Path_6021" data-name="Path 6021" d="M4169.93,3919l4.417,4.436a8.961,8.961,0,0,0,.815-.8,1.859,1.859,0,0,0,.505-1.522v-.062c0-.808-.817-1.445-1.377-2-.847-.847-1.15-1.377-2.308-1.377a1.766,1.766,0,0,0-1.189.482,6.14,6.14,0,0,0-.862.848Z" transform="translate(-4156.215 -3917.67)" fill="#fff" fill-rule="evenodd"/>
      <path id="Path_6022" data-name="Path 6022" d="M3680.57,4400.568l6.08-2.007-4.057-4.081Z" transform="translate(-3680.57 -4381.117)" fill="#fff" fill-rule="evenodd"/>
    </g>
  </g>
</svg>
