<svg xmlns="http://www.w3.org/2000/svg" width="28.711" height="28.712" viewBox="0 0 28.711 28.712">
  <path id="calendar-lines-pen" d="M22.729,2.393h-1.2V1.2a1.2,1.2,0,0,0-2.393,0v1.2H9.57V1.2a1.2,1.2,0,1,0-2.393,0v1.2h-1.2A5.988,5.988,0,0,0,0,8.374V22.729a5.988,5.988,0,0,0,5.981,5.981h4.785a1.2,1.2,0,0,0,0-2.393H5.981a3.593,3.593,0,0,1-3.589-3.589V11.963H27.514a1.2,1.2,0,0,0,1.2-1.2V8.374A5.988,5.988,0,0,0,22.729,2.393ZM26.318,9.57H2.393v-1.2A3.593,3.593,0,0,1,5.981,4.785H22.729a3.593,3.593,0,0,1,3.589,3.589Zm-3.734,5.837-6.827,6.827a4.756,4.756,0,0,0-1.4,3.384v1.9a1.2,1.2,0,0,0,1.2,1.2h1.9a4.753,4.753,0,0,0,3.383-1.4l6.827-6.827a3.59,3.59,0,0,0,0-5.076,3.674,3.674,0,0,0-5.076,0Zm3.383,3.383-6.828,6.827a2.372,2.372,0,0,1-1.692.7h-.7v-.7a2.376,2.376,0,0,1,.7-1.692L24.276,17.1a1.224,1.224,0,0,1,1.692,0,1.2,1.2,0,0,1,0,1.692ZM5.981,16.748a1.2,1.2,0,0,1,1.2-1.2h8.374a1.2,1.2,0,0,1,0,2.393H7.178A1.2,1.2,0,0,1,5.981,16.748Zm7.178,4.785a1.2,1.2,0,0,1-1.2,1.2H7.178a1.2,1.2,0,1,1,0-2.393h4.785A1.2,1.2,0,0,1,13.159,21.533Z" fill="#570880"/>
</svg>
