<svg xmlns="http://www.w3.org/2000/svg" width="19.988" height="24.823" viewBox="0 0 19.988 24.823">
  <path id="copy" d="M18.994,5.915a.912.912,0,0,0-.675-.243H10.242C9.7,5.672,9,6,9,6.51v17.1a1.461,1.461,0,0,0,1.242,1.215h12.8c.54,0,.81-.7.81-1.215V11.291a.829.829,0,0,0-.216-.648Zm2.674,5.429H18.184V7.86ZM11.161,22.689V7.563h5.132v4.646a1.063,1.063,0,0,0,1.026,1.026h4.646v9.454ZM28.826,4.862l-4.7-4.7A.759.759,0,0,0,23.586,0H15.51c-.459,0-.837.243-.837.675V3.268a.8.8,0,0,0,.81.81.813.813,0,0,0,.81-.81V1.621h5.672V6.185a.842.842,0,0,0,.837.837h4.565v9.994H26.26a.8.8,0,0,0-.81.81.813.813,0,0,0,.81.81h2.053c.459,0,.675-.405.675-.864V5.456A.9.9,0,0,0,28.826,4.862Zm-5.24-2.971L27.07,5.4H23.586Z" transform="translate(-9)" fill="#f7fafc"/>
</svg>
