<svg xmlns="http://www.w3.org/2000/svg" width="25" height="25" viewBox="0 0 25 25">
  <path id="expand_big_screen" data-name="expand big screen" d="M5.778,19.667H3v5.556A2.786,2.786,0,0,0,5.778,28h5.556V25.222H5.778Zm0-13.889h5.556V3H5.778A2.786,2.786,0,0,0,3,5.778v5.556H5.778ZM25.222,3H19.667V5.778h5.556v5.556H28V5.778A2.786,2.786,0,0,0,25.222,3Zm0,22.222H19.667V28h5.556A2.786,2.786,0,0,0,28,25.222V19.667H25.222ZM15.5,9.944A5.556,5.556,0,1,0,21.056,15.5,5.554,5.554,0,0,0,15.5,9.944Zm0,8.333A2.778,2.778,0,1,1,18.278,15.5,2.786,2.786,0,0,1,15.5,18.278Z" transform="translate(-3 -3)" fill="#570880"/>
</svg>
