<svg xmlns="http://www.w3.org/2000/svg" width="49" height="49" viewBox="0 0 49 49">
  <g id="Pause_" data-name="Pause " transform="translate(-111 -1071)">
    <g id="Ellipse_4" data-name="Ellipse 4" transform="translate(111 1071)" fill="none" stroke="#fff" stroke-width="2">
      <circle cx="24.5" cy="24.5" r="24.5" stroke="none"/>
      <circle cx="24.5" cy="24.5" r="23.5" fill="none"/>
    </g>
    <g id="pause" transform="translate(127 1083)">
      <path id="Path_2088" data-name="Path 2088" d="M150.59,0h5.234a.59.59,0,0,1,.59.59V23.517a.59.59,0,0,1-.59.59H150.59a.59.59,0,0,1-.59-.59V.59A.59.59,0,0,1,150.59,0Zm0,0" transform="translate(-138.942)" fill="#fff"/>
      <path id="Path_2089" data-name="Path 2089" d="M.59,0H5.824a.59.59,0,0,1,.59.59V23.517a.59.59,0,0,1-.59.59H.59a.59.59,0,0,1-.59-.59V.59A.59.59,0,0,1,.59,0Zm0,0" fill="#fff"/>
    </g>
  </g>
</svg>
