<svg xmlns="http://www.w3.org/2000/svg" width="25" height="25" viewBox="0 0 25 25">
  <g id="PAUSE_" data-name="PAUSE " transform="translate(-904 -781)">
    <g id="Path_2073" data-name="Path 2073" transform="translate(904 781)" fill="none">
      <path d="M12.5,0A12.5,12.5,0,1,1,0,12.5,12.5,12.5,0,0,1,12.5,0Z" stroke="none"/>
      <path d="M 12.5 2.299999237060547 C 6.875699996948242 2.299999237060547 2.299999237060547 6.875699996948242 2.299999237060547 12.5 C 2.299999237060547 18.12430000305176 6.875699996948242 22.70000076293945 12.5 22.70000076293945 C 18.12430000305176 22.70000076293945 22.70000076293945 18.12430000305176 22.70000076293945 12.5 C 22.70000076293945 6.875699996948242 18.12430000305176 2.299999237060547 12.5 2.299999237060547 M 12.5 0 C 19.40356063842773 0 25 5.596439361572266 25 12.5 C 25 19.40356063842773 19.40356063842773 25 12.5 25 C 5.596439361572266 25 0 19.40356063842773 0 12.5 C 0 5.596439361572266 5.596439361572266 0 12.5 0 Z" stroke="none" fill="#fff"/>
    </g>
    <g id="Layer_33" data-name="Layer 33" transform="translate(906 785)">
      <path id="Path_2085" data-name="Path 2085" d="M9.147,3.382V13.52A1.382,1.382,0,0,1,7.765,14.9H6.382A1.382,1.382,0,0,1,5,13.52V3.382A1.382,1.382,0,0,1,6.382,2H7.765A1.382,1.382,0,0,1,9.147,3.382ZM13.755,2H12.373A1.382,1.382,0,0,0,10.99,3.382V13.52A1.382,1.382,0,0,0,12.373,14.9h1.382a1.382,1.382,0,0,0,1.382-1.382V3.382A1.382,1.382,0,0,0,13.755,2Z" fill="#fff"/>
    </g>
  </g>
</svg>
