<svg xmlns="http://www.w3.org/2000/svg" width="25" height="25" viewBox="0 0 25 25">
  <g id="play" transform="translate(-471 -857.137)">
    <path id="Path_501" data-name="Path 501" d="M177.309,115.081l-9.631-5.765a1.212,1.212,0,0,0-1.833,1.039v11.517a1.212,1.212,0,0,0,1.832,1.04l9.631-5.752A1.211,1.211,0,0,0,177.309,115.081Zm-9.042,4.657v-7.248l6.061,3.628Z" transform="translate(313.235 753.243)" fill="#570880"/>
    <g id="Path_2073" data-name="Path 2073" transform="translate(471 857.137)" fill="none">
      <path d="M12.5,0A12.5,12.5,0,1,1,0,12.5,12.5,12.5,0,0,1,12.5,0Z" stroke="none"/>
      <path d="M 12.5 2 C 6.71027946472168 2 2 6.71027946472168 2 12.5 C 2 18.28972053527832 6.71027946472168 23 12.5 23 C 18.28972053527832 23 23 18.28972053527832 23 12.5 C 23 6.71027946472168 18.28972053527832 2 12.5 2 M 12.5 0 C 19.40356063842773 0 25 5.596439361572266 25 12.5 C 25 19.40356063842773 19.40356063842773 25 12.5 25 C 5.596439361572266 25 0 19.40356063842773 0 12.5 C 0 5.596439361572266 5.596439361572266 0 12.5 0 Z" stroke="none" fill="#570880"/>
    </g>
  </g>
</svg>
