<svg xmlns="http://www.w3.org/2000/svg" width="18.365" height="18.365" viewBox="0 0 18.365 18.365">
  <path id="settings_1" d="M481.148,69.739H482.3v1.148a2.3,2.3,0,0,0,2.3,2.3h2.3a2.3,2.3,0,0,0,2.3-2.3V69.739h8.035a1.148,1.148,0,0,0,0-2.3h-8.035V66.3a2.3,2.3,0,0,0-2.3-2.3h-2.3a2.3,2.3,0,0,0-2.3,2.3v1.148h-1.148a1.148,1.148,0,0,0,0,2.3Zm3.443-3.443h2.3v4.591h-2.3Zm12.626,10.33H496.07V75.478a2.3,2.3,0,0,0-2.3-2.3h-2.3a2.3,2.3,0,0,0-2.3,2.3v1.148h-8.035a1.148,1.148,0,0,0,0,2.3h8.035V80.07a2.3,2.3,0,0,0,2.3,2.3h2.3a2.3,2.3,0,0,0,2.3-2.3V78.922h1.148a1.148,1.148,0,0,0,0-2.3Zm-3.443,3.443h-2.3V75.478h2.3Z" transform="translate(-480 -64)" fill="#570880" fill-rule="evenodd"/>
</svg>
