<svg xmlns="http://www.w3.org/2000/svg" width="29.329" height="22" viewBox="0 0 29.329 22">
  <path id="sound_3" d="M300.833,197.667v14.666l-5.214-3.667h-3.953v-7.333h3.667l5.5-3.667m0-3.667a3.666,3.666,0,0,0-2.033.616l-4.583,3.051h-2.55A3.667,3.667,0,0,0,288,201.333v7.333a3.667,3.667,0,0,0,3.667,3.667h2.792l4.264,3a3.667,3.667,0,0,0,5.777-3V197.667A3.667,3.667,0,0,0,300.833,194Zm6.5,7.43-.05.086a1.745,1.745,0,0,0,.3,2.143,1.833,1.833,0,0,1-.011,2.689,1.74,1.74,0,0,0-.3,2.14l.048.084a1.771,1.771,0,0,0,2.688.5,5.47,5.47,0,0,0,.017-8.138,1.769,1.769,0,0,0-2.691.493ZM310.1,196.6l-.049.088a1.833,1.833,0,0,0,.6,2.383,7.315,7.315,0,0,1-.013,11.856,1.833,1.833,0,0,0-.589,2.4l.051.086a1.774,1.774,0,0,0,2.53.607,11,11,0,0,0,0-18.043,1.773,1.773,0,0,0-2.526.623Z" transform="translate(-288 -194)" fill="#570880" fill-rule="evenodd"/>
</svg>
