<svg xmlns="http://www.w3.org/2000/svg" width="27.754" height="21.683" viewBox="0 0 27.754 21.683">
  <path id="subtitles_purple" data-name="subtitles purple" d="M24.5,17.351H3.252A3.256,3.256,0,0,1,0,14.1V-1.08A3.256,3.256,0,0,1,3.252-4.332H24.5A3.256,3.256,0,0,1,27.754-1.08V14.1A3.256,3.256,0,0,1,24.5,17.351ZM3.252-2.164A1.085,1.085,0,0,0,2.168-1.08V14.1a1.085,1.085,0,0,0,1.084,1.084H24.5A1.085,1.085,0,0,0,25.586,14.1V-1.08A1.085,1.085,0,0,0,24.5-2.164Zm7.372,10.3v.108a2.06,2.06,0,0,1-4.12,0V4.775a2.06,2.06,0,1,1,4.12,0v.108h2.168V4.775a4.228,4.228,0,1,0-8.456,0V8.244a4.228,4.228,0,0,0,8.456,0V8.136Zm10.625,0v.108a2.06,2.06,0,0,1-4.12,0V4.775a2.06,2.06,0,1,1,4.12,0v.108h2.168V4.775a4.228,4.228,0,1,0-8.456,0V8.244a4.228,4.228,0,0,0,8.456,0V8.136Zm0,0" transform="translate(0 4.332)" fill="#570880"/>
</svg>
