<svg xmlns="http://www.w3.org/2000/svg" width="29.566" height="22.175" viewBox="0 0 29.566 22.175">
  <g id="views" transform="translate(0 -3)">
    <path id="Path_1920" data-name="Path 1920" d="M29.346,13.078h0C28.264,10.713,24.023,3,14.783,3S1.3,10.713.22,13.078a2.426,2.426,0,0,0,0,2.02C1.3,17.462,5.544,25.175,14.783,25.175S28.264,17.462,29.346,15.1A2.424,2.424,0,0,0,29.346,13.078ZM14.783,22.711c-7.77,0-11.4-6.611-12.319-8.61.924-2.027,4.55-8.637,12.319-8.637,7.751,0,11.378,6.582,12.319,8.624C26.161,16.129,22.534,22.711,14.783,22.711Z" transform="translate(0)" fill="#d840e5"/>
    <path id="Path_1921" data-name="Path 1921" d="M13.16,7a6.16,6.16,0,1,0,6.16,6.16A6.16,6.16,0,0,0,13.16,7Zm0,9.855a3.7,3.7,0,1,1,3.7-3.7A3.7,3.7,0,0,1,13.16,16.855Z" transform="translate(1.624 0.928)" fill="#d840e5"/>
  </g>
</svg>
