<svg xmlns="http://www.w3.org/2000/svg" width="17" height="17" viewBox="0 0 17 17">
  <path id="Air_Play_COLOR" data-name="Air Play COLOR" d="M12.75,8.5A4.25,4.25,0,1,0,17,12.75,4.254,4.254,0,0,0,12.75,8.5Zm0,7.083a2.833,2.833,0,1,1,2.833-2.833A2.836,2.836,0,0,1,12.75,15.583Zm1.209-2.626a.708.708,0,1,1-1,1l-.708-.708a.708.708,0,0,1-.208-.5V11.333a.708.708,0,1,1,1.417,0v1.123ZM17,3.542V7.083a.708.708,0,0,1-1.417,0V3.542a2.128,2.128,0,0,0-2.125-2.125H3.542A2.128,2.128,0,0,0,1.417,3.542v7.083A2.128,2.128,0,0,0,3.542,12.75H6.375a.708.708,0,1,1,0,1.417H3.542A3.546,3.546,0,0,1,0,10.625V3.542A3.546,3.546,0,0,1,3.542,0h9.917A3.546,3.546,0,0,1,17,3.542ZM10.549,7.894,7.618,9.521A.837.837,0,0,1,6.375,8.79V5.533A.837.837,0,0,1,7.618,4.8l2.93,1.628a.837.837,0,0,1,0,1.463Z" fill="#d840e5"/>
</svg>
