<svg xmlns="http://www.w3.org/2000/svg" width="15.717" height="12.838" viewBox="0 0 15.717 12.838">
  <g id="chrome_cast" data-name="chrome cast" transform="translate(-2397.62 -3002.76)">
    <g id="_1917109390880" transform="translate(2397.62 3002.76)">
      <path id="Path_6011" data-name="Path 6011" d="M2399.057,3007.5c0-.3.031-.5.033-.769a3.11,3.11,0,0,1,.564-1.441,2.662,2.662,0,0,1,1.188-.884,3.724,3.724,0,0,1,1.423-.214h5.68a8.7,8.7,0,0,1,1.972.2,2.421,2.421,0,0,1,1.3.874,4,4,0,0,1,.638,2.6c0,.2.036.275.035.5l-.085,3.123a2.906,2.906,0,0,1-.6,1.608c-.767.984-2.094,1.049-3.328,1.049h-2.406a3.975,3.975,0,0,0-.1-.7c-.045-.219-.1-.426-.169-.633a7.1,7.1,0,0,0-.464-1.14,7.3,7.3,0,0,0-3.208-3.208,7,7,0,0,0-1.143-.461,6.884,6.884,0,0,0-1.329-.274Zm-1.437-.1v1.1a.7.7,0,0,0,.305.563c.468.3,2.438-.209,4.414,1.767a5.568,5.568,0,0,1,1.374,2.167,6.9,6.9,0,0,1,.2.674c.128.553.089,1.3.214,1.557a.609.609,0,0,0,.547.355h3.509a5.339,5.339,0,0,0,3.236-.773,4.5,4.5,0,0,0,1.306-1.4,2.9,2.9,0,0,0,.389-.948,23.9,23.9,0,0,0-.006-6.616,4.41,4.41,0,0,0-2.506-2.773,8.184,8.184,0,0,0-2.352-.321H2402.1a4.251,4.251,0,0,0-3.117,1.126c-.214.181-.084.03-.286.282a3.662,3.662,0,0,0-.793,1.212,5.481,5.481,0,0,0-.281,2.024Z" transform="translate(-2397.62 -3002.76)" fill="#d840e5" fill-rule="evenodd"/>
      <path id="Path_6012" data-name="Path 6012" d="M2397.63,4727.078c0,.935.776.691,1.484.855a3.142,3.142,0,0,1,1.481.823,3.174,3.174,0,0,1,.939,1.935c.04.388-.049.619.245.891a.733.733,0,0,0,1.218-.474,4.808,4.808,0,0,0-.128-1.15,4.707,4.707,0,0,0-1.478-2.432c-.131-.1-.229-.18-.358-.277a4.639,4.639,0,0,0-2.435-.839h-.334A.67.67,0,0,0,2397.63,4727.078Z" transform="translate(-2397.63 -4718.926)" fill="#d840e5" fill-rule="evenodd"/>
      <path id="Path_6013" data-name="Path 6013" d="M2397.62,5299.721c0,.9.893.6,1.213.893.266.243.182.559.251.785a.729.729,0,0,0,1.41-.274,2.092,2.092,0,0,0-1.042-1.831c-.561-.339-1.832-.578-1.832.428Z" transform="translate(-2397.62 -5289.029)" fill="#d840e5" fill-rule="evenodd"/>
    </g>
  </g>
</svg>
