<svg xmlns="http://www.w3.org/2000/svg" width="87.265" height="69.727" viewBox="0 0 87.265 69.727">
  <g id="email" transform="translate(-297.23 -2818.36)">
    <g id="_3042342341728" transform="translate(297.23 2818.36)">
      <path id="Path_105" data-name="Path 105" d="M311.788,2818.36h66.358c5.935,0,10.356,3.982,10.251,9.913l-.151,8.507-38.564,28.5a7.023,7.023,0,0,1-8.463-.149l-39.38-27.92-.1-10.286c-.056-5.935,4.112-8.564,10.048-8.564Zm3.725,6.673,60.025-.2c4.742-.016,5.786-.027,5.7,4.709l-.062,3.4-32.494,24.995a5.614,5.614,0,0,1-6.762-.118l-33.078-24.327-.093-3.565c-.122-4.74,2.019-4.869,6.76-4.885l0,0Z" transform="translate(-301.485 -2818.36)" fill="#fefefe" fill-rule="evenodd"/>
      <path id="Path_106" data-name="Path 106" d="M304.917,3290.92l-7.284-5.26-.4,34.392a10.748,10.748,0,0,0,7.823,8.633l70.81-.269c5.148-.75,8.161-3.883,8.633-9.847l-.538-33.178-7.15,5.125v25.355c.015,3.9-1.385,5.136-4.315,5.26l-64.066,1.079c-2.774-.507-3.576-2.416-4.013-5.26l.505-26.029h0Z" transform="translate(-297.23 -3258.958)" fill="#fefefe" fill-rule="evenodd"/>
    </g>
  </g>
</svg>
