<svg xmlns="http://www.w3.org/2000/svg" width="177.784" height="177.783" viewBox="0 0 177.784 177.783">
  <g id="play_transparent" data-name="play transparent" transform="translate(-5264.43 -2860.28)">
    <g id="_3032893972256" transform="translate(5264.43 2860.28)">
      <g id="_2005287453568">
        <path id="Path_121" data-name="Path 121" d="M5279.364,2949.521a73.445,73.445,0,0,1,17.254-47.68,25.5,25.5,0,0,1,2.1-2.409c2.261-2.218,1-1.46,3.454-3.491,1.74-1.439,3.266-3.255,6.1-5.357,22.411-16.573,49.77-20.274,75.6-8.77a56.434,56.434,0,0,1,5.928,3.1c5.082,3.066,6.171,3.617,10.852,7.554a51.111,51.111,0,0,1,5.9,5.557,14.492,14.492,0,0,0,1.2,1.234c4.533,4.437,10.375,13.62,12.931,19.362a73.945,73.945,0,0,1,0,61.1,56.416,56.416,0,0,1-3.1,5.927,71.577,71.577,0,0,1-7.51,10.9l-3.329,3.617c-3.589,4.529-11.778,10.17-16.726,13.137-21.488,12.886-51.865,13.065-72.959.263-4.6-2.792-9.555-5.789-13.3-9.615a15.091,15.091,0,0,0-1.234-1.2c-.671-.557-.712-.443-1.375-1.051-1.721-1.572-6.948-8.217-8.344-10.062a91.2,91.2,0,0,1-6.733-11.674c-3.661-7.31-6.709-19.575-6.709-30.444l0,0Zm70.229-89.24h8.581a85.136,85.136,0,0,1,32.771,8.212c8.611,4.137,22.525,13.427,28.007,20.605l11.457,15.628c8.416,15.658,11.806,26.587,11.806,46.879,0,33.4-21.816,64.592-51.507,78.358-12.687,5.884-23.844,8.1-39.819,8.1-33.276,0-64.551-21.728-78.357-51.506-5.916-12.757-8.1-23.752-8.1-39.819,0-17.651,6.868-35.9,16.173-48.759.885-1.223,1.443-2.039,2.329-3.224l7.455-8.519a90.122,90.122,0,0,1,59.208-25.955h0Z" transform="translate(-5264.43 -2860.28)" fill="rgba(254,254,254,0.34)" fill-rule="evenodd"/>
        <path id="Path_122" data-name="Path 122" d="M6129.4,3541.028v50a8.367,8.367,0,0,0,1.031,4.18c2.755,4.356,7.293.445,9.933-1.552l18.1-13.147c2.078-1.564,3.987-2.839,6.06-4.36s3.89-2.816,6.05-4.367c5.121-3.685,7.824-6.1,1.24-11.015-10.287-7.681-21.34-15.282-31.545-22.968-2.843-2.139-6.925-5.587-9.906-1.369a9.065,9.065,0,0,0-.959,4.593Z" transform="translate(-6055.437 -3476.789)" fill="rgba(254,254,254,0.34)" fill-rule="evenodd"/>
      </g>
    </g>
  </g>
</svg>
