<svg xmlns="http://www.w3.org/2000/svg" width="71.495" height="64.834" viewBox="0 0 71.495 64.834">
  <g id="project" transform="translate(-2544.559 -4332.11)">
    <g id="_3030625480080" transform="translate(2544.559 4332.11)">
      <g id="_1998679990112">
        <path id="Path_115" data-name="Path 115" d="M2550.965,4633.009h58.684v-6.135a2.884,2.884,0,0,1,2.873-2.875h.658a2.884,2.884,0,0,1,2.874,2.875v7.865a2.852,2.852,0,0,1-.558,1.7,2.366,2.366,0,0,1-.109.71l-10.542,34.431c-.666,2.175-1.864,4.138-4.138,4.138h-42.439c-2.275,0-3.534-1.944-4.138-4.138l-9.475-34.431a2.481,2.481,0,0,1-.069-1.006,2.816,2.816,0,0,1-.026-.4v-7.866a2.883,2.883,0,0,1,2.874-2.873h.657a2.882,2.882,0,0,1,2.874,2.873v5.133h0Zm4.408,6.375,49.273.164a2.785,2.785,0,0,1,2.527,3.5L2599.6,4666.3c-.494,1.52-1.47,2.871-3.261,2.871h-33.458c-1.79,0-2.81-1.343-3.261-2.871l-6.91-23.318a2.974,2.974,0,0,1,2.669-3.6h0Z" transform="translate(-2544.559 -4610.879)" fill="#fefefe" fill-rule="evenodd"/>
        <path id="Path_116" data-name="Path 116" d="M3079.273,5188.791h16.414a3.2,3.2,0,0,1,3.2,3.2h0a3.2,3.2,0,0,1-3.2,3.2h-16.415a3.2,3.2,0,0,1-3.2-3.2h0a3.2,3.2,0,0,1,3.2-3.2Z" transform="translate(-3052.179 -5150.285)" fill="#fefefe" fill-rule="evenodd"/>
        <path id="Path_117" data-name="Path 117" d="M2807.181,4562.231h40.84a3.02,3.02,0,0,1,2.8,3.2h0a3.023,3.023,0,0,1-2.8,3.2h-40.841a3.025,3.025,0,0,1-2.8-3.2h0a3.024,3.024,0,0,1,2.8-3.2Z" transform="translate(-2792.701 -4551.887)" fill="#fefefe" fill-rule="evenodd"/>
        <path id="Path_118" data-name="Path 118" d="M2942.349,4332.109h29.893a3.05,3.05,0,0,1,2.871,3.2h0a3.049,3.049,0,0,1-2.869,3.2h-29.894a3.053,3.053,0,0,1-2.869-3.2h0a3.052,3.052,0,0,1,2.871-3.205Z" transform="translate(-2921.729 -4332.108)" fill="#fefefe" fill-rule="evenodd"/>
      </g>
    </g>
  </g>
</svg>
