<svg xmlns="http://www.w3.org/2000/svg" width="112.291" height="71.705" viewBox="0 0 112.291 71.705">
  <g id="video" transform="translate(-2999.3 -2478.42)">
    <g id="_3042344283216" transform="translate(2999.3 2478.42)">
      <path id="Path_119" data-name="Path 119" d="M3009.663,2478.422h59.345a10.392,10.392,0,0,1,10.363,10.363v9.818l27.961-12.92c2.125-.982,4.258,1.916,4.258,4.258v48.244c0,2.343-2.144,5.265-4.258,4.258l-27.961-13.3v10.618a10.393,10.393,0,0,1-10.363,10.363h-59.345a10.392,10.392,0,0,1-10.363-10.363v-50.979a10.392,10.392,0,0,1,10.363-10.363Zm69.707,30.773v10.695l19.952,10.591a2.308,2.308,0,0,0,3.292-1.955V2499.6c0-1.583-1.225-2.726-2.6-1.955l-20.639,11.552v0Zm-68.22-22.345h56.368a3.757,3.757,0,0,1,3.747,3.747v47.278a3.756,3.756,0,0,1-3.747,3.747H3011.15a3.756,3.756,0,0,1-3.747-3.747V2490.6A3.756,3.756,0,0,1,3011.15,2486.85Z" transform="translate(-2999.3 -2478.42)" fill="#fefefe" fill-rule="evenodd"/>
      <path id="Path_120" data-name="Path 120" d="M3436.848,2825.54a16.247,16.247,0,1,1-16.247,16.248A16.247,16.247,0,0,1,3436.848,2825.54Zm0,7.472a8.775,8.775,0,1,1-8.775,8.775A8.774,8.774,0,0,1,3436.848,2833.012Z" transform="translate(-3396.189 -2805.427)" fill="#fefefe" fill-rule="evenodd"/>
    </g>
  </g>
</svg>
