<svg id="cross-circle" xmlns="http://www.w3.org/2000/svg" width="26.587" height="26.587" viewBox="0 0 26.587 26.587">
  <path id="Path_101" data-name="Path 101" d="M169.474,160.472a1.662,1.662,0,0,0-2.35,0h0l-2.148,2.149-2.148-2.149a1.662,1.662,0,1,0-2.351,2.351l2.149,2.148-2.149,2.148a1.662,1.662,0,1,0,2.351,2.351h0l2.148-2.149,2.148,2.149a1.662,1.662,0,1,0,2.351-2.351l-2.149-2.148,2.149-2.148a1.662,1.662,0,0,0,0-2.35Z" transform="translate(-151.681 -151.678)" fill="#fff"/>
  <path id="Path_102" data-name="Path 102" d="M13.294,0A13.294,13.294,0,1,0,26.587,13.294,13.294,13.294,0,0,0,13.294,0Zm0,23.264a9.97,9.97,0,1,1,9.97-9.97A9.97,9.97,0,0,1,13.294,23.264Z" fill="#fff"/>
</svg>
