<svg xmlns="http://www.w3.org/2000/svg" width="25" height="25" viewBox="0 0 25 25">
  <path id="invited_member" data-name="invited member" d="M25,19.792a1.041,1.041,0,0,1-1.042,1.042H20.833v3.125a1.042,1.042,0,1,1-2.083,0V20.833H15.625a1.042,1.042,0,1,1,0-2.083H18.75V15.625a1.042,1.042,0,1,1,2.083,0V18.75h3.125A1.041,1.041,0,0,1,25,19.792ZM5.729,7.292h0A3.646,3.646,0,0,0,5.729,0h0a3.646,3.646,0,1,0,0,7.292Zm10.417,0A3.646,3.646,0,1,0,12.5,3.646,3.65,3.65,0,0,0,16.146,7.292ZM7.292,11.979a3.646,3.646,0,1,0,3.646-3.646A3.65,3.65,0,0,0,7.292,11.979Zm-2.083,0A5.7,5.7,0,0,1,6.459,8.416a6.735,6.735,0,0,0-.73-.046c-3.192,0-5.746,2.145-5.729,5.2a1.04,1.04,0,0,0,1.048,1.012H5.842a5.69,5.69,0,0,1-.632-2.6ZM12.5,19.792a3.109,3.109,0,0,1,1.223-2.461,6.383,6.383,0,0,0-2.785-.627c-3.192,0-5.746,2.145-5.729,5.2a1.04,1.04,0,0,0,1.048,1.012h9.365A3.128,3.128,0,0,1,12.5,19.792ZM15.416,8.416a5.692,5.692,0,0,1,.619,6.168h.825a3.094,3.094,0,0,1,5-1.281c-.135-2.91-2.684-4.931-5.716-4.931a6.993,6.993,0,0,0-.73.045Z" transform="translate(0)" fill="#d840e5"/>
</svg>
