<svg xmlns="http://www.w3.org/2000/svg" width="25" height="25" viewBox="0 0 25 25">
  <path id="members" d="M15.1,7.292A3.646,3.646,0,1,1,18.75,3.646,3.65,3.65,0,0,1,15.1,7.292Zm-9.375,0A3.646,3.646,0,1,1,9.375,3.646,3.65,3.65,0,0,1,5.729,7.292ZM18.75,12.5A6.25,6.25,0,1,0,25,18.75,6.25,6.25,0,0,0,18.75,12.5Zm3.836,5.95-2.816,2.723a2.446,2.446,0,0,1-1.722.7,2.474,2.474,0,0,1-1.732-.7l-1.41-1.388a1.042,1.042,0,0,1,1.458-1.488l1.41,1.386a.39.39,0,0,0,.544,0l2.826-2.733a1.042,1.042,0,1,1,1.443,1.5Zm-17.9-6.471A5.7,5.7,0,0,1,5.994,8.342c-.1-.005-.195-.008-.293-.008A5.722,5.722,0,0,0,.006,13.427a1.042,1.042,0,0,0,1.035,1.156H5.315a5.686,5.686,0,0,1-.627-2.6Zm5.729,3.646a3.668,3.668,0,0,0,.628-.054,8.367,8.367,0,0,1,3.015-3.709,3.646,3.646,0,1,0-3.644,3.765Zm0,3.125a8.337,8.337,0,0,1,.249-2.027A5.727,5.727,0,0,0,4.173,21.76a1.042,1.042,0,0,0,1.035,1.156h6.323a8.294,8.294,0,0,1-1.116-4.167Z" transform="translate(0)" fill="#d840e5"/>
</svg>
