<svg xmlns="http://www.w3.org/2000/svg" width="24.685" height="25" viewBox="0 0 24.685 25">
  <path id="permission" d="M8.333,12.5a6.25,6.25,0,1,1,6.25-6.25A6.256,6.256,0,0,1,8.333,12.5Zm15.1,6.25a4.611,4.611,0,0,0-.227-1.368l1.475-.85-1.04-1.805-1.47.847a4.672,4.672,0,0,0-2.384-1.385V12.5H17.708v1.689a4.668,4.668,0,0,0-2.384,1.385l-1.47-.847-1.04,1.805,1.475.85a4.232,4.232,0,0,0,0,2.735l-1.475.85,1.04,1.805,1.47-.847a4.672,4.672,0,0,0,2.384,1.385V25h2.083V23.311a4.668,4.668,0,0,0,2.384-1.385l1.47.847,1.04-1.805-1.475-.85A4.611,4.611,0,0,0,23.438,18.75ZM18.75,20.313a1.563,1.563,0,1,1,1.563-1.562A1.564,1.564,0,0,1,18.75,20.313ZM10.417,18.75a8.286,8.286,0,0,1,1.124-4.167H4.688A4.693,4.693,0,0,0,0,19.271V25H13.251a8.3,8.3,0,0,1-2.834-6.25Z" fill="#d840e5"/>
</svg>
