<svg xmlns="http://www.w3.org/2000/svg" width="30.247" height="36.549" viewBox="0 0 30.247 36.549">
  <path id="play" d="M28.034,11.036,15.011,1.48A7.609,7.609,0,0,0,2.9,7.615V26.726a7.6,7.6,0,0,0,12.107,6.135l13.03-9.555a7.606,7.606,0,0,0,0-12.27ZM25.5,19.844,12.473,29.4a3.316,3.316,0,0,1-5.279-2.673V7.615A3.257,3.257,0,0,1,9.011,4.659a3.332,3.332,0,0,1,1.507-.368,3.292,3.292,0,0,1,1.949.651L25.49,14.5a3.314,3.314,0,0,1,0,5.347Z" transform="translate(-1.9 1.101)" fill="#fff" stroke="#fff" stroke-width="2"/>
</svg>
