<svg xmlns="http://www.w3.org/2000/svg" width="64.677" height="64.677" viewBox="0 0 64.677 64.677">
  <g id="play_circle" data-name="play circle" transform="translate(10618.709 1248.885)">
    <g id="delete" transform="translate(-10612.709 -1218.885)">
      <path id="Path_102" data-name="Path 102" d="M32.338,0A32.338,32.338,0,1,0,64.677,32.338,32.338,32.338,0,0,0,32.338,0Zm0,56.592A24.254,24.254,0,1,1,56.592,32.338,24.254,24.254,0,0,1,32.338,56.592Z" transform="translate(-6 -30)" fill="#fff"/>
    </g>
    <path id="play" d="M28.034,11.036,15.011,1.48A7.609,7.609,0,0,0,2.9,7.615V26.726a7.6,7.6,0,0,0,12.107,6.135l13.03-9.555a7.606,7.606,0,0,0,0-12.27ZM25.5,19.844,12.473,29.4a3.316,3.316,0,0,1-5.279-2.673V7.615A3.257,3.257,0,0,1,9.011,4.659a3.332,3.332,0,0,1,1.507-.368,3.292,3.292,0,0,1,1.949.651L25.49,14.5a3.314,3.314,0,0,1,0,5.347Z" transform="translate(-10600.9 -1234.005)" fill="#fff" stroke="#fff" stroke-width="2"/>
  </g>
</svg>
