<svg xmlns="http://www.w3.org/2000/svg" width="29.547" height="29.524" viewBox="0 0 29.547 29.524">
  <path id="successs" d="M29.567,14.781A6.494,6.494,0,0,0,27.2,9.7a6.764,6.764,0,0,0-1.959-5.375,6.5,6.5,0,0,0-5.27-1.916C17.485-.74,12.124-.8,9.7,2.366A6.736,6.736,0,0,0,4.326,4.325,6.5,6.5,0,0,0,2.41,9.6C-.739,12.077-.8,17.438,2.367,19.863a6.764,6.764,0,0,0,1.959,5.375A6.492,6.492,0,0,0,9.6,27.154c2.482,3.149,7.843,3.209,10.266.043a6.777,6.777,0,0,0,5.373-1.959,6.5,6.5,0,0,0,1.916-5.27,6.761,6.761,0,0,0,2.415-5.185Zm-7.96-1.767-5.839,5.629a3.7,3.7,0,0,1-5.211-.016L7.783,16.049A1.232,1.232,0,1,1,9.46,14.244l2.807,2.609a1.241,1.241,0,0,0,1.774.031L19.9,11.239a1.233,1.233,0,0,1,1.711,1.774Z" transform="translate(-0.02 -0.02)" fill="#d840e5"/>
</svg>
