<svg xmlns="http://www.w3.org/2000/svg" width="19" height="19" viewBox="0 0 19 19">
  <path id="file-edit" d="M1.583,2.375a.793.793,0,0,1,.792-.792H8.708V7.125H14.25v.8a3.971,3.971,0,0,1,1.583-.694V6.006L9.828,0H2.375A2.378,2.378,0,0,0,0,2.375V19H7.125V17.417H1.583Zm8.708.328,2.839,2.839H10.292ZM18.3,9.4a2.431,2.431,0,0,0-3.359,0L8.708,15.641V19h3.359L18.3,12.763a2.376,2.376,0,0,0,0-3.359Zm-1.12,2.239-5.773,5.774h-1.12V16.3l5.774-5.773a.81.81,0,0,1,1.119,0,.791.791,0,0,1,0,1.119Z" fill="#d840e5"/>
</svg>
