<svg xmlns="http://www.w3.org/2000/svg" width="21.593" height="21.593" viewBox="0 0 21.593 21.593">
  <path id="users-alt" d="M10.8,14.4a3.6,3.6,0,1,1,3.6-3.6A3.6,3.6,0,0,1,10.8,14.4Zm0-5.4a1.8,1.8,0,1,0,1.8,1.8A1.8,1.8,0,0,0,10.8,9Zm5.4,11.7a5.4,5.4,0,0,0-10.8,0,.9.9,0,0,0,1.8,0,3.6,3.6,0,0,1,7.2,0,.9.9,0,0,0,1.8,0Zm0-13.5a3.6,3.6,0,1,1,3.6-3.6A3.6,3.6,0,0,1,16.195,7.2Zm0-5.4a1.8,1.8,0,1,0,1.8,1.8A1.8,1.8,0,0,0,16.195,1.8Zm5.4,11.7a5.4,5.4,0,0,0-5.4-5.4.9.9,0,0,0,0,1.8,3.6,3.6,0,0,1,3.6,3.6.9.9,0,0,0,1.8,0ZM5.4,7.2A3.6,3.6,0,1,1,9,3.6,3.6,3.6,0,0,1,5.4,7.2Zm0-5.4A1.8,1.8,0,1,0,7.2,3.6,1.8,1.8,0,0,0,5.4,1.8ZM1.8,13.5A3.6,3.6,0,0,1,5.4,9.9a.9.9,0,0,0,0-1.8A5.4,5.4,0,0,0,0,13.5a.9.9,0,0,0,1.8,0Z" fill="#fff"/>
</svg>
