<svg xmlns="http://www.w3.org/2000/svg" width="30" height="30.002" viewBox="0 0 30 30.002">
  <g id="Avg._View_Duration" data-name="Avg. View Duration" transform="translate(0 0.024)">
    <path id="Path_6006" data-name="Path 6006" d="M9.5,24h-8a1.5,1.5,0,1,1,0-3h8a1.5,1.5,0,0,1,0,3Z" transform="translate(0 5.978)" fill="#fff"/>
    <path id="Path_6007" data-name="Path 6007" d="M7.5,19h-6a1.5,1.5,0,1,1,0-3h6a1.5,1.5,0,0,1,0,3Z" transform="translate(0 4.556)" fill="#fff"/>
    <path id="Path_6008" data-name="Path 6008" d="M5.5,14h-4a1.5,1.5,0,1,1,0-3h4a1.5,1.5,0,0,1,0,3Z" transform="translate(0 3.134)" fill="#fff"/>
    <path id="Path_6009" data-name="Path 6009" d="M18.006,29.7A1.876,1.876,0,0,1,17.56,26,11.308,11.308,0,1,0,4.584,10.2a1.894,1.894,0,0,1-2.516.893,1.873,1.873,0,0,1-.9-2.5A15.118,15.118,0,1,1,18.453,29.646a1.917,1.917,0,0,1-.447.054Z" transform="translate(0)" fill="#fff"/>
    <path id="Path_6010" data-name="Path 6010" d="M12.5,6A1.5,1.5,0,0,0,11,7.5v4.293a2,2,0,0,0,.586,1.414L13.379,15A1.5,1.5,0,1,0,15.5,12.879l-1.5-1.5V7.5A1.5,1.5,0,0,0,12.5,6Z" transform="translate(3.445 2.469)" fill="#fff"/>
  </g>
</svg>
