<svg xmlns="http://www.w3.org/2000/svg" width="38.495" height="38.495" viewBox="0 0 38.495 38.495">
  <g id="check_click" data-name="check click" transform="translate(0 0)">
    <path id="Path_6040" data-name="Path 6040" d="M1189.39,1718.452a19.073,19.073,0,0,0,3.436,11.515c.344.483.614.849,1.006,1.314a12,12,0,0,0,1.68,1.757,16.4,16.4,0,0,0,4.045,2.915,18.076,18.076,0,0,0,8.222,2.261,18.387,18.387,0,0,0,9.047-1.779,14.957,14.957,0,0,0,1.463-.772,19.783,19.783,0,0,0,2.736-1.9,23.531,23.531,0,0,0,2.287-2.268l1-1.318c.356-.493.611-.869.926-1.394a19.462,19.462,0,0,0,1.541-16.354,19.23,19.23,0,0,0-3.987-6.5c-.248-.246-.329-.439-.556-.647a27.525,27.525,0,0,0-3.22-2.539,19.167,19.167,0,0,0-9.864-3.024,19.152,19.152,0,0,0-11.564,3.473,20.635,20.635,0,0,0-4.69,4.676,19.247,19.247,0,0,0-3.509,10.583Z" transform="translate(-1189.39 -1699.719)" fill="#d840e5" fill-rule="evenodd"/>
    <path id="Path_6041" data-name="Path 6041" d="M1797.8,2461.341c.957.956,1,1.311,2.384,1.311.813,0,1.343-.7,1.783-1.139l7.218-7.218,1.461-1.461a2.538,2.538,0,0,0,1.052-1.783c0-1.955-2.07-2.975-3.673-1.353-1.058,1.07-7.677,7.773-8.1,8.056l-3.157-3.2a2.062,2.062,0,0,0-3.631,1.226c0,1.158.619,1.522,1.311,2.212l3.351,3.352Z" transform="translate(-1783.173 -2436.524)" fill="#fefefe" fill-rule="evenodd"/>
  </g>
</svg>
