<svg xmlns="http://www.w3.org/2000/svg" width="14" height="14" viewBox="0 0 14 14">
  <g id="edit" transform="translate(-3680.57 -3917.67)">
    <g id="_1917163400032" transform="translate(3680.57 3917.67)">
      <path id="Path_6036" data-name="Path 6036" d="M3768.34,3994.8l3.172,3.186,7.7-7.684-3.186-3.172Z" transform="translate(-3766.57 -3985.729)" fill="#fff" fill-rule="evenodd"/>
      <path id="Path_6037" data-name="Path 6037" d="M4169.93,3918.627l3.179,3.193a6.454,6.454,0,0,0,.586-.575,1.338,1.338,0,0,0,.364-1.1v-.045c0-.582-.589-1.04-.991-1.442-.61-.61-.828-.991-1.662-.991a1.272,1.272,0,0,0-.856.347,4.47,4.47,0,0,0-.621.61Z" transform="translate(-4160.059 -3917.67)" fill="#fff" fill-rule="evenodd"/>
      <path id="Path_6038" data-name="Path 6038" d="M3680.57,4398.862l4.377-1.445-2.921-2.937Z" transform="translate(-3680.57 -4384.862)" fill="#fff" fill-rule="evenodd"/>
    </g>
  </g>
</svg>
