<svg xmlns="http://www.w3.org/2000/svg" width="30" height="30" viewBox="0 0 30 30">
  <path id="email_capture" data-name="email capture" d="M30,13.125v10A6.887,6.887,0,0,1,23.125,30H6.875A6.887,6.887,0,0,1,0,23.125v-12.5A6.887,6.887,0,0,1,6.875,3.75h10a1.875,1.875,0,0,1,0,3.75h-10A3.125,3.125,0,0,0,4.113,9.163l8.675,8.675a3.193,3.193,0,0,0,4.425,0c.025-.025,3.438-3,3.438-3a1.879,1.879,0,1,1,2.462,2.837l-3.3,2.875a6.881,6.881,0,0,1-9.675-.05L3.75,14.1v9.025A3.126,3.126,0,0,0,6.875,26.25h16.25a3.126,3.126,0,0,0,3.125-3.125v-10a1.875,1.875,0,0,1,3.75,0ZM25.625,8.75A4.375,4.375,0,1,0,21.25,4.375,4.38,4.38,0,0,0,25.625,8.75Z" fill="#fff"/>
</svg>
