<svg xmlns="http://www.w3.org/2000/svg" width="30" height="24.998" viewBox="0 0 30 24.998">
  <path id="engagement" d="M4.893,13.931A1.875,1.875,0,0,1,2,16.318,8.749,8.749,0,0,1,8.75,2h5a8.751,8.751,0,0,1,2.386,17.169,1.875,1.875,0,1,1-1.021-3.609,5,5,0,0,0-1.364-9.812h-5a5,5,0,0,0-5,5A4.938,4.938,0,0,0,4.893,13.93ZM28,12.681a1.875,1.875,0,0,0-2.892,2.387,4.938,4.938,0,0,1,1.142,3.181,5,5,0,0,1-5,5h-5a5,5,0,0,1-1.364-9.812,1.875,1.875,0,0,0-1.021-3.609A8.751,8.751,0,0,0,16.25,27h5A8.749,8.749,0,0,0,28,12.68Z" transform="translate(0.001 -2)" fill="#fff"/>
</svg>
