<svg id="Link_Clicks" data-name="Link Clicks" xmlns="http://www.w3.org/2000/svg" width="30.289" height="30.285" viewBox="0 0 30.289 30.285">
  <path id="Path_6003" data-name="Path 6003" d="M26.86,25.074,25.5,23.715l-2.183-2.18,3.52-3.52a1.262,1.262,0,0,0-.461-2.077L15.057,11.831a2.524,2.524,0,0,0-3.232,3.231l4.118,11.319a1.261,1.261,0,0,0,2.077.461l3.516-3.526,2.18,2.18,1.359,1.359A1.262,1.262,0,1,0,26.86,25.07ZM17.638,23.65,14.2,14.2l9.453,3.438Z" transform="translate(3.059 3.061)" fill="#fff"/>
  <path id="Path_6004" data-name="Path 6004" d="M12.62,25.241a12.62,12.62,0,1,1,12.62-12.62,1.262,1.262,0,0,1-2.524,0,10.1,10.1,0,1,0-10.1,10.1,1.262,1.262,0,0,1,0,2.524Z" fill="#fff"/>
  <path id="Path_6005" data-name="Path 6005" d="M9.154,18.664a1.262,1.262,0,0,1-.483-.1,7.572,7.572,0,1,1,9.9-9.887,1.262,1.262,0,1,1-2.332.964,5.048,5.048,0,1,0-6.6,6.6,1.262,1.262,0,0,1-.485,2.428Z" transform="translate(1.049 1.049)" fill="#fff"/>
</svg>
