<svg id="mark_as_complaete" data-name="mark as complaete" xmlns="http://www.w3.org/2000/svg" width="17" height="17" viewBox="0 0 17 17">
  <path id="Path_6031" data-name="Path 6031" d="M13.1,17H3.9A3.9,3.9,0,0,1,0,13.1V3.9A3.9,3.9,0,0,1,3.9,0H13.1A3.9,3.9,0,0,1,17,3.9V13.1A3.9,3.9,0,0,1,13.1,17ZM3.9,2.125A1.771,1.771,0,0,0,2.125,3.9V13.1A1.771,1.771,0,0,0,3.9,14.875H13.1A1.771,1.771,0,0,0,14.875,13.1V3.9A1.771,1.771,0,0,0,13.1,2.125Z" fill="#fff"/>
  <path id="Path_6032" data-name="Path 6032" d="M100.9,154.433a1.673,1.673,0,0,1-1.19-.5L97.6,151.825a1.062,1.062,0,0,1,0-1.5h0a1.063,1.063,0,0,1,1.5,0l1.8,1.8,5.109-5.108a1.062,1.062,0,0,1,1.5,0h0a1.062,1.062,0,0,1,0,1.5h0l-5.422,5.422A1.672,1.672,0,0,1,100.9,154.433Z" transform="translate(-94.056 -141.834)" fill="#fff"/>
</svg>
