<svg xmlns="http://www.w3.org/2000/svg" width="30" height="30" viewBox="0 0 30 30">
  <path id="play-rate" d="M23.75,30H6.25A6.257,6.257,0,0,1,0,23.75V6.25A6.257,6.257,0,0,1,6.25,0h17.5A6.257,6.257,0,0,1,30,6.25v17.5A6.258,6.258,0,0,1,23.75,30ZM6.25,2.5A3.75,3.75,0,0,0,2.5,6.25v17.5A3.75,3.75,0,0,0,6.25,27.5h17.5a3.75,3.75,0,0,0,3.75-3.75V6.25A3.75,3.75,0,0,0,23.75,2.5Zm5.427,18.756a2.96,2.96,0,0,1-1.483-.4A2.891,2.891,0,0,1,8.74,18.326V11.674a2.921,2.921,0,0,1,4.375-2.536l6.6,3.294a2.92,2.92,0,0,1,.061,5.105L13.054,20.9a2.75,2.75,0,0,1-1.376.361Zm-.031-10a.393.393,0,0,0-.2.053.409.409,0,0,0-.21.365v6.653a.421.421,0,0,0,.625.366l6.72-3.36a.393.393,0,0,0,.15-.332.406.406,0,0,0-.211-.365l-6.593-3.294a.577.577,0,0,0-.285-.085Z" fill="#fff"/>
</svg>
