<svg xmlns="http://www.w3.org/2000/svg" width="17.604" height="13.203" viewBox="0 0 17.604 13.203">
  <path id="play-pause" d="M16.5,16.2a1.1,1.1,0,0,1-1.1-1.1V4.1a1.1,1.1,0,0,1,2.2,0v11A1.1,1.1,0,0,1,16.5,16.2Zm-3.667,0a1.1,1.1,0,0,1-1.1-1.1V4.1a1.1,1.1,0,1,1,2.2,0v11A1.1,1.1,0,0,1,12.836,16.2ZM2.66,15.894A2.662,2.662,0,0,1,0,13.234V5.968A2.657,2.657,0,0,1,4.229,3.827L9.183,7.46a2.657,2.657,0,0,1,0,4.286L4.229,15.378A2.644,2.644,0,0,1,2.66,15.9Zm0-10.387a.463.463,0,0,0-.212.054.433.433,0,0,0-.25.408v7.266a.456.456,0,0,0,.726.369L7.881,9.97a.457.457,0,0,0,0-.736L2.927,5.6a.444.444,0,0,0-.265-.092Z" transform="translate(0 -3)" fill="#ffe148"/>
</svg>
