<svg xmlns="http://www.w3.org/2000/svg" width="17.242" height="17.241" viewBox="0 0 17.242 17.241">
  <path id="runing" d="M17.242,8.621a8.618,8.618,0,0,1-13.7,6.965l-.911.911A.7.7,0,0,1,1.449,16l-.013-3.1a.686.686,0,0,1,.69-.69l3.1.013a.7.7,0,0,1,.495,1.185l-.624.624a6.458,6.458,0,0,0,9.991-5.414,1.078,1.078,0,0,1,2.155,0Zm-15.086,0a6.467,6.467,0,0,1,10-5.418l-.629.629a.7.7,0,0,0,.495,1.185l3.1.013a.686.686,0,0,0,.69-.69l-.013-3.1A.7.7,0,0,0,14.607.746l-.915.915A8.61,8.61,0,0,0,0,8.621a1.078,1.078,0,1,0,2.155,0Zm9.8-.7-.163.1a3.041,3.041,0,0,1,0,1.213l.163.1a1.078,1.078,0,0,1-1.088,1.861l-.175-.1a3.2,3.2,0,0,1-.995.574v.2a1.078,1.078,0,1,1-2.155,0v-.2a3.216,3.216,0,0,1-.995-.574l-.175.1A1.077,1.077,0,0,1,5.287,9.324l.163-.1a3.041,3.041,0,0,1,0-1.213l-.163-.1A1.078,1.078,0,0,1,6.374,6.059l.175.1a3.2,3.2,0,0,1,.995-.574v-.2a1.078,1.078,0,0,1,2.155,0v.2a3.216,3.216,0,0,1,.995.574l.175-.1A1.078,1.078,0,0,1,11.956,7.92ZM8.621,7.543A1.078,1.078,0,1,0,9.7,8.621,1.079,1.079,0,0,0,8.621,7.543Z" transform="translate(0 -0.001)" fill="#36e800"/>
</svg>
