<svg xmlns="http://www.w3.org/2000/svg" width="40" height="40" viewBox="0 0 40 40">
  <path id="select_video" data-name="select video" d="M31.667,0H8.333A8.343,8.343,0,0,0,0,8.333V31.667A8.343,8.343,0,0,0,8.333,40H31.667A8.343,8.343,0,0,0,40,31.667V8.333A8.343,8.343,0,0,0,31.667,0Zm1.667,18.333h3.333v3.333H33.333Zm0-3.333V11.667h3.333V15ZM30,18.333H10v-15H30ZM6.667,21.667H3.333V18.333H6.667Zm0-6.667H3.333V11.667H6.667ZM3.333,25H6.667v3.333H3.333ZM10,21.667H30v15H10ZM33.333,25h3.333v3.333H33.333ZM36.667,8.333H33.333V3.64A5,5,0,0,1,36.667,8.333Zm-30-4.693V8.333H3.333A5,5,0,0,1,6.667,3.64ZM3.333,31.667H6.667V36.36a5,5,0,0,1-3.333-4.693Zm30,4.693V31.667h3.333A5,5,0,0,1,33.333,36.36Z" fill="#fff"/>
</svg>
