<svg xmlns="http://www.w3.org/2000/svg" width="20" height="20.002" viewBox="0 0 20 20.002">
  <path id="share-square" d="M15,15.416A4.591,4.591,0,0,1,10.417,20H4.583A4.591,4.591,0,0,1,0,15.416V9.583A4.591,4.591,0,0,1,4.583,5a1.25,1.25,0,0,1,0,2.5A2.084,2.084,0,0,0,2.5,9.583v5.833A2.084,2.084,0,0,0,4.583,17.5h5.833A2.084,2.084,0,0,0,12.5,15.416a1.25,1.25,0,0,1,2.5,0ZM19.167,4.208,15.483.383a1.249,1.249,0,0,0-1.8,1.733L16.458,5H11.25A4.591,4.591,0,0,0,6.667,9.583V13.75a1.25,1.25,0,1,0,2.5,0V9.583A2.084,2.084,0,0,1,11.25,7.5h5.208l-2.775,2.883a1.25,1.25,0,0,0,.9,2.117,1.23,1.23,0,0,0,.9-.383l3.658-3.8a2.907,2.907,0,0,0,.017-4.108Z" transform="translate(0 0.003)" fill="#fff"/>
</svg>
