<svg xmlns="http://www.w3.org/2000/svg" width="16.111" height="16.111" viewBox="0 0 16.111 16.111">
  <path id="stop-circle" d="M8.056,0a8.056,8.056,0,1,0,8.056,8.056A8.065,8.065,0,0,0,8.056,0Zm0,14.769a6.713,6.713,0,1,1,6.713-6.713A6.721,6.721,0,0,1,8.056,14.769ZM9.4,4.7H6.713A2.016,2.016,0,0,0,4.7,6.713V9.4a2.016,2.016,0,0,0,2.014,2.014H9.4A2.016,2.016,0,0,0,11.412,9.4V6.713A2.016,2.016,0,0,0,9.4,4.7Zm.671,4.7a.672.672,0,0,1-.671.671H6.713A.672.672,0,0,1,6.042,9.4V6.713a.672.672,0,0,1,.671-.671H9.4a.672.672,0,0,1,.671.671Z" fill="#f44"/>
</svg>
