<svg xmlns="http://www.w3.org/2000/svg" width="39.944" height="20.648" viewBox="0 0 39.944 20.648">
  <g id="toggle_off" data-name="toggle off" transform="translate(-1527.473 -2526.24)">
    <path id="Union_4" data-name="Union 4" d="M9.808,20.648a10.339,10.339,0,0,1-7.933-4.371,10.443,10.443,0,0,1-.9-1.507A9.749,9.749,0,0,1,0,9.808,9.741,9.741,0,0,1,3.031,3.033,9.837,9.837,0,0,1,9.808,0h20.3a9.939,9.939,0,0,1,6.776,3.033,10.257,10.257,0,0,1,2.059,11.737,10.989,10.989,0,0,1-.936,1.56,10.351,10.351,0,0,1-7.9,4.318Z" transform="translate(1527.473 2526.24)" fill="#fff"/>
    <path id="Path_6024" data-name="Path 6024" d="M4167.378,2826.573a7.914,7.914,0,1,0-8.871,6.859A7.892,7.892,0,0,0,4167.378,2826.573Z" transform="translate(-2621.599 -289.021)" fill="#d840e5" fill-rule="evenodd"/>
  </g>
</svg>
