<svg xmlns="http://www.w3.org/2000/svg" width="70.959" height="36.682" viewBox="0 0 70.959 36.682">
  <g id="toogle_off" data-name="toogle off" transform="translate(-1527.473 -2526.241)">
    <path id="Union_4" data-name="Union 4" d="M16987.9-18521.078c-5.332,0-11.221-3.471-14.094-7.766a18.668,18.668,0,0,1-1.6-2.678c-1.537-3.338-1.729-5.1-1.729-8.816a17.3,17.3,0,0,1,5.385-12.033,17.477,17.477,0,0,1,12.039-5.389h36.066a17.445,17.445,0,0,1,6.982,1.732,17.289,17.289,0,0,1,5.057,3.656,18.219,18.219,0,0,1,3.656,20.85,19.423,19.423,0,0,1-1.662,2.771c-2.869,4.234-8.738,7.672-14.033,7.672Z" transform="translate(-15443 21084)" fill="#d840e5"/>
    <path id="Path_6024" data-name="Path 6024" d="M4179.624,2833.488a14.059,14.059,0,1,0-15.759,12.185,14.02,14.02,0,0,0,15.759-12.185Z" transform="translate(-2619.63 -287.15)" fill="#ebf0f1" fill-rule="evenodd"/>
  </g>
</svg>
