<svg xmlns="http://www.w3.org/2000/svg" width="45.142" height="38.264" viewBox="0 0 45.142 38.264">
  <g id="Transcode" transform="translate(0 0)">
    <g id="_1349277665344" transform="translate(0 0)">
      <path id="Path_6042" data-name="Path 6042" d="M3038.26,3305.741c-4.984,0-8.239.989-11.313,3.5a24.387,24.387,0,0,0-2.552,2.3c-1.192,1.192-1.257,1.4-2.248,2.513-1.411,1.581-4.406,5.867-5.688,7.184l-1.542,1.72a16.918,16.918,0,0,1-2.694,2.155c-3.119,1.857-5.627,1.438-9.583,1.438v6.348c5.8,0,9.285.435,14.171-3.2l1.678-1.408a29.722,29.722,0,0,0,3.7-3.974c1.873-2.315,3.925-5.268,5.826-7.311.177-.191.186-.252.352-.441,1.629-1.85,4.564-4.387,7.957-4.387h1.94v4.5a7.519,7.519,0,0,0,1.214-.99l2.379-2.029c.826-.786,5.566-4.637,5.929-5.18a5.312,5.312,0,0,1-.595-.463c-.229-.214-.353-.292-.572-.486-.416-.371-.758-.654-1.187-1.017-1.79-1.514-4.215-3.726-5.921-5.1l-.864-.723c-.23-.184-.073-.151-.384-.234v5.29Z" transform="translate(-3002.64 -3300.45)" fill="#fff" fill-rule="evenodd"/>
      <path id="Path_6043" data-name="Path 6043" d="M4611.052,4887.306c-3.417,0-5.184-.287-7.861-2.455l-1.573-1.425-3.968,5.025,2.2,1.853a15.43,15.43,0,0,0,9.083,3.35h2.116v5.377a46.193,46.193,0,0,0,3.563-2.96c.435-.338.774-.689,1.184-1.02l4.135-3.536a5.01,5.01,0,0,1,.639-.507,3.166,3.166,0,0,0-.806-.78l-1.508-1.313c-.22-.205-.343-.266-.573-.485l-5.374-4.589a8.349,8.349,0,0,0-1.261-1.032v4.5Z" transform="translate(-4575.432 -4860.768)" fill="#fff" fill-rule="evenodd"/>
      <path id="Path_6044" data-name="Path 6044" d="M3002.64,3716.924c2.288,0,5.5-.235,7.44.406a12.294,12.294,0,0,1,4.131,2.482,6.536,6.536,0,0,0,.684.639c.264-.5,2.819-3.708,3.4-4.446a3.385,3.385,0,0,0,.479-.667,28.452,28.452,0,0,0-3.819-2.793c-.587-.291-.9-.506-1.533-.759-3.981-1.581-6.4-1.3-10.782-1.3v6.436Z" transform="translate(-3002.64 -3704.757)" fill="#fff" fill-rule="evenodd"/>
    </g>
  </g>
</svg>
