<svg xmlns="http://www.w3.org/2000/svg" width="14.787" height="19.32" viewBox="0 0 14.787 19.32">
  <g id="change_logo" data-name="change logo" transform="translate(-60.07)">
    <path id="Path_1902" data-name="Path 1902" d="M74.857,11.925v0a7.394,7.394,0,0,1-14.787,0c0-3.463,2.311-5.773,4.35-7.81C65.78,2.756,67.077,1.461,67.463,0c.386,1.461,1.683,2.756,3.042,4.115C72.545,6.153,74.856,8.462,74.857,11.925Zm-2.527,1.4A4.524,4.524,0,0,0,71.76,9.1a36.171,36.171,0,0,0-4.3-4.844L66.1,5.619c-.278.278-.877.809-.18,1.561.793.857,5.028,5.283,5.513,6,.222.327.253.481.552.469C72.151,13.645,72.275,13.445,72.33,13.325Zm-2.324,1.581a2.488,2.488,0,0,0-.637-1.685c-.477-.532-1.906-2.132-1.906-2.132s-1.451,1.577-1.909,2.138a2.647,2.647,0,0,0-.634,1.679,2.543,2.543,0,1,0,5.086,0Zm-3.762-4.737a.175.175,0,0,0,0-.248L64.189,7.678c-3.1,3.071-1.43,5.954-.977,5.97.048,0,.126.007.178-.143a19.961,19.961,0,0,1,2.839-3.321A.133.133,0,0,0,66.244,10.169Z" transform="translate(0)" fill="#fff"/>
  </g>
</svg>
