<?xml version="1.0" encoding="UTF-8"?>
<!DOCTYPE svg PUBLIC "-//W3C//DTD SVG 1.1//EN" "http://www.w3.org/Graphics/SVG/1.1/DTD/svg11.dtd">
<!-- Creator: CorelDRAW 2020 (64-Bit) -->
<svg xmlns="http://www.w3.org/2000/svg" xml:space="preserve" width="8.26772in" height="8.26772in" version="1.1" style="shape-rendering:geometricPrecision; text-rendering:geometricPrecision; image-rendering:optimizeQuality; fill-rule:evenodd; clip-rule:evenodd"
viewBox="0 0 8267.72 8267.72"
 xmlns:xlink="http://www.w3.org/1999/xlink"
 xmlns:xodm="http://www.corel.com/coreldraw/odm/2003">
 <defs>
  <style type="text/css">
   <![CDATA[
    .fil0 {fill:#FEFEFE}
   ]]>
  </style>
 </defs>
 <g id="Layer_x0020_1">
  <metadata id="CorelCorpID_0Corel-Layer"/>
  <g id="_3042342341728">
   <path class="fil0" d="M479.27 2818.36l1172.48 0c104.87,0 182.98,70.35 181.12,175.15l-2.67 150.3 -681.39 503.57c-53.15,33.49 -102.78,30.57 -149.53,-2.64l-695.81 -493.32 -1.72 -181.74c-0.99,-104.87 72.66,-151.32 177.53,-151.32l-0.01 0zm65.81 117.91l1060.57 -3.59c83.78,-0.29 102.23,-0.48 100.73,83.2l-1.09 60.04 -574.14 441.63c-42.45,26.76 -82.1,24.41 -119.48,-2.09l-584.46 -429.84 -1.64 -62.99c-2.16,-83.76 35.68,-86.02 119.44,-86.31l0.07 -0.04z"/>
   <path class="fil0" d="M433.06 3383.11l-128.7 -92.94 -7.13 607.66c16.26,80.67 64.75,129.07 138.22,152.53l1251.13 -4.76c90.96,-13.24 144.19,-68.6 152.53,-173.99l-9.51 -586.22 -126.33 90.56 0 448c0.26,68.93 -24.48,90.75 -76.25,92.94l-1131.98 19.06c-49.01,-8.96 -63.18,-42.69 -70.9,-92.94l8.93 -459.89 0 -0.03z"/>
  </g>
 </g>
</svg>
