<svg xmlns="http://www.w3.org/2000/svg" width="28.711" height="28.711" viewBox="0 0 28.711 28.711">
  <path id="general_User" data-name="general User" d="M14.355,0A14.355,14.355,0,1,0,28.711,14.355,14.371,14.371,0,0,0,14.355,0ZM9.57,25.318v-.2a4.785,4.785,0,1,1,9.57,0v.2a11.948,11.948,0,0,1-9.57,0Zm11.873-1.331a7.178,7.178,0,0,0-14.176,0,11.963,11.963,0,1,1,14.176,0ZM14.355,5.981a4.785,4.785,0,1,0,4.785,4.785A4.79,4.79,0,0,0,14.355,5.981Zm0,7.178a2.393,2.393,0,1,1,2.393-2.393A2.395,2.395,0,0,1,14.355,13.159Z" fill="#d840e5"/>
</svg>
