<svg xmlns="http://www.w3.org/2000/svg" width="19" height="19" viewBox="0 0 19 19">
  <path id="heading_and_sub" data-name="heading and sub" d="M15.833,4.75h1.583A1.585,1.585,0,0,0,19,3.167V1.583A1.585,1.585,0,0,0,17.417,0H15.833A1.585,1.585,0,0,0,14.25,1.583H4.75A1.585,1.585,0,0,0,3.167,0H1.583A1.585,1.585,0,0,0,0,1.583V3.167A1.585,1.585,0,0,0,1.583,4.75v9.5A1.585,1.585,0,0,0,0,15.833v1.583A1.585,1.585,0,0,0,1.583,19H3.167A1.585,1.585,0,0,0,4.75,17.417h9.5A1.585,1.585,0,0,0,15.833,19h1.583A1.585,1.585,0,0,0,19,17.417V15.833a1.585,1.585,0,0,0-1.583-1.583H15.833a1.57,1.57,0,0,0-.383.052l-2.909-3.394a1.572,1.572,0,0,0,.125-.617V8.708a1.572,1.572,0,0,0-.125-.617L15.45,4.7a1.57,1.57,0,0,0,.383.052ZM4.75,15.833A1.585,1.585,0,0,0,3.167,14.25V4.75A1.585,1.585,0,0,0,4.75,3.167h9.5a1.567,1.567,0,0,0,.065.424L11.269,7.144a1.6,1.6,0,0,0-.185-.019H9.5A1.585,1.585,0,0,0,7.917,8.708v1.583A1.585,1.585,0,0,0,9.5,11.875h1.583a1.44,1.44,0,0,0,.185-.019l3.046,3.554a1.557,1.557,0,0,0-.065.424Z" fill="#fff"/>
</svg>
