<?xml version="1.0" encoding="UTF-8"?>
<!DOCTYPE svg PUBLIC "-//W3C//DTD SVG 1.1//EN" "http://www.w3.org/Graphics/SVG/1.1/DTD/svg11.dtd">
<!-- Creator: CorelDRAW 2020 (64-Bit) -->
<svg xmlns="http://www.w3.org/2000/svg" xml:space="preserve" width="8.26772in" height="8.26772in" version="1.1" style="shape-rendering:geometricPrecision; text-rendering:geometricPrecision; image-rendering:optimizeQuality; fill-rule:evenodd; clip-rule:evenodd"
viewBox="0 0 8267.72 8267.72"
 xmlns:xlink="http://www.w3.org/1999/xlink"
 xmlns:xodm="http://www.corel.com/coreldraw/odm/2003">
 <defs>
  <style type="text/css">
   <![CDATA[
    .fil0 {fill:#FEFEFE;fill-opacity:0.341176}
   ]]>
  </style>
 </defs>
 <g id="Layer_x0020_1">
  <metadata id="CorelCorpID_0Corel-Layer"/>
  <g id="_3032893972256">
   <g id="_2005287453568">
    <path class="fil0" d="M5439.07 3903.93c0,-210.74 72.84,-404.25 201.78,-557.6 10.31,-12.24 12.81,-16.63 24.58,-28.18 26.44,-25.93 11.7,-17.07 40.4,-40.83 20.35,-16.83 38.19,-38.06 71.38,-62.65 262.09,-193.82 582.03,-237.1 884.11,-102.56 23.59,10.52 48.02,23.43 69.32,36.24 59.44,35.85 72.17,42.3 126.91,88.34 21.3,17.86 51.46,43.76 69.01,64.98 4.9,5.93 8.54,9.09 13.99,14.43 53,51.89 121.34,159.28 151.22,226.44 103.04,231.3 103,483.35 0,714.59 -10.52,23.59 -23.43,48.02 -36.24,69.32 -41.81,69.37 -38.42,63.87 -87.83,127.43l-38.93 42.3c-41.97,52.97 -137.74,118.93 -195.6,153.63 -251.29,150.7 -606.54,152.8 -853.24,3.08 -53.79,-32.65 -111.74,-67.7 -155.56,-112.44 -5.29,-5.41 -8.57,-9.13 -14.43,-14.04 -7.86,-6.52 -8.34,-5.18 -16.09,-12.29 -20.12,-18.38 -81.26,-96.09 -97.58,-117.67 -25.46,-33.67 -59.08,-97.35 -78.74,-136.52 -42.81,-85.49 -78.46,-228.93 -78.46,-356.03l-0.02 0.03zm821.31 -1043.64l100.35 0c131.38,6.36 261.89,37.78 383.23,96.04 100.71,48.38 263.43,157.02 327.54,240.97l133.99 182.76c98.42,183.12 138.06,310.93 138.06,548.23 0,390.57 -255.13,755.38 -602.35,916.37 -148.37,68.81 -278.85,94.73 -465.67,94.73 -389.16,0 -754.91,-254.11 -916.37,-602.35 -69.17,-149.19 -94.73,-277.77 -94.73,-465.67 0,-206.43 80.31,-419.78 189.13,-570.22 10.35,-14.3 16.88,-23.84 27.23,-37.7l87.19 -99.63c185.84,-185.84 436.86,-291.3 692.42,-303.54l0 0.02z"/>
    <path class="fil0" d="M6129.4 3611.53l0 584.76c0,18.86 4.98,37.75 12.06,48.89 32.21,50.94 85.29,5.21 116.16,-18.14l211.69 -153.76c24.3,-18.3 46.63,-33.2 70.86,-50.99 24.39,-17.91 45.5,-32.93 70.76,-51.07 59.88,-43.09 91.5,-71.3 14.5,-128.81 -120.31,-89.83 -249.56,-178.73 -368.91,-268.61 -33.24,-25.02 -80.98,-65.34 -115.85,-16.01 -8.19,11.5 -11.22,34.62 -11.22,53.71l-0.05 0.03z"/>
   </g>
  </g>
 </g>
</svg>
