<?xml version="1.0" encoding="UTF-8"?>
<!DOCTYPE svg PUBLIC "-//W3C//DTD SVG 1.1//EN" "http://www.w3.org/Graphics/SVG/1.1/DTD/svg11.dtd">
<!-- Creator: CorelDRAW 2020 (64-Bit) -->
<svg xmlns="http://www.w3.org/2000/svg" xml:space="preserve" width="8.26772in" height="8.26772in" version="1.1" style="shape-rendering:geometricPrecision; text-rendering:geometricPrecision; image-rendering:optimizeQuality; fill-rule:evenodd; clip-rule:evenodd"
viewBox="0 0 8267.72 8267.72"
 xmlns:xlink="http://www.w3.org/1999/xlink"
 xmlns:xodm="http://www.corel.com/coreldraw/odm/2003">
 <defs>
  <style type="text/css">
   <![CDATA[
    .fil0 {fill:#FEFEFE}
   ]]>
  </style>
 </defs>
 <g id="Layer_x0020_1">
  <metadata id="CorelCorpID_0Corel-Layer"/>
  <g id="_3030625480080">
   <g id="_1998679990112">
    <path class="fil0" d="M2687.08 4824.44l1305.61 0 0 -136.5c0,-35.15 28.78,-63.94 63.94,-63.94l14.63 0c35.15,0 63.94,28.78 63.94,63.94l0 174.99c0,14.09 -4.61,27.09 -12.41,37.72 0,5.21 -0.77,10.48 -2.43,15.82l-234.55 766c-14.81,48.39 -41.46,92.07 -92.07,92.07l-944.19 0c-50.61,0 -78.63,-43.24 -92.07,-92.07l-210.79 -766c-2.1,-7.67 -2.55,-15.14 -1.54,-22.39 -0.41,-2.87 -0.59,-5.83 -0.59,-8.85l0 -174.99c0,-35.16 28.78,-63.94 63.94,-63.94l14.63 0c35.16,0 63.94,28.78 63.94,63.94l0 114.19 0.02 0zm98.06 141.83l1096.24 3.65c39.89,0.09 67.22,44.24 56.23,77.98l-168.6 517.31c-10.99,33.79 -32.7,63.85 -72.56,63.85l-744.39 0c-39.81,0 -62.52,-29.87 -72.56,-63.85l-153.73 -518.81c-10.04,-34.02 19.48,-80.22 59.38,-80.13l-0.02 0.02z"/>
    <path class="fil0" d="M3147.35 5188.79l365.17 0c39.37,-0.02 71.3,31.89 71.3,71.25l-0.02 0.02c0.02,39.34 -31.91,71.25 -71.26,71.25l-365.19 0c-39.34,0 -71.26,-31.91 -71.26,-71.26l-0.02 0.02c0.02,-39.37 31.94,-71.28 71.3,-71.28z"/>
    <path class="fil0" d="M2866.72 4562.26l908.62 0c34.44,-0.04 62.36,31.87 62.36,71.23l-0.02 0.02c0.02,39.34 -27.91,71.24 -62.32,71.24l-908.64 0.02c-34.4,-0.02 -62.32,-31.93 -62.32,-71.28l-0.02 0.02c0.02,-39.38 27.94,-71.28 62.36,-71.28z"/>
    <path class="fil0" d="M3003.33 4332.13l665.06 0c35.28,-0.02 63.87,31.91 63.87,71.26l-0.02 0.02c0.02,39.34 -28.57,71.26 -63.83,71.26l-665.08 0.02c-35.24,-0.02 -63.83,-31.94 -63.83,-71.3l-0.02 0.02c0.02,-39.37 28.6,-71.3 63.87,-71.3z"/>
   </g>
  </g>
 </g>
</svg>
