<svg xmlns="http://www.w3.org/2000/svg" width="27.491" height="29.423" viewBox="0 0 27.491 29.423">
  <g id="setting_white" data-name="setting white" transform="translate(-16.806)">
    <path id="Path_2088" data-name="Path 2088" d="M161.747,167.493A5.747,5.747,0,1,0,156,161.747,5.753,5.753,0,0,0,161.747,167.493Zm0-9.195a3.448,3.448,0,1,1-3.448,3.448A3.452,3.452,0,0,1,161.747,158.3Z" transform="translate(-131.195 -147.035)" fill="#fff"/>
    <path id="Path_2089" data-name="Path 2089" d="M31.7,0H29.4a3.222,3.222,0,0,0-3.218,3.218V4.375a11.176,11.176,0,0,0-2.394,1.39l-1.009-.582a3.22,3.22,0,0,0-4.4,1.178L17.237,8.351a3.222,3.222,0,0,0,1.178,4.4l.975.563a9.781,9.781,0,0,0,0,2.8l-.975.563a3.222,3.222,0,0,0-1.178,4.4l1.149,1.991a3.22,3.22,0,0,0,4.4,1.178l1.009-.582a11.165,11.165,0,0,0,2.394,1.39V26.2A3.222,3.222,0,0,0,29.4,29.423h2.3A3.222,3.222,0,0,0,34.919,26.2V25.048a11.168,11.168,0,0,0,2.394-1.39l1.009.582a3.22,3.22,0,0,0,4.4-1.178l1.149-1.991a3.222,3.222,0,0,0-1.178-4.4l-.975-.563a9.779,9.779,0,0,0,0-2.8l.975-.563a3.222,3.222,0,0,0,1.178-4.4L42.717,6.36a3.22,3.22,0,0,0-4.4-1.178l-1.009.582a11.176,11.176,0,0,0-2.394-1.39V3.218A3.222,3.222,0,0,0,31.7,0Zm4.631,7.925.124.105a1.149,1.149,0,0,0,1.321.121l1.695-.978a.92.92,0,0,1,1.256.337L41.876,9.5a.921.921,0,0,1-.337,1.256l-1.664.961a1.149,1.149,0,0,0-.556,1.2l.03.16a8.949,8.949,0,0,1,.167,1.63,8.953,8.953,0,0,1-.167,1.63l-.03.16a1.149,1.149,0,0,0,.556,1.2l1.664.961a.921.921,0,0,1,.337,1.256l-1.149,1.991a.92.92,0,0,1-1.256.337l-1.695-.978a1.149,1.149,0,0,0-1.321.121l-.123.105a8.9,8.9,0,0,1-2.8,1.623l-.153.054a1.149,1.149,0,0,0-.763,1.083V26.2a.92.92,0,0,1-.919.919H29.4a.92.92,0,0,1-.919-.919V24.258a1.149,1.149,0,0,0-.763-1.083l-.153-.054a8.9,8.9,0,0,1-2.8-1.623l-.124-.105a1.149,1.149,0,0,0-1.321-.121l-1.695.978a.92.92,0,0,1-1.256-.337l-1.149-1.991a.921.921,0,0,1,.337-1.256l1.664-.961a1.149,1.149,0,0,0,.556-1.2l-.03-.16a8.938,8.938,0,0,1-.167-1.63,8.953,8.953,0,0,1,.167-1.63l.03-.16a1.149,1.149,0,0,0-.556-1.2l-1.664-.961A.921.921,0,0,1,19.227,9.5L20.377,7.51a.92.92,0,0,1,1.256-.337l1.695.978a1.149,1.149,0,0,0,1.321-.121l.123-.105a8.9,8.9,0,0,1,2.8-1.623l.153-.054a1.149,1.149,0,0,0,.763-1.083V3.218A.92.92,0,0,1,29.4,2.3h2.3a.921.921,0,0,1,.919.919V5.165a1.149,1.149,0,0,0,.763,1.083l.153.054a8.9,8.9,0,0,1,2.8,1.623Z" fill="#fff"/>
  </g>
</svg>
