<?xml version="1.0" encoding="UTF-8"?>
<!DOCTYPE svg PUBLIC "-//W3C//DTD SVG 1.1//EN" "http://www.w3.org/Graphics/SVG/1.1/DTD/svg11.dtd">
<!-- Creator: CorelDRAW 2020 (64-Bit) -->
<svg xmlns="http://www.w3.org/2000/svg" xml:space="preserve" width="8.26772in" height="8.26772in" version="1.1" style="shape-rendering:geometricPrecision; text-rendering:geometricPrecision; image-rendering:optimizeQuality; fill-rule:evenodd; clip-rule:evenodd"
viewBox="0 0 8267.72 8267.72"
 xmlns:xlink="http://www.w3.org/1999/xlink"
 xmlns:xodm="http://www.corel.com/coreldraw/odm/2003">
 <defs>
  <style type="text/css">
   <![CDATA[
    .fil0 {fill:#FEFEFE}
   ]]>
  </style>
 </defs>
 <g id="Layer_x0020_1">
  <metadata id="CorelCorpID_0Corel-Layer"/>
  <g id="_3042344283216">
   <path class="fil0" d="M3178.15 2478.46l1024.22 0c98.39,0 178.85,80.48 178.85,178.85l0 169.44 482.57 -222.98c36.67,-16.94 73.49,33.07 73.49,73.49l0 832.61c0,40.45 -37,90.87 -73.49,73.49l-482.57 -229.52 0 183.26c0,98.39 -80.48,178.85 -178.85,178.85l-1024.22 0c-98.39,0 -178.85,-80.47 -178.85,-178.85l0 -879.83c0,-98.39 80.48,-178.85 178.85,-178.85l0 0.04zm1203.05 531.11l0 184.56 344.34 182.79c24.14,12.8 56.81,-6.35 56.81,-33.73l0 -499.28c0,-27.33 -21.15,-47.04 -44.96,-33.73l-356.19 199.36 0 0.03zm-1177.39 -385.65l972.84 0c35.59,0 64.67,29.08 64.67,64.67l0 815.96c0,35.59 -29.07,64.67 -64.67,64.67l-972.84 0c-35.59,0 -64.66,-29.08 -64.66,-64.67l0 -815.96c0,-35.59 29.07,-64.67 64.66,-64.67z"/>
   <path class="fil0" d="M3701.01 2825.54c154.87,0 280.41,125.54 280.41,280.41 0,154.87 -125.54,280.41 -280.41,280.41 -154.87,0 -280.41,-125.54 -280.41,-280.41 0,-154.87 125.54,-280.41 280.41,-280.41zm0 128.96c83.67,0 151.45,67.78 151.45,151.45 0,83.67 -67.78,151.45 -151.45,151.45 -83.67,0 -151.45,-67.78 -151.45,-151.45 0,-83.67 67.78,-151.45 151.45,-151.45z"/>
  </g>
 </g>
</svg>
