<svg xmlns="http://www.w3.org/2000/svg" width="16" height="16" viewBox="0 0 16 16">
  <path id="add_to_project" data-name="add to project" d="M135,462h-5V451h1a2.006,2.006,0,0,0,2,2h4a2.006,2.006,0,0,0,2-2h1v4a1,1,0,0,0,2,0v-4a2.006,2.006,0,0,0-2-2h-1.27a2,2,0,0,0-1.73-1h-4a2,2,0,0,0-1.73,1H130a2.006,2.006,0,0,0-2,2v11a2.006,2.006,0,0,0,2,2h5a1,1,0,0,0,0-2Zm-2-12h4v1h-4Zm0,7h4a1,1,0,0,0,1-1h0a1,1,0,0,0-1-1h-4a1,1,0,0,0-1,1h0A1,1,0,0,0,133,457Zm0,3h2a1,1,0,0,0,1-1h0a1,1,0,0,0-1-1h-2a1,1,0,0,0-1,1h0A1,1,0,0,0,133,460Zm10,0h-1v-1a1,1,0,0,0-2,0v1h-1a1,1,0,0,0,0,2h1v1a1,1,0,0,0,2,0v-1h1a1,1,0,0,0,0-2Z" transform="translate(-128 -448)" fill="#fff" fill-rule="evenodd"/>
</svg>
