<svg xmlns="http://www.w3.org/2000/svg" width="16.41" height="16.41" viewBox="0 0 16.41 16.41">
  <path id="add_icon" data-name="add icon" d="M232.205,32a8.205,8.205,0,1,0,8.205,8.205A8.205,8.205,0,0,0,232.205,32Zm0,14.359a6.154,6.154,0,1,1,6.154-6.154A6.154,6.154,0,0,1,232.205,46.359Zm3.077-7.179h-2.051V37.128a1.026,1.026,0,0,0-2.051,0v2.051h-2.051a1.026,1.026,0,0,0,0,2.051h2.051v2.051a1.026,1.026,0,0,0,2.051,0V41.231h2.051a1.026,1.026,0,0,0,0-2.051Z" transform="translate(-224 -32)" fill="#fff" fill-rule="evenodd"/>
</svg>
