<svg xmlns="http://www.w3.org/2000/svg" width="49.588" height="37" viewBox="0 0 49.588 37">
  <path id="agency_client_icon" data-name="agency client icon" d="M19.29,35.1A11.5,11.5,0,1,0,7.738,23.6,11.547,11.547,0,0,0,19.29,35.1Zm0-18.691A7.139,7.139,0,1,1,12.1,23.543,7.175,7.175,0,0,1,19.29,16.4Zm5.231,19.726a2.309,2.309,0,0,0-1.8.218L19.29,38.42l-3.433-2.071a2.309,2.309,0,0,0-1.8-.218C10.735,37.221,0,41.09,0,46.92A2.186,2.186,0,0,0,2.18,49.1H36.4a2.186,2.186,0,0,0,2.18-2.18C38.58,41.09,27.845,37.221,24.521,36.131ZM6.1,44.741A32.874,32.874,0,0,1,14.44,40.6l3.705,2.234a2.071,2.071,0,0,0,2.234,0L24.085,40.6a31.166,31.166,0,0,1,8.337,4.141Zm43.485-1.635a1.606,1.606,0,0,1-1.635,1.635h-7.3a1.635,1.635,0,1,1,0-3.27H45.5a11.144,11.144,0,0,0-3.76-2.834,1.576,1.576,0,0,1-.654-2.18,1.625,1.625,0,0,1,2.234-.654C45.664,37.057,49.588,39.727,49.588,43.106ZM40.433,28.72a4.314,4.314,0,0,0-4.3-4.3,4.441,4.441,0,0,0-1.689.327,1.624,1.624,0,0,1-1.253-3,7.674,7.674,0,0,1,2.943-.6,7.574,7.574,0,1,1-5.667,12.588,1.622,1.622,0,1,1,2.452-2.125,4.378,4.378,0,0,0,3.27,1.471A4.425,4.425,0,0,0,40.433,28.72Z" transform="translate(0 -12.1)" fill="#f7fafc"/>
</svg>
