<svg xmlns="http://www.w3.org/2000/svg" width="28" height="17.818" viewBox="0 0 28 17.818">
  <path id="agency_icons" data-name="agency icons" d="M20.727,15.182A15.256,15.256,0,0,0,15,16.455a15.013,15.013,0,0,0-5.727-1.273C6.511,15.182,1,16.556,1,19.318v3.5H29v-3.5C29,16.556,23.489,15.182,20.727,15.182Zm-5.091,5.727H2.909V19.318c0-.687,3.258-2.227,6.364-2.227s6.364,1.54,6.364,2.227Zm11.455,0H17.545V19.318a2.316,2.316,0,0,0-.662-1.553,12.279,12.279,0,0,1,3.844-.675c3.105,0,6.364,1.54,6.364,2.227Zm-17.818-7A4.455,4.455,0,1,0,4.818,9.455,4.459,4.459,0,0,0,9.273,13.909Zm0-7A2.545,2.545,0,1,1,6.727,9.455,2.553,2.553,0,0,1,9.273,6.909Zm11.455,7a4.455,4.455,0,1,0-4.455-4.455A4.459,4.459,0,0,0,20.727,13.909Zm0-7a2.545,2.545,0,1,1-2.545,2.545A2.553,2.553,0,0,1,20.727,6.909Z" transform="translate(-1 -5)" fill="#e15fff"/>
</svg>
