<svg xmlns="http://www.w3.org/2000/svg" xmlns:xlink="http://www.w3.org/1999/xlink" width="193.043" height="233.141" viewBox="0 0 193.043 233.141">
  <defs>
    <linearGradient id="linear-gradient" x1="1" y1="0.5" x2="0" y2="0.5" gradientUnits="objectBoundingBox">
      <stop offset="0" stop-color="#ff9085"/>
      <stop offset="1" stop-color="#fb6fbb"/>
    </linearGradient>
    <linearGradient id="linear-gradient-2" x1="1.025" y1="0.5" x2="-0.022" y2="0.5" gradientUnits="objectBoundingBox">
      <stop offset="0" stop-color="#ffb4ab"/>
      <stop offset="1" stop-color="#fc99d2"/>
    </linearGradient>
    <linearGradient id="linear-gradient-3" x1="0.495" y1="0.391" x2="0.58" y2="5.873" gradientUnits="objectBoundingBox">
      <stop offset="0" stop-color="#40447e"/>
      <stop offset="1" stop-color="#3c3b6b"/>
    </linearGradient>
    <linearGradient id="linear-gradient-4" x1="0.488" y1="0.737" x2="-0.365" y2="4.893" gradientUnits="objectBoundingBox">
      <stop offset="0" stop-color="#aa80f9"/>
      <stop offset="1" stop-color="#6165d7"/>
    </linearGradient>
    <linearGradient id="linear-gradient-5" x1="0.027" y1="0.46" x2="1" y2="0.516" gradientUnits="objectBoundingBox">
      <stop offset="0" stop-color="#444b8c"/>
      <stop offset="1" stop-color="#26264f"/>
    </linearGradient>
    <linearGradient id="linear-gradient-6" y1="0.468" x2="1" y2="0.468" gradientUnits="objectBoundingBox">
      <stop offset="0" stop-color="#ffc444"/>
      <stop offset="1" stop-color="#f36f56"/>
    </linearGradient>
    <linearGradient id="linear-gradient-7" x1="0.053" y1="0.183" x2="0.962" y2="0.797" xlink:href="#linear-gradient-5"/>
    <linearGradient id="linear-gradient-8" x1="0" y1="0.469" x2="1" y2="0.469" xlink:href="#linear-gradient-6"/>
    <linearGradient id="linear-gradient-9" x1="-0.121" y1="0.782" x2="0.854" y2="-0.099" xlink:href="#linear-gradient-3"/>
    <linearGradient id="linear-gradient-10" x1="-0.803" y1="0.814" x2="0.778" y2="0.001" xlink:href="#linear-gradient-3"/>
    <linearGradient id="linear-gradient-11" x1="0.586" y1="0.386" x2="0.019" y2="2.163" xlink:href="#linear-gradient-4"/>
    <clipPath id="clip-path">
      <path id="Path_6050" data-name="Path 6050" d="M31722.895,65973.492Zm-.074,0c-.137,0-.281,0-.426-.008C31722.539,65973.492,31722.684,65973.492,31722.82,65973.492Zm-.437-.008a.134.134,0,0,0-.074-.016A.134.134,0,0,1,31722.383,65973.484Zm-.086-.016a1.129,1.129,0,0,0-.227-.031A1.129,1.129,0,0,1,31722.3,65973.469Zm2.816-.789h0Zm-7.57-44.039c.059-1.172.109-2.445.145-3.891.008-.1.008-.172.008-.25,0,.078,0,.172-.008.25-.035,1.445-.086,2.719-.145,3.891Z" transform="translate(-31717.543 -65924.5)" clip-rule="evenodd"/>
    </clipPath>
    <clipPath id="clip-path-2">
      <path id="Path_6051" data-name="Path 6051" d="M34537.852,65908.047v0Zm0-.023Z" transform="translate(-34537.852 -65908.023)" clip-rule="evenodd"/>
    </clipPath>
    <clipPath id="clip-path-3">
      <path id="Path_6052" data-name="Path 6052" d="M33673.555,62775.02v24.945a78.384,78.384,0,0,0-9.852-2.57v-16.031a25.032,25.032,0,0,0,1.789-10.875,20.017,20.017,0,0,0-1.789-7.3v-14.555a26.316,26.316,0,0,1,7.516-5.531c.094,3.273.086,6.07.031,8.328h0v.047h0v.016c-.008.078-.008.156-.008.258-.039,1.422-.086,2.711-.141,3.875-.141,3.078-.328,5.367-.328,7.461v.031a26.417,26.417,0,0,0,.813,6.672A22.216,22.216,0,0,0,33673.555,62775.02Z" transform="translate(-33663.703 -62743.098)" clip-rule="evenodd"/>
    </clipPath>
    <clipPath id="clip-path-4">
      <path id="Path_6053" data-name="Path 6053" d="M37357.785,64788.1v15c-1.516-3.516-3.43-5.727-2.879-9.359A10.7,10.7,0,0,1,37357.785,64788.1Z" transform="translate(-37354.809 -64788.098)" clip-rule="evenodd"/>
    </clipPath>
    <clipPath id="clip-path-5">
      <path id="Path_6054" data-name="Path 6054" d="M32430.688,74773v18.023c-.113,0-.234.023-.359.023h-.082a2.386,2.386,0,0,0-.414-.023h-.016a.1.1,0,0,0-.074-.023h-.012a.734.734,0,0,0-.23-.023,16.967,16.967,0,0,1-2.2-.5v-25.164A47.78,47.78,0,0,1,32430.688,74773Z" transform="translate(-32427.297 -74765.313)" clip-rule="evenodd"/>
    </clipPath>
    <clipPath id="clip-path-6">
      <path id="Path_6055" data-name="Path 6055" d="M37358.188,77157.375v16.359a2.009,2.009,0,0,1-.3-.062h-.078c-.023,0-.047-.016-.07-.016,0-.016-.016-.016-.023-.016h-.117a.242.242,0,0,0-.055-.016.2.2,0,0,0-.094-.016.105.105,0,0,1-.07-.016h0c-.883-.125-1.742-.25-2.578-.328v-11.125A11.592,11.592,0,0,0,37358.188,77157.375Z" transform="translate(-37354.805 -77157.375)" clip-rule="evenodd"/>
    </clipPath>
    <clipPath id="clip-path-7">
      <path id="Path_6056" data-name="Path 6056" d="M31214.516,77549.82v-18.445c.086.273.184.555.281.828,1.445,4.383,3.047,9.219,3.047,12.75a5.376,5.376,0,0,1-1.32,4.016h0l0,.023h-.012A3.084,3.084,0,0,1,31214.516,77549.82Z" transform="translate(-31214.516 -77531.375)" clip-rule="evenodd"/>
    </clipPath>
    <clipPath id="clip-path-8">
      <path id="Path_6057" data-name="Path 6057" d="M38611.254,78926.281v11.227a53.825,53.825,0,0,0-5.6-.289,68.789,68.789,0,0,0-9.363.688h-4.7v-7.328a13.034,13.034,0,0,1,7.621-3.586c.293-.016.563-.023.832-.023a16.5,16.5,0,0,1,3.594.469,14.417,14.417,0,0,0,3.246.484,6.423,6.423,0,0,0,2.977-.727A8.751,8.751,0,0,0,38611.254,78926.281Z" transform="translate(-38591.59 -78926.281)" clip-rule="evenodd"/>
    </clipPath>
    <clipPath id="clip-path-9">
      <path id="Path_6058" data-name="Path 6058" d="M46011.375,80516.594v8.094a32.007,32.007,0,0,1-3.375.367v-4.859A25.976,25.976,0,0,1,46011.375,80516.594Z" transform="translate(-46008 -80516.594)" clip-rule="evenodd"/>
    </clipPath>
    <clipPath id="clip-path-10">
      <path id="Path_6059" data-name="Path 6059" d="M47247.3,81818.313v5.047c-.352.016-.7.031-1.023.031a7.215,7.215,0,0,1-2.281-.3A44.124,44.124,0,0,1,47247.3,81818.313Z" transform="translate(-47244 -81818.313)" clip-rule="evenodd"/>
    </clipPath>
    <clipPath id="clip-path-11">
      <path id="Path_6060" data-name="Path 6060" d="M43886.43,83296.031v-.8h5.719c-.793.078-1.566.188-2.3.313C43888.621,83295.719,43887.48,83295.891,43886.43,83296.031Z" transform="translate(-43886.43 -83295.234)" clip-rule="evenodd"/>
    </clipPath>
    <linearGradient id="linear-gradient-12" x1="0.578" y1="0.306" x2="0.039" y2="2.339" xlink:href="#linear-gradient-4"/>
    <linearGradient id="linear-gradient-13" x1="-1.311" y1="4.575" x2="-0.88" y2="0.914" gradientUnits="objectBoundingBox">
      <stop offset="0" stop-color="#311944"/>
      <stop offset="1" stop-color="#893976"/>
    </linearGradient>
    <linearGradient id="linear-gradient-14" x1="0.553" y1="-0.346" x2="0.425" y2="1.232" xlink:href="#linear-gradient-13"/>
    <linearGradient id="linear-gradient-15" x1="-0.443" y1="0.52" x2="0.971" y2="0.52" xlink:href="#linear-gradient-6"/>
    <linearGradient id="linear-gradient-16" x1="0.418" y1="0.693" x2="0.606" y2="0.25" xlink:href="#linear-gradient-5"/>
    <clipPath id="clip-path-12">
      <path id="Path_6067" data-name="Path 6067" d="M48865.469,74084.492h0l-27.672-1.3a1.451,1.451,0,0,1-1.383-1.242l-.6-3.461h0l.6,3.461a1.451,1.451,0,0,0,1.383,1.242l27.672,1.3Z" transform="translate(-48835.813 -74078.484)" clip-rule="evenodd"/>
    </clipPath>
    <clipPath id="clip-path-13">
      <path id="Path_6069" data-name="Path 6069" d="M43222.8,76363h-.023l-14.789-.711h0l14.789.711Z" transform="translate(-43207.992 -76362.289)" clip-rule="evenodd"/>
    </clipPath>
    <clipPath id="clip-path-14">
      <path id="Path_6070" data-name="Path 6070" d="M42679.438,65624.8a1.465,1.465,0,0,0,1.453-1.633l-2.859-26.023a1.457,1.457,0,0,0-1.414-1.3l-3.18-.094c1.117,3,.813,4.844.172,6.039-2.062,3.813-7.953,1.68-13.734,6.6-4.375,3.727-3.062,6.742-6.766,8.313a6.923,6.923,0,0,1-2.672.531,17.363,17.363,0,0,1-3.727-.578,18.369,18.369,0,0,0-4.359-.594,14.789,14.789,0,0,0-2.8.289,16.509,16.509,0,0,0-4.633,1.742h0l.6,3.484a1.456,1.456,0,0,0,1.375,1.2l27.672,1.336,14.789.688h.078Z" transform="translate(-42634.922 -65595.742)" clip-rule="evenodd"/>
    </clipPath>
    <linearGradient id="linear-gradient-17" x1="0.007" y1="0.504" x2="0.873" y2="0.504" xlink:href="#linear-gradient-6"/>
    <linearGradient id="linear-gradient-18" x1="0.536" y1="0.002" x2="0.441" y2="1.875" xlink:href="#linear-gradient-6"/>
    <linearGradient id="linear-gradient-19" x1="1.015" y1="1.616" x2="0.388" y2="0.101" gradientUnits="objectBoundingBox">
      <stop offset="0" stop-color="#311944"/>
      <stop offset="1" stop-color="#6b3976"/>
    </linearGradient>
    <linearGradient id="linear-gradient-20" x1="0.071" y1="0.497" x2="0.972" y2="0.497" xlink:href="#linear-gradient-6"/>
    <linearGradient id="linear-gradient-21" x1="0.969" y1="1.7" x2="0.214" y2="-0.374" xlink:href="#linear-gradient-19"/>
    <linearGradient id="linear-gradient-22" x1="0.025" y1="0.429" x2="0.989" y2="0.429" xlink:href="#linear-gradient-6"/>
    <linearGradient id="linear-gradient-23" x1="-0.95" y1="-0.434" x2="0.872" y2="0.699" gradientUnits="objectBoundingBox">
      <stop offset="0" stop-color="#d5c0fc"/>
      <stop offset="1" stop-color="#b0b2eb"/>
    </linearGradient>
    <linearGradient id="linear-gradient-24" x1="1" y1="0.499" x2="0" y2="0.499" xlink:href="#linear-gradient-4"/>
  </defs>
  <g id="agency_resseller_illustration" data-name="agency resseller illustration" transform="translate(0.002)">
    <path id="Path_6003" data-name="Path 6003" d="M24733.533,22170.068c6.152-.006,11.016-4.424,11.016-10.264v-194.318c0-6.027-5.172-10.77-11.594-10.77-.133,0-.266,0-.4.008l-36.652,1.131-99.73,3.072a10.666,10.666,0,0,0-10.312,10.58v132.68l3.285.373v-134.207a6.151,6.151,0,0,1,5.949-6.1l138.7-4.029a2.2,2.2,0,0,1,.223-.008,6.435,6.435,0,0,1,6.7,6.213v196.266a6.061,6.061,0,0,1-6.355,5.916c-.187,0-.371-.006-.562-.021l-24.73-1.82c-.133,1.092-.309,2.23-.551,3.447l21.176,1.6,2.867.219C24732.885,22170.055,24733.205,22170.068,24733.533,22170.068Zm-35.109-2.617c-.027-1.158-.059-2.316-.086-3.475l-11.937-.883c-.129.572-.281,1.17-.473,1.8-.152.539-.32,1.061-.5,1.578Zm-24.262-1.828c.234-1.115.477-2.242.707-3.379l-35.68-2.631a19.859,19.859,0,0,1-1.949,3.225l3.641.273c1.074-2.252,1.371-2.576,1.8-2.7a1.412,1.412,0,0,1,.418-.057,4.022,4.022,0,0,1,3.145,2.428,4.1,4.1,0,0,1,.246.754Z" transform="translate(-24551.51 -21954.717)" fill-rule="evenodd" fill="url(#linear-gradient)"/>
    <path id="Path_6004" data-name="Path 6004" d="M26191.73,23491.822a6.06,6.06,0,0,0,6.355-5.918v-196.27a6.423,6.423,0,0,0-6.687-6.2h-.223l-138.7,4.035a6.144,6.144,0,0,0-5.957,6.094v134.215l33.074,3.77v-2.8l57.934,3.273c.2-2.934.316-5.883.551-8.816l-27.672-1.312a1.472,1.472,0,0,1-1.375-1.223l-.6-3.48-28.836-1.387v-7.039l27.6,1.2-.93-5.41-26.668-1.062v-7.035l25.43.9-.332-1.93a1.385,1.385,0,0,1,.031-.648c-.152-.9,1.445-1.832,2.383-1.832h.035l31.977.9c-.008-.258-.016-.512-.027-.762l-59.5-1.91v-7.035l59.41,1.633c.145-4.879.992-7.988,4.012-10.016,1.992-1.34,4.492-1.758,8.25-1.758,2.332,0,5.148.16,8.637.363a70.186,70.186,0,0,1,15.152,2.527c.336,3.625.523,6.945.625,9.9l6.547.176v7.5l-6.477-.211c0,.5-.016.969-.027,1.422h0v.047c0,.086,0,.164,0,.25-.031,1.441-.082,2.727-.141,3.891l6.648.238v7.5l-6.98-.277v.031a25.732,25.732,0,0,0,.574,5.6l6.406.281v7.508l-3.516-.172a42.4,42.4,0,0,1,2.727,6.551c1.438,4.363,3.043,9.191,3.043,12.738a5.416,5.416,0,0,1-1.316,4.023s-.008.008-.012.008,0,0,0,0a3.05,3.05,0,0,1-2.223.828h-.082c-.133-.008-.27-.008-.414-.023-.008,0-.012-.008-.016-.008a.55.55,0,0,1-.078,0h0c-.074-.008-.156-.012-.23-.023a41.777,41.777,0,0,1-5.395-1.469c-.754,4.57-1.93,10.02-3.34,16.578-2.055,9.535-3.211,11.18-4.012,18.738-.48,4.57-.465,7.828-.91,11.469l24.73,1.828C26191.363,23491.814,26191.547,23491.822,26191.73,23491.822Zm-8.566-47.945Zm-2.238.84Zm-25.2,44.465q-.246-9.949-.578-20.039-.322-9.9-.734-19.664c-.633,1.883-1.266,3.6-1.879,5.145-3.012,7.668-5.926,12.656-7.363,22.164-.785,5.188-.531,7.75-1.387,11.52Zm-23.473-1.723c1.539-7.578,2.922-15.621,4.063-24.109.984-7.34,1.7-14.41,2.207-21.176a3.029,3.029,0,0,1-1.25-1.043c-.254-.367-.332-.648-.281-1.84l-48.547-2.973v47.43c.652-.293.977-1.98,1.141-2.828.57-2.98-.336-3.98.406-5.3a4.345,4.345,0,0,1,3.633-1.941,3.23,3.23,0,0,1,1.086.176c2.371.832,3.074,4.715,2.859,7.336a10.738,10.738,0,0,1-.992,3.641Z" transform="translate(-26008.895 -23279.934)" fill-rule="evenodd" fill="url(#linear-gradient-2)"/>
    <path id="Path_6005" data-name="Path 6005" d="M24596.152,21958.941l136.383-4.2c6.605-.207,12,4.613,12,10.762v7.98l-158.7,3.4v-7.363A10.683,10.683,0,0,1,24596.152,21958.941Z" transform="translate(-24551.49 -21954.736)" fill-rule="evenodd" fill="url(#linear-gradient-3)"/>
    <path id="Path_6006" data-name="Path 6006" d="M29727.342,24436.887a3.635,3.635,0,0,0,3.875,3.508,3.87,3.87,0,0,0,3.887-3.711,3.638,3.638,0,0,0-3.887-3.508A3.867,3.867,0,0,0,29727.342,24436.887Z" transform="translate(-29555.604 -24426.645)" fill="#fff"/>
    <path id="Path_6007" data-name="Path 6007" d="M34891.086,24578.664a3.6,3.6,0,0,0,3.824,3.488,3.834,3.834,0,0,0,3.84-3.687,3.6,3.6,0,0,0-3.84-3.484A3.833,3.833,0,0,0,34891.086,24578.664Z" transform="translate(-34732.848 -24568.08)" fill="#fff"/>
    <path id="Path_6008" data-name="Path 6008" d="M39985.914,24719.648a3.56,3.56,0,0,0,3.773,3.465,3.793,3.793,0,0,0,3.785-3.66,3.558,3.558,0,0,0-3.785-3.461A3.785,3.785,0,0,0,39985.914,24719.648Z" transform="translate(-39840.988 -24708.717)" fill="#fff"/>
    <path id="Path_6009" data-name="Path 6009" d="M32070.734,41952.758l56.129-.094a1.61,1.61,0,0,0,1.66-1.523v-3.57a1.577,1.577,0,0,0-1.66-1.508l-56.129.313a1.509,1.509,0,0,0-1.543,1.469v3.445A1.509,1.509,0,0,0,32070.734,41952.758Z" transform="translate(-31955.188 -41893.422)" fill="#fff"/>
    <path id="Path_6010" data-name="Path 6010" d="M33534.445,44980.7a1.306,1.306,0,0,0,1.328,1.258l1.266.016a1.288,1.288,0,0,0,1.336-1.242v-13.477a1.3,1.3,0,0,0-1.336-1.25h-1.266a1.3,1.3,0,0,0-1.328,1.25Zm7.094.063a1.319,1.319,0,0,0,1.344,1.266l1.277.016a1.279,1.279,0,0,0,1.344-1.234v-13.539a1.309,1.309,0,0,0-1.344-1.266h-1.277a1.306,1.306,0,0,0-1.344,1.25Zm7.168.078a1.327,1.327,0,0,0,1.355,1.266l1.289.016a1.3,1.3,0,0,0,1.352-1.25v-13.594a1.325,1.325,0,0,0-1.352-1.273h-1.289a1.318,1.318,0,0,0-1.355,1.273Zm7.23.063a1.336,1.336,0,0,0,1.359,1.281l1.3.008a1.3,1.3,0,0,0,1.367-1.25v-13.656a1.333,1.333,0,0,0-1.367-1.281h-1.3a1.324,1.324,0,0,0-1.359,1.273Zm7.289.063a1.36,1.36,0,0,0,1.375,1.3l1.309.016a1.327,1.327,0,0,0,1.383-1.266v-13.727a1.327,1.327,0,0,0-1.383-1.266l-1.309-.008a1.331,1.331,0,0,0-1.375,1.273Zm13.855-16.656-4.824,17.7a2.683,2.683,0,0,1-2.656,1.883l-37.367-.422a2.616,2.616,0,0,1-2.523-1.883l-4.547-17.234Z" transform="translate(-33407.586 -44903.711)" fill="#fff"/>
    <path id="Path_6011" data-name="Path 6011" d="M34630.125,40023a2.195,2.195,0,0,0,2.9-.2,1.774,1.774,0,0,0-.2-2.656,2.183,2.183,0,0,0-2.891.2A1.788,1.788,0,0,0,34630.125,40023Z" transform="translate(-34466.93 -39972.113)" fill="#fff"/>
    <path id="Path_6012" data-name="Path 6012" d="M35350.766,34814.336a.984.984,0,0,1,1.3.074l17.754,14.113c.449.348.586.883.3,1.191a1.019,1.019,0,0,1-1.328-.09l-17.754-14.105A.85.85,0,0,1,35350.766,34814.336Z" transform="translate(-35205.57 -34780.262)" fill="#fff"/>
    <path id="Path_6013" data-name="Path 6013" d="M50729.16,40163.355a2.011,2.011,0,0,1-2.742-.164,1.766,1.766,0,0,1,.2-2.59,2.016,2.016,0,0,1,2.742.16A1.764,1.764,0,0,1,50729.16,40163.355Z" transform="translate(-50605.629 -40112.203)" fill="#fff"/>
    <path id="Path_6014" data-name="Path 6014" d="M44284.57,34848.3a.992.992,0,0,0-1.289.133l-17.258,14.336c-.422.359-.539.875-.266,1.164a.933.933,0,0,0,1.258-.1l17.273-14.336C44284.719,34849.137,44284.852,34848.605,44284.57,34848.3Z" transform="translate(-44143.5 -34814.172)" fill="#fff"/>
    <path id="Path_6015" data-name="Path 6015" d="M56855.4,35070.051l57.883-.734v-7.215l-57.883,1.008Z" transform="translate(-56805.207 -35027.594)" fill="#fff"/>
    <path id="Path_6016" data-name="Path 6016" d="M56855.4,39859.578l57.883-.262v-7.215l-57.883.539Z" transform="translate(-56805.207 -39804.973)" fill="#fff"/>
    <path id="Path_6017" data-name="Path 6017" d="M56855.4,44649.617l57.883.188v-7.2l-57.883.07Z" transform="translate(-56805.207 -44582.855)" fill="#fff"/>
    <path id="Path_6018" data-name="Path 6018" d="M56855.4,49293.141l57.883.648v-7.219l-57.883-.375Z" transform="translate(-56805.207 -49214.227)" fill="#fff"/>
    <path id="Path_6019" data-name="Path 6019" d="M32069.1,56857.926l102.629,2.469v-7.5l-102.629-2.008Z" transform="translate(-31998.395 -56758.992)" fill="#fff"/>
    <path id="Path_6020" data-name="Path 6020" d="M32069.2,61534.641l102.637,3.289v-7.508l-102.637-2.82Z" transform="translate(-31998.5 -61423.395)" fill="#fff"/>
    <path id="Path_6021" data-name="Path 6021" d="M32069.2,66211.414l102.637,4.117v-7.5l-102.637-3.648Z" transform="translate(-31998.5 -66087.875)" fill="#fff"/>
    <path id="Path_6023" data-name="Path 6023" d="M73710.094,56705.836l13.531.328v-7.008l-13.531-.258Z" transform="translate(-73659.945 -56607.41)" fill="#fff"/>
    <path id="Path_6024" data-name="Path 6024" d="M73710.094,61320.039l13.531.438v-7.008l-13.531-.367Z" transform="translate(-73659.945 -61209.461)" fill="#fff"/>
    <path id="Path_6025" data-name="Path 6025" d="M73710.094,65934.438l13.531.547v-7l-13.531-.484Z" transform="translate(-73659.945 -65811.719)" fill="#fff"/>
    <path id="Path_6026" data-name="Path 6026" d="M73710.094,70548.734l13.531.641v-6.984l-13.531-.594Z" transform="translate(-73659.945 -70413.859)" fill="#fff"/>
    <path id="Path_6027" data-name="Path 6027" d="M32069.2,78477.516l102.637,6.289v-7.5l-102.637-5.8Z" transform="translate(-31998.5 -78321.688)" fill="#fff"/>
    <path id="Path_6028" data-name="Path 6028" d="M32069.1,83154.344l102.629,7.078v-7.5l-102.629-6.625Z" transform="translate(-31998.395 -82986.164)" fill="#fff"/>
    <path id="Path_6029" data-name="Path 6029" d="M32069.1,87831.148l102.629,7.875v-7.484l-102.629-7.445Z" transform="translate(-31998.395 -87650.656)" fill="#fff"/>
    <path id="Path_6030" data-name="Path 6030" d="M32069.1,92507.547l102.629,8.719v-7.5l-102.629-8.266Z" transform="translate(-31998.395 -92314.734)" fill="#fff"/>
    <path id="Path_6031" data-name="Path 6031" d="M73710.094,78037.125l13.531.828v-7l-13.531-.766Z" transform="translate(-73659.945 -77882.531)" fill="#fff"/>
    <path id="Path_6037" data-name="Path 6037" d="M93143.781,63070.328l12.516-1.734h0Z" transform="translate(-93143.781 -62960.332)" fill="#f9fbfc"/>
    <path id="Path_6042" data-name="Path 6042" d="M42271.629,57901.141c-2.637-2.8,4.668-13.383,8.566-18.023,3.418-4.055,6.926-8.211,11.234-7.687,3.777.461,7.465,4.453,7.688,8.281C42299.715,57894,42275.375,57905.148,42271.629,57901.141Z" transform="translate(-42152.66 -57780.801)" fill-rule="evenodd" fill="url(#linear-gradient-4)"/>
    <path id="Path_6043" data-name="Path 6043" d="M40440.789,108887.953c.492.391.586,1.391.648,2.063a1.535,1.535,0,0,1,0,.547c-.238.75-1.707.828-4.02,1.078-3.641.359-4.723.641-5.012.109-.262-.5.387-1.328.461-1.422a3.224,3.224,0,0,1,1.8-.984c1.707-.578,2.879-.891,3.223-.984C40440.1,108887.781,40440.461,108887.672,40440.789,108887.953Z" transform="translate(-40290.152 -108658.906)" fill-rule="evenodd" fill="url(#linear-gradient-5)"/>
    <path id="Path_6044" data-name="Path 6044" d="M40414.211,107676l-.367,4.125a2.206,2.206,0,0,0,2.32.3l.938-4.078Z" transform="translate(-40265.742 -107450.281)" fill-rule="evenodd" fill="url(#linear-gradient-6)"/>
    <path id="Path_6045" data-name="Path 6045" d="M51468.766,108505.68a2.064,2.064,0,0,1,.211,2.484c-.508.578-1.266.156-3.437.2-2.328.094-2.937.641-4.516.2-.633-.172-1.758-.609-1.742-1.078.016-.312.586-.469,2.5-1.125a24.993,24.993,0,0,1,3.281-1.047C51466.523,108505.07,51467.977,108504.836,51468.766,108505.68Z" transform="translate(-51347.027 -108277.18)" fill-rule="evenodd" fill="url(#linear-gradient-7)"/>
    <path id="Path_6046" data-name="Path 6046" d="M51144.414,107297.984l-1.172,3.891a2.237,2.237,0,0,0,2.289.469l1.734-3.8Z" transform="translate(-51024.16 -107073.266)" fill-rule="evenodd" fill="url(#linear-gradient-8)"/>
    <path id="Path_6047" data-name="Path 6047" d="M42636.488,83240.469a38.174,38.174,0,0,0,10.324-15.281c.172-.516.348-1.031.5-1.578.188-.641.336-1.25.477-1.812.848-3.766.59-6.328,1.379-11.516,1.441-9.5,4.348-14.484,7.363-22.156.613-1.547,1.246-3.266,1.883-5.141-.117-2.781-.242-5.578-.363-8.344-1.887.172-3.637.391-5.242.625a62.617,62.617,0,0,1-7.586.891,6.293,6.293,0,0,1-2.7-.484c-.508,6.766-1.223,13.844-2.211,21.188-1.133,8.484-2.516,16.531-4.059,24.094-.23,1.141-.469,2.266-.707,3.391-1.109,5.219-2.293,10.2-3.52,14.953Z" transform="translate(-42512.898 -83013.445)" fill-rule="evenodd" fill="url(#linear-gradient-9)"/>
    <path id="Path_6048" data-name="Path 6048" d="M34932.723,83146.57a52.286,52.286,0,0,0,4.754-12.266c.2-.773.352-1.5.5-2.187.246-1.219.418-2.359.551-3.453.445-3.648.43-6.906.91-11.453.8-7.586,1.961-9.227,4.008-18.75,1.41-6.562,2.594-12,3.344-16.586a60.873,60.873,0,0,0-6.7-1.609h-.141a.047.047,0,0,0-.031-.008c-.012,0-.027-.023-.039-.023h-.074c-.012,0-.039-.008-.059-.008a.169.169,0,0,0-.09-.016c-.023,0-.051-.008-.082-.008h0a50.762,50.762,0,0,0-8.031-.625c-1.906,0-3.711.086-5.41.242.129,2.773.242,5.555.355,8.352q.416,9.785.734,19.656.334,10.1.578,20.047c.031,1.156.059,2.313.086,3.477.109,4.906.207,9.8.289,14.641C34929.684,83146.188,34931.211,83146.375,34932.723,83146.57Z" transform="translate(-34780.969 -82918.633)" fill-rule="evenodd" fill="url(#linear-gradient-10)"/>
    <path id="Path_6049" data-name="Path 6049" d="M31748.91,57748.773Zm0,0a3.1,3.1,0,0,0,2.227-.82A3.1,3.1,0,0,1,31748.91,57748.773Zm-.492-.023h0Zm-.086-.008h0Zm-12.336-3.094a55.142,55.142,0,0,1,6.7,1.6C31744.941,57747.914,31741.816,57746.633,31736,57745.648Zm15.145,2.289c0-.008.008-.008.012-.008S31751.141,57747.93,31751.141,57747.938Zm-41.922-1.227a61.025,61.025,0,0,0,7.582-.891c1.605-.234,3.359-.461,5.238-.625,1.7-.156,3.5-.266,5.41-.266a49.084,49.084,0,0,1,8.031.648,49.175,49.175,0,0,0-8.039-.648,73.474,73.474,0,0,0-10.641.891,60.607,60.607,0,0,1-7.574.883,7.146,7.146,0,0,1-2.277-.3c.367-.594.875,1.078,1.242.852,1.137-.7,1.691-.508,3.16-.539,3.148-.1,7-1.219,7.719-1.062,1.113.234,12.129,2.141,13.172,1.6,1.129-.57,13.723,2.867,18.91.7,2.035-.852.277-7.219,0-8.062-1.508-4.633-13.184-20.75-13.2-21.125-.492-8.555,15.039,30.109,15.883,24.57.453-2.992-17.828-47.891-10.156-51.945.1,3.266.086,6.078.035,8.336.008-.445.023-.922.031-1.414.02-2.133.016-4.633-.082-7.477-.09-2.945-.285-6.273-.625-9.9a70.6,70.6,0,0,0-15.148-2.531c-3.488-.2-6.309-.359-8.637-.359-3.758,0-6.258.43-8.25,1.758-3.012,2.031-3.867,5.141-4.012,10.016-.062,2.109.012,4.516.09,7.313.008.25.016.508.02.758l11.969.336a1.488,1.488,0,0,1,1.418,1.313l2.086,18.984a26.91,26.91,0,0,1,4.594-2.562.761.761,0,0,1,.188-.016c1.105,0,2.4,2.586,2.168,2.648a10.481,10.481,0,0,0-2.965,1.445l7.781-.117a1.077,1.077,0,0,1,.309-.047,1.129,1.129,0,0,1,1.121,1.125h0a1.808,1.808,0,0,1-1.187,1.7l-12.9,5.063a1.516,1.516,0,0,1-.75.2h-.043c-.016,0-.016-.016-.027-.016l-14.793-.7c-.238,2.938-.352,5.891-.551,8.828-.031.43-.059.836-.086,1.266-.246,3.172-.406,4.938-.453,5.992-.051,1.211.027,1.484.281,1.852a2.912,2.912,0,0,0,1.25,1.039A6.354,6.354,0,0,0,31709.219,57746.711Zm26.777-1.062a.141.141,0,0,1-.078-.016A.141.141,0,0,0,31736,57745.648Zm-.086-.016h0Zm-.086-.008c-.016,0-.027-.016-.039-.016C31735.8,57745.609,31735.809,57745.625,31735.824,57745.625Zm-.086-.016c-.012,0-.016-.008-.027-.008C31735.723,57745.6,31735.727,57745.609,31735.738,57745.609Zm-.086-.023a.35.35,0,0,1-.09-.008A.35.35,0,0,0,31735.652,57745.586Zm8.063-45.812v0Zm0-.023v0Z" transform="translate(-31576.883 -57583.977)" fill-rule="evenodd" fill="url(#linear-gradient-11)"/>
    <g id="Group_917" data-name="Group 917" transform="translate(166.686 115.783)" clip-path="url(#clip-path)">
      <rect id="Rectangle_252" data-name="Rectangle 252" width="7.687" height="49.152" transform="translate(-0.06 -0.056)" fill="none"/>
    </g>
    <g id="Group_918" data-name="Group 918" transform="translate(166.835 115.739)" clip-path="url(#clip-path-2)">
      <rect id="Rectangle_253" data-name="Rectangle 253" width="0.168" height="0.146" transform="translate(-0.077 -0.059)" fill="none"/>
    </g>
    <g id="Group_919" data-name="Group 919" transform="translate(159.279 107.405)" clip-path="url(#clip-path-3)">
      <rect id="Rectangle_254" data-name="Rectangle 254" width="9.872" height="57.539" transform="translate(-0.006 -0.065)" fill="none"/>
    </g>
    <g id="Group_920" data-name="Group 920" transform="translate(156.441 112.79)" clip-path="url(#clip-path-4)">
      <rect id="Rectangle_255" data-name="Rectangle 255" width="3.411" height="19.292" transform="translate(-0.433 -2.302)" fill="none"/>
    </g>
    <g id="Group_921" data-name="Group 921" transform="translate(169.003 139.063)" clip-path="url(#clip-path-5)">
      <rect id="Rectangle_256" data-name="Rectangle 256" width="3.411" height="28.877" transform="translate(-0.004 -3.061)" fill="none"/>
    </g>
    <g id="Group_922" data-name="Group 922" transform="translate(156.034 145.361)" clip-path="url(#clip-path-6)">
      <rect id="Rectangle_257" data-name="Rectangle 257" width="3.411" height="22.487" transform="translate(-0.026 -2.97)" fill="none"/>
    </g>
    <g id="Group_923" data-name="Group 923" transform="translate(172.26 146.346)" clip-path="url(#clip-path-7)">
      <rect id="Rectangle_258" data-name="Rectangle 258" width="3.411" height="19.292" transform="translate(-0.019 -0.76)" fill="none"/>
    </g>
    <g id="Group_924" data-name="Group 924" transform="translate(136.498 150.019)" clip-path="url(#clip-path-8)">
      <rect id="Rectangle_259" data-name="Rectangle 259" width="19.692" height="12.902" transform="translate(-0.012 -1.262)" fill="none"/>
    </g>
    <g id="Group_925" data-name="Group 925" transform="translate(133.254 154.207)" clip-path="url(#clip-path-9)">
      <rect id="Rectangle_260" data-name="Rectangle 260" width="3.435" height="12.902" transform="translate(-0.034 -2.231)" fill="none"/>
    </g>
    <g id="Group_926" data-name="Group 926" transform="translate(130.073 157.635)" clip-path="url(#clip-path-10)">
      <rect id="Rectangle_261" data-name="Rectangle 261" width="3.411" height="9.754" transform="translate(-0.096 -2.51)" fill="none"/>
    </g>
    <g id="Group_927" data-name="Group 927" transform="translate(136.501 161.524)" clip-path="url(#clip-path-11)">
      <rect id="Rectangle_262" data-name="Rectangle 262" width="6.677" height="3.364" transform="translate(-0.015 -0.01)" fill="none"/>
    </g>
    <path id="Path_6061" data-name="Path 6061" d="M27034.684,58616.727c3.027-2.492,9.109.328,10.734,1.078,9.07,4.2,17.215,15.492,15.2,27.43-.3,1.8-1.7,10.188-8.8,14.242-6.406,3.656-15.051,2.719-21.973-2.461-.953-.852-1.891-1.687-2.844-2.523-.93-1-1.863-2.023-2.793-3.016a22.18,22.18,0,0,1,7.441-4.109c4.605-1.492,7.961,1.18,10.1-.852,1.477-1.4,1.477-3.875,1.113-5.367-.734-3.016-3.395-3.859-5.613-6.008C27032.027,58630.109,27031.066,58619.7,27034.684,58616.727Z" transform="translate(-26874.301 -58519.184)" fill-rule="evenodd" fill="url(#linear-gradient-12)"/>
    <path id="Path_6062" data-name="Path 6062" d="M38099.4,73580.172l11.18-3.8-7.773.117a18.19,18.19,0,0,1-3.2,1.867,2.089,2.089,0,0,1-.391.117Z" transform="translate(-37953.125 -73440.453)" fill-rule="evenodd" fill="url(#linear-gradient-13)"/>
    <path id="Path_6063" data-name="Path 6063" d="M37555.6,73567.328l12.9-5.062a1.8,1.8,0,0,0,1.2-1.7h0a1.138,1.138,0,0,0-1.125-1.125,1.109,1.109,0,0,0-.316.047h0l-11.191,3.8.2,1.859a2.545,2.545,0,0,1-1.508,2.07A1.4,1.4,0,0,1,37555.6,73567.328Z" transform="translate(-37410.805 -73423.555)" fill-rule="evenodd" fill="url(#linear-gradient-14)"/>
    <path id="Path_6064" data-name="Path 6064" d="M39916.7,72071.156c.133-.047.266-.062.391-.109a19.315,19.315,0,0,0,3.2-1.891,10.685,10.685,0,0,1,2.977-1.422c.227-.062-1.07-2.656-2.18-2.656a.366.366,0,0,0-.18.031,23.884,23.884,0,0,0-4.594,2.563Z" transform="translate(-39770.633 -71933.125)" fill-rule="evenodd" fill="url(#linear-gradient-15)"/>
    <path id="Path_6065" data-name="Path 6065" d="M42320.055,64901.965a2.546,2.546,0,0,0,1.516-2.062l-.211-1.859-.18-1.687-.383-3.508-2.094-18.977a1.457,1.457,0,0,0-1.414-1.312l-11.969-.328-31.969-.906h-.047c-.922,0-2.523.93-2.367,1.828a1.471,1.471,0,0,1,1.406-1.062h.039l43.945,1.242a1.451,1.451,0,0,1,1.422,1.3l2.859,26.023A1.458,1.458,0,0,1,42320.055,64901.965Z" transform="translate(-42175.109 -64758.316)" fill-rule="evenodd" fill="url(#linear-gradient-16)"/>
    <path id="Path_6066" data-name="Path 6066" d="M42681.281,65189.617a1.493,1.493,0,0,0,.742-.211c.055-.023.1-.07.164-.1a1.462,1.462,0,0,0,.539-1.32l-2.844-26.023a1.491,1.491,0,0,0-1.422-1.312l-43.945-1.242h-.031a1.487,1.487,0,0,0-1.461,1.719l.336,1.938,1.234,7.2.938,5.414,1.242,7.211c.227-.109,4.711,4.117,6.875,4.6,2.383.516,5.6.266,9.352.492,6.336.391,14.164,1.516,19.844,1.422,4.117-.07,6.3.9,8.008-.1,3.461-2.039,1.641-4.734,1.336-9.6-.023-.125-1.922-18.023-2.3-19.055h-1.422a1.491,1.491,0,0,1,1.422,1.313l2.844,26.023a1.459,1.459,0,0,1-1.445,1.633h0Zm-.031,0Zm-.008,0h0Z" transform="translate(-42537.23 -65045.641)" fill="#481e4a" fill-rule="evenodd"/>
    <g id="Group_928" data-name="Group 928" transform="translate(99.528 137.254)" clip-path="url(#clip-path-12)">
      <rect id="Rectangle_263" data-name="Rectangle 263" width="29.793" height="6.183" transform="translate(-0.043 -0.102)" fill="none"/>
    </g>
    <path id="Path_6068" data-name="Path 6068" d="M60094.6,74078.391Z" transform="translate(-59995.066 -73941.141)" fill="#fff" fill-rule="evenodd"/>
    <g id="Group_929" data-name="Group 929" transform="translate(129.193 143.268)" clip-path="url(#clip-path-13)">
      <rect id="Rectangle_264" data-name="Rectangle 264" width="14.97" height="0.874" transform="translate(-0.061 -0.078)" fill="none"/>
    </g>
    <g id="Group_930" data-name="Group 930" transform="translate(99.537 114.917)" clip-path="url(#clip-path-14)">
      <rect id="Rectangle_265" data-name="Rectangle 265" width="46.215" height="29.23" transform="translate(-0.053 -0.083)" fill="none"/>
    </g>
    <path id="Path_6071" data-name="Path 6071" d="M57761.516,74309.875a.326.326,0,0,1,.3-.437,8.309,8.309,0,0,1,4.117.641c1.492.922,3.43,2.594,1.8,3.422l-1.516.781a.249.249,0,0,1-.234.031c-.539-.125-2.8-.609-3.047-.75A21.806,21.806,0,0,1,57761.516,74309.875Z" transform="translate(-57662.68 -74171.563)" fill-rule="evenodd" fill="url(#linear-gradient-17)"/>
    <path id="Path_6072" data-name="Path 6072" d="M37451.75,54036a31.124,31.124,0,0,0,.57,6.3,4.987,4.987,0,0,0,.852,2.469c.453.523,1.148.969,5.008,1.922,2.1.531,2.375.516,2.422.727.219,1.008-5.516,4.492-11.445,3.656-3.625-.516-6.93-2.594-6.727-3.672s3.828-.516,4.906-2.484c.758-1.375-.086-3.336-1.078-4.953C37447.219,54038.156,37450.789,54037.813,37451.75,54036Z" transform="translate(-37301.43 -53951.52)" fill-rule="evenodd" fill="url(#linear-gradient-18)"/>
    <path id="Path_6073" data-name="Path 6073" d="M39763.613,52263.484a3.823,3.823,0,0,1,.082-4.375,4.162,4.162,0,0,1,2.984-1.32c2.316-.273,5.242.7,6.262,2.828.605,1.266-.7,3.891-.906,4.359-.234.539-.645.727-1.035,1.125-.535.563-1.383,1.453-2.754,2.938a9.241,9.241,0,0,0-.527-1.57,8.7,8.7,0,0,0-1.105-1.852C39765.414,52264.141,39764.434,52264.563,39763.613,52263.484Z" transform="translate(-39620.023 -52177.945)" fill-rule="evenodd" fill="url(#linear-gradient-19)"/>
    <path id="Path_6074" data-name="Path 6074" d="M40181.578,53904.285a5.181,5.181,0,0,1-4.555,2.3c-2.719-.18-3.117-6.281-1.383-7.578a3.511,3.511,0,0,1,2.688-.344c.547.156.742.391,1.648.641.852.2,1.094.117,1.344.32.32.273.555.93.016,2.711a1.48,1.48,0,0,1,1.578-.508.832.832,0,0,1,.367.352C40183.664,53902.879,40183.031,53903.77,40181.578,53904.285Z" transform="translate(-40031.395 -53814.434)" fill-rule="evenodd" fill="url(#linear-gradient-20)"/>
    <path id="Path_6075" data-name="Path 6075" d="M40230.629,54167.746c-.121.1.273.594.3,1.281a3.346,3.346,0,0,1-2.684,3.094c-.82.07-1.059-.406-2.41-.562a6.36,6.36,0,0,0-1.977.117,3.282,3.282,0,0,0,.957,3.625,3.4,3.4,0,0,0,2.98.1,3.867,3.867,0,0,0,2.23-1.641c.66-1.141.012-1.852.77-2.633.383-.406.887-.578,1.375-1.336a4.483,4.483,0,0,0,.277-.523C40231.746,54168.535,40230.824,54167.605,40230.629,54167.746Z" transform="translate(-40080.586 -54082.906)" fill-rule="evenodd" fill="url(#linear-gradient-21)"/>
    <path id="Path_6076" data-name="Path 6076" d="M42459.988,55867.6a3.447,3.447,0,0,0,1.6.25c.051-.016.105.008.105.031a1.231,1.231,0,0,1-1.219.367c-.426-.125-.758-.523-.7-.633C42459.8,55867.578,42459.9,55867.586,42459.988,55867.6Z" transform="translate(-42315.711 -55778.285)" fill-rule="evenodd" fill="url(#linear-gradient-22)"/>
    <path id="Path_6078" data-name="Path 6078" d="M66452.039,97047.109c.273-4.844-2.937-14.734-5.281-19.391a92.615,92.615,0,0,1-4.484-11.875l-.148.047a96.048,96.048,0,0,0,4.508,11.891c2.32,4.656,5.531,14.484,5.242,19.328Z" transform="translate(-66369.211 -96818.195)" fill-rule="evenodd" fill="url(#linear-gradient-23)"/>
    <path id="Path_6080" data-name="Path 6080" d="M80894.2,32656.152c0,25.109,20.25,46.816,45.281,48.492,25.141,1.68,45.547-17.437,45.547-42.707s-20.406-46.992-45.547-48.52C80914.453,32611.9,80894.2,32631.027,80894.2,32656.152Z" transform="translate(-80872.906 -32478.34)" fill-rule="evenodd" fill="url(#linear-gradient-24)"/>
    <path id="Path_6081" data-name="Path 6081" d="M87340.078,38055.457a5.2,5.2,0,0,0,4.8-2.422l17.133-27.5a5.865,5.865,0,0,0-1.937-7.871,5.456,5.456,0,0,0-7.742,1.438l-11.859,19.086-15.664-31.906a5.869,5.869,0,0,0-7.531-2.937,5.422,5.422,0,0,0-2.469,7.438l20.25,41.266a6.064,6.064,0,0,0,4.8,3.387C87339.93,38055.449,87340,38055.449,87340.078,38055.457Z" transform="translate(-87271.898 -37850.074)" fill="#fff"/>
  </g>
</svg>
