<svg xmlns="http://www.w3.org/2000/svg" width="17.127" height="14.323" viewBox="0 0 17.127 14.323">
  <g id="analysis_icon" data-name="analysis icon" transform="translate(0 -34.807)">
    <g id="Group_72" data-name="Group 72" transform="translate(14.737 40.148)">
      <g id="Group_71" data-name="Group 71">
        <rect id="Rectangle_14" data-name="Rectangle 14" width="1.611" height="8.982" fill="#e15fff"/>
      </g>
    </g>
    <g id="Group_74" data-name="Group 74" transform="translate(10.105 43.048)">
      <g id="Group_73" data-name="Group 73">
        <rect id="Rectangle_15" data-name="Rectangle 15" width="1.611" height="6.082" fill="#e15fff"/>
      </g>
    </g>
    <g id="Group_76" data-name="Group 76" transform="translate(5.433 46.069)">
      <g id="Group_75" data-name="Group 75">
        <rect id="Rectangle_16" data-name="Rectangle 16" width="1.611" height="3.061" fill="#e15fff"/>
      </g>
    </g>
    <g id="Group_78" data-name="Group 78" transform="translate(0.801 45.223)">
      <g id="Group_77" data-name="Group 77" transform="translate(0 0)">
        <rect id="Rectangle_17" data-name="Rectangle 17" width="1.611" height="3.907" fill="#e15fff"/>
      </g>
    </g>
    <g id="Group_80" data-name="Group 80" transform="translate(0 34.807)">
      <g id="Group_79" data-name="Group 79">
        <path id="Path_44" data-name="Path 44" d="M16.739,35.359a1.593,1.593,0,0,0-2.727,1.514l-1.925,1.365a1.6,1.6,0,0,0-2.674,1.676l-1.8,1.514a1.6,1.6,0,0,0-2.9.391L3.194,41.2a1.6,1.6,0,1,0-.048.677l1.523.616a1.6,1.6,0,0,0,3.182-.419l1.925-1.623a1.6,1.6,0,0,0,2.646-1.659l1.905-1.353a1.594,1.594,0,1,0,2.413-2.082Z" transform="translate(0 -34.807)" fill="#e15fff"/>
      </g>
    </g>
  </g>
</svg>
