<svg xmlns="http://www.w3.org/2000/svg" width="22.195" height="29.594" viewBox="0 0 22.195 29.594">
  <path id="appearance_icon" data-name="appearance icon" d="M596.5,544H581.7a3.71,3.71,0,0,0-3.7,3.7v11.1a7.384,7.384,0,0,0,5.568,7.158,1.054,1.054,0,0,0-.02.24v2.183a5.21,5.21,0,0,0,5.216,5.216h.666a5.21,5.21,0,0,0,5.216-5.216V566.2a1.065,1.065,0,0,0-.018-.24A7.384,7.384,0,0,0,600.2,558.8V547.7A3.71,3.71,0,0,0,596.5,544Zm-5.549,24.378a1.524,1.524,0,0,1-1.517,1.517h-.666a1.524,1.524,0,0,1-1.517-1.517V566.2h3.7Zm1.85-5.882h-7.4a3.71,3.71,0,0,1-3.7-3.7h14.8A3.71,3.71,0,0,1,592.8,562.5Zm3.7-7.4H581.7v-6.474a.925.925,0,0,1,1.85,0V551.4a1.85,1.85,0,0,0,3.7,0v-2.774a.925.925,0,0,1,1.85,0v.925a1.85,1.85,0,0,0,3.7,0v-.925a.925.925,0,0,1,.925-.925h1.85a.925.925,0,0,1,.925.925Z" transform="translate(-578 -544)" fill="#fff" fill-rule="evenodd"/>
</svg>
