<svg xmlns="http://www.w3.org/2000/svg" width="45.435" height="32.163" viewBox="0 0 45.435 32.163">
  <g id="audio_video_icon_" data-name="audio/video icon " transform="translate(-453.609 -224.02)">
    <g id="video" transform="translate(453.609 224.02)">
      <path id="Combined-Shape" d="M34.7,21.119a1.035,1.035,0,0,0-1.652.828v6.085a4.132,4.132,0,0,1-4.132,4.132H4.132A4.132,4.132,0,0,1,0,28.031V4.132A4.132,4.132,0,0,1,4.132,0H28.914a4.132,4.132,0,0,1,4.132,4.132v6.085a1.032,1.032,0,0,0,1.652.828l7.435-6.351a2.093,2.093,0,0,1,2.6.081,2.064,2.064,0,0,1,.7,1.623V25.818a2.064,2.064,0,0,1-3.3,1.652Z" transform="translate(0 0)" fill="#fff"/>
    </g>
    <g id="microphone" transform="translate(459.789 229.512)">
      <path id="Path" d="M19.85,0a1.323,1.323,0,0,0-1.323,1.322,7.94,7.94,0,1,1-15.88,0A1.323,1.323,0,1,0,0,1.323a10.587,10.587,0,1,0,21.174,0A1.323,1.323,0,0,0,19.85,0Z" transform="translate(0 9.264)" fill="#9413e6"/>
      <path id="Path-2" data-name="Path" d="M5.293,15.88a5.309,5.309,0,0,0,5.293-5.293V5.293A5.293,5.293,0,1,0,0,5.293v5.293A5.309,5.309,0,0,0,5.293,15.88Z" transform="translate(5.293 0)" fill="#9413e6"/>
    </g>
  </g>
</svg>
