<svg id="audio_screen_" data-name="audio/screen " xmlns="http://www.w3.org/2000/svg" width="24.705" height="31.919" viewBox="0 0 24.705 31.919">
  <path id="Sound" d="M0,17.556V14.364A4.788,4.788,0,0,1,4.788,9.576H5.2a13.128,13.128,0,0,0,4.439-.768l8.931-7.654A4.788,4.788,0,0,1,21.689,0h0a3.016,3.016,0,0,1,3.016,3.016V28.9a3.016,3.016,0,0,1-3.016,3.016h0a4.788,4.788,0,0,1-3.117-1.154L9.642,23.112A13.128,13.128,0,0,0,5.2,22.343H4.788A4.788,4.788,0,0,1,0,17.556Z" transform="translate(0)" fill="#fff"/>
</svg>
