<svg id="audio_only_icon" data-name="audio only icon" xmlns="http://www.w3.org/2000/svg" width="34" height="34" viewBox="0 0 34 34">
  <path id="Path" d="M31.875,0A2.125,2.125,0,0,0,29.75,2.125a12.75,12.75,0,1,1-25.5,0,2.125,2.125,0,1,0-4.25,0,17,17,0,1,0,34,0A2.125,2.125,0,0,0,31.875,0Z" transform="translate(0 14.875)" fill="#fff"/>
  <path id="Path-2" data-name="Path" d="M8.5,25.5A8.524,8.524,0,0,0,17,17V8.5a8.5,8.5,0,1,0-17,0V17A8.524,8.524,0,0,0,8.5,25.5Z" transform="translate(8.5 0)" fill="#fff"/>
</svg>
