<svg xmlns="http://www.w3.org/2000/svg" width="24" height="24" viewBox="0 0 24 24">
  <path id="big_screen_icon" data-name="big screen icon" d="M5.667,19H3v5.333A2.675,2.675,0,0,0,5.667,27H11V24.333H5.667Zm0-13.333H11V3H5.667A2.675,2.675,0,0,0,3,5.667V11H5.667ZM24.333,3H19V5.667h5.333V11H27V5.667A2.675,2.675,0,0,0,24.333,3Zm0,21.333H19V27h5.333A2.675,2.675,0,0,0,27,24.333V19H24.333ZM15,9.667A5.333,5.333,0,1,0,20.333,15,5.332,5.332,0,0,0,15,9.667Zm0,8A2.667,2.667,0,1,1,17.667,15,2.675,2.675,0,0,1,15,17.667Z" transform="translate(-3 -3)" fill="#fff"/>
</svg>
