<svg xmlns="http://www.w3.org/2000/svg" width="27.19" height="36.259" viewBox="0 0 27.19 36.259">
  <g id="billings" transform="translate(-3)">
    <path id="Path_92" data-name="Path 92" d="M17.819,7H10.266a2.266,2.266,0,1,0,0,4.532h7.553a2.266,2.266,0,1,0,0-4.532Z" transform="translate(2.553 3.574)" fill="#e15fff"/>
    <path id="Path_93" data-name="Path 93" d="M14.8,12H10.266a2.266,2.266,0,1,0,0,4.532H14.8A2.266,2.266,0,0,0,14.8,12Z" transform="translate(2.553 6.127)" fill="#e15fff"/>
    <path id="Path_94" data-name="Path 94" d="M21.882,0H11.308A8.317,8.317,0,0,0,3,8.308v25.68a2.266,2.266,0,0,0,3.279,2.027l4.958-2.48,4.23,2.417a2.266,2.266,0,0,0,2.248,0l4.23-2.417,4.958,2.48a2.266,2.266,0,0,0,3.289-2.027V8.308A8.317,8.317,0,0,0,21.882,0Zm3.776,30.322L22.894,28.94A2.266,2.266,0,0,0,20.757,29L16.6,31.378,12.434,29a2.266,2.266,0,0,0-2.137-.059L7.532,30.322V8.308a3.776,3.776,0,0,1,3.776-3.776H21.882a3.776,3.776,0,0,1,3.776,3.776Z" fill="#e15fff"/>
  </g>
</svg>
