<svg xmlns="http://www.w3.org/2000/svg" width="28" height="25.561" viewBox="0 0 28 25.561">
  <path id="bonus_icon" data-name="bonus icon" d="M26.783,11.618H23.435a.69.69,0,0,1-.03-.122l-5.752-7.03a1.211,1.211,0,0,0-1.7-.183,1.285,1.285,0,0,0-.183,1.765l4.535,5.57H7.7l4.535-5.57a1.22,1.22,0,0,0-.183-1.735,1.207,1.207,0,0,0-1.7.152L4.6,11.527a.307.307,0,0,1-.03.091H1.217A1.123,1.123,0,0,0,0,12.713v4.565a1.331,1.331,0,0,0,1.217,1.339h.4L3.9,27.87a2.239,2.239,0,0,0,2.283,1.7H21.822a2.3,2.3,0,0,0,2.283-1.7l2.283-9.252h.4A1.331,1.331,0,0,0,28,17.279V12.713A1.123,1.123,0,0,0,26.783,11.618ZM2.435,14.053h23.13v2.13H2.435ZM21.761,27.14H6.239l-2.13-8.522H23.891Z" transform="translate(0 -4.013)" fill="#e15fff"/>
</svg>
