<svg id="broadcast" xmlns="http://www.w3.org/2000/svg" width="163.665" height="115.678" viewBox="0 0 163.665 115.678">
  <path id="Path_1453" data-name="Path 1453" d="M213,192.8A20.2,20.2,0,1,0,233.2,213,20.225,20.225,0,0,0,213,192.8Zm0,30.815A10.613,10.613,0,1,1,223.615,213,10.625,10.625,0,0,1,213,223.615Z" transform="translate(-131.17 -155.164)" fill="#f7fafc"/>
  <path id="Path_1454" data-name="Path 1454" d="M89.017,127.263l-6.781-6.781a61.2,61.2,0,0,0,0,86.638l6.781-6.781a51.61,51.61,0,0,1,0-73.077Z" transform="translate(-43.724 -105.963)" fill="#f7fafc"/>
  <path id="Path_1455" data-name="Path 1455" d="M30.774,81.842l-6.781-6.781a81.708,81.708,0,0,0,0,115.677l6.781-6.781a72.12,72.12,0,0,1,0-102.116Z" transform="translate(0 -75.061)" fill="#f7fafc"/>
  <path id="Path_1456" data-name="Path 1456" d="M422.507,75.061l-6.781,6.781a72.12,72.12,0,0,1,0,102.116l6.781,6.781a81.709,81.709,0,0,0,0-115.677Z" transform="translate(-282.836 -75.061)" fill="#f7fafc"/>
  <path id="Path_1457" data-name="Path 1457" d="M377.085,120.482l-6.781,6.781a51.61,51.61,0,0,1,0,73.077l6.781,6.781a61.2,61.2,0,0,0,0-86.638Z" transform="translate(-251.934 -105.963)" fill="#f7fafc"/>
  <path id="Path_1458" data-name="Path 1458" d="M331.662,165.9l-6.781,6.781a31.1,31.1,0,0,1,0,44.037l6.781,6.781a40.688,40.688,0,0,0,0-57.6Z" transform="translate(-221.03 -136.866)" fill="#f7fafc"/>
  <path id="Path_1459" data-name="Path 1459" d="M147.26,172.686l-6.781-6.781a40.688,40.688,0,0,0,0,57.6l6.781-6.781a31.1,31.1,0,0,1,0-44.037Z" transform="translate(-87.446 -136.866)" fill="#f7fafc"/>
</svg>
