<svg xmlns="http://www.w3.org/2000/svg" width="21.026" height="24.03" viewBox="0 0 21.026 24.03">
  <path id="call_to_action_icon" data-name="call to action icon" d="M147.023,192H132a3,3,0,0,0-3,3v18.023a3,3,0,0,0,3,3h15.019a3,3,0,0,0,3-3V195A3,3,0,0,0,147.023,192Zm0,21.026H132V195h15.019Zm-7.509-1.5a4.506,4.506,0,1,0-4.506-4.506A4.506,4.506,0,0,0,139.513,211.525Zm0-6.008a1.5,1.5,0,1,1-1.5,1.5A1.5,1.5,0,0,1,139.513,205.517Zm0-4.506a1.5,1.5,0,1,0-1.5-1.5A1.5,1.5,0,0,0,139.513,201.011Z" transform="translate(-129 -192)" fill="#fff" fill-rule="evenodd"/>
</svg>
