<svg xmlns="http://www.w3.org/2000/svg" width="27.059" height="27.059" viewBox="0 0 27.059 27.059">
  <path id="create_video_icon" data-name="create video icon" d="M119.677,32H99.382A3.382,3.382,0,0,0,96,35.382V55.677a3.382,3.382,0,0,0,3.382,3.382h20.294a3.382,3.382,0,0,0,3.382-3.382V35.382A3.382,3.382,0,0,0,119.677,32Zm0,23.677H99.382V35.382h20.294Zm-15.221-8.456h3.382V50.6a1.691,1.691,0,0,0,3.382,0V47.221H114.6a1.691,1.691,0,0,0,0-3.382h-3.382V40.456a1.691,1.691,0,0,0-3.382,0v3.382h-3.382a1.691,1.691,0,0,0,0,3.382Z" transform="translate(-96 -32)" fill="#fff" fill-rule="evenodd"/>
</svg>
