<svg id="create_perfect_thumbail_icon" data-name="create perfect thumbail icon" xmlns="http://www.w3.org/2000/svg" width="33.808" height="33.808" viewBox="0 0 33.808 33.808">
  <g id="_x36__40_">
    <g id="Group_271" data-name="Group 271">
      <path id="Path_506" data-name="Path 506" d="M8.452,4.226a4.226,4.226,0,1,0,4.226,4.226A4.226,4.226,0,0,0,8.452,4.226Zm0,6.339a2.113,2.113,0,1,1,2.113-2.113A2.112,2.112,0,0,1,8.452,10.565ZM29.582,0H4.226A4.226,4.226,0,0,0,0,4.226V29.582a4.226,4.226,0,0,0,4.226,4.226H29.582a4.226,4.226,0,0,0,4.226-4.226V4.226A4.226,4.226,0,0,0,29.582,0ZM4.226,31.695a2.113,2.113,0,0,1-2.113-2.113v-.993l8.394-7.517L21.131,31.695Zm27.469-2.113a2.113,2.113,0,0,1-2.113,2.113h-5.46l-7.784-7.887,9.018-9.018,6.339,6.339Zm0-11.486-6.339-6.474L14.852,22.3,10.565,17.96l-8.452,7.75V4.226A2.113,2.113,0,0,1,4.226,2.113H29.582a2.113,2.113,0,0,1,2.113,2.113Z" fill="#f7fafc"/>
    </g>
  </g>
</svg>
