<svg xmlns="http://www.w3.org/2000/svg" width="32.434" height="28.401" viewBox="0 0 32.434 28.401">
  <path id="cut" d="M722.941,335.276l12.679-10.551a2.021,2.021,0,1,0-2.585-3.106l-13.245,11.035-4.019-3.35h0a6,6,0,0,0,.394-2.09,6.126,6.126,0,1,0-2.988,5.189l.02.016,3.455,2.864L713.2,338.15l-.02.016a5.99,5.99,0,0,0-3.069-.864,6.053,6.053,0,1,0,6.057,6.054,5.992,5.992,0,0,0-.394-2.091h0l4.019-3.348,13.244,11.035a2.074,2.074,0,0,0,1.293.463,2,2,0,0,0,1.555-.726,2.033,2.033,0,0,0-.262-2.846Zm-14.863-8.069a2.02,2.02,0,1,1,2.021,2.018,2,2,0,0,1-.724-.146c-.053-.021-.1-.049-.152-.073a2.011,2.011,0,0,1-1.144-1.8Zm2.021,18.157a2,2,0,0,1-.876-3.815c.051-.024.1-.053.153-.073a2,2,0,0,1,.724-.146,2.018,2.018,0,1,1,0,4.035Z" transform="translate(-703.914 -321.015)" fill="#fff" fill-rule="evenodd"/>
</svg>
