<svg xmlns="http://www.w3.org/2000/svg" width="26.929" height="26.929" viewBox="0 0 26.929 26.929">
  <path id="dash_icon" data-name="dash icon" d="M28.433,17.961H4.5a1.5,1.5,0,0,0-1.5,1.5v8.976a1.5,1.5,0,0,0,1.5,1.5H28.433a1.5,1.5,0,0,0,1.5-1.5V19.457A1.5,1.5,0,0,0,28.433,17.961ZM8.984,26.937a2.992,2.992,0,1,1,2.992-2.992A3,3,0,0,1,8.984,26.937ZM28.433,3H4.5A1.5,1.5,0,0,0,3,4.5v8.976a1.5,1.5,0,0,0,1.5,1.5H28.433a1.5,1.5,0,0,0,1.5-1.5V4.5A1.5,1.5,0,0,0,28.433,3ZM8.984,11.976a2.992,2.992,0,1,1,2.992-2.992A3,3,0,0,1,8.984,11.976Z" transform="translate(-3 -3)" fill="#e15fff"/>
</svg>
