<svg xmlns="http://www.w3.org/2000/svg" width="20.041" height="20.973" viewBox="0 0 20.041 20.973">
  <path id="download" d="M23.041,14.469v6.338a1.154,1.154,0,0,1-1.165,1.165H4.165A1.154,1.154,0,0,1,3,20.808V14.469a1.165,1.165,0,1,1,2.33,0v5.173H20.71V14.469a1.165,1.165,0,1,1,2.33,0ZM12.181,15.914a1.108,1.108,0,0,0,.839.35,1.144,1.144,0,0,0,.839-.35L18.5,11.16a1.17,1.17,0,1,0-1.678-1.631l-2.633,2.726V2.165a1.165,1.165,0,0,0-2.33,0v10.09L9.2,9.552a1.17,1.17,0,1,0-1.678,1.631Z" transform="translate(-3 -1)" fill="#f7fafc"/>
</svg>
