<svg xmlns="http://www.w3.org/2000/svg" width="15.987" height="16" viewBox="0 0 15.987 16">
  <path id="edit_icon" data-name="edit icon" d="M78.993,432H65.007a1,1,0,0,1-1-1V417a1,1,0,0,1,1-1H71a1,1,0,0,1,0,2H66v12H77.994v-5a1,1,0,0,1,2,0v6a1,1,0,0,1-1,1Zm-2-14,1,1L71,426H70v-1l6.993-7Zm0-2a1.989,1.989,0,0,0-1.413.586l-6.993,7A2,2,0,0,0,68,425v1a2,2,0,0,0,2,2h1a2,2,0,0,0,1.413-.586l6.993-7a2,2,0,0,0,0-2.828l-1-1A1.989,1.989,0,0,0,77,416h0Z" transform="translate(-64.007 -416)" fill="#fff" fill-rule="evenodd"/>
</svg>
