<svg xmlns="http://www.w3.org/2000/svg" width="26.229" height="21.184" viewBox="0 0 26.229 21.184">
  <path id="email_leads_icon" data-name="email leads icon" d="M86.95,482H67.279A3.412,3.412,0,0,0,64,485.531v14.122a3.412,3.412,0,0,0,3.279,3.531H86.95a3.412,3.412,0,0,0,3.279-3.531V485.531A3.412,3.412,0,0,0,86.95,482Zm-2.561,3.531-7.275,6.532-7.275-6.532h14.55ZM67.279,499.653V487.825l8.787,7.886a1.551,1.551,0,0,0,2.1,0l8.787-7.886v11.827Z" transform="translate(-64 -482)" fill="#fff" fill-rule="evenodd"/>
</svg>
