<svg xmlns="http://www.w3.org/2000/svg" width="28" height="22.75" viewBox="0 0 28 22.75">
  <path id="email_icon" data-name="email icon" d="M24.719,48H3.281A3.285,3.285,0,0,0,0,51.281v2.707l12.042,8.957a3.261,3.261,0,0,0,3.917,0L28,53.988V51.281A3.285,3.285,0,0,0,24.719,48Zm1.094,4.889-11.16,8.3a1.087,1.087,0,0,1-1.306,0l-11.16-8.3V51.281a1.1,1.1,0,0,1,1.094-1.094H24.719a1.1,1.1,0,0,1,1.094,1.094Zm0,5.453L28,56.714V67.469a3.285,3.285,0,0,1-3.281,3.281H3.281A3.285,3.285,0,0,1,0,67.469V56.714l2.187,1.627v9.127a1.1,1.1,0,0,0,1.094,1.094H24.719a1.1,1.1,0,0,0,1.094-1.094Z" transform="translate(0 -48)" fill="#e15fff"/>
</svg>
