<svg xmlns="http://www.w3.org/2000/svg" width="235.787" height="186.801" viewBox="0 0 235.787 186.801">
  <g id="enter_email_icon" data-name="enter email icon" transform="translate(-403.121 -152.928)">
    <path id="Path_1505" data-name="Path 1505" d="M17364.518,8879.926h-18.912v-11.67a1.226,1.226,0,0,0-1.225-1.226h-60a1.226,1.226,0,0,0-1.227,1.226v31.6l-5.691,5.055h-11.176a1.226,1.226,0,0,0,0,2.451h8.484a6.179,6.179,0,0,0-1.578,4.138v47.412a6.2,6.2,0,0,0,1.832,4.425v0h0a6.22,6.22,0,0,0,4.424,1.83h69.648a6.223,6.223,0,0,0,4.438-1.846h0v0h0a6.212,6.212,0,0,0,1.822-4.412V8911.5a6.2,6.2,0,0,0-1.982-4.552l-.01-.007-.016-.018-7.748-6.879v-17.668h18.912a1.226,1.226,0,0,0,0-2.451Z" transform="translate(-16813.326 -8664.883)" fill="#59a9f7"/>
    <path id="Path_1506" data-name="Path 1506" d="M17639.932,5582.812h0a3.118,3.118,0,0,1-.92-2.222v-21.344a3.108,3.108,0,0,1,.994-2.287s.006,0,.01-.009-.008.009-.012.009a.881.881,0,0,0,.029,1.3l.768.661a1.342,1.342,0,0,0-.037.323v21.344c0,.049,0,.1.006.146l6.531-6.532-7.369,7.371a.876.876,0,0,0,0,1.238Zm12.559-13.8-.572-.5.572.5Zm-1.553-3.655-8.7-7.507Z" transform="translate(-17182.311 -5398.769)" fill="#e4e6e3"/>
    <path id="Path_1507" data-name="Path 1507" d="M20037.543,7226.8a.873.873,0,0,1-.623-.26.873.873,0,0,0,.623.26.884.884,0,0,0,.166-.016A.884.884,0,0,1,20037.543,7226.8Z" transform="translate(-19548.369 -7046.183)" fill="#e4e6e3"/>
    <path id="Path_1508" data-name="Path 1508" d="M17733.381,6474.5h-41.893a3.124,3.124,0,0,1-2.221-.92h0a.875.875,0,0,1,0-1.238l7.371-7.371,5.189-5.187h0l1.328,1.144-11.812,11.815q.073.007.146.007h41.893a.875.875,0,0,1,0,1.75Zm-12.561-4.346a.869.869,0,0,1-.623-.26h0l-8.932-9.042-3.527,3.046,4.146-3.58h0l.709-.609,8.848,8.955a.872.872,0,0,1-.008,1.238.858.858,0,0,1-.449.237A.849.849,0,0,1,17720.82,6470.154Zm-13.654-6.041a.888.888,0,0,1-.395-.094l.064.028h.008s0,0,.008,0h0a.786.786,0,0,0,.291.056h0l0,0h.018a.891.891,0,0,0,.434-.117h0s.006,0,.008,0,.006,0,.008,0h0a.834.834,0,0,0,.121-.089h0A.883.883,0,0,1,17707.166,6464.113Zm-.4-.1h0Zm-.01,0h0Z" transform="translate(-17231.645 -6289.537)" fill="#e4e6e3"/>
    <path id="Path_1509" data-name="Path 1509" d="M17711.205,5510.333Zm-.008,0h0Zm-.01,0,0,0Zm-.006,0a.778.778,0,0,1-.291-.057A.778.778,0,0,0,17711.182,5510.328Zm-.291-.057s0,0-.008,0S17710.887,5510.271,17710.891,5510.271Zm-.012,0h0Zm.76-.051h0Zm.008,0s.006,0,.008,0S17711.648,5510.211,17711.646,5510.211Zm.008,0a.785.785,0,0,0,.123-.089A.785.785,0,0,1,17711.654,5510.206Zm-1.023-.089-3.437-2.971-1.328-1.144-.574-.5-11.115-9.6-.77-.661a.879.879,0,0,1-.027-1.3s.008,0,.012-.009a3.116,3.116,0,0,1,2.137-.848h47.039a.876.876,0,0,1,0,1.752h-46.953l8.7,7.507,6.893,5.951-.572.492a.879.879,0,0,0-.09,1.237A.944.944,0,0,0,17710.631,5510.117Zm1.463-2.587,12.193-10.524a.883.883,0,0,1,.572-.211.874.874,0,0,1,.662.3h0a.874.874,0,0,0-.662-.3.883.883,0,0,0-.572.211l-9.506,8.205h0Zm13.344-9.2h0Zm.008-.009h0Zm.01,0,0,0Zm.008-.009s0,0,0,0S17725.465,5498.3,17725.463,5498.3Zm.008-.009h0Zm.006,0s0,0,.006,0S17725.48,5498.29,17725.477,5498.29Zm.01-.009s0,0,0,0S17725.488,5498.281,17725.486,5498.281Zm.008-.009h0Zm.008,0s0,0,0,0S17725.5,5498.262,17725.5,5498.267Zm.006-.009s0,0,0,0S17725.51,5498.257,17725.508,5498.257Zm.008-.009s0,0,0,0S17725.518,5498.248,17725.516,5498.248Zm.008,0s0,0,0-.009S17725.523,5498.238,17725.523,5498.243Zm.006-.009s.006-.009.008-.009S17725.531,5498.229,17725.529,5498.234Zm.008-.009a.064.064,0,0,0,.01-.015A.064.064,0,0,1,17725.537,5498.225Zm.012-.015s0,0,.006-.009S17725.551,5498.206,17725.549,5498.21Zm.006-.009s.006,0,.008-.01S17725.559,5498.2,17725.555,5498.2Zm.008-.01a.021.021,0,0,0,.006-.009A.021.021,0,0,1,17725.563,5498.191Zm.008-.009s0,0,.006-.009S17725.57,5498.178,17725.57,5498.182Zm.006-.009s0,0,0,0S17725.578,5498.168,17725.576,5498.173Zm0,0s0-.009.006-.009S17725.582,5498.163,17725.58,5498.168Zm.008-.014s0,0,0,0S17725.59,5498.154,17725.588,5498.154Zm.006-.01s0,0,0,0S17725.6,5498.145,17725.594,5498.145Zm.006-.009s0,0,0,0S17725.6,5498.136,17725.6,5498.136Zm.006-.01s0,0,0,0S17725.607,5498.126,17725.605,5498.126Zm.008-.01v0Zm0-.009s0,0,0,0S17725.619,5498.107,17725.617,5498.107Zm.008-.01v0Zm0-.009v0Zm0-.01h0Zm.006-.009,0,0Zm0-.009s0,0,0,0S17725.643,5498.061,17725.643,5498.061Zm.092-.408v0Zm0-.009v0Zm0-.01s0-.009,0-.009S17725.734,5497.629,17725.734,5497.634Zm0-.009v0Zm0-.014,0,0Zm0,0a.935.935,0,0,0-.033-.192A.935.935,0,0,1,17725.73,5497.606Zm-.033-.192s0,0,0,0S17725.7,5497.414,17725.7,5497.414Zm0-.01,0,0Zm0-.009s0,0,0,0S17725.689,5497.4,17725.691,5497.4Zm0-.009s0,0,0,0S17725.686,5497.386,17725.688,5497.386Zm0,0a.063.063,0,0,0-.008-.023A.063.063,0,0,1,17725.684,5497.381Zm-.01-.028,0,0Zm0-.009v0Zm0-.01s0,0,0,0S17725.666,5497.329,17725.668,5497.334Zm-.006-.014h0Zm0-.01h0Zm-.006-.009Zm-.1-.168Zm-.008-.01Zm-.006,0v0Zm-.008-.009Z" transform="translate(-17235.684 -5335.756)" fill="#e4e6e3"/>
    <path id="Path_1510" data-name="Path 1510" d="M19326.2,5781.882a.877.877,0,0,0,.3-.661.853.853,0,0,0-.213-.571.868.868,0,0,0-.662-.3.883.883,0,0,0-.572.211h0l9.508-8.205a.876.876,0,0,1,1.234.094h0a.052.052,0,0,1,.006.009h0l0,0h0s0,0,0,0h0s0,0,.006,0h0s.006.009.008.009h0a.8.8,0,0,1,.1.169h0s0,0,0,.01h0v.009h0s0,.009,0,.009h0s0,0,0,0h0v0h0s0,0,0,0h0l0,0h0l0,0h0v0h0a.039.039,0,0,1,.008.023h0l0,0h0v0h0s0,0,0,0h0v0h0s0,0,0,0h0v0h0s0,0,0,0h0a1.1,1.1,0,0,1,.035.192h0l0,0h0v0h0v.009h0v.01h0v.009h0v0h0v0h0v.019a.873.873,0,0,1-.09.384v0s0,0,0,0v0s0,0-.006.01h0s0,0,0,0v0l0,0v0s0,0,0,0,0,0,0,0,0,0,0,0l0,0s0,0,0,0,0,0,0,0,0,0,0,0,0,0,0,0,0,0,0,0,0,0-.006,0v0s0,0,0,0,0,0,0,0a.019.019,0,0,0,0,.01h0s0,0,0,0h0a.018.018,0,0,1-.006.009h0a.026.026,0,0,0-.006.01h0s0,0-.006.009h0s0,0-.006.009h0a.074.074,0,0,0-.01.014h0a.009.009,0,0,0-.008.009h0s-.006,0-.006.01h0s-.006,0-.006,0,0,0,0,0,0,0-.006,0,0,0,0,0,0,0,0,0,0,0,0,0h0s0,0,0,0,0,0,0,0,0,0,0,0,0,0,0,0,0,0,0,0h0s0,0-.008,0v0s-.006,0-.008,0v0s-.006,0-.008,0h0s0,0-.008.009h0s0,0-.008,0l-8.8,7.6Z" transform="translate(-18845.963 -5611.101)" fill="#e4e6e3"/>
    <path id="Path_1511" data-name="Path 1511" d="M18990.848,6395.191h-.018s0,0-.006,0h0a.8.8,0,0,1-.293-.056h0a.007.007,0,0,1-.006,0h-.008l-.064-.028v0h-.006s-.006,0-.006,0h0a1.249,1.249,0,0,1-.164-.112.913.913,0,0,1-.09-.089.89.89,0,0,1-.211-.572.872.872,0,0,1,.3-.666l.572-.492.887-.769,2.688-2.319a.887.887,0,0,1,.572-.211.867.867,0,0,1,.662.3.855.855,0,0,1,.215.571.872.872,0,0,1-.3.661h0l-4.146,3.58h0a.93.93,0,0,1-.123.089h0s0,0-.008,0,0,0-.008,0h0A.9.9,0,0,1,18990.848,6395.191Z" transform="translate(-18515.328 -6220.614)" fill="#e4e6e3"/>
    <path id="Path_1512" data-name="Path 1512" d="M20264.129,5916.407h-10.766a.874.874,0,1,1,0-1.748h10.766a.874.874,0,1,1,0,1.748Z" transform="translate(-19761.074 -5751.728)" fill="#e4e6e3"/>
    <path id="Path_1513" data-name="Path 1513" d="M20441.957,6313.287h-17.895a.874.874,0,1,1,0-1.748h17.895a.874.874,0,1,1,0,1.748Z" transform="translate(-19929.506 -6143.336)" fill="#e4e6e3"/>
    <path id="Path_1514" data-name="Path 1514" d="M20121.172,6667.479h-9.82a.874.874,0,1,1,0-1.748h9.82a.874.874,0,1,1,0,1.748Z" transform="translate(-19620.949 -6492.822)" fill="#e4e6e3"/>
    <path id="Path_1515" data-name="Path 1515" d="M20493.857,7082.45h-12.844a.875.875,0,0,1,0-1.751h12.844a.875.875,0,1,1,0,1.751Z" transform="translate(-19985.701 -6902.279)" fill="#e4e6e3"/>
    <path id="Path_1516" data-name="Path 1516" d="M16686.832,17234.758a.052.052,0,0,0-.012-.01,3.117,3.117,0,0,1-.92-2.221v-21.348a3.112,3.112,0,0,1,.994-2.285l.006,0s-.006,0-.008.008a.872.872,0,0,0,.029,1.3l.768.662a1.343,1.343,0,0,0-.037.32v21.348a1.216,1.216,0,0,0,.008.145l6.531-6.531-7.371,7.369a.877.877,0,0,0,0,1.238S16686.828,17234.756,16686.832,17234.758Zm8.559-19.562-6.262-5.406Z" transform="translate(-16241.859 -16895.941)" fill="#e4e6e3"/>
    <path id="Path_1517" data-name="Path 1517" d="M18519.555,18121.689a.875.875,0,0,1-.623-.26.875.875,0,0,0,.623.26h0Zm.109-.006,0,0Zm0,0a.878.878,0,0,0,.5-.244A.878.878,0,0,1,18519.668,18121.682Zm.762-.873a.869.869,0,0,0-.254-.609l-8.848-8.957h0l8.848,8.957A.869.869,0,0,1,18520.43,18120.809Z" transform="translate(-18043.041 -17786.307)" fill="#e4e6e3"/>
    <path id="Path_1518" data-name="Path 1518" d="M16780.182,18126h-41.893a3.129,3.129,0,0,1-2.211-.908l-.01-.012a.875.875,0,0,1,0-1.238l7.371-7.369,5.189-5.189,1.33,1.146-11.812,11.813c.047,0,.1.008.145.008h41.893a.875.875,0,0,1,0,1.75Zm-12.561-4.346a.871.871,0,0,1-.623-.26h0l-8.932-9.041-3.527,3.045,4.146-3.58h0l.709-.611,8.85,8.957a.877.877,0,0,1-.008,1.238h0a.877.877,0,0,1-.5.244h0l0,0a.827.827,0,0,1-.1.006Zm-13.654-6.043a.9.9,0,0,1-.41-.1h0l0,0s0,0,.006,0l0,0h0a.87.87,0,0,0,.361.094h.033a.863.863,0,0,0,.391-.092h0l.008,0,.006,0h0a.847.847,0,0,0,.164-.113h0A.868.868,0,0,1,16753.967,18115.613Zm-.412-.1,0,0Z" transform="translate(-16291.107 -17786.273)" fill="#e4e6e3"/>
    <path id="Path_1519" data-name="Path 1519" d="M16758.008,17162.072Zm-.008,0h0Zm-.01,0h0Zm-.008,0-.01,0Zm-.01,0a.867.867,0,0,1-.359-.092A.867.867,0,0,0,16757.973,17162.07Zm.424-.09h0Zm-.785,0h0Zm.795,0s0,0,.006,0S16758.408,17161.977,16758.406,17161.977Zm-.807,0a0,0,0,0,0,0,0A0,0,0,0,1,16757.6,17161.973Zm.814,0a.847.847,0,0,0,.164-.113A.847.847,0,0,1,16758.414,17161.973Zm-.984-.117-3.434-2.965-1.328-1.148-11.691-10.09-.768-.662a.878.878,0,0,1-.029-1.3l.008-.006a3.119,3.119,0,0,1,2.143-.852h47.039a.875.875,0,0,1,0,1.75h-46.953l6.264,5.406,9.328,8.053-.572.492a.878.878,0,0,0-.092,1.234A1.221,1.221,0,0,0,16757.43,17161.855Zm1.484-2.6,12.176-10.508a.87.87,0,0,1,.57-.213.88.88,0,0,1,.664.3h0a.88.88,0,0,0-.664-.3.87.87,0,0,0-.57.213l-9.508,8.2h0Zm13.328-9.191Zm.008-.006v0Zm.008-.008v0Zm.008-.008v0Zm.008-.008v0Zm.008-.008Zm.008-.008v0Zm.008-.008v0Zm.008-.01Zm.008-.008h0Zm.008-.008Zm.006-.008h0Zm.006-.008,0,0Zm.008-.008a0,0,0,0,1,0,0A0,0,0,0,0,16772.34,17149.965Zm.008-.01s0,0,0,0S16772.348,17149.953,16772.348,17149.955Zm.006-.008,0,0Zm.006-.008,0,0Zm.008-.01a0,0,0,0,1,0,0A0,0,0,0,0,16772.367,17149.93Zm.006-.008s0,0,0,0S16772.373,17149.92,16772.373,17149.922Zm.006-.01s0,0,0,0S16772.381,17149.912,16772.379,17149.912Zm.008-.01a0,0,0,0,1,0,0A0,0,0,0,0,16772.387,17149.9Zm0-.008s0,0,0,0S16772.391,17149.895,16772.391,17149.895Zm.006-.008,0-.006Zm.006-.008s0-.006,0-.008S16772.4,17149.875,16772.4,17149.879Zm.006-.01.006-.01Zm.006-.01s0,0,0-.006S16772.414,17149.857,16772.414,17149.859Zm0-.008s0,0,.006-.008S16772.42,17149.85,16772.418,17149.852Zm.006-.008s0-.008.006-.01S16772.426,17149.84,16772.424,17149.844Zm.006-.012s0-.006,0-.008S16772.432,17149.828,16772.43,17149.832Zm0-.008a.875.875,0,0,0,.1-.412.908.908,0,0,0-.055-.312.867.867,0,0,1,.055.314A.9.9,0,0,1,16772.434,17149.824Zm.043-.73v0Zm0-.012Z" transform="translate(-16295.148 -16832.732)" fill="#e4e6e3"/>
    <path id="Path_1520" data-name="Path 1520" d="M18373.035,17433.543a.877.877,0,0,0,.3-.664.875.875,0,0,0-1.447-.66h0l9.506-8.207a.883.883,0,0,1,.572-.211.871.871,0,0,1,.662.3h0a.917.917,0,0,1,.15.244h0a.021.021,0,0,0,0,.01h0s0,.006,0,.008h0a.91.91,0,0,1,.057.313.891.891,0,0,1-.1.41h0a.028.028,0,0,0,0,.012h0s0,.006-.006.008v0s0,.006,0,.008a0,0,0,0,1,0,0,.006.006,0,0,0,0,0v0s0,.006-.008.008v0s0,0,0,.006,0,0,0,0,0,0,0,.006,0,0,0,0,0,0,0,0l0,.006v0s0,.006-.006.006a.007.007,0,0,1,0,0s0,0,0,.006,0,0,0,0,0,0,0,.006v0s0,0,0,.006a0,0,0,0,0,0,0l0,0s0,0,0,0,0,0-.006.006v0s0,0-.006.006,0,0,0,0l-.006.006a0,0,0,0,0,0,0s0,0,0,.006,0,0,0,0,0,.006,0,.006v0s-.006.006-.008.008v0s0,0-.008.006v0s0,0-.008.006v0l-.008.006v0l-.008.008h0l-.008.008h0l-.008.006v0s0,0-.008.008h0l-.008.006s0,0,0,0l-.006.006,0,0s-.006,0-.008.006l-8.8,7.592h0Z" transform="translate(-17905.455 -17107.996)" fill="#e4e6e3"/>
    <path id="Path_1521" data-name="Path 1521" d="M18037.775,18046.879h-.033a.842.842,0,0,1-.361-.094h0a.007.007,0,0,1-.006,0,.007.007,0,0,0-.006,0,0,0,0,0,1,0,0s0,0,0,0h0s0,0,0,0a.693.693,0,0,1-.16-.111.714.714,0,0,1-.086-.086.865.865,0,0,1-.213-.572.879.879,0,0,1,.3-.662l.572-.494.906-.783,2.67-2.3a.876.876,0,0,1,1.145,1.326h0l-4.148,3.58h0a.9.9,0,0,1-.164.111l0,0-.006,0a.007.007,0,0,0-.006,0,0,0,0,0,1,0,0A.88.88,0,0,1,18037.775,18046.879Z" transform="translate(-17574.914 -17717.541)" fill="#e4e6e3"/>
    <path id="Path_1522" data-name="Path 1522" d="M19310.961,17567.949H19300.2a.875.875,0,0,1,0-1.75h10.766a.875.875,0,1,1,0,1.75Z" transform="translate(-18820.566 -17248.504)" fill="#e4e6e3"/>
    <path id="Path_1523" data-name="Path 1523" d="M19488.758,17964.848h-17.893a.875.875,0,1,1,0-1.75h17.893a.875.875,0,0,1,0,1.75Z" transform="translate(-18988.969 -17640.129)" fill="#e4e6e3"/>
    <path id="Path_1524" data-name="Path 1524" d="M19167.975,18318.959h-9.818a.875.875,0,1,1,0-1.75h9.818a.875.875,0,1,1,0,1.75Z" transform="translate(-18680.412 -17989.537)" fill="#e4e6e3"/>
    <path id="Path_1525" data-name="Path 1525" d="M19540.7,18734.148h-12.844a.875.875,0,0,1,0-1.75h12.844a.875.875,0,0,1,0,1.75Z" transform="translate(-19045.203 -18399.213)" fill="#e4e6e3"/>
    <path id="Path_1526" data-name="Path 1526" d="M27094.514,6758.223a3.126,3.126,0,0,1-.9-2.206v-21.343a3.108,3.108,0,0,1,.979-2.273.88.88,0,0,0,.043,1.289l12.459,10.752h0l-11.691-10.091a1.447,1.447,0,0,0-.039.323v21.343c0,.049,0,.1.008.145l6.533-6.531-7.369,7.37a.875.875,0,0,0-.018,1.222Zm2.092-.822h0l1.234-1.233Z" transform="translate(-26511.326 -6558.607)" fill="#e4e6e3"/>
    <path id="Path_1527" data-name="Path 1527" d="M28927.393,7079.58a.877.877,0,0,1-.623-.26.878.878,0,0,0,.625.26h0Zm-8.225-10.447h0l8.8-7.594Z" transform="translate(-28312.637 -6883.373)" fill="#e4e6e3"/>
    <path id="Path_1528" data-name="Path 1528" d="M27187.131,7653.617H27146a3.127,3.127,0,0,1-2.221-.919c-.006-.006-.01-.011-.016-.016a.878.878,0,0,1,.016-1.223l7.369-7.37,5.191-5.189h0l4.752,4.1h0l-3.424-2.955-10.578,10.579-1.234,1.232h0a1.2,1.2,0,0,0,.145.008h41.895a.876.876,0,0,1,.875.875.928.928,0,0,1-.039.257A10.5,10.5,0,0,0,27187.131,7653.617Z" transform="translate(-26560.572 -7453.065)" fill="#e4e6e3"/>
    <path id="Path_1529" data-name="Path 1529" d="M28494.434,7643.638a.88.88,0,0,1-.625-.261h0l-8.932-9.041-3.525,3.045,4.145-3.58h0l.711-.612h0l8.848,8.958a.875.875,0,0,1-.592,1.49Zm-13.656-6.043a.888.888,0,0,1-.395-.094l.059.026h0l.006,0a.862.862,0,0,0,.322.064h.008a.857.857,0,0,0,.3-.053.883.883,0,0,0,.273-.159h0A.875.875,0,0,1,28480.777,7637.594Zm-.395-.1h0Z" transform="translate(-27879.676 -7447.431)" fill="#e4e6e3"/>
    <path id="Path_1530" data-name="Path 1530" d="M27165.734,6684.029Zm-.008,0a.888.888,0,0,1-.322-.064A.888.888,0,0,0,27165.727,6684.029Zm.309-.053a.883.883,0,0,0,.271-.159A.893.893,0,0,1,27166.035,6683.977Zm-.637-.014h0Zm-.25-.159-4.754-4.1-12.459-10.752a.879.879,0,0,1-.3-.647.889.889,0,0,1,.26-.642.074.074,0,0,0,.014-.014,3.137,3.137,0,0,1,2.15-.857h47.041a.876.876,0,0,1,0,1.752h-46.953l15.59,13.457,13.082-11.292h0a.875.875,0,0,1,.57-.211h0a.878.878,0,0,0-.57.211l-9.5,8.206h0l-4.148,3.579a.867.867,0,0,0-.3.663.884.884,0,0,0,.211.572C27165.1,6683.754,27165.121,6683.779,27165.148,6683.8Zm15.084-12.2Zm0-.009,0,0Zm0-.009v0Zm0-.01a.883.883,0,0,0,.025-.2.874.874,0,0,0-.1-.417.864.864,0,0,1,.078.618Zm-.078-.618,0,0Zm-.008-.009v0Zm0-.01s0,0,0,0S27180.148,6670.936,27180.148,6670.936Zm0-.009s0,0,0,0S27180.143,6670.926,27180.145,6670.926Zm-.008-.009v0Zm-.006-.009,0,0Zm-.006-.009v0Zm-.025-.038h0Zm-.006-.009Zm-.008-.01Zm-.006-.009h0Zm-.006-.009h0Zm-.008-.01Zm-.008,0v0Z" transform="translate(-26564.633 -6493.867)" fill="#e4e6e3"/>
    <path id="Path_1531" data-name="Path 1531" d="M28780.8,6955.572a.875.875,0,1,0-1.143-1.326h0l9.5-8.206a.887.887,0,0,1,.572-.211h0a.865.865,0,0,1,.662.3h0s.006,0,.008,0h0s0,0,0,0h0s0,0,.006,0h0s0,.01.006.01h0s0,0,.006.009h0s0,0,0,.01h0s0,0,0,.009h0a.021.021,0,0,1,.006.009h0c.008.01.016.023.023.033h0v0h0s0,0,.006,0h0l0,0h0s0,0,0,0h0s0,0,0,0h0s0,0,0,0h0s0,0,0,0h0s0,0,0,0h0v0h0l0,0h0s0,0,0,0h0v0h0s0,0,0,0h0a.876.876,0,0,1,.105.417.888.888,0,0,1-.023.2v0s0,0,0,0v0l0,0s0,0,0,.009h0a.873.873,0,0,1-.273.432h0l-8.8,7.593Z" transform="translate(-28174.979 -6769.201)" fill="#e4e6e3"/>
    <path id="Path_1532" data-name="Path 1532" d="M28445.406,7568.811h-.008a.9.9,0,0,1-.324-.064l0,0h0l-.059-.026h0a.81.81,0,0,1-.187-.13h0a.762.762,0,0,1-.076-.078.874.874,0,0,1,.092-1.235l4.146-3.579a.875.875,0,1,1,1.143,1.325h0l-4.146,3.58h0a.874.874,0,0,1-.572.212Z" transform="translate(-27844.305 -7378.647)" fill="#e4e6e3"/>
    <path id="Path_1533" data-name="Path 1533" d="M29718.73,7089.961h-10.766a.875.875,0,0,1,0-1.75h10.766a.875.875,0,0,1,0,1.75Z" transform="translate(-29090.094 -6909.691)" fill="#e4e6e3"/>
    <path id="Path_1534" data-name="Path 1534" d="M29896.457,7486.87h-17.895a.875.875,0,0,1,0-1.75h17.895a.875.875,0,0,1,0,1.75Z" transform="translate(-29258.424 -7301.328)" fill="#e4e6e3"/>
    <path id="Path_1535" data-name="Path 1535" d="M29575.773,7840.991h-9.82a.875.875,0,0,1,0-1.75h9.82a.875.875,0,0,1,0,1.75Z" transform="translate(-28949.967 -7650.745)" fill="#e4e6e3"/>
    <path id="Path_1536" data-name="Path 1536" d="M14116.171,11846.6l-.011-.012a3.114,3.114,0,0,1-.92-2.221v-21.346a3.11,3.11,0,0,1,.993-2.285.049.049,0,0,0,.011-.01l-.012.012a.875.875,0,0,0,.028,1.3l.769.662a1.344,1.344,0,0,0-.039.32v21.346a1.4,1.4,0,0,0,.008.145l6.531-6.53-7.369,7.37a.876.876,0,0,0,0,1.237Zm10.491-17.9-8.193-7.072Z" transform="translate(-13705.345 -11579.348)" fill="#e4e6e3"/>
    <path id="Path_1537" data-name="Path 1537" d="M16554.4,13491.131c-.025,0-.051,0-.074,0,.023,0,.049,0,.074,0a.879.879,0,0,0,.615-.252A.876.876,0,0,1,16554.4,13491.131Z" transform="translate(-16112.037 -13227.314)" fill="#e4e6e3"/>
    <path id="Path_1538" data-name="Path 1538" d="M14209.482,12738.212h-41.894a3.123,3.123,0,0,1-2.21-.909l-.012-.011a.876.876,0,0,1,0-1.237l7.37-7.371,5.189-5.188,1.329,1.147-11.812,11.811a1.2,1.2,0,0,0,.146.008h41.894a.875.875,0,0,1,0,1.751Zm-12.562-4.345c-.025,0-.049,0-.074,0a.867.867,0,0,1-.548-.258l-8.931-9.039-3.527,3.045,4.146-3.58h0l.709-.611,8.848,8.956a.874.874,0,0,1-.008,1.237h0A.87.87,0,0,1,14196.92,12733.867Zm-13.652-6.044a.865.865,0,0,1-.385-.089l0,0h0s0,0,.008,0h0s0,0,0,0a.863.863,0,0,0,.332.08h.035a.871.871,0,0,0,.458-.13l0,0,0,0a1.131,1.131,0,0,0,.106-.077h0A.884.884,0,0,1,14183.268,12727.823Zm-.385-.089-.008,0Zm-.015-.007Z" transform="translate(-13754.554 -12470.05)" fill="#e4e6e3"/>
    <path id="Path_1539" data-name="Path 1539" d="M14187.277,11774.172Zm-.008,0h0Zm-.01,0h0Zm-.008,0h0Zm-.009,0a.862.862,0,0,1-.333-.079A.862.862,0,0,0,14187.243,11774.171Zm-.337-.081,0,0Zm-.011,0Zm.841-.043h0Zm.008,0a.818.818,0,0,0,.105-.078A.818.818,0,0,1,14187.744,11774.037Zm-1.047-.084-3.432-2.963-1.328-1.146-11.691-10.092-.768-.662a.877.877,0,0,1-.028-1.3l.013-.011a3.126,3.126,0,0,1,2.137-.847h38.932a1.212,1.212,0,0,0-.234.721,1.225,1.225,0,0,0,.561,1.03h-39.172l8.2,7.073,7.4,6.385,13.082-11.291a.875.875,0,0,1,1.234.09h0a.875.875,0,0,0-1.234-.09l-9.507,8.205h0l-4.147,3.58a.874.874,0,0,0-.09,1.233A.965.965,0,0,0,14186.7,11773.953Z" transform="translate(-13758.564 -11516.398)" fill="#e4e6e3"/>
    <path id="Path_1540" data-name="Path 1540" d="M17273.393,11758.721h-7.779a1.225,1.225,0,0,1-.328-1.751h8.107a.875.875,0,1,1,0,1.751Z" transform="translate(-16813.316 -11516.436)" fill="#dee1de"/>
    <path id="Path_1541" data-name="Path 1541" d="M16603.6,12075.064v0Zm.008-.008,0,0Zm.008-.008,0,0Zm.008-.008,0,0Zm.008-.007,0,0Zm.008-.007.006-.006Zm.008-.008.006-.008Zm.008-.008a.871.871,0,0,0,.24-.6.9.9,0,0,0-.064-.334.9.9,0,0,1,.066.335A.881.881,0,0,1,16603.652,12075.012Zm.174-.94a.008.008,0,0,1,0-.006A.008.008,0,0,0,16603.826,12074.071Zm0-.011s0,0,0,0S16603.82,12074.06,16603.822,12074.061Zm-.006-.01v0Zm0-.012Z" transform="translate(-16160.65 -11829.294)" fill="#e4e6e3"/>
    <path id="Path_1542" data-name="Path 1542" d="M15802.295,12045.641a.875.875,0,0,0-.573-1.537.866.866,0,0,0-.571.213h0l9.506-8.206a.877.877,0,0,1,1.234.091h0a.868.868,0,0,1,.131.2h0s0,.006,0,.009h0s0,0,0,0h0a.014.014,0,0,1,0,.006h0l0,0h0s0,0,0,0h0s0,0,0,0h0a.006.006,0,0,1,0,0h0a.864.864,0,0,1,.066.334.879.879,0,0,1-.24.6h0l-.006.008s0,0,0,0l0,.006,0,0,0,0,0,0,0,0-.006.006,0,0-.007.006v0l-.008.006v0l-.008.006-8.8,7.594Z" transform="translate(-15368.861 -11791.66)" fill="#e4e6e3"/>
    <path id="Path_1543" data-name="Path 1543" d="M15466.983,12658.949h-.034a.854.854,0,0,1-.333-.079l0,0h0l-.008,0h0l0,0h0l-.007,0-.007,0h0a.861.861,0,0,1-.181-.124.844.844,0,0,1-.083-.084.876.876,0,0,1,.091-1.235l4.147-3.578a.875.875,0,0,1,1.145,1.324h0l-4.148,3.58h0a.818.818,0,0,1-.105.078l0,0,0,0A.871.871,0,0,1,15466.983,12658.949Z" transform="translate(-15038.269 -12401.176)" fill="#e4e6e3"/>
    <path id="Path_1544" data-name="Path 1544" d="M16740.332,12180.078h-10.768a.875.875,0,0,1,0-1.75h10.768a.875.875,0,0,1,0,1.75Z" transform="translate(-16284.08 -11932.198)" fill="#e4e6e3"/>
    <path id="Path_1545" data-name="Path 1545" d="M16912.25,12577.021h-12.113a.875.875,0,1,1,0-1.751h12.113Z" transform="translate(-16452.385 -12323.867)" fill="#e4e6e3"/>
    <path id="Path_1546" data-name="Path 1546" d="M17883,12577.021h-5.779v-1.751H17883a.875.875,0,0,1,0,1.751Z" transform="translate(-17417.355 -12323.867)" fill="#dee1de"/>
    <path id="Path_1547" data-name="Path 1547" d="M16597.316,12931.148h-9.82a.875.875,0,0,1,0-1.75h9.82a.875.875,0,0,1,0,1.75Z" transform="translate(-16143.898 -12673.292)" fill="#e4e6e3"/>
    <path id="Path_1548" data-name="Path 1548" d="M16968.5,13346.25h-11.357a.875.875,0,0,1,0-1.75h11.357Z" transform="translate(-16508.639 -13082.88)" fill="#e4e6e3"/>
    <path id="Path_1549" data-name="Path 1549" d="M17878.656,13346.25h-1.486v-1.75h1.486a.875.875,0,0,1,0,1.75Z" transform="translate(-17417.307 -13082.88)" fill="#dee1de"/>
    <path id="Path_1550" data-name="Path 1550" d="M23274.516,15957.906a3.115,3.115,0,0,1-.906-2.205v-10.284h1.75v10.284c0,.049,0,.1.008.146l5.9-5.9-6.734,6.735a.871.871,0,0,0-.016,1.222Zm12.574-13.78-3.344-2.886h0l3.344,2.885Z" transform="translate(-22742.066 -15645.128)" fill="#e4e6e3"/>
    <path id="Path_1551" data-name="Path 1551" d="M23275.316,15265.2h-1.75v-11.061a3.108,3.108,0,0,1,.98-2.273.874.874,0,0,0,.041,1.289l9.115,7.869h0l-8.348-7.207a1.367,1.367,0,0,0-.039.322Z" transform="translate(-22742.023 -14964.914)" fill="#dee1de"/>
    <path id="Path_1552" data-name="Path 1552" d="M23499.1,16319.564h0l10.967-10.965Z" transform="translate(-22964.561 -16007.608)" fill="#e4e6e3"/>
    <path id="Path_1553" data-name="Path 1553" d="M23367.891,16167.572H23326a3.124,3.124,0,0,1-2.219-.921.05.05,0,0,1-.016-.017.87.87,0,0,1,.016-1.221l6.734-6.736,5.824-5.824h0l4.75,4.1h0l-3.422-2.953-.848.847-10.965,10.966h0c.049,0,.1.007.145.007h41.895a.876.876,0,0,1,0,1.752Zm-12.562-4.346a.915.915,0,0,1-.178-.019.869.869,0,0,1-.443-.242h0l-8.932-9.041.619-.534h0l.711-.612h0l8.846,8.957a.861.861,0,0,1,.252.609.872.872,0,0,1-.258.628h0A.881.881,0,0,1,23355.328,16163.227Zm-13.652-6.043a.872.872,0,0,1-.359-.077l.023.009h0l0,0a.9.9,0,0,0,.324.064h.008a.865.865,0,0,0,.264-.041.85.85,0,0,0,.268-.138A.876.876,0,0,1,23341.676,16157.184Zm-.363-.08Z" transform="translate(-22791.313 -15853.856)" fill="#e4e6e3"/>
    <path id="Path_1554" data-name="Path 1554" d="M24045.426,15203.6Zm-.008,0a.888.888,0,0,1-.324-.064A.88.88,0,0,0,24045.418,15203.6Zm.27-.041a.864.864,0,0,0,.309-.172c-.012.012-.027.023-.039.033A.863.863,0,0,1,24045.688,15203.559Zm-.6-.025h0Zm-.256-.162-4.748-4.1-3.344-2.885a6.31,6.31,0,0,0,.355-2.008l8.328,7.189,13.082-11.291h0a.866.866,0,0,1,.57-.213h0a.866.866,0,0,0-.57.213l-9.508,8.205h0l-4.146,3.58a.878.878,0,0,0-.092,1.234C24044.785,15203.323,24044.809,15203.348,24044.834,15203.371Zm15.746-15.262H24037.1v-1.75h23.482Z" transform="translate(-23495.063 -14900.274)" fill="#e4e6e3"/>
    <path id="Path_1555" data-name="Path 1555" d="M23337.02,15196.388l-9.113-7.868a.876.876,0,0,1-.043-1.289l.012-.012a3.134,3.134,0,0,1,2.15-.857h7.35v1.75h-7.262l7.262,6.269A6.194,6.194,0,0,1,23337.02,15196.388Z" transform="translate(-22795.342 -14900.276)" fill="#dee1de"/>
    <path id="Path_1556" data-name="Path 1556" d="M24625.438,16088.354h-.008a.888.888,0,0,1-.324-.064l0,0h0l-.021-.009,0,0h0a.833.833,0,0,1-.227-.15h0a.887.887,0,0,1-.074-.074.879.879,0,0,1,.092-1.235l4.146-3.579a.875.875,0,0,1,1.234.09.871.871,0,0,1-.09,1.234h0l-.619.535h0l-3.529,3.045h0a.864.864,0,0,1-.309.172A.852.852,0,0,1,24625.438,16088.354Z" transform="translate(-24075.074 -15785.028)" fill="#e4e6e3"/>
    <path id="Path_1557" data-name="Path 1557" d="M18321.594,8572.574l9.211-7.949,20.895-18.037V8499.96h-60v46.81l20.887,18.03Z" transform="translate(-17826.328 -8302.688)" fill="#f3f4f4"/>
    <path id="Path_1558" data-name="Path 1558" d="M18201.813,8455.166l28.672,24.747,28.879-24.929v-44.842h-57.551Zm28.672,27.591a1.213,1.213,0,0,1-.8-.3l-29.9-25.8a1.226,1.226,0,0,1-.424-.928v-46.811a1.226,1.226,0,0,1,1.227-1.226h60a1.226,1.226,0,0,1,1.225,1.226v46.629a1.227,1.227,0,0,1-.424.928l-30.107,25.985A1.216,1.216,0,0,1,18230.484,8482.757Z" transform="translate(-17735.217 -8211.646)" fill="#52425f"/>
    <path id="Path_1559" data-name="Path 1559" d="M21264.963,11480.1l-29.053,25.08,29.182,29.539a5.016,5.016,0,0,0,1.467-3.547v-47.412A5.012,5.012,0,0,0,21264.963,11480.1Z" transform="translate(-20731.434 -11243.243)" fill="#5091f1"/>
    <path id="Path_1560" data-name="Path 1560" d="M21146.754,11414.246l27.246,27.583a3.777,3.777,0,0,0,.383-1.662v-47.413a3.739,3.739,0,0,0-.521-1.91Zm27.387,30.693h0a1.225,1.225,0,0,1-.871-.363l-29.182-29.539a1.226,1.226,0,0,1,.07-1.79l29.053-25.08a1.224,1.224,0,0,1,1.641.035,6.2,6.2,0,0,1,1.982,4.552v47.413a6.216,6.216,0,0,1-1.824,4.413A1.228,1.228,0,0,1,21174.141,11444.939Z" transform="translate(-20640.48 -11152.237)" fill="#52425f"/>
    <path id="Path_1561" data-name="Path 1561" d="M17543.291,11480.1a5,5,0,0,0-1.592,3.659v47.413a5.008,5.008,0,0,0,1.473,3.56l29.377-29.377Z" transform="translate(-17086.291 -11243.241)" fill="#5091f1"/>
    <path id="Path_1562" data-name="Path 1562" d="M17452.379,11390.838a3.755,3.755,0,0,0-.518,1.91v47.412a3.815,3.815,0,0,0,.389,1.687l27.438-27.437Zm-.27,54.108a1.225,1.225,0,0,1-.865-.357,6.213,6.213,0,0,1-1.834-4.429v-47.412a6.2,6.2,0,0,1,1.977-4.553,1.226,1.226,0,0,1,1.641-.035l29.258,25.256a1.223,1.223,0,0,1,.066,1.795l-29.375,29.376A1.221,1.221,0,0,1,17452.109,11444.946Z" transform="translate(-16995.229 -11152.231)" fill="#52425f"/>
    <path id="Path_1563" data-name="Path 1563" d="M17691.072,13376.3l-9.008-7.774-29.375,29.377a5.009,5.009,0,0,0,3.559,1.474h69.65a5.014,5.014,0,0,0,3.568-1.485l-29.182-29.54Z" transform="translate(-17195.807 -13106.411)" fill="#5091f1"/>
    <path id="Path_1564" data-name="Path 1564" d="M17563.5,13306.672a3.8,3.8,0,0,0,1.684.389h69.65a3.791,3.791,0,0,0,1.707-.4l-27.387-27.722-8.346,7.2a1.226,1.226,0,0,1-1.6,0l-8.145-7.031Zm71.334,2.841h-69.65a6.219,6.219,0,0,1-4.426-1.833,1.227,1.227,0,0,1,0-1.732l29.375-29.377a1.223,1.223,0,0,1,1.666-.062l8.209,7.083,8.412-7.258a1.224,1.224,0,0,1,1.672.066l29.182,29.539a1.228,1.228,0,0,1,0,1.727A6.224,6.224,0,0,1,17634.83,13309.513Z" transform="translate(-17104.74 -13015.325)" fill="#52425f"/>
    <path id="Path_1565" data-name="Path 1565" d="M17669.871,10920.5l-8.371,7.433,8.371,7.226Z" transform="translate(-17204.5 -10691.077)" fill="#6f5dce"/>
    <path id="Path_1566" data-name="Path 1566" d="M17572.285,10836.861l5.285,4.562v-9.255Zm6.51,8.464a1.226,1.226,0,0,1-.8-.3l-8.371-7.227a1.225,1.225,0,0,1-.012-1.843l8.369-7.433a1.227,1.227,0,0,1,2.041.916v14.658a1.225,1.225,0,0,1-1.227,1.226Z" transform="translate(-17113.426 -10600.019)" fill="#52425f"/>
    <path id="Path_1567" data-name="Path 1567" d="M22817.063,10941.943l-8.16-7.244v14.288Z" transform="translate(-22283.531 -10705.087)" fill="#6f5dce"/>
    <path id="Path_1568" data-name="Path 1568" d="M22719.109,10846.389v8.885l5.074-4.38Zm-1.225,12.787a1.225,1.225,0,0,1-1.225-1.225v-14.289a1.225,1.225,0,0,1,2.039-.916l8.16,7.244a1.228,1.228,0,0,1-.014,1.844l-8.16,7.045A1.225,1.225,0,0,1,22717.885,10859.176Z" transform="translate(-22192.516 -10614.051)" fill="#52425f"/>
    <path id="Path_1569" data-name="Path 1569" d="M18797.3,9112.074a2.518,2.518,0,0,0,2.52,2.518h19.4a2.517,2.517,0,0,0,2.518-2.518v-17.746a2.518,2.518,0,0,0-2.518-2.518h-19.4a2.518,2.518,0,0,0-2.52,2.518Z" transform="translate(-18325.215 -8886.678)" fill="#d840e5"/>
    <path id="Path_1570" data-name="Path 1570" d="M18708.8,9001.98a1.293,1.293,0,0,0-1.293,1.291v17.747a1.294,1.294,0,0,0,1.293,1.292h19.4a1.3,1.3,0,0,0,1.295-1.292v-17.747a1.294,1.294,0,0,0-1.295-1.291Zm19.4,22.781h-19.4a3.748,3.748,0,0,1-3.744-3.743v-17.747a3.747,3.747,0,0,1,3.744-3.742h19.4a3.748,3.748,0,0,1,3.746,3.742v17.747A3.748,3.748,0,0,1,18728.2,9024.762Z" transform="translate(-18234.199 -8795.622)" fill="#52425f"/>
    <path id="Path_1571" data-name="Path 1571" d="M16909.689,11262.01h-71.271a1.226,1.226,0,1,1,0-2.451h71.271a1.226,1.226,0,1,1,0,2.451Z" transform="translate(-16391.141 -11025.632)" fill="#52425f"/>
    <path id="Path_1572" data-name="Path 1572" d="M19507.689,12012.342h-27.775a1.226,1.226,0,0,1,0-2.451h27.775a1.226,1.226,0,0,1,0,2.451Z" transform="translate(-18997.553 -11765.997)" fill="#52425f"/>
    <path id="Path_1573" data-name="Path 1573" d="M21085.891,9381h-42.377a1.226,1.226,0,0,1,0-2.451h42.377a1.226,1.226,0,1,1,0,2.451Z" transform="translate(-20540.383 -9169.608)" fill="#52425f"/>
    <path id="Path_1574" data-name="Path 1574" d="M21060.156,10211.25h-16.672a1.225,1.225,0,1,1,0-2.45h16.672a1.225,1.225,0,1,1,0,2.45Z" transform="translate(-20540.354 -9988.83)" fill="#52425f"/>
    <path id="Path_1575" data-name="Path 1575" d="M13783.938,8289.729h-27.773a.875.875,0,0,1,0-1.751h27.773a.875.875,0,0,1,0,1.751Z" transform="translate(-13350.175 -8093.522)" fill="#fbf8f1"/>
    <path id="Path_1576" data-name="Path 1576" d="M16232.488,8289.729h-6.992a.875.875,0,0,1,0-1.751h6.992a.875.875,0,0,1,0,1.751Z" transform="translate(-15786.707 -8093.522)" fill="#fbf8f1"/>
    <path id="Path_1577" data-name="Path 1577" d="M24475.855,18534.547h-11.625a.875.875,0,0,1,0-1.75h11.625a.875.875,0,0,1,0,1.75Z" transform="translate(-23916.01 -18202.262)" fill="#fbf8f1"/>
    <path id="Path_1578" data-name="Path 1578" d="M24072.5,5163.232h-11.625a.876.876,0,0,1,0-1.752h11.625a.876.876,0,0,1,0,1.752Z" transform="translate(-23518.012 -5008.552)" fill="#fbf8f1"/>
    <path id="Path_1579" data-name="Path 1579" d="M25333.984,5163.232h-30.633a.876.876,0,0,1,0-1.752h30.633a.876.876,0,0,1,0,1.752Z" transform="translate(-24743.984 -5008.552)" fill="#fbf8f1"/>
    <path id="Path_1580" data-name="Path 1580" d="M15526.645,16518.76h-3.512a.875.875,0,0,1,0-1.75h3.512a.875.875,0,0,1,0,1.75Z" transform="translate(-15093.674 -16213.25)" fill="#fbf8f1"/>
    <path id="Path_1581" data-name="Path 1581" d="M16185.449,16501.85h-30.635a.875.875,0,0,1,0-1.75h30.635a.875.875,0,1,1,0,1.75Z" transform="translate(-15716.965 -16196.564)" fill="#fbf8f1"/>
    <path id="Path_1582" data-name="Path 1582" d="M23623.166,7840.991h-8.572a.875.875,0,0,1,0-1.75h8.572a.875.875,0,0,1,0,1.75Z" transform="translate(-23077.658 -7650.745)" fill="#fbf8f1"/>
    <path id="Path_1583" data-name="Path 1583" d="M24275.715,8289.729H24260a.875.875,0,0,1,0-1.751h15.719a.875.875,0,0,1,0,1.751Z" transform="translate(-23714.488 -8093.522)" fill="#fbf8f1"/>
    <path id="Path_1584" data-name="Path 1584" d="M13610.307,14472.049h-4.223a.875.875,0,0,1,0-1.75h4.223a.875.875,0,0,1,0,1.75Z" transform="translate(-13202.088 -14193.725)" fill="#fbf8f1"/>
    <path id="Path_1585" data-name="Path 1585" d="M13776.949,15000.46h-20.8a.875.875,0,0,1,0-1.751h20.8a.875.875,0,0,1,0,1.751Z" transform="translate(-13350.155 -14715.116)" fill="#fbf8f1"/>
  </g>
</svg>
