<svg xmlns="http://www.w3.org/2000/svg" width="68" height="68" viewBox="0 0 68 68">
  <path id="exclamation_cr" d="M610,200.5A25.5,25.5,0,1,1,584.5,226,25.5,25.5,0,0,1,610,200.5m0-8.5a34,34,0,1,0,34,34,34,34,0,0,0-34-34Zm0,42.5h0a4.25,4.25,0,0,1,4.25,4.25h0A4.25,4.25,0,0,1,610,243h0a4.25,4.25,0,0,1-4.25-4.25h0A4.25,4.25,0,0,1,610,234.5Zm0-25.5h0a4.25,4.25,0,0,1,4.25,4.25V226a4.25,4.25,0,0,1-4.25,4.25h0a4.25,4.25,0,0,1-4.25-4.25V213.25A4.25,4.25,0,0,1,610,209Z" transform="translate(-576 -192)" fill="#fff" fill-rule="evenodd"/>
</svg>
