<svg xmlns="http://www.w3.org/2000/svg" width="60" height="60" viewBox="0 0 60 60">
  <path id="facebook" d="M52.969,0H7.031A7.039,7.039,0,0,0,0,7.031V52.969A7.039,7.039,0,0,0,7.031,60H52.969A7.039,7.039,0,0,0,60,52.969V7.031A7.039,7.039,0,0,0,52.969,0Zm2.344,52.969a2.347,2.347,0,0,1-2.344,2.344H39.141V38.2h7.5l.874-7.266H39.141V23.086a3.439,3.439,0,0,1,3.516-3.516H47.93v-6.8a52.123,52.123,0,0,0-5.273-.469,10.851,10.851,0,0,0-7.516,3.163,10.671,10.671,0,0,0-3.265,7.639v7.831H24.258V38.2h7.617V55.313H7.031a2.347,2.347,0,0,1-2.344-2.344V7.031A2.347,2.347,0,0,1,7.031,4.688H52.969a2.347,2.347,0,0,1,2.344,2.344Zm0,0" fill="#e15fff"/>
</svg>
