<svg id="find_music_backgroud_music_icon" data-name="find music backgroud music icon" xmlns="http://www.w3.org/2000/svg" width="41" height="41" viewBox="0 0 41 41">
  <path id="Path_507" data-name="Path 507" d="M189.207,122.6V142a6.153,6.153,0,0,0-2.4-.469c-2.694,0-4.8,1.583-4.8,3.6s2.111,3.6,4.8,3.6,4.8-1.583,4.8-3.6V129.221l14.414-4.118v12.089a6.153,6.153,0,0,0-2.4-.469c-2.694,0-4.8,1.583-4.8,3.6s2.111,3.6,4.8,3.6,4.8-1.583,4.8-3.6V117.113Zm-2.4,23.728c-1.466,0-2.4-.711-2.4-1.2s.936-1.2,2.4-1.2,2.4.711,2.4,1.2S188.271,146.333,186.8,146.333Zm4.8-19.61v-2.306l14.414-4.118V122.6Zm12.012,14.805c-1.466,0-2.4-.711-2.4-1.2s.936-1.2,2.4-1.2,2.4.711,2.4,1.2S205.088,141.528,203.621,141.528Zm0,0" transform="translate(-167.426 -107.735)" fill="#f7fafc"/>
  <path id="Path_508" data-name="Path 508" d="M19.219,13.213v-2.4A10.823,10.823,0,0,0,8.408,0h-1.2V19.865a4.8,4.8,0,1,0,2.4,4.158V2.488a8.422,8.422,0,0,1,7.207,8.323v2.4a1.2,1.2,0,1,1-2.4,0v-2.4h-2.4v2.4a3.6,3.6,0,1,0,7.207,0ZM4.8,26.426a2.4,2.4,0,1,1,2.4-2.4A2.4,2.4,0,0,1,4.8,26.426Zm0,0" fill="#f7fafc"/>
</svg>
