<svg xmlns="http://www.w3.org/2000/svg" width="28" height="28" viewBox="0 0 28 28">
  <path id="help_icon" data-name="help icon" d="M18.535,7.761a5.166,5.166,0,0,1,1.217,4.17,4.214,4.214,0,0,1-4.383,3.957h-.152v.73a1.217,1.217,0,0,1-2.435,0v-.974c0-1,.426-2.191,2.587-2.191a1.788,1.788,0,0,0,1.948-1.826,2.826,2.826,0,0,0-.639-2.252,3.629,3.629,0,0,0-2.8-.974c-2.739,0-2.83,1.8-2.83,1.978a1.217,1.217,0,0,1-2.435,0c0-1.217.943-4.413,5.265-4.413A5.912,5.912,0,0,1,18.535,7.761ZM13.909,18.87a1.428,1.428,0,0,0-1.065.457,1.55,1.55,0,0,0-.457,1.065,1.428,1.428,0,0,0,.457,1.065,1.55,1.55,0,0,0,1.065.457,1.428,1.428,0,0,0,1.065-.457,1.55,1.55,0,0,0,.457-1.065,1.428,1.428,0,0,0-.457-1.065A1.494,1.494,0,0,0,13.909,18.87ZM28,14A14,14,0,1,1,14,0,14,14,0,0,1,28,14Zm-2.435,0A11.565,11.565,0,1,0,14,25.565,11.56,11.56,0,0,0,25.565,14Z" fill="#e15fff"/>
</svg>
