<svg xmlns="http://www.w3.org/2000/svg" width="329.728" height="267.428" viewBox="0 0 329.728 267.428">
  <g id="import_video_illustration" data-name="import video illustration" transform="translate(0.01 5.537)">
    <path id="Path_1017" data-name="Path 1017" d="M8982.137,33.214a3.605,3.605,0,0,0-3.6,3.6v179a3.6,3.6,0,0,0,3.6,3.6h127.337a3.605,3.605,0,0,0,3.6-3.6v-179a3.606,3.606,0,0,0-3.6-3.6H8982.137Zm127.337,186.361H8982.137a3.769,3.769,0,0,1-3.766-3.764v-179a3.768,3.768,0,0,1,3.766-3.764h127.337a3.769,3.769,0,0,1,3.766,3.764v179A3.769,3.769,0,0,1,9109.474,219.575Z" transform="translate(-8810.546 -38.587)" fill="#ededeb"/>
    <path id="Path_1018" data-name="Path 1018" d="M14703,12152.567h21.846v-.165H14703Z" transform="translate(-14428.164 -11931.39)" fill="#ededeb"/>
    <path id="Path_1019" data-name="Path 1019" d="M11378,12248.363h5.733v-.164H11378Z" transform="translate(-11165.32 -12025.396)" fill="#ededeb"/>
    <path id="Path_1020" data-name="Path 1020" d="M13990.7,11824.967h12.657v-.163H13990.7Z" transform="translate(-13729.18 -11609.916)" fill="#ededeb"/>
    <path id="Path_1021" data-name="Path 1021" d="M1850.63,11884.266h28.484v-.164H1850.63Z" transform="translate(-1816.046 -11668.106)" fill="#ededeb"/>
    <path id="Path_1022" data-name="Path 1022" d="M3688.5,11884.266h4.176v-.164H3688.5Z" transform="translate(-3619.561 -11668.106)" fill="#ededeb"/>
    <path id="Path_1023" data-name="Path 1023" d="M4638,12033.166h61.775V12033H4638Z" transform="translate(-4551.311 -11814.222)" fill="#ededeb"/>
    <path id="Path_1024" data-name="Path 1024" d="M-.01,11584.767H329.718v-.165H-.01Z" transform="translate(0 -11374.203)" fill="#ededeb"/>
    <path id="Path_1025" data-name="Path 1025" d="M1316.49,1565.975h77.568V1451.36H1316.49Z" transform="translate(-1291.89 -1430.384)" fill="#e0e1e2"/>
    <path id="Path_1026" data-name="Path 1026" d="M1469.21,1565.975h77.568V1451.36H1469.21Z" transform="translate(-1441.756 -1430.384)" fill="#f1f1f0"/>
    <path id="Path_1027" data-name="Path 1027" d="M1671.14,4740.089h69.869V4692.78H1671.14Z" transform="translate(-1639.911 -4611.212)" fill="#ededeb"/>
    <path id="Path_1028" data-name="Path 1028" d="M1671.14,1756.475h69.869V1700.54H1671.14Z" transform="translate(-1639.911 -1674.907)" fill="#fefefe"/>
    <path id="Path_1029" data-name="Path 1029" d="M5277.3,1803.941h2.46V1700.7h-2.46Z" transform="translate(-5178.659 -1675.063)" fill="#e0e1e2"/>
    <path id="Path_1030" data-name="Path 1030" d="M1659.5,4695.316h67.891v-2.5H1659.5Z" transform="translate(-1628.489 -4611.251)" fill="#e0e1e2"/>
    <path id="Path_1031" data-name="Path 1031" d="M1600.59,4472.958h71.188v-4.187H1600.59Z" transform="translate(-1570.68 -4391.39)" fill="#f1f1f0"/>
    <path id="Path_1032" data-name="Path 1032" d="M9813.874,8785.75h-94.539a12.97,12.97,0,0,1-12.974-12.969v-28.139a12.971,12.971,0,0,1,12.974-12.972h94.539a12.969,12.969,0,0,1,12.969,12.972v28.139A12.967,12.967,0,0,1,9813.874,8785.75Z" transform="translate(-9524.928 -8574.604)" fill="#e0e1e2"/>
    <path id="Path_1033" data-name="Path 1033" d="M9474.173,8807.061h-94.539a12.971,12.971,0,0,1-12.974-12.972v-28.138a12.97,12.97,0,0,1,12.974-12.971h94.539a12.97,12.97,0,0,1,12.969,12.971v28.138A12.971,12.971,0,0,1,9474.173,8807.061Z" transform="translate(-9191.577 -8595.515)" fill="#f3f4f4"/>
    <path id="Path_1034" data-name="Path 1034" d="M9808.771,9045.928H9700.042v-11.117a9.061,9.061,0,0,1,9.058-9.061h90.61a9.061,9.061,0,0,1,9.061,9.061Z" transform="translate(-9518.727 -8863.185)" fill="#e0e1e2"/>
    <path id="Path_1035" data-name="Path 1035" d="M9799.749,10271.357h-90.607a9.06,9.06,0,0,1-9.062-9.061v-11.114H9808.81v11.114A9.061,9.061,0,0,1,9799.749,10271.357Z" transform="translate(-9518.765 -10065.71)" fill="#e0e1e2"/>
    <path id="Path_1036" data-name="Path 1036" d="M12887.1,9251.125h19.906v-16.4H12887.1Z" transform="translate(-12646.211 -9068.249)" fill="#e8e7e8"/>
    <path id="Path_1037" data-name="Path 1037" d="M12614.3,9251.125h5.1v-16.4h-5.1Z" transform="translate(-12378.509 -9068.249)" fill="#f3f4f4"/>
    <path id="Path_1038" data-name="Path 1038" d="M12664.366,9788.106a1.677,1.677,0,1,1-1.679-1.678A1.679,1.679,0,0,1,12664.366,9788.106Z" transform="translate(-12424.347 -9609.644)" fill="#e0e1e2"/>
    <path id="Path_1039" data-name="Path 1039" d="M13431.3,9118.334h14.956V9099.4H13431.3Z" transform="translate(-13180.235 -8935.459)" fill="#e8e7e8"/>
    <path id="Path_1040" data-name="Path 1040" d="M13200.4,9118.334h4.324V9099.4h-4.324Z" transform="translate(-12953.654 -8935.459)" fill="#f3f4f4"/>
    <path id="Path_1041" data-name="Path 1041" d="M13239.694,9168.762a1.482,1.482,0,1,1-1.481-1.482A1.483,1.483,0,0,1,13239.694,9168.762Z" transform="translate(-12989.303 -9002.069)" fill="#e0e1e2"/>
    <path id="Path_1042" data-name="Path 1042" d="M13239.694,9168.762a1.482,1.482,0,1,1-1.481-1.482A1.483,1.483,0,0,1,13239.694,9168.762Z" transform="translate(-12989.303 -9002.069)" fill="#e0e1e2"/>
    <path id="Path_1043" data-name="Path 1043" d="M13667,9251.125h12.607v-16.4H13667Z" transform="translate(-13411.532 -9068.249)" fill="#ededeb"/>
    <path id="Path_1044" data-name="Path 1044" d="M13512.9,9251.125h2.881v-16.4h-2.881Z" transform="translate(-13260.313 -9068.249)" fill="#f3f4f4"/>
    <path id="Path_1045" data-name="Path 1045" d="M14219.1,9396.84h16.533v-13.63H14219.1Z" transform="translate(-13953.313 -9213.962)" fill="#e8e7e8"/>
    <path id="Path_1046" data-name="Path 1046" d="M13992.5,9396.84h4.236v-13.63h-4.236Z" transform="translate(-13730.945 -9213.962)" fill="#f3f4f4"/>
    <path id="Path_1047" data-name="Path 1047" d="M14671.1,9286.521h12.422v-15.73H14671.1Z" transform="translate(-14396.862 -9103.646)" fill="#e8e7e8"/>
    <path id="Path_1048" data-name="Path 1048" d="M14479.3,9286.521h3.592v-15.73h-3.592Z" transform="translate(-14208.646 -9103.646)" fill="#f3f4f4"/>
    <path id="Path_1049" data-name="Path 1049" d="M14867,9396.84h12.07v-13.63H14867Z" transform="translate(-14589.099 -9213.962)" fill="#e8e7e8"/>
    <path id="Path_1050" data-name="Path 1050" d="M14738.8,9396.84h2.393v-13.63h-2.393Z" transform="translate(-14463.295 -9213.962)" fill="#f1f1f0"/>
    <path id="Path_1051" data-name="Path 1051" d="M10582,10436.105h15.411v-16.4H10582Z" transform="translate(-10384.199 -10231.078)" fill="#e8e7e8"/>
    <path id="Path_1052" data-name="Path 1052" d="M10370.9,10436.105h3.946v-16.4h-3.946Z" transform="translate(-10177.046 -10231.078)" fill="#f3f4f4"/>
    <path id="Path_1053" data-name="Path 1053" d="M11003.3,10303.335h11.574V10284.4H11003.3Z" transform="translate(-10797.623 -10098.307)" fill="#e8e7e8"/>
    <path id="Path_1054" data-name="Path 1054" d="M10824.5,10303.335h3.346V10284.4h-3.346Z" transform="translate(-10622.167 -10098.307)" fill="#f3f4f4"/>
    <path id="Path_1055" data-name="Path 1055" d="M13394.3,10436.105h15.41v-16.4h-15.41Z" transform="translate(-13143.929 -10231.078)" fill="#e8e7e8"/>
    <path id="Path_1056" data-name="Path 1056" d="M13183.2,10436.105h3.943v-16.4h-3.943Z" transform="translate(-12936.776 -10231.078)" fill="#f3f4f4"/>
    <path id="Path_1057" data-name="Path 1057" d="M13815.6,10303.335h11.577V10284.4H13815.6Z" transform="translate(-13557.352 -10098.307)" fill="#e8e7e8"/>
    <path id="Path_1058" data-name="Path 1058" d="M13636.8,10303.335h3.346V10284.4h-3.346Z" transform="translate(-13381.896 -10098.307)" fill="#f3f4f4"/>
    <path id="Path_1059" data-name="Path 1059" d="M11185.8,10436.105h9.759v-16.4h-9.759Z" transform="translate(-10976.712 -10231.078)" fill="#ededeb"/>
    <path id="Path_1060" data-name="Path 1060" d="M11066.5,10436.105h2.23v-16.4h-2.23Z" transform="translate(-10859.643 -10231.078)" fill="#f3f4f4"/>
    <path id="Path_1061" data-name="Path 1061" d="M11613,10581.831h12.8V10568.2H11613Z" transform="translate(-11395.926 -10376.805)" fill="#e8e7e8"/>
    <path id="Path_1062" data-name="Path 1062" d="M11437.7,10581.831h3.276V10568.2h-3.276Z" transform="translate(-11223.903 -10376.805)" fill="#f3f4f4"/>
    <path id="Path_1063" data-name="Path 1063" d="M11963,10471.529h9.615V10455.8H11963Z" transform="translate(-11739.385 -10266.503)" fill="#e8e7e8"/>
    <path id="Path_1064" data-name="Path 1064" d="M11814.5,10471.529h2.783V10455.8h-2.783Z" transform="translate(-11593.66 -10266.503)" fill="#f3f4f4"/>
    <path id="Path_1065" data-name="Path 1065" d="M12114.6,10581.831h9.344V10568.2h-9.344Z" transform="translate(-11888.148 -10376.805)" fill="#e8e7e8"/>
    <path id="Path_1066" data-name="Path 1066" d="M12015.4,10581.831h1.85V10568.2h-1.85Z" transform="translate(-11790.805 -10376.805)" fill="#f1f1f0"/>
    <path id="Path_1067" data-name="Path 1067" d="M11617.318,7832.013a1.654,1.654,0,0,0-1.759-.879,1.745,1.745,0,0,0-1.308,1.519,1.471,1.471,0,0,0-1.669-.042,1.661,1.661,0,0,0-.671,1.615,1.227,1.227,0,0,0-1.783.362,1.376,1.376,0,0,0,.545,1.831.884.884,0,0,0,.043,1.76.956.956,0,0,0-.877.84.987.987,0,0,0,.659,1.036.806.806,0,0,0-.19,1.24.723.723,0,0,0,1.141-.36.235.235,0,0,0,.373.059.263.263,0,0,0-.071-.393.436.436,0,0,0,.752-.193,1.087,1.087,0,0,0,1.471,1.158.669.669,0,0,0,.438.9,1.5,1.5,0,0,0,1.061-.209,2.4,2.4,0,0,1,1.046-.351,3.4,3.4,0,0,1,.931.26,2.8,2.8,0,0,0,2.839-.752,1.212,1.212,0,0,0,2.027-.307.908.908,0,0,0,.8.721.889.889,0,0,0,.866-.623c.01.173.019.346.023.52a1.076,1.076,0,0,0,1.1-1.441,1.1,1.1,0,0,0,1.049-.956,1.14,1.14,0,0,0-.782-1.208,2.131,2.131,0,0,0,.04-4.042,1.007,1.007,0,0,0-.969.133.614.614,0,0,0,0,.919,1.954,1.954,0,0,0-.835-2.2,1.739,1.739,0,0,0-2.2.471,1.1,1.1,0,0,0,.01-1.217.968.968,0,0,0-1.1-.368,1.1,1.1,0,0,0-1.188-.9,1.145,1.145,0,0,0-.892,1.223.557.557,0,0,0-1.008-.189C11616.932,7831.859,11617.318,7832.013,11617.318,7832.013Z" transform="translate(-11392.818 -7690.67)" fill="#ededeb"/>
    <path id="Path_1068" data-name="Path 1068" d="M11951.793,8141.646a1.011,1.011,0,0,0-.754-.181.693.693,0,0,0-.551.513.537.537,0,0,0,.368.622.923.923,0,0,0,.492-.065,1.051,1.051,0,0,1,.455-.072,2.926,2.926,0,0,1,.331.1,1.619,1.619,0,0,0,1.3-.462,1.437,1.437,0,0,0,.362-.346.469.469,0,0,0,.036-.476.623.623,0,0,0-.627-.205,2.507,2.507,0,0,0-1.276.534c.009-.073.024-.144.032-.218Z" transform="translate(-11727.095 -7995.04)" fill="#f9f8f8"/>
    <path id="Path_1069" data-name="Path 1069" d="M12332.054,8139.178a1.143,1.143,0,0,0-.4-.21.409.409,0,0,0-.417.115.416.416,0,0,0,.117.552,1.206,1.206,0,0,0,.584.2c.211.033.481.041.584-.145a.367.367,0,0,0-.1-.426,1.074,1.074,0,0,0-.418-.205Z" transform="translate(-12100.674 -7992.965)" fill="#f9f8f8"/>
    <path id="Path_1070" data-name="Path 1070" d="M11767.972,7933.678a1.471,1.471,0,0,0-.855,1.022c-.029.137-.026.308.093.379a.383.383,0,0,0,.289.008l1.222-.29a1.708,1.708,0,0,0-.55.291.585.585,0,0,0-.209.561.562.562,0,0,0,.563.38,1.223,1.223,0,0,0,.678-.269.859.859,0,0,0,.424-.626c0-.264-.326-.506-.526-.337a4.485,4.485,0,0,0,1.314-.6,1.273,1.273,0,0,0,.379-.354.517.517,0,0,0,.039-.5c-.418-.759-.947.354-1.2.454a1.126,1.126,0,0,1-.744-.075A1.272,1.272,0,0,0,11767.972,7933.678Z" transform="translate(-11547.147 -7790.94)" fill="#f9f8f8"/>
    <path id="Path_1071" data-name="Path 1071" d="M11694.149,8095.7a.41.41,0,0,0,.106.425.26.26,0,0,0,.392-.081,1.4,1.4,0,0,0-.736.413c-.169.232-.127.632.144.721a.663.663,0,0,0,.508-.113,9,9,0,0,0,1.265-.832c-.122.279.171.6.475.624a1.454,1.454,0,0,0,.85-.3c.32-.194.688-.492.6-.856a.626.626,0,0,0-.792-.365,1.821,1.821,0,0,0-.766.588c.171-.252-.074-.622-.372-.662a.9.9,0,0,0-.765.353c.339-.187.415-.673-.04-.729C11694.724,8094.851,11694.221,8095.454,11694.149,8095.7Z" transform="translate(-11475.225 -7949.722)" fill="#f9f8f8"/>
    <path id="Path_1072" data-name="Path 1072" d="M12165.249,8078.648a.492.492,0,1,0-.248.946.781.781,0,0,0-.519.271.41.41,0,0,0-.108.3.376.376,0,0,0,.368.279,1.1,1.1,0,0,0,.475-.133.876.876,0,0,0-.469.135.3.3,0,0,0-.069.431.4.4,0,0,0,.392.044,1.96,1.96,0,0,0,.8-.451.774.774,0,0,0,.671.283.456.456,0,0,0,.382-.548.486.486,0,0,0-.412-.3,1.227,1.227,0,0,0-.531.083,1.029,1.029,0,0,0,.427-.469c.063-.207-.076-.484-.292-.468-.242.02-.366.35-.556.468C12165.323,8079.3,12165.766,8078.841,12165.249,8078.648Z" transform="translate(-11936.99 -7933.759)" fill="#f9f8f8"/>
    <path id="Path_1073" data-name="Path 1073" d="M11959.52,8021.239a.98.98,0,0,0-.352.885,1.026,1.026,0,0,0,.521.905.836.836,0,0,0,1.077-.65,1.178,1.178,0,0,0-.659-1.183A.643.643,0,0,0,11959.52,8021.239Z" transform="translate(-11735.62 -7877.357)" fill="#f9f8f8"/>
    <path id="Path_1074" data-name="Path 1074" d="M12098.061,7985.808l.114.1a.551.551,0,1,0,0,.686.829.829,0,0,0,.966-.18.631.631,0,0,0-.131-.917.51.51,0,0,0-.739.437l-.133-.148Z" transform="translate(-11871.076 -7842.322)" fill="#f9f8f8"/>
    <path id="Path_1075" data-name="Path 1075" d="M12296.795,8033.764a1.772,1.772,0,0,0-.526.74.6.6,0,0,0,.349.747c.3.076.577-.167.745-.421a.924.924,0,0,0,.182-.775c-.088-.262-.464-.416-.651-.214Z" transform="translate(-12066.399 -7889.726)" fill="#f9f8f8"/>
    <path id="Path_1076" data-name="Path 1076" d="M12012.832,7896.586a.5.5,0,0,0-.7-.192.606.606,0,0,0-.215.721.768.768,0,0,0,.631.453c.335.036.729-.234.655-.562a.715.715,0,0,0,.642.241,1.684,1.684,0,0,0,.665-.249c.281-.161.583-.412.553-.736a.579.579,0,0,0-.53-.479.973.973,0,0,0-.707.264c-.156.132-.284.294-.45.408a.565.565,0,0,1-.574.082Z" transform="translate(-11787.349 -7754.338)" fill="#f9f8f8"/>
    <path id="Path_1077" data-name="Path 1077" d="M11800.474,8294.3h-8.446l-.826-8.51h10.1Z" transform="translate(-11570.796 -8137.057)" fill="#f1f1f0"/>
    <path id="Path_1078" data-name="Path 1078" d="M11752.4,8249.843h-11.489l-.208-1.133h11.9Z" transform="translate(-11521.239 -8100.669)" fill="#f9f8f8"/>
    <path id="Path_1079" data-name="Path 1079" d="M11309.2,9522.419h-9.694l3.038-9.787.444-1.431h2.193Z" transform="translate(-11088.288 -9339.562)" fill="#ededeb"/>
    <path id="Path_1080" data-name="Path 1080" d="M10657.972,9511.2l-.446,1.431-3.036,9.787-8.961-.133-2.882-9.654-.444-1.431Z" transform="translate(-10443.275 -9339.562)" fill="#e0e1e2"/>
    <path id="Path_1081" data-name="Path 1081" d="M10336.789,9511.2l-.444,1.431-3.038,9.787-18.405-.273,3.925-10.944Z" transform="translate(-10122.092 -9339.562)" fill="#f9f8f8"/>
    <path id="Path_1082" data-name="Path 1082" d="M10515.977,9511.2l-.445,1.431H10497.5l.509-1.431Z" transform="translate(-10301.28 -9339.562)" fill="#ededeb"/>
    <path id="Path_1083" data-name="Path 1083" d="M10430,9627.1h3.333l1.028-3.281-3.186-.037Zm3.575.332h-4.042l1.409-3.982,3.866.045Z" transform="translate(-10234.582 -9449.713)" fill="#ededeb"/>
    <path id="Path_1084" data-name="Path 1084" d="M10671.93,9627.1h3.331l1.03-3.281-3.187-.037Zm3.574.332h-4.043l1.41-3.982,3.866.045Z" transform="translate(-10471.986 -9449.713)" fill="#ededeb"/>
    <path id="Path_1085" data-name="Path 1085" d="M10913.789,9627.1h3.332l1.03-3.281-3.187-.037Zm3.575.332h-4.044l1.41-3.982,3.867.045Z" transform="translate(-10709.324 -9449.713)" fill="#ededeb"/>
    <path id="Path_1086" data-name="Path 1086" d="M11155.686,9627.1h3.335l1.028-3.281-3.187-.037Zm3.576.332h-4.041l1.41-3.982,3.863.045Z" transform="translate(-10946.704 -9449.713)" fill="#ededeb"/>
    <path id="Path_1087" data-name="Path 1087" d="M10354.5,9853.03h3.333l1.027-3.283-3.187-.034Zm3.572.332h-4.041l1.412-3.983,3.866.044Z" transform="translate(-10160.488 -9671.417)" fill="#ededeb"/>
    <path id="Path_1088" data-name="Path 1088" d="M10596.4,9853.03h3.333l1.027-3.283-3.187-.034Zm3.574.332h-4.04l1.411-3.983,3.862.044Z" transform="translate(-10397.871 -9671.417)" fill="#ededeb"/>
    <path id="Path_1089" data-name="Path 1089" d="M10838.289,9853.03h3.335l1.027-3.283-3.187-.034Zm3.574.332h-4.041l1.412-3.983,3.864.044Z" transform="translate(-10635.239 -9671.417)" fill="#ededeb"/>
    <path id="Path_1090" data-name="Path 1090" d="M11080.227,9853.03h3.334l1.03-3.283-3.188-.034Zm3.576.332h-4.041l1.409-3.983,3.864.044Z" transform="translate(-10872.655 -9671.417)" fill="#ededeb"/>
    <path id="Path_1091" data-name="Path 1091" d="M14577.1,7924.595a8.073,8.073,0,0,0,.874,4.284,2.273,2.273,0,0,0,1.925,1.014h3.009a2.267,2.267,0,0,0,1.925-1.014,8.054,8.054,0,0,0,.874-4.284c0-3.013-1.313-5.427-1.745-7.354a10.975,10.975,0,0,1,.359-2.82h-5.837a10.888,10.888,0,0,1,.359,2.82C14578.417,7919.168,14577.1,7921.582,14577.1,7924.595Z" transform="translate(-14304.618 -7772.629)" fill="#f1f1f0"/>
    <path id="Path_1092" data-name="Path 1092" d="M14820.445,7136.021a3.12,3.12,0,0,0-1.561,1.01c-.572.763.418,2.563.418,2.563a2.43,2.43,0,0,0,2.1.67l1.164-.284s-1.229-3.527-2.111-3.725Z" transform="translate(-14541.708 -7008.78)" fill="#ededeb"/>
    <path id="Path_1093" data-name="Path 1093" d="M14896.268,7081.35c-.152,1.532-1.443,3.257-2.816,3.119s-2.291-2.087-2.135-3.619,1.268-1.474,2.635-1.335S14896.424,7079.816,14896.268,7081.35Z" transform="translate(-14612.943 -6953.267)" fill="#ededeb"/>
    <path id="Path_1094" data-name="Path 1094" d="M14946.482,7117.43a3.893,3.893,0,0,0,3.084.936S14945.8,7119.965,14946.482,7117.43Z" transform="translate(-14667.014 -6990.538)" fill="#ededeb"/>
    <path id="Path_1095" data-name="Path 1095" d="M15002.4,7107.1s1.227.018,1.15.517c0,0,1.02.134.959-.313S15002.4,7107.1,15002.4,7107.1Z" transform="translate(-14721.967 -6980.333)" fill="#ededeb"/>
    <path id="Path_1096" data-name="Path 1096" d="M14946.482,7117.43a3.893,3.893,0,0,0,3.084.936S14945.8,7119.965,14946.482,7117.43Z" transform="translate(-14667.014 -6990.538)" fill="#e0e1e2"/>
    <path id="Path_1097" data-name="Path 1097" d="M15002.4,7107.1s1.227.018,1.15.517c0,0,1.02.134.959-.313S15002.4,7107.1,15002.4,7107.1Z" transform="translate(-14721.967 -6980.333)" fill="#e0e1e2"/>
    <path id="Path_1098" data-name="Path 1098" d="M14880.9,7214.613a2.247,2.247,0,0,0,1.932,1.354,3,3,0,0,0,2.248-.893,4.577,4.577,0,0,0,1.176-2.16c.055-.208.17-.733-.094-.867-.242-.121-.467.206-.615.349a8.256,8.256,0,0,1-1.381,1.109,7.494,7.494,0,0,1-1.568.745C14882.441,7214.3,14880.949,7214.749,14880.9,7214.613Z" transform="translate(-14602.736 -7083.359)" fill="#ededeb"/>
    <path id="Path_1099" data-name="Path 1099" d="M15074.863,7177.258a1.982,1.982,0,0,1-.59,1.838,3.5,3.5,0,0,1-1.16.632c-.289.106-.652.193-.873-.021-.242-.228-.141-.625-.02-.934q.287-.713.609-1.408a5.119,5.119,0,0,1,.664-1.333c.281-.279.559-.03.846.266A1.957,1.957,0,0,1,15074.863,7177.258Z" transform="translate(-14790.356 -7047.925)" fill="#ededeb"/>
    <path id="Path_1100" data-name="Path 1100" d="M14852.4,7182.98a1.413,1.413,0,0,1-1.035-1.086c-.074-.386.1-1.295.592-1.322A6.44,6.44,0,0,0,14852.4,7182.98Z" transform="translate(-14573.742 -7052.499)" fill="#e0e1e2"/>
    <path id="Path_1101" data-name="Path 1101" d="M15106.4,7214.116a1.611,1.611,0,0,0,1.244-.833c.129-.253.287-1.652-.232-1.15-.17.164-.258.772-.371,1.005A5.234,5.234,0,0,1,15106.4,7214.116Z" transform="translate(-14824.025 -7083.364)" fill="#e0e1e2"/>
    <path id="Path_1102" data-name="Path 1102" d="M14918.275,7347.769a1.157,1.157,0,0,0,1.375.3c-.1.256-.984.319-1.256.348-.717.071-1.014-.295-1.623-.694C14916.771,7347.721,14917.787,7348.077,14918.275,7347.769Z" transform="translate(-14637.938 -7216.523)" fill="#e0e1e2"/>
    <path id="Path_1103" data-name="Path 1103" d="M14764.2,7442.306l1.689-17.031,2.227-6.043.389.143-2.223,6.015-1.76,17.381Z" transform="translate(-14488.222 -7286.697)" fill="#e8e7e8"/>
    <path id="Path_1104" data-name="Path 1104" d="M14747,7464.216l-.367.186a11.858,11.858,0,0,1-.645-1.78,14.735,14.735,0,0,0-1.424-3.455l.354-.217a15.084,15.084,0,0,1,1.465,3.549A11.727,11.727,0,0,0,14747,7464.216Z" transform="translate(-14468.948 -7325.673)" fill="#e8e7e8"/>
    <path id="Path_1105" data-name="Path 1105" d="M14820.692,7470.254a2.408,2.408,0,0,0,1.535-.706,4.817,4.817,0,0,0,.939-1.7c-.748.078-1.445-.41-2.193-.465a1.968,1.968,0,0,0-1.605.665c-.506.588-.8,1.307-.521,1.673A2.534,2.534,0,0,0,14820.692,7470.254Z" transform="translate(-14541.736 -7333.945)" fill="#f1f1f0"/>
    <path id="Path_1106" data-name="Path 1106" d="M14586.194,7496.044a2.862,2.862,0,0,1,2.408-.386,2.146,2.146,0,0,1,1.313,1.464,1.35,1.35,0,0,1-1.289.507,3.986,3.986,0,0,1-1.357-.512,3.985,3.985,0,0,0-1.356-.513Z" transform="translate(-14313.266 -7361.58)" fill="#f1f1f0"/>
    <path id="Path_1107" data-name="Path 1107" d="M14633.475,7352.382c-.979.109-1.856.3-2.742-.809-.6-.745-.4-1.87-.362-2.762a19.58,19.58,0,0,1,3.2,1.352,1.562,1.562,0,0,1,.86,1.043.9.9,0,0,1-.71,1.014Z" transform="translate(-14356.829 -7217.594)" fill="#f1f1f0"/>
    <path id="Path_1108" data-name="Path 1108" d="M14615.226,8066.348a8.143,8.143,0,0,0-.638,3.493c.023.226.094.48.255.521s.3-.148.354-.352a2.546,2.546,0,0,0,.039-.634c0-1.827.989-3.366,1.177-5.148.055-.507-.076-2.105-.373-.93C14615.774,8064.344,14615.585,8065.325,14615.226,8066.348Z" transform="translate(-14341.379 -7918.31)" fill="#f9f8f8"/>
    <path id="Path_1109" data-name="Path 1109" d="M6783.044,6293.564s1.918-21.239-6.522-31.6,6.589-.929,9.25,9.4c0,0,.5-19.105-7.924-31.487s5.933-3.116,8.437,10.388c0,0,.477-17.049-3.731-26.09s2.069-3.658,4.843,1.993,1.4,20.638,1.4,20.638,2.949-27.765,8.547-26.26-6.036,20.87-6.966,30.322c0,0,5.089-13.187,10.164-11.183s-7.063,4.772-10.811,23.97l-1.1,8.922s4.6-12.963,8.808-9.558-10.254,11.909-11.9,30.911Z" transform="translate(-6647.358 -6109.24)" fill="#00adb0"/>
    <path id="Path_1110" data-name="Path 1110" d="M6169.448,5443.533s-1.8-26.268,8.895-38.778-8.107-1.357-11.668,11.3c0,0-.1-23.591,10.622-38.6s-7.238-4.034-10.689,12.547c0,0-.132-21.053,5.3-32.072s-2.455-4.581-6.029,2.3-2.272,25.422-2.272,25.422-2.9-34.351-9.846-32.674,6.888,25.941,7.783,37.636c0,0-5.926-16.436-12.24-14.125s8.586,6.115,12.7,29.922l1.115,11.044s-5.33-16.143-10.612-12.075,12.333,15.022,13.85,38.521Z" transform="translate(-6032.854 -5258.11)" fill="#00adb0"/>
    <path id="Path_1111" data-name="Path 1111" d="M6363.539,10044.761c0,7.208-7.814,13.057-17.456,13.057s-17.461-5.849-17.461-13.057a11.275,11.275,0,0,1,4.207-8.492l-2.064-8.737H6361.4l-2.063,8.737A11.275,11.275,0,0,1,6363.539,10044.761Z" transform="translate(-6210.329 -9846.238)" fill="#ededeb"/>
    <path id="Path_1114" data-name="Path 1114" d="M2235.191,12370.645c0,6.076-57.244,11-127.861,11s-127.861-4.926-127.861-11,57.245-11,127.861-11S2235.191,12364.568,2235.191,12370.645Z" transform="translate(-1942.477 -12134.756)" fill="rgba(168,24,137,0.22)"/>
    <path id="Path_1115" data-name="Path 1115" d="M8257.57,6661.662l1.644-9.511,3.241.937Z" transform="translate(-8103.22 -6533.956)" fill="#4b7abc"/>
    <path id="Path_1116" data-name="Path 1116" d="M8315.568,7019.3l9.272-2.678-1.285-3.12Z" transform="translate(-8160.134 -6888.551)" fill="#4b7abc"/>
    <path id="Path_1117" data-name="Path 1117" d="M8404.041,6608.058l5.28-9.988,3.557,2.472Z" transform="translate(-8246.953 -6480.885)" fill="#4b7abc"/>
    <path id="Path_1118" data-name="Path 1118" d="M3498.977,7899.21H3494.8a.33.33,0,1,1,0-.659h4.176a.33.33,0,1,1,0,.659Z" transform="translate(-3429.157 -7757.057)" fill="#4b7abc"/>
    <path id="Path_1119" data-name="Path 1119" d="M2248.109,7899.21H2227.19a.33.33,0,1,1,0-.659h20.919a.33.33,0,1,1,0,.659Z" transform="translate(-2185.243 -7757.057)" fill="#4b7abc"/>
    <path id="Path_1120" data-name="Path 1120" d="M7315.273,9829.145a.317.317,0,0,1-.223-.086.33.33,0,0,1-.019-.465l1.955-2.123a.329.329,0,1,1,.485.445l-1.954,2.123A.325.325,0,0,1,7315.273,9829.145Z" transform="translate(-7178.215 -9648.832)" fill="#4b7abc"/>
    <path id="Path_1121" data-name="Path 1121" d="M6358.893,10064.67a.333.333,0,0,1-.295-.183.33.33,0,0,1,.146-.443c6.109-3.094,15.8-14.66,15.892-14.776a.331.331,0,0,1,.464-.042.327.327,0,0,1,.042.464c-.4.481-9.87,11.786-16.1,14.943Z" transform="translate(-6239.709 -9867.455)" fill="#4b7abc"/>
    <path id="Path_1122" data-name="Path 1122" d="M8273.913,9890.978l4.7-3.9-11.853-11.251-5.061,4.317Z" transform="translate(-8107.274 -9697.374)" fill="#e58067"/>
    <path id="Path_1123" data-name="Path 1123" d="M9170.251,10391.992a.509.509,0,0,1-.207.494,1.163,1.163,0,0,1-.532.218,3.527,3.527,0,0,1-.806.044,9.2,9.2,0,0,1-1.252-.159c-.1-.02-.205-.039-.31-.063a8.463,8.463,0,0,1,1.756-.609,7.64,7.64,0,0,1,.976-.161.534.534,0,0,1,.28.069A.2.2,0,0,1,9170.251,10391.992Zm.066-.432a2.447,2.447,0,0,0-1.632.081c-.317.091-.643.2-.937.307-.229.083-.442.168-.619.242-.262.113-.458.2-.524.23a.148.148,0,0,0-.1.138l.02.067.094.069a11.374,11.374,0,0,0,2.04.345,2.357,2.357,0,0,0,1.009-.074l.046-.011a2.539,2.539,0,0,0,.536-.242.838.838,0,0,0,.313-.729A.514.514,0,0,0,9170.317,10391.561Z" transform="translate(-8995.16 -10203.355)" fill="#4b7abc"/>
    <path id="Path_1124" data-name="Path 1124" d="M9196.766,10264.252c.113.256-.108.847-.439,1.427a5.538,5.538,0,0,1-.717.986,4.381,4.381,0,0,1,.1-1.789,1.316,1.316,0,0,1,.169-.355.828.828,0,0,1,.456-.337l.091-.015C9196.7,10264.117,9196.753,10264.222,9196.766,10264.252Zm-.393-.392a1.131,1.131,0,0,0-.751.484,1.381,1.381,0,0,0-.134.252,4.621,4.621,0,0,0-.146,2.373l.009.032.1.115.093.01.058-.032a3.256,3.256,0,0,0,.361-.368,5.975,5.975,0,0,0,.563-.789c.406-.664.7-1.417.519-1.807C9196.97,10263.967,9196.8,10263.792,9196.373,10263.86Z" transform="translate(-9023.372 -10078.137)" fill="#4b7abc"/>
    <path id="Path_1125" data-name="Path 1125" d="M8807.989,10438.451l-5.909,2.983a.517.517,0,0,0-.277.618l1.738,5.531a1.043,1.043,0,0,0,1.331.633l.1-.043c10.117-3.558,13.222-6.072,14.278-6.648,3.012-1.643,1.319-3.78.2-3.513-5.047,1.209-6.741.9-8.924.331A5.283,5.283,0,0,0,8807.989,10438.451Z" transform="translate(-8637.257 -10249.025)" fill="#313f44"/>
    <path id="Path_1126" data-name="Path 1126" d="M8510.792,10327.818l-1.373-1.22h0l1.373,1.22Z" transform="translate(-8350.36 -10139.717)" fill="#bdc3cd"/>
    <path id="Path_1127" data-name="Path 1127" d="M8510.863,10280.224l-1.374-1.215,1.813-.908.839,1.033Z" transform="translate(-8350.43 -10092.125)" fill="#b96956"/>
    <path id="Path_1128" data-name="Path 1128" d="M8359.7,10193.8h0l0,0h0Z" transform="translate(-8203.439 -10009.399)" fill="#bdc3cd"/>
    <path id="Path_1129" data-name="Path 1129" d="M8359.811,10186.343h0l.165-.143v0Z" transform="translate(-8203.548 -10001.941)" fill="#b96956"/>
    <path id="Path_1130" data-name="Path 1130" d="M8283.234,9870.79l7.553-6.959-1.662-2.921-8.734,7.5Z" transform="translate(-8125.614 -9682.733)" fill="#4b7abc"/>
    <path id="Path_1131" data-name="Path 1131" d="M8283.234,10190.1l-2.844-2.383,1.649-1.416,1.982,2.947.3-.148Z" transform="translate(-8125.614 -10002.042)" fill="#9fbce2"/>
    <path id="Path_1132" data-name="Path 1132" d="M4789.462,8516.381l-1.011.871-1.512,1.3-.9.769-2.632,2.263-.505.432s-10.759-6.062-16.744-11.234c-4.1-3.548-4.468-4.866-4.9-4.537-5.784,4.4-22.905,19.607-32.606,27.52-.315.036-.629.063-.947.087a28.948,28.948,0,0,1-12.422-1.4c-.034-4.206,3.567-14.032,3.865-14.981,0,0,14.316-14.229,37.512-26.256.228-.12.467-.214.7-.312.3-.133.6-.259.909-.367a11.591,11.591,0,0,1,3.557-.8,7.81,7.81,0,0,1,3.015.471,11.709,11.709,0,0,1,1.608.709,15.542,15.542,0,0,1,1.346.78c.717.457,1.41.963,2.066,1.467,1.479,1.144,12.684,15.58,18.708,22.24l0,0C4788.88,8515.752,4789.178,8516.082,4789.462,8516.381Z" transform="translate(-4627.144 -8337.182)" fill="#4b7abc"/>
    <path id="Path_1133" data-name="Path 1133" d="M5718.619,8619.051s-10.758-6.062-16.743-11.236c-.038-.032-.075-.063-.112-.1,1.641-1.988,3.09-3.791,4.321-5.262,2.172,5.785,9.453,12.146,13.555,15.392l-.592.271.242.36-.166.142h0v0Zm-47.4-9.508-.407,0a.3.3,0,0,0,.187-.229l-.728-2.684c.02-.169-.2-.31-.468-.31h-.019l-.324.008c-.279-1.191-.488-2.318-.637-3.4a178.878,178.878,0,0,1,22.442-14.1l7.173-.221a40.571,40.571,0,0,0-4.951,2.314c-.252.139-.506.276-.759.423-.2.111-.408.229-.606.354A87.636,87.636,0,0,0,5671.217,8609.543Z" transform="translate(-5562.862 -8434.219)" fill="#4473b8"/>
    <path id="Path_1134" data-name="Path 1134" d="M4546.6,6665.691c.9,4.107,1.856,10.1-.964,12.92a91.508,91.508,0,0,0,12.517,17.081c6.178-10.741.318-17.379.318-17.379-4.631-.992-4.555-2.858-3.829-6.073Z" transform="translate(-4460.677 -6547.244)" fill="#e58067"/>
    <path id="Path_1135" data-name="Path 1135" d="M4392.431,7210.9a5.2,5.2,0,0,1,2.006-2.741c.927-.708,10.526-.814,13.02,0a6.276,6.276,0,0,1,3.488,2.75Z" transform="translate(-4310.333 -7079.01)" fill="#4b7abc"/>
    <path id="Path_1136" data-name="Path 1136" d="M6659.478,8200.212l2.482-1.132.123,4.051a7.711,7.711,0,0,1-2.432,1.429,1.657,1.657,0,0,1-2.078-1.984A3.555,3.555,0,0,1,6659.478,8200.212Z" transform="translate(-6533.085 -8051.968)" fill="#e58067"/>
    <path id="Path_1137" data-name="Path 1137" d="M6896.964,8200.156l-.129,1.484a1.052,1.052,0,0,1-.817.943l-2.124.478-.123-4.05,2.156.031a1.024,1.024,0,0,1,1.04,1.022Z" transform="translate(-6764.915 -8051.901)" fill="#e58067"/>
    <path id="Path_1138" data-name="Path 1138" d="M4297.811,8091.882a21.378,21.378,0,0,0,12.8,2.138c5.289-.89,14.5-6.194,18.51-9.242l-1.35-2.015c-2,.428-18.327,8.727-28.874,1.221-1.965-1.4-9.684-7.156-12.411-7.033-4.424.2-4.041,4.835-2.141,6.763C4286.566,8085.967,4294.756,8090.375,4297.811,8091.882Z" transform="translate(-4202.942 -7932.12)" fill="#e58067"/>
    <path id="Path_1139" data-name="Path 1139" d="M5658.44,8616.453h0a17.2,17.2,0,0,0,1.9-.218c4.2-.708,10.865-4.19,15.442-7.123h0c-4.577,2.933-11.245,6.418-15.441,7.127A18.049,18.049,0,0,1,5658.44,8616.453Zm1.592-7.129h0c.571-.012,1.141-.044,1.7-.089Q5660.89,8609.306,5660.032,8609.324Zm1.718-.089h0Z" transform="translate(-5552.676 -8454.334)" fill="#bdc3cd"/>
    <path id="Path_1140" data-name="Path 1140" d="M5658.44,8518.762a29.819,29.819,0,0,1,1.592-7.129q.857-.019,1.7-.087h.012a.007.007,0,0,1,.006,0,36.122,36.122,0,0,0,4.636-.694v.037a.785.785,0,0,0,.078.346.8.8,0,0,0,.717.454h.025l8.573-.265c-4.577,2.932-11.246,6.417-15.442,7.124A17.47,17.47,0,0,1,5658.44,8518.762Zm11.276-8.753q.755-.221,1.458-.448a1.416,1.416,0,0,0,.365.384Z" transform="translate(-5552.675 -8356.645)" fill="#b96956"/>
    <path id="Path_1141" data-name="Path 1141" d="M4177.047,7318.313c5.6,12.337-7.386,15.862-1.436,36.093l-28.227.68c.189-10.843,4.042-8.514-1.038-28.9a19.681,19.681,0,0,1,.694-11.19,8.211,8.211,0,0,1,3.663-4.147c2.084-1.126,11.262-.247,15.452.035C4170.691,7310.241,4176.219,7316.77,4177.047,7318.313Z" transform="translate(-4068.354 -7179.794)" fill="#4b7abc"/>
    <path id="Path_1142" data-name="Path 1142" d="M4159.686,7352.352l-1.926-22.013c0-.011,0-.021,0-.033l-.051-.583a5.7,5.7,0,0,0-5.678-5.2h-4.417l.01.112a4.825,4.825,0,0,0-1.042-.112h-.544a21.962,21.962,0,0,1-.2-2.91,17.623,17.623,0,0,1,1.2-6.614,8.21,8.21,0,0,1,3.662-4.146,12.067,12.067,0,0,1,4.6-.559c3.581,0,8.208.415,10.852.593a4.432,4.432,0,0,1,.64-.043c4.4,0,9.463,6,10.25,7.472a14.521,14.521,0,0,1,1.438,6.122c0,6.16-4.469,10.758-4.473,19.861a33.3,33.3,0,0,0,.937,7.606Zm5.2-33.438s-1.526,3.108,2.875,11.311l1.84,3.346a.666.666,0,0,0,.634.291c1.348,0,4.226-1.812,5.208-3.5C4175.438,7330.357,4167.724,7325.73,4164.881,7318.914Z" transform="translate(-4068.351 -7179.793)" fill="#9fbce2"/>
    <path id="Path_1143" data-name="Path 1143" d="M5525.723,6385.138c-.083.542.14.98.478,1.028s.676-.329.754-.849-.142-.98-.478-1.027S5525.8,6384.624,5525.723,6385.138Z" transform="translate(-5422.422 -6271.099)" fill="#313f44"/>
    <path id="Path_1144" data-name="Path 1144" d="M5558.711,6375.4l1.294-.18S5559.224,6376.1,5558.711,6375.4Z" transform="translate(-5454.811 -6262.204)" fill="#313f44"/>
    <path id="Path_1145" data-name="Path 1145" d="M5503.509,6468a13.686,13.686,0,0,0,1.373,3.569,2.254,2.254,0,0,1-1.9.078Z" transform="translate(-5400.123 -6353.248)" fill="#bc3738"/>
    <path id="Path_1146" data-name="Path 1146" d="M5477.109,6202.409a.31.31,0,0,0,.192-.237.316.316,0,0,0-.261-.353,3.057,3.057,0,0,0-2.679.844.309.309,0,1,0,.419.453l.04-.045a2.442,2.442,0,0,1,2.128-.64Z" transform="translate(-5371.941 -6091.997)" fill="#313f44"/>
    <path id="Path_1147" data-name="Path 1147" d="M4593.209,5772.484c-.53,6.427-.9,9.135,1.843,12.874,4.127,5.623,12.15,4.885,14.583-1.26,2.2-5.529,2.707-15.11-3.157-18.549a8.8,8.8,0,0,0-13.269,6.936Z" transform="translate(-4506.993 -5662.714)" fill="#e58067"/>
    <path id="Path_1148" data-name="Path 1148" d="M5443.256,6710.542a3.558,3.558,0,0,1-1.067-1.57.139.139,0,0,1,.092-.166.132.132,0,0,1,.158.09,3.509,3.509,0,0,0,.915,1.377Z" transform="translate(-5340.463 -6589.549)" fill="#313f44"/>
    <path id="Path_1149" data-name="Path 1149" d="M4243.609,5612.735c-2.45,3.321-3.564,4.186-.531,13.029,1.219,3.554,4.761,8.259,6.482,8.692,3.086.775,6.089-1.39,8.405-3.572a23.52,23.52,0,0,0,5.21-6.476,10.157,10.157,0,0,0,.669-8.087c-1.109-2.816-5.017-5.331-7.943-5.947C4252.456,5609.648,4245.646,5609.973,4243.609,5612.735Z" transform="translate(-4161.97 -5511.327)" fill="#313f44"/>
    <path id="Path_1150" data-name="Path 1150" d="M5385.673,6408.031a2,2,0,0,1-.2,2.316l.02-1.765Z" transform="translate(-5284.809 -6294.399)" fill="#313f44"/>
    <path id="Path_1151" data-name="Path 1151" d="M5321.231,6407.961a2.721,2.721,0,0,1-1.419,2.792l.914-2.194Z" transform="translate(-5220.378 -6294.331)" fill="#313f44"/>
    <path id="Path_1152" data-name="Path 1152" d="M4704.482,6876.13a2.723,2.723,0,0,0-1.6,2.693l1.364-1.946Z" transform="translate(-4614.953 -6753.748)" fill="#313f44"/>
    <path id="Path_1153" data-name="Path 1153" d="M4751.63,6878.1a2.723,2.723,0,0,0-.488,3.1l.546-2.312Z" transform="translate(-4662.025 -6755.681)" fill="#313f44"/>
    <path id="Path_1154" data-name="Path 1154" d="M5233.986,5787.9a12.449,12.449,0,0,0,1.834-2.209,3.751,3.751,0,0,0-1.545-5.6,12.46,12.46,0,0,0-3.52-1.16,2.452,2.452,0,0,0-1.782.058,1.67,1.67,0,0,0-.694,1.529,5.5,5.5,0,0,0,.476,1.69,34.941,34.941,0,0,1,1.77,6.6c.206,1.137.049,1.894,1.171,1.456C5232.451,5789.975,5233.409,5788.5,5233.986,5787.9Z" transform="translate(-5130.552 -5676.927)" fill="#313f44"/>
    <path id="Path_1155" data-name="Path 1155" d="M5058.543,6299.2a5.612,5.612,0,0,0,1.458,4.042c1.341,1.454,3.043.5,3.531-1.3.446-1.622.277-4.333-1.481-5.113A2.519,2.519,0,0,0,5058.543,6299.2Z" transform="translate(-4963.986 -6185.044)" fill="#e58067"/>
    <path id="Path_1156" data-name="Path 1156" d="M8486.858,9933.727l5.1-4.966-9.86-12.389-6.152,3.633Z" transform="translate(-8317.509 -9737.158)" fill="#e58067"/>
    <path id="Path_1157" data-name="Path 1157" d="M9412.234,10495.991a.569.569,0,0,1-.107.568,1.841,1.841,0,0,1-1,.5,7.165,7.165,0,0,1-1.361.183c-.207.01-.434.021-.666.019.073-.059.144-.111.222-.164l.155-.114a8.655,8.655,0,0,1,2.313-1.152.524.524,0,0,1,.31.006A.208.208,0,0,1,9412.234,10495.991Zm-.035-.472c-.566-.2-1.725.437-2.605.994-.224.144-.425.279-.592.395l-.014.01-.089.067c-.2.141-.342.243-.395.285a.152.152,0,0,0-.078.167.162.162,0,0,0,.146.123,13.2,13.2,0,0,0,1.821-.059c.138-.014.268-.027.405-.046a2.574,2.574,0,0,0,1.222-.423,2.814,2.814,0,0,0,.366-.283.893.893,0,0,0,.165-.84A.579.579,0,0,0,9412.2,10495.52Z" transform="translate(-9232.559 -10305.445)" fill="#4b7abc"/>
    <path id="Path_1158" data-name="Path 1158" d="M9416.24,10383.715a3.836,3.836,0,0,1-.206-2.315.855.855,0,0,1,.4-.454l.088-.044c.285-.111.357-.013.379.019C9417.193,10381.307,9416.754,10382.867,9416.24,10383.715Zm.163-3.116a1.186,1.186,0,0,0-.674.671,4.482,4.482,0,0,0,.3,2.823l.006.008.006.023.131.1.1-.013.053-.04.02-.022a3.33,3.33,0,0,0,.28-.45c.487-.915.939-2.444.543-2.974C9417.053,10380.568,9416.836,10380.425,9416.4,10380.6Z" transform="translate(-9239.59 -10192.63)" fill="#4b7abc"/>
    <path id="Path_1159" data-name="Path 1159" d="M8652.06,10333.3l-.72-.884.019-.015.71.893Z" transform="translate(-8489.628 -10145.414)" fill="#b96956"/>
    <path id="Path_1160" data-name="Path 1160" d="M8607.271,10278.252l-.839-1.033.035-.016.822,1.033Z" transform="translate(-8445.56 -10091.243)" fill="#955649"/>
    <path id="Path_1161" data-name="Path 1161" d="M8955.917,10105.379l-1.328-1.669.018-.009Z" transform="translate(-8787.208 -9920.986)" fill="#bdc3cd"/>
    <path id="Path_1162" data-name="Path 1162" d="M8609.942,10109.262l-.71-.893-.822-1.03,6.472-3.237,1.329,1.669Z" transform="translate(-8447.5 -9921.377)" fill="#b96956"/>
    <path id="Path_1163" data-name="Path 1163" d="M4179.48,9536.842l-.651,2.562c-.1.2.146.394.468.388l29.066-.69c.255-.012.46-.14.474-.3l-.727-2.684c.021-.172-.211-.316-.488-.31l-27.677.814A.521.521,0,0,0,4179.48,9536.842Z" transform="translate(-4100.703 -9363.707)" fill="#313f44"/>
    <path id="Path_1164" data-name="Path 1164" d="M5542.8,9536.38l-.763.081c-.151-.006-.278-.046-.275-.142l-.015-3.307c0-.1.123-.187.274-.206l.764-.086c.151.006.278.048.275.147l.015,3.3C5543.077,9536.269,5542.956,9536.361,5542.8,9536.38Z" transform="translate(-5438.167 -9360.678)" fill="#4b7abc"/>
    <path id="Path_1165" data-name="Path 1165" d="M4986.638,9543.539l-.764.08c-.15,0-.273-.046-.276-.143l-.009-3.306c0-.095.123-.186.275-.2l.757-.087c.151,0,.279.048.275.147l.014,3.3C4986.915,9543.44,4986.789,9543.521,4986.638,9543.539Z" transform="translate(-4892.402 -9367.705)" fill="#4b7abc"/>
    <path id="Path_1166" data-name="Path 1166" d="M4986.638,9543.539l-.764.08c-.15,0-.273-.046-.276-.143l-.009-3.306c0-.095.123-.186.275-.2l.757-.087c.151,0,.279.048.275.147l.014,3.3C4986.915,9543.44,4986.789,9543.521,4986.638,9543.539Z" transform="translate(-4892.402 -9367.705)" fill="#4b7abc"/>
    <path id="Path_1167" data-name="Path 1167" d="M4281.48,8535.644l-1.287.728-.006,0-2.212,1.25-1.986,1.113-.005,0-2.037,1.152v0l-.78.44-.49-.355c-.122-.085-.259-.183-.419-.3-.483-.363-1.16-.871-1.948-1.5v-.009c-4.1-3.239-11.4-9.61-13.574-15.4-1.4,1.671-3.087,3.772-5.013,6.095-8.292,10-21.178,24.123-36.672,25.962-.313.043-.627.071-.947.1a28.919,28.919,0,0,1-12.435-1.237c-8.039-2.942-10.279-10.009-9.728-16.019v-.02c.05-2.813.6-7.826.6-7.826l29.328.033a87.6,87.6,0,0,1,20.9-17.837c.2-.127.4-.244.606-.354.253-.147.506-.287.759-.424a34.071,34.071,0,0,1,8.128-3.313c.583-.135,1.155-.257,1.721-.34a16.858,16.858,0,0,1,1.755-.17v0a10.2,10.2,0,0,1,9.872,5.321l15.429,22.263Z" transform="translate(-4113.513 -8354.535)" fill="#4b7abc"/>
    <path id="Path_1168" data-name="Path 1168" d="M6438.071,7305.229l-32.41,1.341.949-20.62,32.409-1.34Z" transform="translate(-6285.928 -7154.592)" fill="#4b7abc"/>
    <path id="Path_1169" data-name="Path 1169" d="M6360.3,7226.051l-31.937,1.319a1.48,1.48,0,0,1-1.564-1.578l.942-20.492a1.826,1.826,0,0,1,1.716-1.713l31.938-1.32a1.481,1.481,0,0,1,1.564,1.58l-.943,20.491A1.829,1.829,0,0,1,6360.3,7226.051Z" transform="translate(-6208.539 -7073.787)" fill="#313f44"/>
    <path id="Path_1170" data-name="Path 1170" d="M6438.071,7305.229l-32.41,1.341.949-20.62,32.409-1.34Z" transform="translate(-6285.928 -7154.592)" fill="#4b7abc"/>
    <path id="Path_1171" data-name="Path 1171" d="M6405.661,7352.683l.949-20.62,11.155-.461-4.644,20.772Zm2.132-3.351h0l.026.659,1.6-.067-.027-.66Zm.1-1.243h0l1.6-.067.061-.665-1.6.069h0l-.088,0Zm.048-2.562h0l.028.658,1.6-.067-.029-.66Zm.075-1.9h0l.028.66,1.6-.068-.028-.659Zm.074-1.9h0l.03.658,1.6-.068-.029-.658Zm.076-1.9h0l.028.658,1.6-.068-.028-.659Z" transform="translate(-6285.928 -7200.705)" fill="#ecf2fa"/>
    <path id="Path_1172" data-name="Path 1172" d="M6918.36,7306.174l2.479-11.233-.014.334,1.134-.049-.174.773-1,.044-.087,1.979.638-.027-.173.773-.5.022-.088,1.979.143-.006-.174.774h0v.023l-1.021,4.565Zm10.77-.445.335-1.49.017-.1a1.215,1.215,0,0,0-.317-.99l11.239-.477.089-1.98-15.737.669.171-.774,15.6-.663.087-1.979-15.248.649.17-.773,15.113-.644.088-1.979-14.76.628.17-.774,14.626-.623.087-1.978-14.272.606.169-.772,14.138-.6.089-1.98-13.785.587.288-1.306,7.282-.309.061-1.371-7.038.3.533-2.422,13.81-.568-.948,20.618Zm-7.926-12.446.172-.772,1.2-.052-.173.774Zm.611-2.767.288-1.3,1.212-.051-.292,1.3Zm.593-2.686.535-2.426,1.222-.05-.541,2.423Z" transform="translate(-6789.044 -7154.594)" fill="#ecf2fa"/>
    <path id="Path_1173" data-name="Path 1173" d="M6788.46,7267.875l.3-1.357,2.126-.087-.3,1.372Zm4.948-22.129.348-1.55,2.058-.086-.341,1.55Z" transform="translate(-6661.572 -7114.85)" fill="#425055"/>
    <path id="Path_1174" data-name="Path 1174" d="M6804.69,7347.867l4.645-20.771,2.064-.086-.535,2.426-1.4.059-.061,1.373,1.157-.05-.288,1.3-.781.034-.088,1.979.429-.018-.171.773-.291.012-.075,1.645-2.479,11.232Z" transform="translate(-6677.499 -7196.2)" fill="#eef2fa"/>
    <path id="Path_1175" data-name="Path 1175" d="M6964,8435.575l.308-1.381.616-.024-.446,1.141c.048.087.1.169.15.244Z" transform="translate(-6833.832 -8282.663)" fill="#425055"/>
    <path id="Path_1176" data-name="Path 1176" d="M6980.51,7708.765l1.022-4.565-.089,1.956,2.026-.087a4.125,4.125,0,0,0-2.191,2.283l-.151.388Zm1.027-4.589.172-.773,4.205-.179-.17.774Zm.619-2.768.173-.774,4.2-.179-.171.774Zm.619-2.769.173-.773,4.19-.178-.172.774Zm.619-2.767.173-.775,4.181-.178-.171.774Z" transform="translate(-6850.031 -7557.232)" fill="#eef2fa"/>
    <path id="Path_1177" data-name="Path 1177" d="M7228.94,7233.915l.347-1.551,4.155-.172-.342,1.549Z" transform="translate(-7093.818 -7103.154)" fill="#425055"/>
    <path id="Path_1178" data-name="Path 1178" d="M7167.839,7320.4l.292-1.305,4.17-.177-.288,1.3Zm.6-2.686.542-2.425,4.159-.172-.535,2.42Z" transform="translate(-7033.859 -7184.531)" fill="#eef2fa"/>
    <path id="Path_1179" data-name="Path 1179" d="M6422.88,8472.5l10.787-.3c.185,1.252-.349,1.723-1.037,1.738l-3.449.089-2.3.05-3.581.1-22.218.647-.176-1.564Z" transform="translate(-6281.258 -8319.982)" fill="#4b7abc"/>
    <path id="Path_1180" data-name="Path 1180" d="M6111.65,8472.5l10.786-.3c.185,1.252-.35,1.723-1.037,1.738l-3.449.089-2.3.05-3.582.1-27.5.843a.8.8,0,1,1-.053-1.59l27.139-.93Z" transform="translate(-5970.027 -8319.982)" fill="#4b7abc"/>
    <path id="Path_1181" data-name="Path 1181" d="M6084.547,8475.021a.8.8,0,0,1-.718-.453.782.782,0,0,1-.077-.344.8.8,0,0,1,.768-.794l16.315-.558a2.2,2.2,0,0,0,1.925.939,7.5,7.5,0,0,0,3.38-1.122l5.519-.188,10.786-.3h0l-10.786.3-.1,1.691-5.948.183-7.173.219-13.865.427Z" transform="translate(-5970.037 -8319.981)" fill="#3b6bb2"/>
    <path id="Path_1182" data-name="Path 1182" d="M8098.26,8544.525a1.134,1.134,0,0,0,.837-.394A1.019,1.019,0,0,1,8098.26,8544.525Z" transform="translate(-7946.887 -8390.569)" fill="#3b6bb2"/>
    <path id="Path_1183" data-name="Path 1183" d="M7912.941,8565.32h0l.013,0,3.451-.087h0l-3.451.087Z" transform="translate(-7765.032 -8411.272)" fill="#bdc3cd"/>
    <path id="Path_1184" data-name="Path 1184" d="M7571.143,8570.179l0-.061.515-.018,3.581-.1,2.29-.05h0Z" transform="translate(-7429.623 -8415.904)" fill="#3b6bb2"/>
    <path id="Path_1185" data-name="Path 1185" d="M8142.991,8473.544a1.442,1.442,0,0,0,.236-.873h0a3.216,3.216,0,0,0-.037-.471l.064.436A1.127,1.127,0,0,1,8142.991,8473.544Z" transform="translate(-7990.783 -8319.982)" fill="#bdc3cd"/>
    <path id="Path_1186" data-name="Path 1186" d="M7571.312,8474.2l.1-1.69,10.786-.3a3.368,3.368,0,0,1,.038.471,1.442,1.442,0,0,1-.237.873,1.129,1.129,0,0,1-.837.395h0l-3.45.089-2.3.05-3.579.1Z" transform="translate(-7429.79 -8319.982)" fill="#2659a4"/>
    <path id="Path_1187" data-name="Path 1187" d="M5156.33,7786.6a.663.663,0,0,1-.633-.29l-1.842-3.347c-4.4-8.2-2.875-11.31-2.875-11.31,2.845,6.815,10.559,11.441,10.559,11.441C5160.554,7784.787,5157.677,7786.6,5156.33,7786.6Z" transform="translate(-5054.45 -7632.53)" fill="#7c9cd0"/>
    <path id="Path_1188" data-name="Path 1188" d="M6992.806,8235.864l3.069-.9-.493,4.739s-4.278,2.861-5.761.127l.6-1.53A4.132,4.132,0,0,1,6992.806,8235.864Z" transform="translate(-6858.972 -8087.178)" fill="#e58067"/>
    <path id="Path_1189" data-name="Path 1189" d="M7300.674,8236.58l-.385,1.707a1.225,1.225,0,0,1-1.1.964l-2.551.2.493-4.741,2.507.4a1.218,1.218,0,0,1,1.051,1.367Z" transform="translate(-7160.252 -8086.932)" fill="#e58067"/>
    <path id="Path_1190" data-name="Path 1190" d="M5386.147,7718.687a14.743,14.743,0,0,0,8.682,6.017c4.167.814,12.186-5.079,15.95-8.9-.19-1.61-.082-2.479-1.688-2.7,0,0-4.138,3.032-11.942,4.854-2.52.588-4.2-1.99-6.4-5.742-1.1-1.87-4.646-9.546-5.98-11.253-2.146-2.745-8.256-.775-5.831,5.824C5379.956,7709.563,5384.4,7716.314,5386.147,7718.687Z" transform="translate(-5277.847 -7561.984)" fill="#e58067"/>
    <path id="Path_1191" data-name="Path 1191" d="M5151.01,7437.925c4.338,3.982,6.447,11.025,6.447,11.025l-10.126,6.173s-7.407-10.39-6.084-14.012c1.043-2.812,2.975-4.652,5.513-4.812A5.833,5.833,0,0,1,5151.01,7437.925Z" transform="translate(-5044.995 -7303.437)" fill="#4b7abc"/>
    <path id="Path_1192" data-name="Path 1192" d="M4375.5,9565.607l-.768.018c-.15-.016-.273-.07-.262-.171l.279-3.289c.012-.1.139-.18.292-.186l.767-.019c.15.019.273.077.262.171l-.28,3.3A.258.258,0,0,1,4375.5,9565.607Z" transform="translate(-4292.709 -9389.372)" fill="#4b7abc"/>
    <path id="Path_1193" data-name="Path 1193" d="M8357.9,9900.822l9.871-4.933-.844-3.509-11.25,5.134Z" transform="translate(-8199.495 -9713.614)" fill="#4b7abc"/>
    <path id="Path_1194" data-name="Path 1194" d="M8357.9,9900.822l-1.982-2.949-.24-.358,11.25-5.134.844,3.509-.9.449-6.473,3.235-.037.017-1.812.906h0Z" transform="translate(-8199.495 -9713.614)" fill="#9fbce2"/>
    <path id="Path_1195" data-name="Path 1195" d="M8932.392,10547.43l-6.8,2.061a.561.561,0,0,0-.41.607l.819,6.172a1.121,1.121,0,0,0,1.29.917l.118-.025c11.37-1.892,15.119-3.978,16.343-4.394,3.491-1.181,2.1-3.754.857-3.681-5.565.344-7.3-.3-9.509-1.3A5.684,5.684,0,0,0,8932.392,10547.43Z" transform="translate(-8758.344 -10356.368)" fill="#313f44"/>
    <path id="Path_1196" data-name="Path 1196" d="M4154.069,5583.083a4.541,4.541,0,0,1-4.708-3.214,7.439,7.439,0,0,1,.938-5.946c.776-1.316,5.831-4.445,7.708-.926C4161.738,5580,4154.069,5583.083,4154.069,5583.083Z" transform="translate(-4071.534 -5473.389)" fill="#313f44"/>
    <path id="Path_1197" data-name="Path 1197" d="M7076.7,7558.859l-19.949.85.088-1.981,19.949-.848Z" transform="translate(-6924.848 -7421.772)" fill="#4b7abc"/>
    <path id="Path_1198" data-name="Path 1198" d="M7056.751,7559.709l.088-1.981,19.949-.848-.088,1.979-14.138.6-4.182.178Z" transform="translate(-6924.848 -7421.772)" fill="#c3d7ef"/>
    <path id="Path_1199" data-name="Path 1199" d="M7070.14,7705.79l-19.948.849.088-1.979,19.947-.85Z" transform="translate(-6918.411 -7565.957)" fill="#4b7abc"/>
    <path id="Path_1200" data-name="Path 1200" d="M7050.192,7706.639l.088-1.979,19.947-.85-.088,1.979-14.625.621-4.188.179Z" transform="translate(-6918.411 -7565.957)" fill="#c3d7ef"/>
    <path id="Path_1201" data-name="Path 1201" d="M7063.539,7852.731l-19.949.848.09-1.979,19.947-.85Z" transform="translate(-6911.932 -7710.15)" fill="#4b7abc"/>
    <path id="Path_1202" data-name="Path 1202" d="M7043.59,7853.579l.09-1.979,19.947-.85-.088,1.98-15.112.643-4.2.177Z" transform="translate(-6911.932 -7710.15)" fill="#c3d7ef"/>
    <path id="Path_1203" data-name="Path 1203" d="M7056.979,7999.689l-19.949.848.089-1.978,19.948-.849Z" transform="translate(-6905.496 -7854.363)" fill="#4b7abc"/>
    <path id="Path_1204" data-name="Path 1204" d="M7037.031,8000.537l.089-1.978,19.948-.849-.088,1.979-15.6.664-4.207.179Z" transform="translate(-6905.496 -7854.363)" fill="#c3d7ef"/>
    <path id="Path_1205" data-name="Path 1205" d="M7050.38,8146.661l-19.949.849.088-1.979,19.949-.848Z" transform="translate(-6899.02 -7998.587)" fill="#4b7abc"/>
    <path id="Path_1206" data-name="Path 1206" d="M7030.431,8147.509l.088-1.979,19.949-.848-.088,1.979-11.241.478-3.334.142-3.349.144Z" transform="translate(-6899.02 -7998.587)" fill="#c3d7ef"/>
    <path id="Path_1207" data-name="Path 1207" d="M6539.82,7768.329l-.029-.659,1.6-.069.028.66Z" transform="translate(-6417.552 -7628.554)" fill="#4b7abc"/>
    <path id="Path_1208" data-name="Path 1208" d="M6539.82,7768.329l-.029-.659,1.6-.069.028.66Z" transform="translate(-6417.552 -7628.554)" fill="#9fbce2"/>
    <path id="Path_1209" data-name="Path 1209" d="M6535.8,7870.1l-.028-.66,1.6-.067.029.66Z" transform="translate(-6413.606 -7728.422)" fill="#4b7abc"/>
    <path id="Path_1210" data-name="Path 1210" d="M6535.8,7870.1l-.028-.66,1.6-.067.029.66Z" transform="translate(-6413.606 -7728.422)" fill="#9fbce2"/>
    <path id="Path_1211" data-name="Path 1211" d="M6531.78,7971.878l-.029-.66,1.6-.067.028.66Z" transform="translate(-6409.662 -7828.299)" fill="#4b7abc"/>
    <path id="Path_1212" data-name="Path 1212" d="M6531.78,7971.878l-.029-.66,1.6-.067.028.66Z" transform="translate(-6409.662 -7828.299)" fill="#9fbce2"/>
    <path id="Path_1213" data-name="Path 1213" d="M6527.75,8073.62l-.028-.659,1.6-.068.028.659Z" transform="translate(-6405.708 -7928.139)" fill="#4b7abc"/>
    <path id="Path_1214" data-name="Path 1214" d="M6527.75,8073.62l-.028-.659,1.6-.068.028.659Z" transform="translate(-6405.708 -7928.139)" fill="#9fbce2"/>
    <path id="Path_1215" data-name="Path 1215" d="M6523.7,8175.4l-.029-.659,1.6-.068.029.659Z" transform="translate(-6401.731 -8028.016)" fill="#4b7abc"/>
    <path id="Path_1216" data-name="Path 1216" d="M6525.181,8175.183h0l1.6-.067-.028-.659-1.511.063h0l1.6-.069-.06.665Z" transform="translate(-6403.214 -8027.799)" fill="#f3f6fb"/>
    <path id="Path_1217" data-name="Path 1217" d="M6525.181,8175.4l.061-.663,1.511-.064.028.659Z" transform="translate(-6403.214 -8028.016)" fill="#9fbce2"/>
    <path id="Path_1218" data-name="Path 1218" d="M6519.678,8277.209l-.027-.66,1.6-.067.028.659Z" transform="translate(-6397.788 -8127.922)" fill="#4b7abc"/>
    <path id="Path_1219" data-name="Path 1219" d="M6519.678,8277.209l-.027-.66,1.6-.067.028.659Z" transform="translate(-6397.788 -8127.922)" fill="#9fbce2"/>
    <path id="Path_1220" data-name="Path 1220" d="M6540.951,7621.38l-3.309,1.232.036-.869,1.832-.3-1.814-.126.036-.87Z" transform="translate(-6415.442 -7484.156)" fill="#4b7abc"/>
    <path id="Path_1221" data-name="Path 1221" d="M7070.573,7429.91l-13.822.589.062-1.371,13.821-.587Z" transform="translate(-6924.848 -7295.833)" fill="#4b7abc"/>
    <path id="Path_1222" data-name="Path 1222" d="M7056.751,7430.5l.062-1.371,13.821-.587-.061,1.369-7.284.312-4.171.179Z" transform="translate(-6924.848 -7295.833)" fill="#c3d7ef"/>
    <path id="Path_1223" data-name="Path 1223" d="M6692.136,7516.888l-2.026.091.819-.521.225.206.243-.212Z" transform="translate(-6565.061 -7382.099)" fill="#4b7abc"/>
    <path id="Path_1224" data-name="Path 1224" d="M6686.52,7477.417l-.818.521.06-1.206Z" transform="translate(-6560.734 -7343.122)" fill="#4b7abc"/>
    <path id="Path_1225" data-name="Path 1225" d="M6762.987,7474.651l-.066,1.146-.741-.437Z" transform="translate(-6635.783 -7341.082)" fill="#4b7abc"/>
    <path id="Path_1226" data-name="Path 1226" d="M6744.726,7501.9l-.005,0,.044-.049.007.006Z" transform="translate(-6618.65 -7367.772)" fill="#fefefe"/>
    <path id="Path_1227" data-name="Path 1227" d="M6745.086,7501.9l-.046-.048.007-.006.044.049Z" transform="translate(-6618.963 -7367.772)" fill="#fefefe"/>
    <path id="Path_1228" data-name="Path 1228" d="M6692.265,7468.581l-.868.79-.243.212-.225-.205-.758-.686-.061-.055Z" transform="translate(-6565.061 -7335.124)" fill="#4b7abc"/>
    <path id="Path_1229" data-name="Path 1229" d="M6540.358,7480.556l-.008-.2,1.6-.069.008.2Z" transform="translate(-6418.1 -7346.614)" fill="#4b7abc"/>
    <path id="Path_1230" data-name="Path 1230" d="M6540.358,7507.516l-.008-.2,1.6-.069.008.2Z" transform="translate(-6418.1 -7373.072)" fill="#4b7abc"/>
    <path id="Path_1231" data-name="Path 1231" d="M6540.358,7534.5l-.008-.2,1.6-.067.008.2Z" transform="translate(-6418.1 -7399.546)" fill="#4b7abc"/>
    <path id="Path_1232" data-name="Path 1232" d="M11008.975,2009.645h-9.605a1.577,1.577,0,0,1,0-3.155h9.605a1.577,1.577,0,0,1,0,3.155Z" transform="translate(-10792.219 -1975.137)" fill="#4b7abc"/>
    <path id="Path_1233" data-name="Path 1233" d="M8080.074,910.205,8043.239,978a1.8,1.8,0,0,1-2.438.722l-62.683-34.059a1.8,1.8,0,0,1-.723-2.44l47.91-88.176a1.8,1.8,0,0,1,2.44-.721l42.233,22.948Z" transform="translate(-7828.068 -843.311)" fill="#4b7abc"/>
    <path id="Path_1234" data-name="Path 1234" d="M8041.624,978.913a1.794,1.794,0,0,1-.859-.218l-44.742-24.311-.164-.089-7.772-4.223-.163-.089-9.842-5.346a1.8,1.8,0,0,1-.939-1.583,1.779,1.779,0,0,1,.219-.857l47.909-88.176a1.8,1.8,0,0,1,2.44-.722l4.879,2.651-45.624,83.967a1.8,1.8,0,0,0,.724,2.44l57.8,31.407-2.288,4.209A1.8,1.8,0,0,1,8041.624,978.913Z" transform="translate(-7828.034 -843.288)" fill="#d840e5"/>
    <path id="Path_1235" data-name="Path 1235" d="M9836.481,3395.864l-46.815-25.253-1.566,2.9,46.813,25.254Z" transform="translate(-9605.139 -3313.758)" fill="#4b7abc"/>
    <path id="Path_1236" data-name="Path 1236" d="M9494.278,4030.194l-46.812-25.254-1.566,2.9,46.813,25.253Z" transform="translate(-9269.336 -3936.23)" fill="#4b7abc"/>
    <path id="Path_1237" data-name="Path 1237" d="M9152.051,4664.554l-46.812-25.254-1.567,2.9,46.813,25.253Z" transform="translate(-8933.505 -4558.731)" fill="#4b7abc"/>
    <path id="Path_1238" data-name="Path 1238" d="M12350.286,2090.84l-11.111,20.448a1.8,1.8,0,0,0,.722,2.44l20.385,11.076Z" transform="translate(-12108.312 -2057.91)" fill="#4b7abc"/>
    <path id="Path_1239" data-name="Path 1239" d="M8593.851,788.262l-36.833,67.791a1.8,1.8,0,0,1-2.439.721l-62.685-34.058a1.8,1.8,0,0,1-.721-2.44l47.91-88.176a1.8,1.8,0,0,1,2.438-.721l42.236,22.948Z" transform="translate(-8332.242 -723.647)" fill="#4b7abc"/>
    <path id="Path_1240" data-name="Path 1240" d="M8555.522,856.993a1.781,1.781,0,0,1-.857-.219l-4.879-2.651-57.806-31.407a1.8,1.8,0,0,1-.938-1.583,1.776,1.776,0,0,1,.218-.857l47.91-88.176a1.8,1.8,0,0,1,2.44-.722l42.234,22.948.017.053L8572.8,774.746a1.8,1.8,0,0,0,.721,2.439l20.385,11.076-3.425-11.638,3.462,11.638L8557.1,856.053A1.8,1.8,0,0,1,8555.522,856.993Z" transform="translate(-8332.326 -723.647)" fill="#2699fb"/>
    <path id="Path_1244" data-name="Path 1244" d="M12864.08,1968.92l-11.109,20.448a1.8,1.8,0,0,0,.724,2.439l20.383,11.076Z" transform="translate(-12612.502 -1938.27)" fill="#4b7abc"/>
    <path id="Path_1245" data-name="Path 1245" d="M12874.145,2002.884l-20.383-11.076a1.795,1.795,0,0,1-.722-2.439l11.109-20.448Z" transform="translate(-12612.569 -1938.27)" fill="#c3d7ef"/>
    <path id="Path_1246" data-name="Path 1246" d="M11529.227,306.2l3.1,13.762c-11.738,3.225-22.269,14.84-29.85,25.818a63.52,63.52,0,0,0-7.412,14.687s23.671-21.409,36.72-22.666l-.621,22.75s13.532-26.361,39.815-36.009C11570.976,324.542,11548.96,308.69,11529.227,306.2Z" transform="translate(-11280.191 -306.631)" fill="#4b7abc"/>
    <path id="Path_1247" data-name="Path 1247" d="M4250.725,8076.686l5.981,68.367h-9.639l-6.436-73.569h4.417A5.7,5.7,0,0,1,4250.725,8076.686Z" transform="translate(-4161.369 -7926.757)" fill="#4b7abc"/>
    <path id="Path_1248" data-name="Path 1248" d="M4785.308,8403.085l-1.928-22.044c0,.011,0,.021,0,.033l1.925,22.011Z" transform="translate(-4693.973 -8230.527)" fill="#7c9cd0"/>
    <path id="Path_1249" data-name="Path 1249" d="M4886.771,9563.088h0l-.241-2.747h0Z" transform="translate(-4795.195 -9387.783)" fill="#2e373b"/>
    <path id="Path_1250" data-name="Path 1250" d="M4901.514,9731.3h0l-2.1-24.036h0Z" transform="translate(-4807.835 -9531.961)" fill="#3b6bb2"/>
    <path id="Path_1251" data-name="Path 1251" d="M4255.047,8126.043h-6.2l-4.389-50.158a4.88,4.88,0,0,0-3.817-4.343l-.01-.113h3.8a6.376,6.376,0,0,1,6.349,5.787l1.929,22.046.24,2.745Z" transform="translate(-4161.37 -7926.703)" fill="#3b6bb2"/>
    <path id="Path_1252" data-name="Path 1252" d="M1435.22,8075.936l6.047,69.117h-57.4l-5.972-68.267a4.878,4.878,0,0,1,4.86-5.3h47.6A4.878,4.878,0,0,1,1435.22,8075.936Z" transform="translate(-1352.131 -7926.757)" fill="#4b7abc"/>
    <path id="Path_1253" data-name="Path 1253" d="M1388.841,8468.842h0l-.651-7.438h0Zm-.665-7.6h0L1385.6,8431.8h0Zm-2.59-29.608h0l-2.613-29.863,0-.024Z" transform="translate(-1357.128 -8250.84)" fill="#fefefe"/>
    <path id="Path_1254" data-name="Path 1254" d="M1522.865,10000.769h0l-.015-.17h0Z" transform="translate(-1494.393 -9819.812)" fill="#f1f1f0"/>
    <path id="Path_1255" data-name="Path 1255" d="M1661.445,11584.767h0l-.014-.165h0Z" transform="translate(-1630.383 -11374.203)" fill="#f1f1f0"/>
    <path id="Path_1256" data-name="Path 1256" d="M1388.051,8144.715h-.262l-.651-7.438-.014-.165-2.576-29.44-.015-.168-2.615-29.889a5.7,5.7,0,0,1,5.683-6.174h45.949a5.7,5.7,0,0,1,5.681,5.206l4.323,49.408h-57.136Z" transform="translate(-1356.077 -7926.714)" fill="#6790ca"/>
    <path id="Path_1257" data-name="Path 1257" d="M1777.432,11012.039h-152.1l-1.659-18.957h146.008a6.786,6.786,0,0,1,6.63,6.1Z" transform="translate(-1593.328 -10793.742)" fill="#4b7abc"/>
    <path id="Path_1258" data-name="Path 1258" d="M1777.407,11011.673H1625.3l-1.633-18.661h146.007a6.785,6.785,0,0,1,6.63,6.1Z" transform="translate(-1593.328 -10793.672)" fill="#6790ca"/>
    <path id="Path_1259" data-name="Path 1259" d="M1579.3,11998.859H1418.438a3.778,3.778,0,1,1,0-7.556H1579.3a3.778,3.778,0,0,1,0,7.556Z" transform="translate(-1388.225 -11773.304)" fill="#4b7abc"/>
    <path id="Path_1260" data-name="Path 1260" d="M5121.743,11998.859h-93.385a3.778,3.778,0,1,1,0-7.556h93.385a3.778,3.778,0,0,1,0,7.556Z" transform="translate(-4930.665 -11773.304)" fill="#3b6bb2"/>
    <path id="Path_1261" data-name="Path 1261" d="M1729.61,12395.5l1.907,6.486h3.813l2.1-6.486Z" transform="translate(-1697.288 -12169.946)" fill="#313f44"/>
    <path id="Path_1262" data-name="Path 1262" d="M1735.33,12401.99h-3.813l-1.907-6.486h7.817Z" transform="translate(-1697.288 -12169.946)" fill="#949ca0"/>
    <path id="Path_1263" data-name="Path 1263" d="M4651.76,12395.5l1.907,6.486h3.814l2.1-6.486Z" transform="translate(-4564.814 -12169.946)" fill="#313f44"/>
    <path id="Path_1264" data-name="Path 1264" d="M4657.481,12401.99h-3.814l-1.907-6.486h7.817Z" transform="translate(-4564.814 -12169.946)" fill="#949ca0"/>
    <path id="Path_1265" data-name="Path 1265" d="M6888.3,12395.5l1.906,6.486h3.813l2.1-6.486Z" transform="translate(-6759.547 -12169.946)" fill="#313f44"/>
    <path id="Path_1266" data-name="Path 1266" d="M6894.021,12401.99h-3.812l-1.906-6.486h7.815Z" transform="translate(-6759.547 -12169.946)" fill="#949ca0"/>
    <path id="Path_1267" data-name="Path 1267" d="M9810.43,12395.5l1.907,6.486h3.813l2.1-6.486Z" transform="translate(-9627.052 -12169.946)" fill="#313f44"/>
    <path id="Path_1268" data-name="Path 1268" d="M9816.149,12401.99h-3.812l-1.907-6.486h7.817Z" transform="translate(-9627.052 -12169.946)" fill="#949ca0"/>
    <g id="Group_749" data-name="Group 749" transform="translate(194.563 56.853)">
      <path id="Path_501" data-name="Path 501" d="M181.14,117.066l-12.849-7.691a1.616,1.616,0,0,0-2.445,1.386v15.366a1.617,1.617,0,0,0,2.444,1.387l12.849-7.674A1.616,1.616,0,0,0,181.14,117.066Zm-12.064,6.214V113.61l8.086,4.84Z" transform="translate(-155.289 -101.736)" fill="#f7fafc"/>
      <g id="Ellipse_4" data-name="Ellipse 4" transform="translate(0 0)" fill="none" stroke="#fff" stroke-width="4">
        <ellipse cx="16.578" cy="16.954" rx="16.578" ry="16.954" stroke="none"/>
        <ellipse cx="16.578" cy="16.954" rx="14.578" ry="14.954" fill="none"/>
      </g>
    </g>
  </g>
</svg>
