<svg xmlns="http://www.w3.org/2000/svg" width="44" height="44" viewBox="0 0 44 44">
  <path id="inline_embed" data-name="inline embed" d="M3,7.889H7.889V3A4.9,4.9,0,0,0,3,7.889ZM3,27.444H7.889V22.556H3ZM12.778,47h4.889V42.111H12.778ZM3,17.667H7.889V12.778H3ZM27.444,3H22.556V7.889h4.889ZM42.111,3V7.889H47A4.9,4.9,0,0,0,42.111,3ZM7.889,47V42.111H3A4.9,4.9,0,0,0,7.889,47ZM3,37.222H7.889V32.333H3ZM17.667,3H12.778V7.889h4.889Zm4.889,44h4.889V42.111H22.556ZM42.111,27.444H47V22.556H42.111Zm0,19.556A4.9,4.9,0,0,0,47,42.111H42.111Zm0-29.333H47V12.778H42.111Zm0,19.556H47V32.333H42.111ZM32.333,47h4.889V42.111H32.333Zm0-39.111h4.889V3H32.333ZM12.778,37.222H37.222V12.778H12.778Zm4.889-19.556H32.333V32.333H17.667Z" transform="translate(-3 -3)" fill="#f7fafc"/>
</svg>
