<svg xmlns="http://www.w3.org/2000/svg" width="28" height="28.016" viewBox="0 0 28 28.016">
  <path id="integration_icon" data-name="integration icon" d="M8.537,28.015a8.357,8.357,0,0,0,5.6-2.157,8.391,8.391,0,1,0,7.8-14.34,8.4,8.4,0,1,0-15.6,0,8.394,8.394,0,0,0,2.2,16.5Zm3.733-8.4a7.42,7.42,0,0,1,.59-2.908,7.624,7.624,0,0,0,2.554,0,7.436,7.436,0,0,1-1.277,7.829,7.426,7.426,0,0,1-1.867-4.922Zm2.693-3.78a7.068,7.068,0,0,1-1.654,0,7.48,7.48,0,0,1,.827-1.142A7.511,7.511,0,0,1,14.964,15.836Zm-.168-1.8A7.372,7.372,0,0,1,20.564,12.2a7.484,7.484,0,0,1-4.624,3.455A8.416,8.416,0,0,0,14.8,14.033Zm-2.462,1.62A7.483,7.483,0,0,1,7.711,12.2a7.373,7.373,0,0,1,5.768,1.835,8.431,8.431,0,0,0-1.144,1.622ZM27.2,19.615A7.454,7.454,0,0,1,14.8,25.2a8.336,8.336,0,0,0,1.54-8.684,8.43,8.43,0,0,0,5.2-4.135A7.474,7.474,0,0,1,27.2,19.615ZM14.137.95a7.466,7.466,0,0,1,6.876,10.374,8.216,8.216,0,0,0-6.876,2.049,8.216,8.216,0,0,0-6.877-2.049A7.466,7.466,0,0,1,14.137.95Zm-7.4,11.428a8.431,8.431,0,0,0,5.2,4.135,8.335,8.335,0,0,0,1.54,8.684,7.458,7.458,0,1,1-6.743-12.82Zm0,0" transform="translate(-0.137 0.001)" fill="#e15fff"/>
</svg>
