<svg xmlns="http://www.w3.org/2000/svg" width="23.248" height="23.203" viewBox="0 0 23.248 23.203">
  <g id="invited_teams" data-name="invited teams" transform="translate(0 -0.501)">
    <path id="Path_5993" data-name="Path 5993" d="M169.57,9.993H176.2a.653.653,0,0,0,.652-.654V8.626a3.478,3.478,0,0,0-3.509-3.486,2.333,2.333,0,1,0-.916,0,3.478,3.478,0,0,0-3.509,3.486v.713A.653.653,0,0,0,169.57,9.993Z" transform="translate(-161.248)" fill="#f7fafc"/>
    <path id="Path_5994" data-name="Path 5994" d="M52.773,111.54a.679.679,0,0,0,.791-.55,9.088,9.088,0,0,1,2.59-4.85.682.682,0,0,0-.944-.984,10.457,10.457,0,0,0-2.984,5.589A.683.683,0,0,0,52.773,111.54Z" transform="translate(-49.844 -99.721)" fill="#f7fafc"/>
    <path id="Path_5995" data-name="Path 5995" d="M370.877,108.32a8.971,8.971,0,0,1,.943,2.669.68.68,0,1,0,1.339-.245,10.457,10.457,0,0,0-2.984-5.589.678.678,0,0,0-.962.018.685.685,0,0,0,.018.966,8.957,8.957,0,0,1,1.647,2.181Z" transform="translate(-352.265 -99.72)" fill="#f7fafc"/>
    <path id="Path_5996" data-name="Path 5996" d="M182.983,363.958a8.848,8.848,0,0,1-2.749.441H180.2a8.9,8.9,0,0,1-2.7-.413.683.683,0,0,0-.41,1.3,10.242,10.242,0,0,0,3.105.476h.037a10.23,10.23,0,0,0,3.173-.51.683.683,0,0,0-.425-1.3Z" transform="translate(-168.597 -346.921)" fill="#f7fafc"/>
    <path id="Path_5997" data-name="Path 5997" d="M4.425,307.081a2.333,2.333,0,1,0-.916,0A3.478,3.478,0,0,0,0,310.567v.713a.653.653,0,0,0,.652.654H7.283a.653.653,0,0,0,.652-.654v-.713a3.477,3.477,0,0,0-3.509-3.486Z" transform="translate(0 -288.231)" fill="#f7fafc"/>
    <path id="Path_5998" data-name="Path 5998" d="M341.682,307.081a2.333,2.333,0,1,0-.916,0,3.477,3.477,0,0,0-3.509,3.486v.713a.653.653,0,0,0,.652.654h6.631a.653.653,0,0,0,.652-.654v-.713A3.478,3.478,0,0,0,341.682,307.081Z" transform="translate(-321.943 -288.231)" fill="#f7fafc"/>
  </g>
</svg>
