<svg xmlns="http://www.w3.org/2000/svg" width="29.228" height="29.23" viewBox="0 0 29.228 29.23">
  <path id="layers" d="M29.1,13.593,24.4,11.246,29.1,8.9a1.143,1.143,0,0,0,0-2.043L15.624.12A1.143,1.143,0,0,0,14.6.12L1.129,6.857a1.143,1.143,0,0,0,0,2.043l4.694,2.347L1.129,13.593a1.143,1.143,0,0,0,0,2.043l4.694,2.347L1.129,20.33a1.143,1.143,0,0,0,0,2.043L14.6,29.109a1.142,1.142,0,0,0,1.021,0L29.1,22.372a1.143,1.143,0,0,0,0-2.043L24.4,17.983,29.1,15.636a1.143,1.143,0,0,0,0-2.043ZM15.113,2.418l10.92,5.46-10.92,5.46L4.193,7.878Zm10.92,18.933-10.92,5.46-10.92-5.46,4.183-2.092L14.6,22.372a1.142,1.142,0,0,0,1.021,0l6.226-3.113Zm-10.92-1.277-10.92-5.46,4.183-2.092L14.6,15.636a1.142,1.142,0,0,0,1.021,0l6.226-3.113,4.183,2.092Zm0,0" transform="translate(-0.499 0)" fill="#d840e5"/>
</svg>
