<svg xmlns="http://www.w3.org/2000/svg" width="15.946" height="15.603" viewBox="0 0 15.946 15.603">
  <path id="link_icon" data-name="link icon" d="M424.29,331.133l-2,1.951A2.454,2.454,0,0,1,418.8,333a2.506,2.506,0,0,1-.784-1.73,2.263,2.263,0,0,1,.7-1.684l2-1.951a.962.962,0,0,0,0-1.38,1.014,1.014,0,0,0-1.411,0l-2,1.951a4.164,4.164,0,0,0-1.282,3.111,4.435,4.435,0,0,0,1.367,3.063,4.621,4.621,0,0,0,3.234,1.34,4.377,4.377,0,0,0,3.079-1.256l2-1.951a.962.962,0,0,0,0-1.38A1.014,1.014,0,0,0,424.29,331.133Zm-3.99.4a1.012,1.012,0,0,0,1.41,0l5.986-5.853a.96.96,0,0,0,0-1.38,1.014,1.014,0,0,0-1.411,0l-5.985,5.854a.959.959,0,0,0,0,1.383Zm10.3-10.076a4.489,4.489,0,0,0-6.313-.084l-2,1.952a.959.959,0,0,0,0,1.379,1.013,1.013,0,0,0,1.41,0l2-1.951a2.454,2.454,0,0,1,3.491.084,2.515,2.515,0,0,1,.785,1.73,2.263,2.263,0,0,1-.7,1.684l-2,1.951a.96.96,0,0,0,0,1.38,1.013,1.013,0,0,0,1.411,0l2-1.951a4.172,4.172,0,0,0,1.282-3.111,4.432,4.432,0,0,0-1.366-3.059Z" transform="translate(-416.022 -320.117)" fill="#fff" fill-rule="evenodd"/>
</svg>
