<svg id="linkedin" xmlns="http://www.w3.org/2000/svg" width="60" height="60" viewBox="0 0 60 60">
  <path id="Path_1496" data-name="Path 1496" d="M50.5,8h-25A17.519,17.519,0,0,0,8,25.5v25A17.519,17.519,0,0,0,25.5,68h25A17.519,17.519,0,0,0,68,50.5v-25A17.519,17.519,0,0,0,50.5,8ZM63,50.5A12.514,12.514,0,0,1,50.5,63h-25A12.514,12.514,0,0,1,13,50.5v-25A12.514,12.514,0,0,1,25.5,13h25A12.514,12.514,0,0,1,63,25.5Z" transform="translate(-8 -8)" fill="#e15fff"/>
  <path id="Path_1497" data-name="Path 1497" d="M24.5,27A2.5,2.5,0,0,0,22,29.5V48.25a2.5,2.5,0,0,0,5,0V29.5A2.5,2.5,0,0,0,24.5,27Z" transform="translate(-4.5 -3.25)" fill="#e15fff"/>
  <path id="Path_1498" data-name="Path 1498" d="M40,29.5H37.5a7.47,7.47,0,0,0-2.5.438V29.5a2.5,2.5,0,0,0-5,0V48.25a2.5,2.5,0,0,0,5,0V37a2.5,2.5,0,0,1,2.5-2.5H40A2.5,2.5,0,0,1,42.5,37V48.25a2.5,2.5,0,0,0,5,0V37A7.508,7.508,0,0,0,40,29.5Z" transform="translate(-2.5 -3.25)" fill="#e15fff"/>
  <path id="Path_1499" data-name="Path 1499" d="M24.75,18a3.75,3.75,0,1,0,3.75,3.75A3.755,3.755,0,0,0,24.75,18Z" transform="translate(-4.75 -5.5)" fill="#e15fff"/>
</svg>
