<svg xmlns="http://www.w3.org/2000/svg" width="28" height="18.838" viewBox="0 0 28 18.838">
  <g id="live_icon" data-name="live icon" transform="translate(0 -0.998)">
    <path id="Shape" d="M19.682,19.86a.486.486,0,0,1,.594.467v5.845a1.958,1.958,0,0,1-1.221,1.791c-.46.2.33.14-17.124.14A1.944,1.944,0,0,1,0,26.173V18.931A1.931,1.931,0,0,1,1.931,17H16.949a.486.486,0,0,1,.467.594,1.925,1.925,0,0,0,2.266,2.266Z" transform="translate(0 -8.277)" fill="#e15fff"/>
    <g id="Group_90" data-name="Group 90" transform="translate(1.931 10.654)">
      <path id="Shape-2" data-name="Shape" d="M13.483,28.242A.483.483,0,0,1,13,27.759V21.483a.483.483,0,1,1,.966,0v6.276A.483.483,0,0,1,13.483,28.242Z" transform="translate(-8.655 -21)" fill="#fff"/>
      <path id="Shape-3" data-name="Shape" d="M19.413,28.241h-.483a.483.483,0,0,1-.471-.374l-1.448-6.276a.483.483,0,0,1,.941-.217l1.219,5.283,1.219-5.283a.483.483,0,0,1,.941.217l-1.448,6.276A.483.483,0,0,1,19.413,28.241Z" transform="translate(-10.724 -20.999)" fill="#fff"/>
      <path id="Shape-4" data-name="Shape" d="M30.9,28.242H28.483A.483.483,0,0,1,28,27.759V21.483a.483.483,0,1,1,.966,0v5.793H30.9a.483.483,0,1,1,0,.966Z" transform="translate(-16.414 -21)" fill="#fff"/>
      <path id="Shape-5" data-name="Shape" d="M6.9,28.242H4.483A.483.483,0,0,1,4,27.759V21.483a.483.483,0,1,1,.966,0v5.793H6.9a.483.483,0,1,1,0,.966Z" transform="translate(-4 -21)" fill="#fff"/>
      <path id="Shape-6" data-name="Shape" d="M30.9,28.966H28.483a.483.483,0,0,1,0-.966H30.9a.483.483,0,1,1,0,.966Z" transform="translate(-16.414 -24.62)" fill="#fff"/>
      <path id="Shape-7" data-name="Shape" d="M30.9,21.966H28.483a.483.483,0,0,1,0-.966H30.9a.483.483,0,1,1,0,.966Z" transform="translate(-16.414 -21)" fill="#fff"/>
    </g>
    <path id="Shape-8" data-name="Shape" d="M27.486,5.315a6.755,6.755,0,1,1,9.669,9.392.966.966,0,1,0,1.283,1.44A8.684,8.684,0,1,0,26.01,4.071a.966.966,0,1,0,1.475,1.244Z" transform="translate(-13.323)" fill="#f0c2fb"/>
    <path id="Shape-9" data-name="Shape" d="M34.885,11.475a2.9,2.9,0,0,1,4.023,4.067.944.944,0,0,0-.043,1.036.966.966,0,0,0,1.6.1,4.825,4.825,0,0,0-6.7-6.776.96.96,0,0,0,.156,1.628.936.936,0,0,0,.964-.057Z" transform="translate(-17.267 -4.137)" fill="#dc71f5"/>
    <path id="Oval" d="M.819,0A.819.819,0,1,1,0,.819.819.819,0,0,1,.819,0Z" transform="translate(18.021 9.54)" fill="#ecbbf8"/>
  </g>
</svg>
