<svg xmlns="http://www.w3.org/2000/svg" width="14" height="15.87" viewBox="0 0 14 15.87">
  <path id="lock_1" d="M301,133.064h-7v-.893a2.055,2.055,0,0,1,1.72-2.063,2,2,0,0,1,2.178,1.344.963.963,0,0,0,.925.62.994.994,0,0,0,.957-1.3,4,4,0,0,0-4.137-2.651A4.09,4.09,0,0,0,292,132.239v.825h-1a1.992,1.992,0,0,0-2,1.984v6.942a1.992,1.992,0,0,0,2,1.984h10a1.992,1.992,0,0,0,2-1.984v-6.942a1.992,1.992,0,0,0-2-1.984Zm0,8.926H291v-6.942h10Zm-5.983-3.061c0,.03-.017.055-.017.086V141h2v-1.983a.826.826,0,0,0-.018-.086,1.482,1.482,0,0,0-.482-2.89h-1a1.483,1.483,0,0,0-.483,2.888Z" transform="translate(-289 -128.104)" fill="#d840e5" fill-rule="evenodd"/>
</svg>
