<svg xmlns="http://www.w3.org/2000/svg" width="32.036" height="25.768" viewBox="0 0 32.036 25.768">
  <path id="log_out_icon" data-name="log out icon" d="M20.893,27v6.372a1.339,1.339,0,0,1-1.323,1.393H1.393A1.4,1.4,0,0,1,0,33.376V10.393A1.4,1.4,0,0,1,1.393,9H19.57a1.339,1.339,0,0,1,1.323,1.393v6.372a1.393,1.393,0,0,1-2.786,0v-4.98H2.786v20.2H18.108V27a1.393,1.393,0,0,1,2.786,0ZM31.619,20.84l-5.432-5.5A1.4,1.4,0,1,0,24.2,17.322l3.1,3.134-16.889.035a1.393,1.393,0,1,0,0,2.786h0L27.3,23.242l-3.1,3.134a1.419,1.419,0,0,0,0,1.985,1.375,1.375,0,0,0,.975.418,1.318,1.318,0,0,0,.975-.418l5.467-5.5A1.429,1.429,0,0,0,31.619,20.84Z" transform="translate(0 -9)" fill="#f7fafc"/>
</svg>
