<svg xmlns="http://www.w3.org/2000/svg" xmlns:xlink="http://www.w3.org/1999/xlink" width="420.004" height="268.16" viewBox="0 0 420.004 268.16">
  <defs>
    <linearGradient id="linear-gradient" x1="0.001" y1="0.5" x2="1.017" y2="0.5" gradientUnits="objectBoundingBox">
      <stop offset="0" stop-color="#d9bdff"/>
      <stop offset="1" stop-color="#fbcaf3"/>
    </linearGradient>
    <linearGradient id="linear-gradient-2" x1="0.981" y1="0.5" x2="0.004" y2="0.5" xlink:href="#linear-gradient"/>
    <clipPath id="clip-path">
      <path id="Path_1274" data-name="Path 1274" d="M12141.3,5993.937v20.432c.915,1.836,1.918,3.613,3,5.345,3.345.029,6.8.074,10.345.118v-22.875c-3.557-2.473-7-5.182-10.39-7.847-.616.933-1.208,1.9-1.77,2.873C12142.093,5992.648,12141.7,5993.314,12141.3,5993.937Z" transform="translate(-12141.299 -5989.109)" clip-rule="evenodd"/>
    </clipPath>
    <clipPath id="clip-path-2">
      <path id="Path_1275" data-name="Path 1275" d="M19508.2,4829.5v12.412h12.49c1.91-3.391,5.363-5.315,8.01-5.315a3.318,3.318,0,0,1,3.416,2.215c2.387-11.034,7.6-14.148,12.193-14.148,4.3,0,8.047,2.74,8.377,4.252,3.342-2.994,6.355-4.177,8.889-4.177,5.584,0,9,5.577,9,10.2,0,0,3.27-1.729,5.658-1.729,2.275,0,3.781,1.52,1.174,7.4a9.754,9.754,0,0,1-.734,1.31h42.574a11.764,11.764,0,0,1,4.885-1.183,5.973,5.973,0,0,1,3.822,1.183h2.057c1.873-7.374,4.629-12.239,7.75-15.309v-2.68a97.521,97.521,0,0,0-10.725-8.13c-9.92,1.557-19.8,3.571-29.607,5.51a162.75,162.75,0,0,1-31.592,3.2,134.916,134.916,0,0,1-34.2-4.282c-1.213-.314-2.426-.651-3.635-1-2.979,1.228-5.953,2.567-8.891,4.035C19515.473,4825.051,19511.873,4827.222,19508.2,4829.5Z" transform="translate(-19508.197 -4815.791)" clip-rule="evenodd"/>
    </clipPath>
    <clipPath id="clip-path-3">
      <path id="Path_1276" data-name="Path 1276" d="M31783.9,5519.41v3.688a18.37,18.37,0,0,1,2.029-1.871C31785.262,5520.611,31784.588,5520,31783.9,5519.41Z" transform="translate(-31783.9 -5519.41)" clip-rule="evenodd"/>
    </clipPath>
    <clipPath id="clip-path-4">
      <path id="Path_1277" data-name="Path 1277" d="M11667.622,6375.918h.027v-22.278a43.214,43.214,0,0,1-5.569,7.389A63.392,63.392,0,0,0,11667.622,6375.918Z" transform="translate(-11662.08 -6353.641)" clip-rule="evenodd"/>
    </clipPath>
    <clipPath id="clip-path-5">
      <path id="Path_1278" data-name="Path 1278" d="M13360.4,6675.529v23.239c4.376.045,8.9.111,13.525.167v-15.894A61.58,61.58,0,0,1,13360.4,6675.529Z" transform="translate(-13360.4 -6675.529)" clip-rule="evenodd"/>
    </clipPath>
    <clipPath id="clip-path-6">
      <path id="Path_1279" data-name="Path 1279" d="M17051.5,6057.53v16.4c8.662.145,17.5.312,26.348.479V6043.23C17069.363,6048.469,17060.693,6054.332,17051.5,6057.53Z" transform="translate(-17051.5 -6043.23)" clip-rule="evenodd"/>
    </clipPath>
    <clipPath id="clip-path-7">
      <path id="Path_1280" data-name="Path 1280" d="M14596.2,7338.4v16.1c8.469.119,17.313.254,26.348.411v-16.6a41.406,41.406,0,0,1-12.654,2.59c-.352.008-.7.015-1.047.015A34.229,34.229,0,0,1,14596.2,7338.4Z" transform="translate(-14596.199 -7338.32)" clip-rule="evenodd"/>
    </clipPath>
    <clipPath id="clip-path-8">
      <path id="Path_1281" data-name="Path 1281" d="M19507.3,7163.1v18.969c4.451.09,8.908.173,13.346.27V7178.3c-.732-.007-1.43-.03-2.1-.052-11.783-.5-5.328-10.5-1.053-10.5h0a2.277,2.277,0,0,1,.9.172,11.191,11.191,0,0,1,1.729-4.821Z" transform="translate(-19507.301 -7163.101)" clip-rule="evenodd"/>
    </clipPath>
    <clipPath id="clip-path-9">
      <path id="Path_1282" data-name="Path 1282" d="M21962.2,7177.81v4.784c24.313.517,47.436,1.07,65.715,1.542,1.416-3.638,5.217-6.932,8.268-6.932a3.686,3.686,0,0,1,1.414.262,17.583,17.583,0,0,1,2.563-7.313V7163.1h-34.945C22000.307,7171.821,21979.129,7176.373,21962.2,7177.81Z" transform="translate(-21962.199 -7163.101)" clip-rule="evenodd"/>
    </clipPath>
    <clipPath id="clip-path-10">
      <path id="Path_1283" data-name="Path 1283" d="M29328.2,7162.79v7.973a17.136,17.136,0,0,1,9.193-7.973Zm18.754,0h-3.088a4.723,4.723,0,0,1,2.414,2.834C29346.488,7164.638,29346.715,7163.7,29346.953,7162.79Z" transform="translate(-29328.199 -7162.79)" clip-rule="evenodd"/>
    </clipPath>
    <clipPath id="clip-path-11">
      <path id="Path_1284" data-name="Path 1284" d="M3599.269,8793.418h1.569q.292-2.139.688-4.223v-37.227a68.32,68.32,0,0,0-5.5-13.391,61.488,61.488,0,0,1-2.967-6.278,20.781,20.781,0,0,0-17.236,24.854c.912,10.057,4.111,20.169,6.107,30.078a17.947,17.947,0,0,1,2.01-.111C3589.1,8787.121,3594.537,8789.381,3599.269,8793.418Z" transform="translate(-3575.565 -8732.3)" clip-rule="evenodd"/>
    </clipPath>
    <clipPath id="clip-path-12">
      <path id="Path_1285" data-name="Path 1285" d="M20726.4,8509.5v4.028q6.806.136,13.525.278v-4.843c-4.248.375-8.246.555-11.672.555Q20727.293,8509.515,20726.4,8509.5Z" transform="translate(-20726.4 -8508.96)" clip-rule="evenodd"/>
    </clipPath>
    <clipPath id="clip-path-13">
      <path id="Path_1286" data-name="Path 1286" d="M5994.43,10377.5v42.159q.559-3.766,1.428-7.37A64.738,64.738,0,0,0,5994.43,10377.5Z" transform="translate(-5994.43 -10377.5)" clip-rule="evenodd"/>
    </clipPath>
    <clipPath id="clip-path-14">
      <path id="Path_1287" data-name="Path 1287" d="M32285.061,9736.553a63.484,63.484,0,0,0-8.885-3.194c-.494-15.856-1.414-30.449-3-41.03a14.658,14.658,0,0,0-1.8-5.142c3.037-.386,6.115-.832,9.176-1.337-2.508,7.534-4.8,15.4.9,22.156.848,1.011,2.621,1.813,4.879,2.482C32285.734,9718.943,32286.25,9728.113,32285.061,9736.553Z" transform="translate(-32271.379 -9685.85)" clip-rule="evenodd"/>
    </clipPath>
    <clipPath id="clip-path-15">
      <path id="Path_1288" data-name="Path 1288" d="M35990.527,12542.736a107.432,107.432,0,0,1-5.633-12.809,39.843,39.843,0,0,1-2.391-14.371c.223-6.583,2.559-12.66,5.633-18.427a76.425,76.425,0,0,1,14.984,6.346,45.232,45.232,0,0,0-2.273,12.735,50.565,50.565,0,0,0,.164,5.172C35996.445,12527.207,35993.223,12534.891,35990.527,12542.736Z" transform="translate(-35982.484 -12497.13)" clip-rule="evenodd"/>
    </clipPath>
    <clipPath id="clip-path-16">
      <path id="Path_1289" data-name="Path 1289" d="M5769.37,14291.7h-2.32q1.065.854,2.077,1.832C5769.2,14292.916,5769.282,14292.309,5769.37,14291.7Z" transform="translate(-5767.05 -14291.7)" clip-rule="evenodd"/>
    </clipPath>
    <clipPath id="clip-path-17">
      <path id="Path_1290" data-name="Path 1290" d="M33459.734,14291.7h-1.273c.4.169.8.344,1.2.521C33459.688,14292.048,33459.711,14291.872,33459.734,14291.7Z" transform="translate(-33458.461 -14291.7)" clip-rule="evenodd"/>
    </clipPath>
    <linearGradient id="linear-gradient-3" x1="0.315" y1="0.008" x2="0.692" y2="0.755" gradientUnits="objectBoundingBox">
      <stop offset="0" stop-color="#c32b78"/>
      <stop offset="1" stop-color="#593092"/>
    </linearGradient>
    <linearGradient id="linear-gradient-4" x1="-0.023" y1="-0.121" x2="0.659" y2="0.777" gradientUnits="objectBoundingBox">
      <stop offset="0" stop-color="#e5a4c5"/>
      <stop offset="1" stop-color="#b7a6d0"/>
    </linearGradient>
    <linearGradient id="linear-gradient-5" x1="1.06" y1="0.962" x2="0.105" y2="0.2" gradientUnits="objectBoundingBox">
      <stop offset="0" stop-color="#a737d5"/>
      <stop offset="1" stop-color="#ef497a"/>
    </linearGradient>
    <linearGradient id="linear-gradient-6" x1="1.214" y1="1.047" x2="-0.186" y2="0.109" gradientUnits="objectBoundingBox">
      <stop offset="0" stop-color="#d9a9ed"/>
      <stop offset="1" stop-color="#f8b0c6"/>
    </linearGradient>
    <linearGradient id="linear-gradient-7" x1="0.717" y1="-0.063" x2="-0.102" y2="1.774" gradientUnits="objectBoundingBox">
      <stop offset="0" stop-color="#fdf53f"/>
      <stop offset="1" stop-color="#d93c65"/>
    </linearGradient>
    <linearGradient id="linear-gradient-8" x1="-0.14" y1="0.49" x2="0.632" y2="0.502" gradientUnits="objectBoundingBox">
      <stop offset="0" stop-color="#2b3582"/>
      <stop offset="1" stop-color="#150e42"/>
    </linearGradient>
    <linearGradient id="linear-gradient-9" x1="0.535" y1="-0.605" x2="0.413" y2="3.081" xlink:href="#linear-gradient-7"/>
    <linearGradient id="linear-gradient-10" x1="0.942" y1="0.073" x2="-0.632" y2="1.669" gradientUnits="objectBoundingBox">
      <stop offset="0" stop-color="#53d8ff"/>
      <stop offset="1" stop-color="#3840f7"/>
    </linearGradient>
    <linearGradient id="linear-gradient-11" x1="0.086" y1="0.469" x2="0.885" y2="0.527" xlink:href="#linear-gradient-8"/>
    <linearGradient id="linear-gradient-12" x1="1.219" y1="2.116" x2="-4.75" y2="2.116" gradientUnits="objectBoundingBox">
      <stop offset="0" stop-color="#ecdeff"/>
      <stop offset="1" stop-color="#fde5f9"/>
    </linearGradient>
    <clipPath id="clip-path-18">
      <path id="Path_1301" data-name="Path 1301" d="M28256.785,5731.6a13.624,13.624,0,0,0-11.322-6.887c-6.723-.232-17.664-.542-31.322-.892,1.424-3.644,5.213-6.939,8.275-6.939a3.637,3.637,0,0,1,1.408.271c1.125-9.42,9.088-15.015,14.75-15.015,2.516,0,4.57,1.111,5.346,3.476,2.137-9.923,5.729-15.751,9.77-18.917,10.5,9.7,18.359,22.419,14.32,37.137-.58,2.093-1.326,4.251-2.053,6.435-3.064.5-6.143.943-9.172,1.331Z" transform="translate(-28214.141 -5686.7)" clip-rule="evenodd"/>
    </clipPath>
    <clipPath id="clip-path-19">
      <path id="Path_1302" data-name="Path 1302" d="M19948.9,5661.6c-1.221,0-2.359-.027-3.414-.064-11.8-.5-5.342-10.508-1.057-10.508a2.207,2.207,0,0,1,.891.175c.723-6.01,5.814-9.586,9.416-9.586a3.34,3.34,0,0,1,3.436,2.221c2.359-11.042,7.574-14.158,12.168-14.158,4.328,0,8.074,2.747,8.383,4.259,3.334-3,6.354-4.176,8.9-4.176,5.568,0,8.982,5.567,9,10.194,0,0,3.252-1.732,5.652-1.732,2.256,0,3.787,1.521,1.158,7.4-5.029,11.365-37.168,15.974-54.533,15.974Z" transform="translate(-19938.768 -5629.681)" clip-rule="evenodd"/>
    </clipPath>
    <linearGradient id="linear-gradient-13" x1="0.52" y1="2.432" x2="0.468" y2="-1.308" xlink:href="#linear-gradient-8"/>
    <linearGradient id="linear-gradient-14" x1="0" y1="0.501" x2="1.002" y2="0.501" xlink:href="#linear-gradient-8"/>
    <linearGradient id="linear-gradient-15" x1="0.265" y1="0.866" x2="1.243" y2="-0.669" xlink:href="#linear-gradient-7"/>
    <linearGradient id="linear-gradient-16" x1="-0.039" y1="-15.983" x2="1.418" y2="-15.983" gradientUnits="objectBoundingBox">
      <stop offset="0" stop-color="#b5b8d3"/>
      <stop offset="1" stop-color="#adabbd"/>
    </linearGradient>
    <linearGradient id="linear-gradient-17" x1="0.524" y1="0.3" x2="0.227" y2="5.117" xlink:href="#linear-gradient-8"/>
    <linearGradient id="linear-gradient-18" x1="0.267" y1="0.946" x2="1.256" y2="-0.712" xlink:href="#linear-gradient-10"/>
    <linearGradient id="linear-gradient-19" x1="1.01" y1="-0.198" x2="-0.511" y2="1.886" gradientUnits="objectBoundingBox">
      <stop offset="0" stop-color="#cb236d"/>
      <stop offset="1" stop-color="#4c246d"/>
    </linearGradient>
    <linearGradient id="linear-gradient-20" x1="1.847" y1="-5.388" x2="-18.215" y2="8.624" xlink:href="#linear-gradient-19"/>
    <linearGradient id="linear-gradient-21" x1="1.109" y1="-0.514" x2="-2.149" y2="3.951" xlink:href="#linear-gradient-19"/>
    <linearGradient id="linear-gradient-22" x1="0.499" y1="-0.962" x2="0.501" y2="0.361" xlink:href="#linear-gradient-19"/>
    <linearGradient id="linear-gradient-23" x1="0.546" y1="-3.923" x2="0.548" y2="0.237" gradientUnits="objectBoundingBox">
      <stop offset="0" stop-color="#efbbd2"/>
      <stop offset="1" stop-color="#c8bbd2"/>
    </linearGradient>
    <linearGradient id="linear-gradient-24" x1="0.973" y1="-2.171" x2="-0.232" y2="4.819" xlink:href="#linear-gradient-10"/>
    <linearGradient id="linear-gradient-25" x1="0.193" y1="-1.428" x2="-11.386" y2="3.527" xlink:href="#linear-gradient-10"/>
    <linearGradient id="linear-gradient-26" x1="-24.77" y1="-4.121" x2="-24.676" y2="0.214" xlink:href="#linear-gradient-23"/>
    <linearGradient id="linear-gradient-27" x1="-27.507" y1="-3.001" x2="-27.413" y2="0.386" xlink:href="#linear-gradient-23"/>
    <linearGradient id="linear-gradient-28" x1="-28.857" y1="-2.369" x2="-28.753" y2="0.483" xlink:href="#linear-gradient-23"/>
    <linearGradient id="linear-gradient-29" x1="0.318" y1="0.419" x2="1.799" y2="-9.458" gradientUnits="objectBoundingBox">
      <stop offset="0" stop-color="#fefcc4"/>
      <stop offset="1" stop-color="#f3c3cf"/>
    </linearGradient>
    <linearGradient id="linear-gradient-30" x1="0.386" y1="1.121" x2="2.374" y2="-63.322" gradientUnits="objectBoundingBox">
      <stop offset="0" stop-color="#fffeed"/>
      <stop offset="1" stop-color="#fbecf0"/>
    </linearGradient>
    <linearGradient id="linear-gradient-31" x1="0.547" y1="-0.416" x2="3.365" y2="-83.288" xlink:href="#linear-gradient-30"/>
    <linearGradient id="linear-gradient-32" x1="1.008" y1="-3.182" x2="6.202" y2="-119.18" xlink:href="#linear-gradient-30"/>
    <linearGradient id="linear-gradient-33" x1="-2.675" y1="2.962" x2="2.44" y2="-2.92" xlink:href="#linear-gradient-29"/>
    <linearGradient id="linear-gradient-34" x1="1.01" y1="-0.198" x2="-0.511" y2="1.886" xlink:href="#linear-gradient-7"/>
    <linearGradient id="linear-gradient-35" x1="1.761" y1="-5.201" x2="-17.007" y2="8.367" xlink:href="#linear-gradient-7"/>
    <linearGradient id="linear-gradient-36" x1="1.103" y1="-0.504" x2="-2.122" y2="3.917" xlink:href="#linear-gradient-7"/>
    <linearGradient id="linear-gradient-37" x1="1.357" y1="-0.867" x2="-1.552" y2="3.187" xlink:href="#linear-gradient-7"/>
    <linearGradient id="linear-gradient-38" x1="-4.527" y1="3.51" x2="4.13" y2="-7.671" xlink:href="#linear-gradient-29"/>
    <linearGradient id="linear-gradient-39" x1="1.01" y1="-0.198" x2="-0.511" y2="1.886" xlink:href="#linear-gradient-10"/>
    <linearGradient id="linear-gradient-40" x1="1.761" y1="-5.2" x2="-17.007" y2="8.367" xlink:href="#linear-gradient-10"/>
    <linearGradient id="linear-gradient-41" x1="1.103" y1="-0.504" x2="-2.122" y2="3.917" xlink:href="#linear-gradient-10"/>
    <linearGradient id="linear-gradient-42" x1="1.357" y1="-0.867" x2="-1.552" y2="3.187" xlink:href="#linear-gradient-10"/>
    <linearGradient id="linear-gradient-43" x1="0" y1="0.5" x2="1" y2="0.5" xlink:href="#linear-gradient-19"/>
    <linearGradient id="linear-gradient-44" x1="-44.307" y1="0.023" x2="2.298" y2="0.023" xlink:href="#linear-gradient-19"/>
    <linearGradient id="linear-gradient-45" x1="-0.585" y1="1.155" x2="1.053" y2="1.155" xlink:href="#linear-gradient-19"/>
    <linearGradient id="linear-gradient-46" x1="-1.319" y1="1.422" x2="2.319" y2="1.422" xlink:href="#linear-gradient-23"/>
    <linearGradient id="linear-gradient-47" x1="-1.943" y1="1.738" x2="2.943" y2="1.738" gradientUnits="objectBoundingBox">
      <stop offset="0" stop-color="#faeaf1"/>
      <stop offset="1" stop-color="#eeeaf1"/>
    </linearGradient>
    <linearGradient id="linear-gradient-48" x1="-1.319" y1="-0.436" x2="2.319" y2="-0.436" xlink:href="#linear-gradient-23"/>
    <linearGradient id="linear-gradient-49" x1="-0.39" y1="0.493" x2="3.248" y2="0.493" xlink:href="#linear-gradient-23"/>
    <linearGradient id="linear-gradient-50" x1="-1.943" y1="-0.757" x2="2.943" y2="-0.757" xlink:href="#linear-gradient-47"/>
    <linearGradient id="linear-gradient-51" x1="-0.695" y1="0.49" x2="4.19" y2="0.49" xlink:href="#linear-gradient-47"/>
    <linearGradient id="linear-gradient-52" x1="-2.248" y1="0.493" x2="1.39" y2="0.493" xlink:href="#linear-gradient-23"/>
    <linearGradient id="linear-gradient-53" x1="-3.19" y1="0.49" x2="1.695" y2="0.49" xlink:href="#linear-gradient-47"/>
    <linearGradient id="linear-gradient-54" x1="-4.966" y1="0.375" x2="5.721" y2="0.375" xlink:href="#linear-gradient-23"/>
    <linearGradient id="linear-gradient-55" x1="1.1" y1="0.24" x2="0.265" y2="0.678" gradientUnits="objectBoundingBox">
      <stop offset="0" stop-color="#f9b776"/>
      <stop offset="1" stop-color="#f47960"/>
    </linearGradient>
    <linearGradient id="linear-gradient-56" x1="0.874" y1="-0.591" x2="-0.225" y2="2.834" xlink:href="#linear-gradient-19"/>
    <linearGradient id="linear-gradient-57" x1="1.281" y1="0.225" x2="4.685" y2="-1.251" xlink:href="#linear-gradient-55"/>
    <linearGradient id="linear-gradient-58" x1="1.144" y1="-0.324" x2="-0.741" y2="2.237" xlink:href="#linear-gradient-19"/>
    <linearGradient id="linear-gradient-59" x1="0.89" y1="-0.751" x2="0.265" y2="0.829" xlink:href="#linear-gradient-10"/>
    <linearGradient id="linear-gradient-60" x1="1.214" y1="-0.199" x2="0.672" y2="0.301" xlink:href="#linear-gradient-8"/>
    <linearGradient id="linear-gradient-61" x1="1" y1="0.089" x2="-1.502" y2="2.709" xlink:href="#linear-gradient-7"/>
    <linearGradient id="linear-gradient-62" x1="0.38" y1="0.486" x2="-0.614" y2="0.486" xlink:href="#linear-gradient-55"/>
    <linearGradient id="linear-gradient-63" x1="0.597" y1="1.844" x2="0.511" y2="0.807" xlink:href="#linear-gradient-55"/>
    <linearGradient id="linear-gradient-64" x1="0.016" y1="1.134" x2="1.365" y2="-0.809" xlink:href="#linear-gradient-55"/>
    <linearGradient id="linear-gradient-65" x1="1.28" y1="0.338" x2="0.001" y2="0.76" xlink:href="#linear-gradient-8"/>
    <linearGradient id="linear-gradient-66" x1="-1.163" y1="2.989" x2="2.913" y2="-3.729" xlink:href="#linear-gradient-55"/>
    <linearGradient id="linear-gradient-67" x1="-0.117" y1="-1.919" x2="0.612" y2="0.941" xlink:href="#linear-gradient-10"/>
    <linearGradient id="linear-gradient-68" x1="0.959" y1="0.565" x2="-4.072" y2="-0.107" xlink:href="#linear-gradient-8"/>
    <linearGradient id="linear-gradient-69" x1="-0.187" y1="-0.239" x2="1.425" y2="1.495" xlink:href="#linear-gradient-10"/>
    <linearGradient id="linear-gradient-70" x1="0.043" y1="0.212" x2="1.109" y2="0.761" xlink:href="#linear-gradient-10"/>
    <linearGradient id="linear-gradient-71" x1="0.002" y1="0.132" x2="1.005" y2="0.872" xlink:href="#linear-gradient-10"/>
    <linearGradient id="linear-gradient-72" x1="0.107" y1="0.283" x2="0.77" y2="0.568" xlink:href="#linear-gradient-55"/>
    <linearGradient id="linear-gradient-73" x1="-0.006" y1="0.522" x2="1.01" y2="0.45" xlink:href="#linear-gradient-10"/>
    <linearGradient id="linear-gradient-74" x1="0.004" y1="0.542" x2="0.988" y2="0.343" xlink:href="#linear-gradient-10"/>
    <linearGradient id="linear-gradient-75" x1="0.054" y1="0.426" x2="0.939" y2="0.533" xlink:href="#linear-gradient-55"/>
    <linearGradient id="linear-gradient-76" x1="0.087" y1="0.034" x2="0.829" y2="1.099" xlink:href="#linear-gradient-19"/>
    <linearGradient id="linear-gradient-77" x1="3.75" y1="-3.486" x2="-2.129" y2="3.733" xlink:href="#linear-gradient-19"/>
    <linearGradient id="linear-gradient-78" x1="1.376" y1="-0.053" x2="-1.027" y2="1.407" xlink:href="#linear-gradient-10"/>
    <linearGradient id="linear-gradient-79" x1="0.276" y1="1.258" x2="0.58" y2="0.347" xlink:href="#linear-gradient-55"/>
    <linearGradient id="linear-gradient-80" x1="0.848" y1="0.351" x2="-0.339" y2="0.993" xlink:href="#linear-gradient-55"/>
    <linearGradient id="linear-gradient-81" x1="0.321" y1="0.094" x2="0.882" y2="1.19" xlink:href="#linear-gradient-8"/>
    <linearGradient id="linear-gradient-82" x1="2.506" y1="-0.275" x2="-1.313" y2="1.474" xlink:href="#linear-gradient-55"/>
    <linearGradient id="linear-gradient-83" x1="2.095" y1="-0.087" x2="-7.491" y2="3.52" xlink:href="#linear-gradient-55"/>
    <linearGradient id="linear-gradient-84" x1="1.205" y1="-0.737" x2="-0.276" y2="1.523" xlink:href="#linear-gradient-55"/>
    <linearGradient id="linear-gradient-85" x1="0.938" y1="0.161" x2="-0.473" y2="1.822" xlink:href="#linear-gradient-10"/>
    <linearGradient id="linear-gradient-86" x1="3.323" y1="3.046" x2="-0.41" y2="-0.66" xlink:href="#linear-gradient-10"/>
    <linearGradient id="linear-gradient-87" x1="0.757" y1="1.076" x2="0.228" y2="-0.607" xlink:href="#linear-gradient-10"/>
    <linearGradient id="linear-gradient-88" x1="1.436" y1="1.738" x2="0.667" y2="0.647" xlink:href="#linear-gradient-10"/>
    <linearGradient id="linear-gradient-89" x1="2.613" y1="1.179" x2="-1.409" y2="-0.387" xlink:href="#linear-gradient-10"/>
  </defs>
  <g id="login_image" data-name="login image" transform="translate(-2457.33 -2706.63)">
    <path id="Path_1271" data-name="Path 1271" d="M41990.887,26903.352a1.086,1.086,0,0,1-.84-.824,1.276,1.276,0,0,1,0-.727l-3.453.855,1.641-3.918.336.154-1.344,3.211,3.9-.963-.559.51a.754.754,0,0,0-.164.768.724.724,0,0,0,.539.553Z" transform="translate(-39113.793 -23928.563)" fill="#999"/>
    <path id="Path_1272" data-name="Path 1272" d="M2700.722,4167.577a96.474,96.474,0,0,1-19.436-2.211l-2.566-15.783c8.894.119,17.534.224,25.753.312a66.9,66.9,0,0,0,13.3,15.194,55.265,55.265,0,0,1-17.055,2.489Zm-205.327-9.93c-19.948-6.181-36.867-19.7-37.952-43.988-.523-11.7.564-17.517,7.174-26.283.377-.5.787-1,1.224-1.508a36.918,36.918,0,0,0,3.369,4.506,39.019,39.019,0,0,1,9.75,26.262,57.715,57.715,0,0,0,6.458,26.917A58.406,58.406,0,0,0,2495.4,4157.647Zm332.828-102.581a47.942,47.942,0,0,1-.167-5.167,44.756,44.756,0,0,1,2.273-12.73l.122.071a38.991,38.991,0,0,1,10.271,8.286,28.276,28.276,0,0,0-10.527,7.239Q2829.167,4053.857,2828.223,4055.066Zm-359.116-47.732a67.393,67.393,0,0,1,12.821-37.4,66.387,66.387,0,0,0,4.646,19.872A61.682,61.682,0,0,0,2469.107,4007.333Zm84.969-36.055q-.418-1.776-.735-3.588-.446-2.548-1.1-5.116a64.843,64.843,0,0,0-4.611-12.513,55.254,55.254,0,0,1,7.35,4.475c2.358,1.694,4.714,3.524,7.093,5.386q-.922,1.4-1.77,2.864A44.508,44.508,0,0,1,2554.075,3971.279Zm140.113-15.437a135.06,135.06,0,0,1-34.216-4.28q-1.824-.476-3.637-1c14.14-5.82,28.8-9.152,44.076-11.2a164.676,164.676,0,0,1,21.695-1.8c10.335,0,20.508,1.725,29.718,7.328q1.744,1.061,3.537,2.239c-9.9,1.56-19.774,3.575-29.6,5.514A163.258,163.258,0,0,1,2694.188,3955.842Z" transform="translate(0 -1217.53)" fill-rule="evenodd" fill="url(#linear-gradient)"/>
    <path id="Path_1273" data-name="Path 1273" d="M2629.27,4175.7q-.828,0-1.655-.014c7.163-3.405,12.4-10.362,14.886-18.964,5.845.107,11.833.215,17.893.321l-1.613,14.991A134.91,134.91,0,0,1,2629.27,4175.7Zm-30.961-6.2c-.611-.278-1.214-.564-1.819-.864-.029-.274-.062-.548-.1-.824-.015-.106-.029-.212-.042-.319Q2597.3,4168.539,2598.309,4169.5Zm-91.941-106.531c-4.681-7.469-6.06-16.854-2.387-28.156a76.893,76.893,0,0,1,9.213-19.046,62.552,62.552,0,0,0,.234,7.316c.913,10.063,4.106,20.181,6.1,30.088a15.991,15.991,0,0,0-5.835,1.854A17.528,17.528,0,0,0,2506.368,4062.965Zm368.049-17.368a75.742,75.742,0,0,0-14.991-6.344c2.84-5.33,6.314-10.387,9.336-15.317,5.781-9.428,10.834-23.866-5.369-24.312-.193-.005-.385-.008-.582-.008-12.814,0-28.774,11.425-31.854,24.821a57.732,57.732,0,0,0-1.225,8.82c-2.262-.668-4.038-1.476-4.882-2.48-5.694-6.767-3.4-14.624-.9-22.152,22.2-3.664,43.916-10.67,48.877-21.854,4.082-9.209,1.717-11.588-1.817-11.588-3.775,0-8.877,2.712-8.877,2.712-.018-7.238-5.365-15.965-14.067-15.965-4.006,0-8.724,1.848-13.962,6.54-.477-2.373-6.353-6.667-13.1-6.667a14.826,14.826,0,0,0-9.321,3.246,95.172,95.172,0,0,0-12.237-9.485q1.82-.287,3.643-.552a181.809,181.809,0,0,1,25.961-2.081c12.666,0,25.381,1.8,36.478,7.037,21.654,10.228,33.208,39.962,20.267,62.644C2881.544,4030.062,2877.046,4037.5,2874.417,4045.6Zm-232.765-59.947c-13.719,0-24.837-8.959-35.5-17.3,8.312-12.608,21.2-21.208,35.966-22.131q2.094-.131,4.16-.129c18.849,0,36.174,7.782,54.141,12.9q-4.48,1.844-8.89,4.032c-15.394,7.658-31.027,22.018-48.842,22.605Q2642.17,3985.65,2641.652,3985.649Z" transform="translate(-44.087 -1225.958)" fill-rule="evenodd" fill="url(#linear-gradient-2)"/>
    <g id="Group_525" data-name="Group 525" transform="translate(2559.113 2742.389)" clip-path="url(#clip-path)">
      <rect id="Rectangle_104" data-name="Rectangle 104" width="13.393" height="52.236" transform="translate(-0.027 -13.059)" fill="none"/>
    </g>
    <g id="Group_526" data-name="Group 526" transform="translate(2636.542 2729.607)" clip-path="url(#clip-path-2)">
      <rect id="Rectangle_105" data-name="Rectangle 105" width="129.597" height="26.41" transform="translate(-0.037 -0.277)" fill="none"/>
    </g>
    <g id="Group_527" data-name="Group 527" transform="translate(2765.565 2737.272)" clip-path="url(#clip-path-3)">
      <rect id="Rectangle_106" data-name="Rectangle 106" width="13.393" height="13.497" transform="translate(-0.026 -7.942)" fill="none"/>
    </g>
    <g id="Group_528" data-name="Group 528" transform="translate(2554.075 2746.36)" clip-path="url(#clip-path-4)">
      <rect id="Rectangle_107" data-name="Rectangle 107" width="13.541" height="26.41" transform="translate(-7.968 -4.117)" fill="none"/>
    </g>
    <g id="Group_529" data-name="Group 529" transform="translate(2571.926 2749.867)" clip-path="url(#clip-path-5)">
      <rect id="Rectangle_108" data-name="Rectangle 108" width="13.541" height="39.323" transform="translate(-0.012 -7.624)" fill="none"/>
    </g>
    <g id="Group_530" data-name="Group 530" transform="translate(2610.721 2742.979)" clip-path="url(#clip-path-6)">
      <rect id="Rectangle_109" data-name="Rectangle 109" width="26.37" height="39.323" transform="translate(-0.022 -0.736)" fill="none"/>
    </g>
    <g id="Group_531" data-name="Group 531" transform="translate(2584.914 2757.087)" clip-path="url(#clip-path-7)">
      <rect id="Rectangle_110" data-name="Rectangle 110" width="26.37" height="26.41" transform="translate(-0.022 -1.931)" fill="none"/>
    </g>
    <g id="Group_532" data-name="Group 532" transform="translate(2636.532 2755.178)" clip-path="url(#clip-path-8)">
      <rect id="Rectangle_111" data-name="Rectangle 111" width="13.393" height="26.41" transform="translate(-0.027 -0.023)" fill="none"/>
    </g>
    <g id="Group_533" data-name="Group 533" transform="translate(2662.334 2755.178)" clip-path="url(#clip-path-9)">
      <rect id="Rectangle_112" data-name="Rectangle 112" width="77.983" height="26.41" transform="translate(-0.022 -0.023)" fill="none"/>
    </g>
    <g id="Group_534" data-name="Group 534" transform="translate(2739.754 2755.175)" clip-path="url(#clip-path-10)">
      <rect id="Rectangle_113" data-name="Rectangle 113" width="26.37" height="13.497" transform="translate(-0.022 -0.019)" fill="none"/>
    </g>
    <g id="Group_535" data-name="Group 535" transform="translate(2469.083 2772.273)" clip-path="url(#clip-path-11)">
      <rect id="Rectangle_114" data-name="Rectangle 114" width="26.37" height="65.341" transform="translate(-0.395 -4.204)" fill="none"/>
    </g>
    <g id="Group_536" data-name="Group 536" transform="translate(2649.345 2769.84)" clip-path="url(#clip-path-12)">
      <rect id="Rectangle_115" data-name="Rectangle 115" width="13.541" height="13.497" transform="translate(-0.012 -1.771)" fill="none"/>
    </g>
    <g id="Group_537" data-name="Group 537" transform="translate(2494.506 2790.195)" clip-path="url(#clip-path-13)">
      <rect id="Rectangle_116" data-name="Rectangle 116" width="13.541" height="52.428" transform="translate(-0.011 -9.214)" fill="none"/>
    </g>
    <g id="Group_538" data-name="Group 538" transform="translate(2770.688 2782.661)" clip-path="url(#clip-path-14)">
      <rect id="Rectangle_117" data-name="Rectangle 117" width="26.407" height="52.428" transform="translate(-5.15 -1.679)" fill="none"/>
    </g>
    <g id="Group_539" data-name="Group 539" transform="translate(2809.694 2813.286)" clip-path="url(#clip-path-15)">
      <rect id="Rectangle_118" data-name="Rectangle 118" width="26.37" height="52.428" transform="translate(-5.52 -6.479)" fill="none"/>
    </g>
    <g id="Group_540" data-name="Group 540" transform="translate(2492.116 2832.836)" clip-path="url(#clip-path-16)">
      <rect id="Rectangle_119" data-name="Rectangle 119" width="13.393" height="13.497" transform="translate(-10.451 -0.011)" fill="none"/>
    </g>
    <g id="Group_541" data-name="Group 541" transform="translate(2783.165 2832.836)" clip-path="url(#clip-path-17)">
      <rect id="Rectangle_120" data-name="Rectangle 120" width="13.541" height="13.497" transform="translate(-4.798 -0.011)" fill="none"/>
    </g>
    <path id="Path_1291" data-name="Path 1291" d="M4873.315,2951.967c-6.928,0-13.764-3.095-19.388-8.431q-1.008-.956-1.961-2.006a40.734,40.734,0,0,1,.241-11.681c8.88.191,18.872.4,29.563.6l1.6,6.888.729-.16q-.651-3.36-1.344-6.71c4.984.1,10.121.193,15.363.29-2.489,8.6-7.723,15.56-14.886,18.964a23.094,23.094,0,0,1-9.918,2.243Zm-66.851-97.291a37.57,37.57,0,0,1-3.987-7.26q-.591-1.429-1.308-2.839a37.036,37.036,0,0,0-7.271-9.909,86.879,86.879,0,0,1,1.741-9.692,65.577,65.577,0,0,0-6.4-46.417,62.18,62.18,0,0,1-2.965-6.287,66.389,66.389,0,0,1-4.646-19.872c-1.584-21.486,7.992-40.386,24.055-44.82a26.323,26.323,0,0,1,7.022-.95c13.459,0,26.85,10.132,34.621,25.9a64.77,64.77,0,0,1,4.612,12.513q.659,2.566,1.1,5.116.316,1.809.735,3.588a63.566,63.566,0,0,0,8.04,19.248c-9.207-.089-17.6-.138-24.827-.138h-2.036c-4.983-13.27-10.116-26.476-15.576-39.547l-.688.3q4.7,12.5,9.275,25.059,2.607,7.086,5.151,14.2c-5.438.015-10.084.063-13.785.149a13.426,13.426,0,0,0-12.871,13.646Z" transform="translate(-2299.706)" fill-rule="evenodd" fill="url(#linear-gradient-3)"/>
    <path id="Path_1292" data-name="Path 1292" d="M8388.407,5359.958l-1.6-6.889.985.019q.691,3.35,1.345,6.709Zm-50.25-164.477q-2.547-7.11-5.152-14.2-4.547-12.564-9.274-25.059l.688-.3c5.46,13.071,10.593,26.277,15.576,39.547Z" transform="translate(-5804.743 -2422.618)" fill-rule="evenodd" fill="url(#linear-gradient-4)"/>
    <path id="Path_1293" data-name="Path 1293" d="M2774.136,13900.2a19.105,19.105,0,0,1-11.92-4.622,35.61,35.61,0,0,0-11.6-6.325,45.726,45.726,0,0,1-18.519-11.954,58.415,58.415,0,0,1-9.977-14.095,57.715,57.715,0,0,1-6.458-26.917,39.019,39.019,0,0,0-9.75-26.262,36.891,36.891,0,0,1-3.369-4.506q-.992-1.559-1.861-3.262c-4.991-9.8-5.347-20.509-1.7-28.07a17.531,17.531,0,0,1,7.327-7.944,16,16,0,0,1,5.834-1.854,17.248,17.248,0,0,1,2.013-.115c5.69,0,11.7,2.735,16.738,7.576a37.035,37.035,0,0,1,7.271,9.91q.718,1.409,1.307,2.84a37.607,37.607,0,0,0,3.987,7.259v26.755l-1.64-2.652-2.126-3.375c-1.418-2.25-2.828-4.5-4.274-6.734-5.777-8.926-11.643-17.788-17.783-26.453l-.363.27q4.363,6.661,8.663,13.372,4.318,6.7,8.534,13.46c1.425,2.241,2.827,4.5,4.23,6.754l2.106,3.383,2.078,3.4q.287.467.574.937v26.628c0,10.181,7.827,18.507,17.647,18.77,2.529.067,5.421.141,8.639.218q.489.92.98,1.84c.62,1.178,1.263,2.342,1.864,3.53l1.808,3.562,1.815,3.559.9,1.781.86,1.8,3.461,7.207.405-.193c-3.4-7.816-7.106-15.486-10.986-23.061,5.339.127,11.513.268,18.345.414a40.748,40.748,0,0,0-.241,11.682c.014.105.028.212.042.318.038.275.071.549.1.823.832,7.935-2.11,15.315-8.169,18.63A14.054,14.054,0,0,1,2774.136,13900.2Z" transform="translate(-236.705 -10937.181)" fill-rule="evenodd" fill="url(#linear-gradient-5)"/>
    <path id="Path_1294" data-name="Path 1294" d="M4733.013,15263.262l-3.461-7.208-.861-1.8-.9-1.78-1.815-3.56-1.808-3.561c-.6-1.187-1.244-2.353-1.864-3.531q-.491-.917-.979-1.838l1.111.026c3.88,7.573,7.584,15.244,10.986,23.062Zm-37.979-68.9-.574-.937-2.079-3.4-2.105-3.383c-1.4-2.257-2.805-4.513-4.229-6.754q-4.219-6.763-8.535-13.46-4.283-6.718-8.663-13.373l.363-.268c6.14,8.664,12.006,17.526,17.784,26.452,1.445,2.23,2.855,4.485,4.273,6.735l2.126,3.375,1.64,2.65Z" transform="translate(-2188.275 -12310.572)" fill-rule="evenodd" fill="url(#linear-gradient-6)"/>
    <path id="Path_1295" data-name="Path 1295" d="M33604.668,8949.459a66.907,66.907,0,0,0-20.152-23.65,187.48,187.48,0,0,1,5.461-23.906c4.207-13.893,9.1-22.762,12.457-27.755a36.456,36.456,0,0,1,6.336-7.58.584.584,0,0,0,.105-.808.534.534,0,0,0-.441-.228.544.544,0,0,0-.336.118c-.441.351-10.961,8.891-19.133,35.743a188.415,188.415,0,0,0-5.457,23.7,64.3,64.3,0,0,0-10.6-6c1.2-8.437.68-17.605,1.277-26.059a57.935,57.935,0,0,1,1.227-8.82c3.078-13.4,19.039-24.821,31.852-24.821.2,0,.391,0,.586.008,16.2.446,11.148,14.884,5.367,24.312-3.023,4.931-6.5,9.987-9.336,15.317-3.07,5.759-5.4,11.835-5.629,18.414a39.816,39.816,0,0,0,2.395,14.372,108.826,108.826,0,0,0,5.625,12.816C33605.723,8946.238,33605.191,8947.853,33604.668,8949.459Z" transform="translate(-30788.543 -6085.732)" fill-rule="evenodd" fill="url(#linear-gradient-7)"/>
    <path id="Path_1296" data-name="Path 1296" d="M34583.172,9606.438a.564.564,0,0,1-.551-.5q-.779-5.783-1.457-11.437c.348-.243.7-.489,1.035-.74q.7,5.938,1.523,12.017a.572.572,0,0,1-.473.651Zm-1.125-122.89c-.336-.242-.676-.483-1.008-.72a187.08,187.08,0,0,1,5.457-23.7c8.168-26.854,18.691-35.393,19.129-35.744a.562.562,0,0,1,.34-.117.552.552,0,0,1,.441.227.592.592,0,0,1-.1.809,36.229,36.229,0,0,0-6.34,7.58c-3.359,4.993-8.25,13.862-12.461,27.755A188.8,188.8,0,0,0,34582.047,9483.548Z" transform="translate(-31786.076 -6643.471)" fill-rule="evenodd" fill="url(#linear-gradient-8)"/>
    <path id="Path_1297" data-name="Path 1297" d="M36626.652,12216.529a5.172,5.172,0,0,0-2-.363c-4.055.036-6.148,4.232-7.672,7.525-1.309,2.82-2.859,6.247-2.59,9.488.289,3.5,3.523,6.689,6.434,3.484,3.3-3.643,8.277-9.247,8.844-14.494A5.208,5.208,0,0,0,36626.652,12216.529Z" transform="translate(-33798.02 -9405.94)" fill-rule="evenodd" fill="url(#linear-gradient-9)"/>
    <path id="Path_1298" data-name="Path 1298" d="M36120.523,13872.612a19.34,19.34,0,0,1-12.66-4.758,69.462,69.462,0,0,0,5.113-71.456c.52-1.605,1.051-3.221,1.605-4.829,2.7-7.843,5.922-15.534,10.492-21.361.629-.8,1.289-1.573,1.973-2.3a28.283,28.283,0,0,1,10.527-7.238,14.822,14.822,0,0,1,5-.955c4.246,0,7.93,2.368,9.738,8.326,1.98,6.528-1.555,12.991-3.16,19.149a59.273,59.273,0,0,0-1.371,18.819c.746,12.042,3.355,25.313.574,36.318-4.488,17.752-12.793,25.427-20.082,28.643a19.129,19.129,0,0,1-7.75,1.644Z" transform="translate(-33296.852 -10932.672)" fill-rule="evenodd" fill="url(#linear-gradient-10)"/>
    <path id="Path_1299" data-name="Path 1299" d="M36658,14709.807a.562.562,0,0,1-.555-.543,323.011,323.011,0,0,1,1.34-43.3c2.16-22.759,7.672-55.6,21.668-82.806a.548.548,0,0,1,.754-.238.592.592,0,0,1,.227.78c-13.906,27.032-19.391,59.706-21.539,82.356a324.278,324.278,0,0,0-1.344,43.145.567.567,0,0,1-.523.608Z" transform="translate(-33840.449 -11746.841)" fill-rule="evenodd" fill="url(#linear-gradient-11)"/>
    <path id="Path_1300" data-name="Path 1300" d="M31989.57,5435.183c.727-2.187,1.477-4.345,2.047-6.441,4.035-14.714-3.828-27.426-14.316-37.136a14.828,14.828,0,0,1,9.32-3.246c6.75,0,12.625,4.294,13.1,6.667,5.242-4.692,9.957-6.54,13.961-6.54,8.7,0,14.051,8.727,14.07,15.965,0,0,5.1-2.712,8.875-2.712,3.535,0,5.9,2.378,1.816,11.588C32033.484,5424.512,32011.773,5431.519,31989.57,5435.183Z" transform="translate(-29209.703 -2652.516)" fill-rule="evenodd" fill="url(#linear-gradient-12)"/>
    <g id="Group_542" data-name="Group 542" transform="translate(2728.045 2739.094)" clip-path="url(#clip-path-18)">
      <rect id="Rectangle_121" data-name="Rectangle 121" width="58.406" height="45.587" transform="translate(-0.216 -0.349)" fill="none"/>
    </g>
    <g id="Group_543" data-name="Group 543" transform="translate(2641.067 2738.473)" clip-path="url(#clip-path-19)">
      <rect id="Rectangle_122" data-name="Rectangle 122" width="73.015" height="32.521" transform="translate(-5.451 -0.304)" fill="none"/>
    </g>
    <path id="Path_1303" data-name="Path 1303" d="M17453.824,23329.234h-67.443l.453-4.213,1.611-14.992c20.613.361,42.152.7,62.416.971l2.566,15.783Z" transform="translate(-14772.141 -20378.949)" fill-rule="evenodd" fill="url(#linear-gradient-13)"/>
    <path id="Path_1304" data-name="Path 1304" d="M7357.9,8945.527c-8.218-.088-16.859-.193-25.752-.312-20.264-.271-41.8-.611-62.415-.971-6.061-.106-12.048-.214-17.893-.321-5.243-.1-10.379-.193-15.363-.29l-.987-.019c-10.691-.207-20.683-.411-29.563-.6-6.832-.147-13.005-.286-18.344-.414l-1.111-.027c-3.218-.077-6.111-.15-8.64-.218-9.819-.264-17.647-8.589-17.647-18.77V8799.82a13.427,13.427,0,0,1,12.871-13.646c3.7-.086,8.348-.134,13.785-.148l1.837,0h2.037c7.23,0,15.621.049,24.827.139,49.186.475,121.733,2.07,165.929,3.219,13.653.354,24.606.666,31.324.889a13.642,13.642,0,0,1,11.318,6.89,14.511,14.511,0,0,1,1.8,5.144c1.586,10.578,2.508,25.178,3,41.028a62.561,62.561,0,0,0-8.759-1.761l.126-38a7.62,7.62,0,0,0-7.288-7.77l-237.024-4.963-.2,0a8.246,8.246,0,0,0-8.09,8.39V8916.8a10.7,10.7,0,0,0,10.339,10.876l172.506,2.209q.595,1.835,1.29,3.625l-184.128-3.252a.385.385,0,0,0-.013.769l184.447,3.257a68.019,68.019,0,0,0,5.783,11.241Z" transform="translate(-4653.429 -6013.164)" fill-rule="evenodd" fill="url(#linear-gradient-14)"/>
    <path id="Path_1305" data-name="Path 1305" d="M8055.824,9366.407l-172.506-2.209a10.7,10.7,0,0,1-10.339-10.876V9235.738a8.246,8.246,0,0,1,8.09-8.389l.2,0,237.024,4.963a7.619,7.619,0,0,1,7.288,7.769l-.126,38a63.308,63.308,0,0,0-27.741,2.645h-26.64a1.936,1.936,0,0,0-1.9,1.97v17.116a67.627,67.627,0,0,0-10.313,15.9l-.049-1.867-1.861-70.628a5.217,5.217,0,0,0-5.125-5.17H7892.187a5.225,5.225,0,0,0-5.127,5.315v83.159a5.229,5.229,0,0,0,5,5.313l160.964,4.062q-.364,2.818-.5,5.707l-161.909-2.919h-.063a3.625,3.625,0,0,0-3.556,3.723l.133,14.233a3.622,3.622,0,0,0,3.556,3.651h.036l163.078-1.638A68.7,68.7,0,0,0,8055.824,9366.407Zm15.25-126.149a1.937,1.937,0,0,0-1.9,1.971v30.824a1.937,1.937,0,0,0,1.854,1.969l44.474,1.516h.047a1.938,1.938,0,0,0,1.9-2.023l-.852-32.34a1.934,1.934,0,0,0-1.9-1.916Z" transform="translate(-5358.729 -6449.684)" fill-rule="evenodd" fill="url(#linear-gradient-15)"/>
    <path id="Path_1306" data-name="Path 1306" d="M8022.526,22030.355l-184.446-3.258a.384.384,0,0,1,.013-.768l184.128,3.252c.1.26.2.516.306.773Z" transform="translate(-5323.835 -19109.234)" fill-rule="evenodd" fill="url(#linear-gradient-16)"/>
    <path id="Path_1307" data-name="Path 1307" d="M15491.634,24712.57h-98.711c-2.682,0-4.7-1.977-4.176-4.1l1.267-5.193a4.092,4.092,0,0,1,4.006-2.771l95.16-3.078a4.2,4.2,0,0,1,4.326,2.688l2.283,8.27C15496.382,24710.531,15494.359,24712.57,15491.634,24712.57Z" transform="translate(-12795.421 -21751.229)" fill-rule="evenodd" fill="url(#linear-gradient-17)"/>
    <path id="Path_1308" data-name="Path 1308" d="M20814.688,25038.563a.385.385,0,0,1-.006-.77l4.078-.062h.008a.385.385,0,0,1,0,.77l-4.078.063Z" transform="translate(-18164.047 -22087.828)" fill="#fff"/>
    <path id="Path_1309" data-name="Path 1309" d="M15709.234,25060.543l-.06,0a.384.384,0,0,1-.309-.441l.583-3.775a4.161,4.161,0,0,1,4.008-3.6l43.25-.656h.006a.385.385,0,0,1,.006.77l-43.251.654a3.413,3.413,0,0,0-3.286,2.949l-.582,3.775A.373.373,0,0,1,15709.234,25060.543Z" transform="translate(-13112.252 -22102.012)" fill="#fff"/>
    <path id="Path_1310" data-name="Path 1310" d="M9386.54,10343.192v0Zm0-12.677v-70.483a5.223,5.223,0,0,1,5.127-5.314h159.639a5.218,5.218,0,0,1,5.126,5.169l1.861,70.629Z" transform="translate(-6856.381 -7465.86)" fill-rule="evenodd" fill="url(#linear-gradient-18)"/>
    <path id="Path_1311" data-name="Path 1311" d="M15208.6,11602.608c0,12.95-10.128,23.448-22.623,23.448s-22.622-10.5-22.622-23.448,10.128-23.448,22.622-23.448S15208.6,11589.658,15208.6,11602.608Z" transform="translate(-12572.483 -8775.874)" stroke="#f7fafc" stroke-width="3" fill-rule="evenodd" fill="url(#linear-gradient-19)"/>
    <path id="Path_1312" data-name="Path 1312" d="M18912.02,14185.531a.355.355,0,0,1-.2-.062.393.393,0,0,1-.111-.531,21.043,21.043,0,0,0,2.549-6.052.372.372,0,0,1,.453-.277.387.387,0,0,1,.266.469,21.782,21.782,0,0,1-2.645,6.277A.366.366,0,0,1,18912.02,14185.531Z" transform="translate(-16281.377 -11346.994)" fill-rule="evenodd" fill="url(#linear-gradient-20)"/>
    <path id="Path_1313" data-name="Path 1313" d="M17301.24,11779.408a.376.376,0,0,1-.369-.385c0-11.434-8.977-20.735-20.01-20.735a.385.385,0,0,1,0-.769c11.443,0,20.75,9.646,20.75,21.5A.378.378,0,0,1,17301.24,11779.408Z" transform="translate(-14667.364 -8952.29)" fill-rule="evenodd" fill="url(#linear-gradient-21)"/>
    <path id="Path_1314" data-name="Path 1314" d="M16459.828,12676.347a1.2,1.2,0,0,1-1.176-1.187l-.537-20.8a1.973,1.973,0,0,1,.855-1.7,1.827,1.827,0,0,1,1.844-.137l19.822,9.61a2,2,0,0,1,.09,3.513l-17.5,9.668a1.158,1.158,0,0,1-1.594-.5,1.242,1.242,0,0,1,.484-1.649l16.691-9.223-18.322-8.882.518,20.031a1.2,1.2,0,0,1-1.145,1.252Z" transform="translate(-13853.631 -9837.362)" fill="#f7fafc" fill-rule="evenodd"/>
    <path id="Path_1315" data-name="Path 1315" d="M9378.6,17189.52l-160.964-4.062a5.228,5.228,0,0,1-5-5.312v-12.676h171.752l.05,1.865A68.713,68.713,0,0,0,9378.6,17189.52Zm-158.514-15.754a2.707,2.707,0,0,0-2.633,3.016l.148,1.531a2.683,2.683,0,0,0,2.632,2.469H9363.25a2.745,2.745,0,0,0,.026-5.484l-143.164-1.531Zm156.895-1.666v8.615h2.857v-8.615Zm-3.637-1.615v10.23h2.6v-10.23Zm-4.156,3.5v6.73h2.856v-6.73Z" transform="translate(-6684.3 -14303.305)" fill-rule="evenodd" fill="url(#linear-gradient-22)"/>
    <path id="Path_1316" data-name="Path 1316" d="M9212.61,17167.5h0Z" transform="translate(-6684.28 -14303.335)" fill="#fff" fill-rule="evenodd"/>
    <path id="Path_1317" data-name="Path 1317" d="M9815.678,17752.555H9672.66a2.684,2.684,0,0,1-2.633-2.469l-.146-1.531a2.707,2.707,0,0,1,2.633-3.016h.027l143.164,1.531a2.744,2.744,0,0,1-.027,5.484Z" transform="translate(-7136.73 -14875.077)" fill-rule="evenodd" fill="url(#linear-gradient-23)"/>
    <path id="Path_1318" data-name="Path 1318" d="M9761.444,17750.807c-.166-1.424-.372-2.865-.568-4.316l-88.3-.943a2.706,2.706,0,0,0-2.66,3.016l.147,1.531a2.683,2.683,0,0,0,2.634,2.469h88.991C9761.6,17751.947,9761.51,17751.357,9761.444,17750.807Z" transform="translate(-7136.769 -14875.085)" fill-rule="evenodd" fill="url(#linear-gradient-24)"/>
    <path id="Path_1319" data-name="Path 1319" d="M18000.951,17647.658a4.788,4.788,0,1,1-4.785-4.959A4.875,4.875,0,0,1,18000.951,17647.658Z" transform="translate(-15370.781 -14773.357)" fill-rule="evenodd" fill="url(#linear-gradient-25)"/>
    <path id="Path_1320" data-name="Path 1320" d="M24107.7,17772.328h2.857v-6.729h-2.857Z" transform="translate(-21422.814 -14894.919)" fill-rule="evenodd" fill="url(#linear-gradient-26)"/>
    <path id="Path_1321" data-name="Path 1321" d="M24849.2,17601.215h2.855v-8.615h-2.855Z" transform="translate(-22156.521 -14723.804)" fill-rule="evenodd" fill="url(#linear-gradient-27)"/>
    <path id="Path_1322" data-name="Path 1322" d="M24503.2,17454.531h2.6v-10.23h-2.6Z" transform="translate(-21814.158 -14577.12)" fill-rule="evenodd" fill="url(#linear-gradient-28)"/>
    <path id="Path_1323" data-name="Path 1323" d="M9210.323,19469.088a3.623,3.623,0,0,1-3.557-3.65l-.133-14.234a3.626,3.626,0,0,1,3.556-3.723c.022,0,.043,0,.063,0l161.91,2.918q-.078,1.649-.078,3.318a70.072,70.072,0,0,0,1.352,13.732l-163.078,1.637Zm2.2-6.707a.873.873,0,0,0-.855.889v.064a.871.871,0,0,0,.855.887h45.858a.871.871,0,0,0,.855-.887v-.064a.873.873,0,0,0-.855-.889Zm.071-4.783a.944.944,0,0,0-.927.961v.654a.944.944,0,0,0,.927.961h85.831a.945.945,0,0,0,.928-.961v-.654a.945.945,0,0,0-.928-.961Zm0-4.783a.945.945,0,0,0-.927.961v1.391a.945.945,0,0,0,.927.961h122.4a.945.945,0,0,0,.927-.961v-1.391a.945.945,0,0,0-.927-.961Z" transform="translate(-6678.366 -16558.479)" fill-rule="evenodd" fill="url(#linear-gradient-29)"/>
    <path id="Path_1324" data-name="Path 1324" d="M9808.823,19940.422h-122.4a.945.945,0,0,1-.927-.961v-1.391a.943.943,0,0,1,.927-.961h122.4a.944.944,0,0,1,.927.961v1.391A.945.945,0,0,1,9808.823,19940.422Z" transform="translate(-7152.2 -17042.773)" fill-rule="evenodd" fill="url(#linear-gradient-30)"/>
    <path id="Path_1325" data-name="Path 1325" d="M9772.217,20378.785h-85.83a.945.945,0,0,1-.928-.961v-.652a.945.945,0,0,1,.928-.961h85.83a.945.945,0,0,1,.928.961v.652A.945.945,0,0,1,9772.217,20378.785Z" transform="translate(-7152.159 -17477.09)" fill-rule="evenodd" fill="url(#linear-gradient-31)"/>
    <path id="Path_1326" data-name="Path 1326" d="M9732.2,20817.057h-45.858a.872.872,0,0,1-.855-.887v-.064a.872.872,0,0,1,.855-.889H9732.2a.872.872,0,0,1,.856.889v.064A.871.871,0,0,1,9732.2,20817.057Z" transform="translate(-7152.189 -17911.314)" fill-rule="evenodd" fill="url(#linear-gradient-32)"/>
    <path id="Path_1327" data-name="Path 1327" d="M26586.016,10448.549h-.045l-44.477-1.515a1.939,1.939,0,0,1-1.854-1.97v-30.824a1.936,1.936,0,0,1,1.9-1.97h43.623a1.932,1.932,0,0,1,1.9,1.916l.852,32.339A1.937,1.937,0,0,1,26586.016,10448.549Z" transform="translate(-23829.195 -7621.695)" fill-rule="evenodd" fill="url(#linear-gradient-33)"/>
    <path id="Path_1328" data-name="Path 1328" d="M28024.676,11251.951a8.439,8.439,0,1,1-8.434-8.741A8.592,8.592,0,0,1,28024.676,11251.951Z" transform="translate(-25281.932 -8443.584)" fill-rule="evenodd" fill="url(#linear-gradient-34)"/>
    <path id="Path_1329" data-name="Path 1329" d="M29401.613,12211.164l-.1-.029a.186.186,0,0,1-.053-.254,7.824,7.824,0,0,0,.945-2.245.175.175,0,0,1,.215-.132.187.187,0,0,1,.129.224,8.132,8.132,0,0,1-.992,2.353A.175.175,0,0,1,29401.613,12211.164Z" transform="translate(-26660.912 -9398.355)" fill-rule="evenodd" fill="url(#linear-gradient-35)"/>
    <path id="Path_1330" data-name="Path 1330" d="M28801.141,11314.151a.18.18,0,0,1-.176-.185,7.567,7.567,0,0,0-7.422-7.688.184.184,0,0,1,0-.368,7.929,7.929,0,0,1,7.777,8.057A.183.183,0,0,1,28801.141,11314.151Z" transform="translate(-26059.234 -8505.601)" fill-rule="evenodd" fill="url(#linear-gradient-36)"/>
    <path id="Path_1331" data-name="Path 1331" d="M28491.137,11652.229a.448.448,0,0,1-.437-.442l-.2-7.754a.733.733,0,0,1,.32-.633.684.684,0,0,1,.688-.051l7.387,3.583a.743.743,0,0,1,.035,1.31l-6.523,3.6a.43.43,0,0,1-.594-.187.463.463,0,0,1,.18-.615l6.223-3.438-6.828-3.311.191,7.468a.446.446,0,0,1-.426.467Z" transform="translate(-25759.551 -8839.296)" fill-rule="evenodd" fill="url(#linear-gradient-37)"/>
    <path id="Path_1332" data-name="Path 1332" d="M26539.6,14146.756v-17.115a1.937,1.937,0,0,1,1.9-1.971h26.641A64.836,64.836,0,0,0,26539.6,14146.756Z" transform="translate(-23829.156 -11296.62)" fill-rule="evenodd" fill="url(#linear-gradient-38)"/>
    <path id="Path_1333" data-name="Path 1333" d="M28024.676,14967.252a8.439,8.439,0,1,1-8.434-8.74A8.593,8.593,0,0,1,28024.676,14967.252Z" transform="translate(-25281.932 -12118.411)" fill-rule="evenodd" fill="url(#linear-gradient-39)"/>
    <path id="Path_1334" data-name="Path 1334" d="M29401.613,15926.439l-.1-.029a.186.186,0,0,1-.053-.254,7.806,7.806,0,0,0,.945-2.244.176.176,0,0,1,.215-.133.187.187,0,0,1,.129.224,8.121,8.121,0,0,1-.992,2.353A.173.173,0,0,1,29401.613,15926.439Z" transform="translate(-26660.912 -13073.157)" fill-rule="evenodd" fill="url(#linear-gradient-40)"/>
    <path id="Path_1335" data-name="Path 1335" d="M28801.141,15029.552a.18.18,0,0,1-.176-.184,7.567,7.567,0,0,0-7.422-7.689.184.184,0,0,1,0-.368,7.93,7.93,0,0,1,7.777,8.058A.183.183,0,0,1,28801.141,15029.552Z" transform="translate(-26059.234 -12180.526)" fill-rule="evenodd" fill="url(#linear-gradient-41)"/>
    <path id="Path_1336" data-name="Path 1336" d="M28491.137,15367.573a.448.448,0,0,1-.437-.442l-.2-7.754a.734.734,0,0,1,.32-.633.686.686,0,0,1,.688-.051l7.387,3.583a.742.742,0,0,1,.035,1.309l-6.523,3.6a.43.43,0,0,1-.594-.187.463.463,0,0,1,.18-.615l6.223-3.438-6.828-3.311.191,7.469a.446.446,0,0,1-.426.466Z" transform="translate(-25759.551 -12514.165)" fill-rule="evenodd" fill="url(#linear-gradient-42)"/>
    <path id="Path_1337" data-name="Path 1337" d="M25013.176,13972.82a63.322,63.322,0,0,1-40.916-15.027,66.921,66.921,0,0,1-13.3-15.194,67.929,67.929,0,0,1-5.781-11.24c-.1-.259-.207-.515-.309-.774q-.691-1.787-1.289-3.625a68.8,68.8,0,0,1-2.023-7.752,70.112,70.112,0,0,1-1.354-13.73q0-1.67.08-3.318.132-2.889.5-5.707a68.59,68.59,0,0,1,5.836-20.185,67.539,67.539,0,0,1,10.311-15.9,64.854,64.854,0,0,1,28.541-19.084,62.827,62.827,0,0,1,19.707-3.154,63.483,63.483,0,0,1,8.035.51,62.8,62.8,0,0,1,17.641,4.953,64.185,64.185,0,0,1,10.6,6c.338.236.676.478,1.01.72a66.955,66.955,0,0,1,20.154,23.651,69.491,69.491,0,0,1-5.115,71.455,66.544,66.544,0,0,1-14.885,15.109q-.516.376-1.033.741A63.094,63.094,0,0,1,25013.176,13972.82Zm0-51.2c-9.863,0-17.857,8.287-17.857,18.51s7.994,18.51,17.857,18.51,17.859-8.287,17.859-18.51S25023.039,13921.623,25013.176,13921.623Zm33.18-34.391c-9.863,0-17.857,8.287-17.857,18.51s7.994,18.51,17.857,18.51,17.861-8.287,17.861-18.51S25056.219,13887.232,25046.355,13887.232Zm-66.357,0c-9.863,0-17.859,8.287-17.859,18.51s8,18.51,17.859,18.51,17.857-8.287,17.857-18.51S24989.859,13887.232,24980,13887.232Zm34.666,13.518a6.3,6.3,0,1,0,6.08,6.3A6.192,6.192,0,0,0,25014.664,13900.75Zm-1.488-47.907c-9.863,0-17.857,8.287-17.857,18.51s7.994,18.511,17.857,18.511,17.859-8.287,17.859-18.511S25023.039,13852.843,25013.176,13852.843Z" transform="translate(-22254.482 -11010.235)" fill-rule="evenodd" fill="url(#linear-gradient-43)"/>
    <path id="Path_1338" data-name="Path 1338" d="M36706.387,20001.758l-.094-.016a.389.389,0,0,1-.266-.469,65.2,65.2,0,0,0,2-16.049.371.371,0,1,1,.742,0,66.05,66.05,0,0,1-2.02,16.246A.375.375,0,0,1,36706.387,20001.758Z" transform="translate(-33888.719 -17089.984)" fill-rule="evenodd" fill="url(#linear-gradient-44)"/>
    <path id="Path_1339" data-name="Path 1339" d="M29448.354,14237.536l-.053,0a.374.374,0,0,1-.367-.331,63.488,63.488,0,0,0-20.1-38.416,59.348,59.348,0,0,0-39.914-15.544,58.656,58.656,0,0,0-18.027,2.825.369.369,0,0,1-.463-.254.387.387,0,0,1,.244-.48,59.367,59.367,0,0,1,18.246-2.859,60.063,60.063,0,0,1,40.4,15.733,64.226,64.226,0,0,1,20.348,38.888A.382.382,0,0,1,29448.354,14237.536Z" transform="translate(-26629.223 -11350.834)" fill-rule="evenodd" fill="url(#linear-gradient-45)"/>
    <path id="Path_1340" data-name="Path 1340" d="M29448.879,15225.611c-9.863,0-17.859-8.287-17.859-18.51s8-18.51,17.859-18.51,17.857,8.287,17.857,18.51S29458.742,15225.611,29448.879,15225.611Zm0-32.294a13.793,13.793,0,1,0,13.3,13.784A13.548,13.548,0,0,0,29448.879,15193.317Z" transform="translate(-26690.184 -12345.985)" fill-rule="evenodd" fill="url(#linear-gradient-46)"/>
    <path id="Path_1341" data-name="Path 1341" d="M29878.09,15649.986a13.793,13.793,0,1,1,13.295-13.783A13.548,13.548,0,0,1,29878.09,15649.986Z" transform="translate(-27119.395 -12775.086)" fill-rule="evenodd" fill="url(#linear-gradient-47)"/>
    <path id="Path_1342" data-name="Path 1342" d="M29448.879,21539.281c-9.863,0-17.859-8.285-17.859-18.508s8-18.512,17.859-18.512,17.857,8.287,17.857,18.512S29458.742,21539.281,29448.879,21539.281Zm0-32.293a13.793,13.793,0,1,0,13.3,13.785A13.549,13.549,0,0,0,29448.879,21506.988Z" transform="translate(-26690.184 -18590.875)" fill-rule="evenodd" fill="url(#linear-gradient-48)"/>
    <path id="Path_1343" data-name="Path 1343" d="M26292.039,18382.48c-9.861,0-17.855-8.285-17.855-18.508s7.994-18.512,17.855-18.512,17.861,8.289,17.861,18.512S26301.9,18382.48,26292.039,18382.48Zm0-32.293a13.793,13.793,0,1,0,13.3,13.785A13.547,13.547,0,0,0,26292.039,18350.188Z" transform="translate(-23566.529 -15468.464)" fill-rule="evenodd" fill="url(#linear-gradient-49)"/>
    <path id="Path_1344" data-name="Path 1344" d="M29878.09,21963.656a13.792,13.792,0,1,1,13.295-13.781A13.547,13.547,0,0,1,29878.09,21963.656Z" transform="translate(-27119.395 -19019.977)" fill-rule="evenodd" fill="url(#linear-gradient-50)"/>
    <path id="Path_1345" data-name="Path 1345" d="M26721.318,18806.848a13.793,13.793,0,1,1,13.3-13.783A13.547,13.547,0,0,1,26721.318,18806.848Z" transform="translate(-23995.807 -15897.556)" fill-rule="evenodd" fill="url(#linear-gradient-51)"/>
    <path id="Path_1346" data-name="Path 1346" d="M32605.742,18382.48c-9.861,0-17.859-8.285-17.859-18.508s8-18.512,17.859-18.512,17.859,8.289,17.859,18.512S32615.605,18382.48,32605.742,18382.48Zm0-32.293a13.793,13.793,0,1,0,13.3,13.785A13.549,13.549,0,0,0,32605.742,18350.188Z" transform="translate(-29813.867 -15468.464)" fill-rule="evenodd" fill="url(#linear-gradient-52)"/>
    <path id="Path_1347" data-name="Path 1347" d="M33034.992,18806.848a13.793,13.793,0,1,1,13.293-13.783A13.548,13.548,0,0,1,33034.992,18806.848Z" transform="translate(-30243.115 -15897.556)" fill-rule="evenodd" fill="url(#linear-gradient-53)"/>
    <path id="Path_1348" data-name="Path 1348" d="M30699.4,19598.842a6.3,6.3,0,1,1,6.08-6.3A6.193,6.193,0,0,1,30699.4,19598.842Z" transform="translate(-27939.213 -16695.727)" fill-rule="evenodd" fill="url(#linear-gradient-54)"/>
    <path id="Path_1349" data-name="Path 1349" d="M11287.585,7278.82c-.04-.017-21.671-39.277-24.593-42.973a2.229,2.229,0,0,0-2.022-.843l-6.037.746-7.093,15.9,11.815-7.133c-1.169,8.382,14.01,20.837,19.216,25.382a1.27,1.27,0,0,1,.095,1.805l-2.078,2.254a23.672,23.672,0,0,0,11.793,6.951Z" transform="translate(-8698.118 -4479.027)" fill-rule="evenodd" fill="url(#linear-gradient-55)"/>
    <path id="Path_1350" data-name="Path 1350" d="M13951.3,10701a3.087,3.087,0,0,0-1.774,1.668,1.429,1.429,0,0,0,.509,1.615c2.184,1.621,9.388,6.857,12.713,7.884a.382.382,0,0,0,.47-.46,12.553,12.553,0,0,0-2.5-4.739l.16.335a.47.47,0,0,1-.64.632C13958.017,10706.633,13953.487,10703.785,13951.3,10701Z" transform="translate(-11371.331 -7907.28)" fill-rule="evenodd" fill="url(#linear-gradient-56)"/>
    <path id="Path_1351" data-name="Path 1351" d="M11062.778,7691.606c-.037-.024-3.282-8.128-3.319-8.152a146.256,146.256,0,0,0-12.375-39.089,2.265,2.265,0,0,0-1.816-1.25l-6.059-.536-10.051,14.087,12.964-4.507c-2.781,7.963,9.652,23.345,13.862,28.888a1.268,1.268,0,0,1-.26,1.788l-2.476,1.772a24.166,24.166,0,0,0,10.192,9.281Z" transform="translate(-8481.735 -4882.178)" fill-rule="evenodd" fill="url(#linear-gradient-57)"/>
    <path id="Path_1352" data-name="Path 1352" d="M13243.227,11414.2a3.033,3.033,0,0,0-2.065,1.262,1.442,1.442,0,0,0,.183,1.688c1.822,2.046,7.855,8.685,10.91,10.387a.378.378,0,0,0,.552-.352,12.765,12.765,0,0,0-1.523-5.166l.09.361a.464.464,0,0,1-.749.484C13248.7,11421.125,13244.82,11417.387,13243.227,11414.2Z" transform="translate(-10670.297 -8612.711)" fill-rule="evenodd" fill="url(#linear-gradient-58)"/>
    <path id="Path_1353" data-name="Path 1353" d="M8723.454,7347.627s-5.479,8.449-5.93,12.3,1.516,5.187,7.252,5.678c17.068,1.463,25.483-3.839,25.483-3.839,1.167-7.717,2-9.68,11.75-13.875,0,0-12.334,1.015-14.816.017S8723.454,7347.627,8723.454,7347.627Z" transform="translate(-6194.336 -4590.192)" fill-rule="evenodd" fill="url(#linear-gradient-59)"/>
    <path id="Path_1354" data-name="Path 1354" d="M8882.564,2862s-3.816-4.68-7.875,1.062c-.735,1.041-3.558.182-4.592,2.359a2.645,2.645,0,0,1-2.878,1.535c-2.96-.566-7.8-.614-10.19,4.2-1.824,3.671-.416,5.82,1.407,7.045a3.164,3.164,0,0,1,1.008,4.152c-.776,1.367-.923,3.218,1.082,5.446,4.5,4.993,13.393-3.168,13.393-3.168l7.063-17.3Z" transform="translate(-6331.594 -151.901)" fill-rule="evenodd" fill="url(#linear-gradient-60)"/>
    <path id="Path_1355" data-name="Path 1355" d="M8779.771,4486.987a128.022,128.022,0,0,0,9.523-10.47,9.118,9.118,0,0,0,1.446-7.966,112.673,112.673,0,0,0-4.216-11c-.356-1.237-7.513-1.186-7.513-1.186s-14.08,9.472-19.612,25.517l6.213,2a75.247,75.247,0,0,1,7.309-10.458s-6.286,8.607-6.506,12.129Z" transform="translate(-6235.833 -1730.671)" fill-rule="evenodd" fill="url(#linear-gradient-61)"/>
    <path id="Path_1356" data-name="Path 1356" d="M8656.47,6806.293l-4.795-5.408-5.538,1.545s-6.457,1.037-10.152,0l-3.7-1.037-8.35-2.694-1.312,3.841a2.36,2.36,0,0,0,.814,2.658,14.643,14.643,0,0,0,2.109,1.361c1.1.5,25.332.158,25.332.158Z" transform="translate(-6100.372 -4047.492)" fill-rule="evenodd" fill="url(#linear-gradient-62)"/>
    <path id="Path_1357" data-name="Path 1357" d="M10640.66,3572.641l-4.81,9.269c.317,2.023,5.234,2.08,5.993.872a1.208,1.208,0,0,0,.152-.409l2.876-6.193c.124-.6-1.474-2.639-2-2.929l-1.912-1.055C10640.226,3571.791,10643.3,3571.759,10640.66,3572.641Z" transform="translate(-8092.561 -855.867)" fill-rule="evenodd" fill="url(#linear-gradient-63)"/>
    <path id="Path_1358" data-name="Path 1358" d="M11085.283,3233.2a11.3,11.3,0,0,1-1.832,7.114c-2.375,3.982-4.74,3.8-5.941,2.382a8.968,8.968,0,0,1-1.985-7.757C11076.18,3230.967,11084.463,3229.206,11085.283,3233.2Z" transform="translate(-8527.451 -518.6)" fill-rule="evenodd" fill="url(#linear-gradient-64)"/>
    <path id="Path_1359" data-name="Path 1359" d="M10878.3,2893.334s3.846-5.235,6.8-.671l-.05,1.576s3.839-.186,3.423-3.853-3.551-6.173-7.9-4.92-6.884,2.68-7.374,5.807,1.973,2.616,1.973,2.616.941-2.157,2.077-2.305.726,1.56.726,1.56Z" transform="translate(-8327.352 -176.565)" fill-rule="evenodd" fill="url(#linear-gradient-65)"/>
    <path id="Path_1360" data-name="Path 1360" d="M11139.3,3324.975s1.991-2.679.179-3.235-1.746,2.625-1.628,3.808Z" transform="translate(-8589.238 -608.345)" fill-rule="evenodd" fill="url(#linear-gradient-66)"/>
    <path id="Path_1361" data-name="Path 1361" d="M10256.019,7504.225h.05l22.056-.024a1.024,1.024,0,0,0,0-2.046l-22.056.025a1.025,1.025,0,0,0-.048,2.045Z" transform="translate(-7715.792 -4743.283)" fill-rule="evenodd" fill="url(#linear-gradient-67)"/>
    <path id="Path_1362" data-name="Path 1362" d="M11507.3,5786.89h-18.368a3.5,3.5,0,0,0-3.167,2.081l-8.491,18.664h22.827a2.131,2.131,0,0,0,1.979-1.4l6.584-17.27A1.515,1.515,0,0,0,11507.3,5786.89Z" transform="translate(-8925.137 -3046.704)" fill-rule="evenodd" fill="url(#linear-gradient-68)"/>
    <path id="Path_1363" data-name="Path 1363" d="M13086.1,6492.155c-.4,1.281-.1,2.526.656,2.78s1.7-.579,2.1-1.861.1-2.527-.657-2.781S13086.5,6490.873,13086.1,6492.155Z" transform="translate(-10516.887 -3742.399)" fill-rule="evenodd" fill="url(#linear-gradient-69)"/>
    <path id="Path_1364" data-name="Path 1364" d="M21746.566,24461.016c2.525,1.293,5.055,2.35,6.758,3.016a38.237,38.237,0,0,0-6.025-8.127l-1.955-1.035a9.157,9.157,0,0,0-2.414,3.107C21743.08,24458.559,21743.8,24459.6,21746.566,24461.016Z" transform="translate(-19082.9 -21511.316)" fill-rule="evenodd" fill="url(#linear-gradient-70)"/>
    <path id="Path_1365" data-name="Path 1365" d="M21725.031,24746.244l-.016-.025c-1.7-.668-4.232-1.723-6.76-3.016-2.766-1.416-3.484-2.457-3.635-3.039-.061.107-.119.215-.178.33a1.08,1.08,0,0,0,.42,1.443c2.039,1.125,7.119,3.875,9.7,4.885A.394.394,0,0,0,21725.031,24746.244Z" transform="translate(-19054.59 -21793.504)" fill-rule="evenodd" fill="url(#linear-gradient-71)"/>
    <path id="Path_1366" data-name="Path 1366" d="M21957.559,24182.2c.281.117-.742,1.441-.943,3.109a.839.839,0,0,0,.416.9c.217.1.477.213.746.311a.871.871,0,0,0,1.064-.418l1.959-3.672Z" transform="translate(-19294.332 -21241.617)" fill-rule="evenodd" fill="url(#linear-gradient-72)"/>
    <path id="Path_1367" data-name="Path 1367" d="M18696.342,25703.355c2.775.047,5.457-.117,7.246-.268a35.889,35.889,0,0,0-8.672-4.6l-1.5-.047a.981.981,0,0,0-.961.666,12.012,12.012,0,0,0-.59,3.135C18692.24,25702.688,18693.3,25703.3,18696.342,25703.355Z" transform="translate(-16063.907 -22741.338)" fill-rule="evenodd" fill="url(#linear-gradient-73)"/>
    <path id="Path_1368" data-name="Path 1368" d="M18701.27,26048.348l-.021-.016c-1.791.148-4.471.314-7.248.266-3.037-.051-4.1-.666-4.473-1.117-.008.123-.018.242-.023.371a1.035,1.035,0,0,0,.961,1.1c2.275.109,7.916.342,10.627.111A.4.4,0,0,0,18701.27,26048.348Z" transform="translate(-16061.564 -23086.578)" fill-rule="evenodd" fill="url(#linear-gradient-74)"/>
    <path id="Path_1369" data-name="Path 1369" d="M18807.072,25393c.3.027-.717,1.818-.9,3.469a.721.721,0,0,0,.654.738c.234.031.514.061.8.07a.884.884,0,0,0,.9-.719l1.92-3.6Z" transform="translate(-16177.001 -22439.182)" fill-rule="evenodd" fill="url(#linear-gradient-75)"/>
    <path id="Path_1370" data-name="Path 1370" d="M18808.4,21485.223c1.668-4.73,13.348-37.422,19.609-44.193l7.371,2.01,1.016-1.035s17.727,7.689,19.6,10.02c1.531,1.912-10.566,21.52-10.566,21.52a4.051,4.051,0,0,1-3.871-1.371l4.676-14.129a1.11,1.11,0,0,0-.672-1.4l-13.57-4.7a1.175,1.175,0,0,0-1.4.525c-3.641,6.143-16.18,27.477-18.684,34.225a.414.414,0,0,1-.453.273,10,10,0,0,1-2.7-.824A.753.753,0,0,1,18808.4,21485.223Z" transform="translate(-16179.171 -18530.309)" fill-rule="evenodd" fill="url(#linear-gradient-76)"/>
    <path id="Path_1371" data-name="Path 1371" d="M20997.549,22202.227a.165.165,0,0,1-.119-.066.193.193,0,0,1,.023-.262l2.023-1.711a.173.173,0,0,1,.252.025.19.19,0,0,1-.027.262l-2.021,1.711A.166.166,0,0,1,20997.549,22202.227Z" transform="translate(-18345.195 -19281.154)" fill-rule="evenodd" fill="url(#linear-gradient-77)"/>
    <path id="Path_1372" data-name="Path 1372" d="M20625,18607.012c-1.838-2.221-3.631-3.121-6.9-3.574a5.337,5.337,0,0,0-5.645,3.41l-10.992,27.645c2.529,2.33,6.336,3.137,11.1,2.8l13.986-18.064a12.07,12.07,0,0,0,1.666-5.107C20628.486,18611.123,20627.152,18609.617,20625,18607.012Z" transform="translate(-17953.428 -15723.582)" fill-rule="evenodd" fill="url(#linear-gradient-78)"/>
    <path id="Path_1373" data-name="Path 1373" d="M22067.965,17997.1s-1.771,5.141-2.859,7.428a.616.616,0,0,0,.381.787c1.117.43,3.764,1.379,5.121,1.27a.632.632,0,0,0,.563-.5l1.525-7.107Z" transform="translate(-19401.645 -15123.899)" fill-rule="evenodd" fill="url(#linear-gradient-79)"/>
    <path id="Path_1374" data-name="Path 1374" d="M22278.422,17524.4a25.839,25.839,0,0,1,1.1,6.121c-.109,2.049.17,3.42-2.146,3.566a4.864,4.864,0,0,1-4.922-3.4s-1.287-3.314-.783-4.553S22278.422,17524.4,22278.422,17524.4Z" transform="translate(-19605.967 -14656.348)" fill-rule="evenodd" fill="url(#linear-gradient-80)"/>
    <path id="Path_1375" data-name="Path 1375" d="M22001.943,17151.109l.287.033s-.912-2.654.178-2.975,5.3-.715,6.354-2.127a2.9,2.9,0,0,0-.633-4,.152.152,0,0,0-.2.053l-.113.174a.155.155,0,0,1-.283-.062.153.153,0,0,0-.271-.076c-.32.422-1.139,1.072-3.154,1.221-2.861.211-4.844,1.172-5.107,3.176a.153.153,0,0,1-.252.1c-.191-.154-.516-.254-1,.08-.842.582-.715,2.359.818,3.986a.164.164,0,0,1-.035.256c-.328.172-.836.609.273,1.4a3.093,3.093,0,0,0,2.139.781.159.159,0,0,0,.137-.152l.084-1.791a.156.156,0,0,1,.174-.152Z" transform="translate(-19334.521 -14278.136)" fill-rule="evenodd" fill="url(#linear-gradient-81)"/>
    <path id="Path_1376" data-name="Path 1376" d="M22266.893,17823.6s-.354-2.553-1.5-1.98.258,2.842,1.111,3.035Z" transform="translate(-19599.443 -14950.243)" fill-rule="evenodd" fill="url(#linear-gradient-82)"/>
    <path id="Path_1377" data-name="Path 1377" d="M24894.334,17894.133c-.35-.092-3.455,8-3.455,8l.719,2.232s2.213.029,2.352-1.863C24894.1,17900.479,24895.77,17894.5,24894.334,17894.133Z" transform="translate(-22197.764 -15022.052)" fill-rule="evenodd" fill="url(#linear-gradient-83)"/>
    <path id="Path_1378" data-name="Path 1378" d="M22725.672,18628.5c-5.992,5.436-15.994,5.635-22.363,4.975a23.591,23.591,0,0,0-.611,6.367c16.223,1.1,23.688-9.109,23.688-9.109C22726.385,18628.832,22725.672,18628.5,22725.672,18628.5Z" transform="translate(-20032.553 -15748.417)" fill-rule="evenodd" fill="url(#linear-gradient-84)"/>
    <path id="Path_1379" data-name="Path 1379" d="M21657.43,18971.664a34.246,34.246,0,0,1-5.1-.836c-8.1-2.275-8.1,5.539-3.787,7.4,1.633.705,6.824.373,8.273-.2A23.442,23.442,0,0,1,21657.43,18971.664Z" transform="translate(-18986.668 -16086.61)" fill-rule="evenodd" fill="url(#linear-gradient-85)"/>
    <path id="Path_1380" data-name="Path 1380" d="M29153.66,6129.26l-3.41,7.831-3.65-5.76Z" transform="translate(-26408.756 -3385.344)" fill-rule="evenodd" fill="url(#linear-gradient-86)"/>
    <path id="Path_1381" data-name="Path 1381" d="M26772.1,4258.27l12.33,28.091a2.111,2.111,0,0,0,1.209,1.149,2.025,2.025,0,0,0,1.637-.106l26.746-13.892a.877.877,0,0,0,.461-.849.864.864,0,0,0-.586-.762Z" transform="translate(-24059.211 -1534.737)" fill-rule="evenodd" fill="url(#linear-gradient-87)"/>
    <path id="Path_1382" data-name="Path 1382" d="M26804.113,4278.652l-32.014-20.382,27.7,22.638-.855,2.213Z" transform="translate(-24059.211 -1534.737)" fill-rule="evenodd" fill="url(#linear-gradient-88)"/>
    <path id="Path_1383" data-name="Path 1383" d="M29164,6337.627l3.467,4.258-.9-5.575Z" transform="translate(-26425.971 -3590.138)" fill-rule="evenodd" fill="url(#linear-gradient-89)"/>
    <path id="Path_1384" data-name="Path 1384" d="M25002.7,16626.7l-.9-.258a.205.205,0,0,1-.137-.25.2.2,0,0,1,.242-.143l0,0,.008,0,.881.275.008,0a.19.19,0,0,1,.123.238A.183.183,0,0,1,25002.7,16626.7Z" transform="translate(-22307.371 -13767.778)" fill="#e992ec"/>
    <path id="Path_1385" data-name="Path 1385" d="M24673.762,16483.807l-1.7-.834a.251.251,0,0,1-.117-.328.237.237,0,0,1,.32-.119l0,0,.02.012,1.645.852.02.012a.229.229,0,0,1,.1.3A.215.215,0,0,1,24673.762,16483.807Z" transform="translate(-21981.109 -13625.8)" fill="#e992ec"/>
    <path id="Path_1386" data-name="Path 1386" d="M24376.738,16283.215l-1.525-1.148a.3.3,0,0,1-.061-.4.268.268,0,0,1,.385-.062l0,0,.021.016,1.465,1.145.02.015a.275.275,0,0,1,.053.376A.254.254,0,0,1,24376.738,16283.215Z" transform="translate(-21687.406 -13427.036)" fill="#e992ec"/>
    <path id="Path_1387" data-name="Path 1387" d="M24118.135,16035.425l-1.316-1.4a.325.325,0,0,1,.006-.449.3.3,0,0,1,.434,0l0,0,.018.021,1.26,1.383.018.019a.313.313,0,0,1-.012.427A.286.286,0,0,1,24118.135,16035.425Z" transform="translate(-21431.75 -13181.675)" fill="#e992ec"/>
    <path id="Path_1388" data-name="Path 1388" d="M23901.09,15750.556l-1.1-1.591a.361.361,0,0,1,.078-.49.333.333,0,0,1,.475.082l0,0,.016.022,1.041,1.568.014.021a.341.341,0,0,1-.082.465A.317.317,0,0,1,23901.09,15750.556Z" transform="translate(-21217.23 -12899.704)" fill="#e992ec"/>
    <path id="Path_1389" data-name="Path 1389" d="M23727.357,15437.362l-.863-1.739a.39.39,0,0,1,.16-.518.364.364,0,0,1,.5.166l0,0,.01.025.814,1.707.01.023a.372.372,0,0,1-.16.492A.35.35,0,0,1,23727.357,15437.362Z" transform="translate(-21045.576 -12589.771)" fill="#e992ec"/>
    <path id="Path_1390" data-name="Path 1390" d="M23598.639,15103.157l-.625-1.848a.426.426,0,0,1,.25-.534.4.4,0,0,1,.514.258l0,0,.01.029.574,1.8.01.027a.4.4,0,0,1-.246.507A.384.384,0,0,1,23598.639,15103.157Z" transform="translate(-20918.465 -12259.103)" fill="#e992ec"/>
    <path id="Path_1391" data-name="Path 1391" d="M23518.1,14755.944l-.365-1.923a.44.44,0,0,1,.336-.518.427.427,0,0,1,.5.348l0,0,0,.031.332,1.867.006.029a.43.43,0,0,1-.332.5A.415.415,0,0,1,23518.1,14755.944Z" transform="translate(-20839.043 -11915.628)" fill="#e992ec"/>
    <path id="Path_1392" data-name="Path 1392" d="M23487.934,14401.095l-.092-1.962a.456.456,0,0,1,.424-.482.449.449,0,0,1,.463.438v.006l0,.035.068,1.894v.034a.434.434,0,1,1-.867.038Z" transform="translate(-20809.473 -11564.648)" fill="#e992ec"/>
    <path id="Path_1393" data-name="Path 1393" d="M23492.32,14046.3l.172-1.951a.467.467,0,0,1,.5-.436.479.479,0,0,1,.422.522l0,.006,0,.029-.186,1.889,0,.031a.457.457,0,0,1-.5.42A.466.466,0,0,1,23492.32,14046.3Z" transform="translate(-20813.902 -11213.772)" fill="#e992ec"/>
    <path id="Path_1394" data-name="Path 1394" d="M23535.189,13696.76l.4-1.913a.484.484,0,0,1,.574-.384.5.5,0,0,1,.371.6l0,0,0,.029-.41,1.852-.006.029a.475.475,0,0,1-.568.369A.492.492,0,0,1,23535.189,13696.76Z" transform="translate(-20856.311 -10868.121)" fill="#e992ec"/>
    <path id="Path_1395" data-name="Path 1395" d="M23620.2,13357.3l.609-1.852a.5.5,0,0,1,.641-.326.525.525,0,0,1,.313.662l0,.006-.008.026-.611,1.792-.008.027a.49.49,0,0,1-.629.313A.519.519,0,0,1,23620.2,13357.3Z" transform="translate(-20940.418 -10532.458)" fill="#e992ec"/>
    <path id="Path_1396" data-name="Path 1396" d="M23743.217,13031.215l.795-1.774a.515.515,0,0,1,.693-.265.551.551,0,0,1,.254.721l0,.006-.012.023-.787,1.717-.012.025a.507.507,0,0,1-.686.251A.544.544,0,0,1,23743.217,13031.215Z" transform="translate(-21062.117 -10210.044)" fill="#e992ec"/>
    <path id="Path_1397" data-name="Path 1397" d="M23899.711,12720.742l.955-1.687a.532.532,0,0,1,.742-.2.573.573,0,0,1,.193.771l0,.006-.014.021-.945,1.631-.014.023a.522.522,0,0,1-.73.188A.566.566,0,0,1,23899.711,12720.742Z" transform="translate(-21216.941 -9903.076)" fill="#e992ec"/>
    <path id="Path_1398" data-name="Path 1398" d="M24085.414,12427.323l1.1-1.591a.551.551,0,0,1,.785-.136.6.6,0,0,1,.129.813l0,0-.014.02-1.082,1.54-.016.021a.54.54,0,0,1-.771.125A.586.586,0,0,1,24085.414,12427.323Z" transform="translate(-21400.662 -9612.982)" fill="#e992ec"/>
    <path id="Path_1399" data-name="Path 1399" d="M24297.293,12153.152l1.223-1.485a.554.554,0,0,1,.8-.065.6.6,0,0,1,.064.83l0,0-.014.018-1.2,1.445-.016.018a.551.551,0,0,1-.8.063A.6.6,0,0,1,24297.293,12153.152Z" transform="translate(-21610.281 -9341.939)" fill="#e992ec"/>
    <path id="Path_1400" data-name="Path 1400" d="M24532.168,11897.73l1.332-1.381a.563.563,0,0,1,.814,0,.615.615,0,0,1,0,.843h0l-.016.018-1.3,1.342-.016.017a.558.558,0,0,1-.809,0A.6.6,0,0,1,24532.168,11897.73Z" transform="translate(-21842.656 -9089.437)" fill="#e992ec"/>
    <path id="Path_1401" data-name="Path 1401" d="M24788.016,11662.105c.471-.434.949-.852,1.432-1.271a.566.566,0,0,1,.818.072.618.618,0,0,1-.068.85h0l-.006.008c-.473.408-.943.815-1.4,1.237a.565.565,0,0,1-.816-.052A.612.612,0,0,1,24788.016,11662.105Z" transform="translate(-22095.789 -8856.518)" fill="#e992ec"/>
    <path id="Path_1402" data-name="Path 1402" d="M25060.268,11446.162l1.516-1.158a.572.572,0,0,1,.82.129.619.619,0,0,1-.125.852h0l-.018.014-1.482,1.126-.02.014a.571.571,0,0,1-.816-.132A.618.618,0,0,1,25060.268,11446.162Z" transform="translate(-22365.135 -8643.062)" fill="#e992ec"/>
    <path id="Path_1403" data-name="Path 1403" d="M25348.584,11251.517l1.586-1.042a.585.585,0,0,1,.822.191.629.629,0,0,1-.186.85l0,0-.016.011-1.559,1.014-.018.011a.579.579,0,0,1-.814-.192A.623.623,0,0,1,25348.584,11251.517Z" transform="translate(-22650.385 -8450.675)" fill="#e992ec"/>
    <path id="Path_1404" data-name="Path 1404" d="M25650.518,11078.145l1.656-.925a.592.592,0,0,1,.814.253.636.636,0,0,1-.246.844h0l-.016.011-1.623.9-.018.011a.59.59,0,0,1-.811-.255A.63.63,0,0,1,25650.518,11078.145Z" transform="translate(-22949.105 -8279.328)" fill="#e992ec"/>
    <path id="Path_1405" data-name="Path 1405" d="M25964.438,10926.2l1.713-.806a.6.6,0,0,1,.8.313.641.641,0,0,1-.3.834h0l-.016.008-1.68.783-.02.008a.594.594,0,0,1-.8-.313A.635.635,0,0,1,25964.438,10926.2Z" transform="translate(-23259.688 -8129.177)" fill="#e992ec"/>
    <path id="Path_1406" data-name="Path 1406" d="M26288.7,10796.145l1.76-.686a.607.607,0,0,1,.791.371.643.643,0,0,1-.357.82h0l-.021.008-1.723.664-.02.008a.6.6,0,0,1-.785-.373A.638.638,0,0,1,26288.7,10796.145Z" transform="translate(-23580.498 -8000.67)" fill="#e992ec"/>
    <path id="Path_1407" data-name="Path 1407" d="M26621.85,10688.007l1.8-.563a.617.617,0,0,1,.773.43.646.646,0,0,1-.414.8h0l-.02.006-1.766.546-.02,0a.614.614,0,0,1-.768-.43A.643.643,0,0,1,26621.85,10688.007Z" transform="translate(-23910.107 -7893.844)" fill="#e992ec"/>
    <path id="Path_1408" data-name="Path 1408" d="M26962.229,10602.272l1.836-.44a.628.628,0,0,1,.754.486.654.654,0,0,1-.471.779h0l-.021,0-1.795.424-.021,0a.625.625,0,0,1-.748-.485A.646.646,0,0,1,26962.229,10602.272Z" transform="translate(-24246.865 -7809.176)" fill="#e992ec"/>
    <path id="Path_1409" data-name="Path 1409" d="M27308.084,10539.6l1.859-.312a.632.632,0,0,1,.721.539.648.648,0,0,1-.52.749l-.021,0-1.814.307-.021,0a.632.632,0,0,1-.723-.54.65.65,0,0,1,.52-.749Z" transform="translate(-24589.041 -7747.321)" fill="#e992ec"/>
    <path id="Path_1410" data-name="Path 1410" d="M27658.688,10500.316l1.873-.184a.633.633,0,0,1,.684.585.645.645,0,0,1-.564.707l-.02,0-1.832.184-.02,0a.633.633,0,0,1-.686-.585.644.644,0,0,1,.563-.711Z" transform="translate(-24935.918 -7708.599)" fill="#e992ec"/>
    <path id="Path_1411" data-name="Path 1411" d="M28012.24,10484.244l1.881-.057a.645.645,0,0,1,.035,1.288h-.02l-1.84.059h-.021a.647.647,0,0,1-.039-1.292Z" transform="translate(-25285.717 -7692.83)" fill="#e992ec"/>
    <path id="Path_1412" data-name="Path 1412" d="M28366.908,10484.961l1.881.074a.641.641,0,0,1-.047,1.28h-.02l-1.838-.068h-.023a.643.643,0,0,1,.045-1.285Z" transform="translate(-25636.621 -7693.595)" fill="#e992ec"/>
    <path id="Path_1413" data-name="Path 1413" d="M28720.887,10504.182l1.871.205a.631.631,0,0,1,.547.7.62.62,0,0,1-.676.566l-.018,0-1.832-.2-.021,0a.633.633,0,0,1-.549-.7.62.62,0,0,1,.676-.569Z" transform="translate(-25986.842 -7712.603)" fill="#e992ec"/>
    <path id="Path_1414" data-name="Path 1414" d="M29072.666,10547.342l1.852.339a.63.63,0,0,1,.5.732.613.613,0,0,1-.709.514l-.02,0-1.811-.325-.02,0a.632.632,0,0,1-.5-.734.614.614,0,0,1,.707-.518Z" transform="translate(-26334.887 -7755.288)" fill="#e992ec"/>
    <path id="Path_1415" data-name="Path 1415" d="M29420.436,10614.582l1.824.473a.631.631,0,0,1,.443.762.605.605,0,0,1-.736.458l-.02,0-1.785-.457-.02-.006a.633.633,0,0,1-.445-.764.607.607,0,0,1,.736-.461Z" transform="translate(-26678.963 -7821.786)" fill="#e992ec"/>
    <path id="Path_1416" data-name="Path 1416" d="M29762.725,10706.363l1.789.607a.627.627,0,0,1,.385.788.6.6,0,0,1-.76.4l-.02-.006-1.748-.59-.021-.008a.628.628,0,0,1-.387-.789.6.6,0,0,1,.762-.4Z" transform="translate(-27017.617 -7912.555)" fill="#e992ec"/>
    <path id="Path_1417" data-name="Path 1417" d="M30097.949,10822.767l1.738.729a.624.624,0,0,1,.332.808.592.592,0,0,1-.779.344l-.012-.006-1.713-.712-.016-.007a.632.632,0,0,1-.334-.81.6.6,0,0,1,.781-.347Z" transform="translate(-27349.287 -8027.675)" fill="#e992ec"/>
    <path id="Path_1418" data-name="Path 1418" d="M30425.766,10959.1l1.705.789a.624.624,0,0,1,.3.814.584.584,0,0,1-.785.312h0l-1.7-.78-.008,0a.627.627,0,0,1-.3-.816.59.59,0,0,1,.789-.314Z" transform="translate(-27673.643 -8162.514)" fill="#e992ec"/>
    <path id="Path_1419" data-name="Path 1419" d="M30749.432,11104.531l1.7.795h0a.623.623,0,0,1,.295.812.584.584,0,0,1-.783.307l-1.7-.794a.626.626,0,0,1-.3-.813.585.585,0,0,1,.785-.308h0Z" transform="translate(-27993.908 -8306.36)" fill="#e992ec"/>
    <path id="Path_1420" data-name="Path 1420" d="M31072.668,11249.273l1.7.748.012.006a.616.616,0,0,1,.311.8.577.577,0,0,1-.768.322l-1.727-.755a.62.62,0,0,1-.312-.8.581.581,0,0,1,.771-.325h0Z" transform="translate(-28313.758 -8449.527)" fill="#e992ec"/>
    <path id="Path_1421" data-name="Path 1421" d="M31400.25,11383.768l1.732.648.02.008a.611.611,0,0,1,.352.773.578.578,0,0,1-.746.364l-1.771-.659a.609.609,0,0,1-.354-.776.578.578,0,0,1,.746-.366h0Z" transform="translate(-28637.924 -8582.566)" fill="#e992ec"/>
    <path id="Path_1422" data-name="Path 1422" d="M31735.615,11497.264l1.771.48.031.008a.6.6,0,0,1,.414.734.577.577,0,0,1-.705.43l-1.834-.494a.605.605,0,0,1-.416-.734.579.579,0,0,1,.709-.432h0Z" transform="translate(-28969.809 -8694.843)" fill="#e992ec"/>
    <path id="Path_1423" data-name="Path 1423" d="M32080.381,11576.84l1.8.24.043.006a.589.589,0,0,1,.5.667.577.577,0,0,1-.641.517l-1.889-.248a.592.592,0,0,1-.5-.668.582.582,0,0,1,.645-.52h0Z" transform="translate(-29311.018 -8773.568)" fill="#e992ec"/>
    <path id="Path_1424" data-name="Path 1424" d="M32432.775,11602.325l1.809-.065.053,0a.593.593,0,0,1,.041,1.184l-1.91.074a.595.595,0,0,1-.041-1.188h0Z" transform="translate(-29659.795 -8798.72)" fill="#e992ec"/>
    <path id="Path_1425" data-name="Path 1425" d="M32785.328,11539.463l1.758-.424.059-.014a.559.559,0,0,1,.676.439.587.587,0,0,1-.422.707l-1.863.454a.569.569,0,0,1-.687-.439.592.592,0,0,1,.426-.71h0Z" transform="translate(-30008.746 -8736.161)" fill="#e992ec"/>
    <path id="Path_1426" data-name="Path 1426" d="M33125.934,11409.786l1.648-.77.051-.022a.552.552,0,0,1,.742.293.594.594,0,0,1-.281.772l-1.742.818a.559.559,0,0,1-.75-.292.6.6,0,0,1,.285-.776h0Z" transform="translate(-30345.885 -8607.511)" fill="#e992ec"/>
    <path id="Path_1427" data-name="Path 1427" d="M33441.879,11222.487l1.492-1.064.039-.028a.548.548,0,0,1,.777.149.586.586,0,0,1-.145.8l-1.566,1.127a.553.553,0,0,1-.785-.146.6.6,0,0,1,.145-.811l0,0Z" transform="translate(-30658.607 -8421.905)" fill="#e992ec"/>
    <path id="Path_1428" data-name="Path 1428" d="M33725.4,10987.683l1.309-1.309.031-.032a.529.529,0,0,1,.77.014.583.583,0,0,1-.008.8l-1.363,1.383a.54.54,0,0,1-.781-.009.586.586,0,0,1,.012-.811v0Z" transform="translate(-30939.23 -8189.356)" fill="#e992ec"/>
    <path id="Path_1429" data-name="Path 1429" d="M33970.074,10713.273l1.082-1.511.027-.036a.525.525,0,0,1,.75-.113.569.569,0,0,1,.109.774l-1.129,1.59a.53.53,0,0,1-.758.119.578.578,0,0,1-.113-.784l0,0Z" transform="translate(-31181.398 -7917.67)" fill="#e992ec"/>
    <path id="Path_1430" data-name="Path 1430" d="M34170.613,10406.848l.836-1.672.023-.039a.509.509,0,0,1,.7-.23.551.551,0,0,1,.223.729l-.867,1.756a.519.519,0,0,1-.711.238.554.554,0,0,1-.23-.738v0Z" transform="translate(-31379.883 -7614.352)" fill="#e992ec"/>
    <path id="Path_1431" data-name="Path 1431" d="M34321.332,10075.738l.559-1.792.012-.044a.508.508,0,0,1,.645-.341.537.537,0,0,1,.332.665l-.574,1.882a.516.516,0,0,1-.648.35.539.539,0,0,1-.34-.674l0,0Z" transform="translate(-31529.061 -7286.651)" fill="#e992ec"/>
    <path id="Path_1432" data-name="Path 1432" d="M34415.961,9730.049l.129-.932c.035-.311.1-.619.121-.933a.5.5,0,0,1,.535-.479.509.509,0,0,1,.457.552v.018c-.02.328-.078.653-.117.98l-.125.979a.514.514,0,0,1-.574.449.525.525,0,0,1-.434-.591v0Z" transform="translate(-31622.721 -6944.587)" fill="#e992ec"/>
    <path id="Path_1433" data-name="Path 1433" d="M34442.73,9376.5l-.066-1.885v-.042a.491.491,0,1,1,.98-.038l.074,1.968a.507.507,0,0,1-.473.533.5.5,0,0,1-.512-.491v0Z" transform="translate(-31649.154 -6594.788)" fill="#e992ec"/>
    <path id="Path_1434" data-name="Path 1434" d="M34388.105,9028.43l-.355-1.854-.008-.039a.5.5,0,0,1,.379-.58.472.472,0,0,1,.555.387l.383,1.928a.5.5,0,0,1-.379.591.481.481,0,0,1-.566-.391v0Z" transform="translate(-31594.803 -6250.476)" fill="#e992ec"/>
    <path id="Path_1435" data-name="Path 1435" d="M34279.715,8693.028l-.625-1.777-.012-.035a.491.491,0,0,1,.281-.619.46.46,0,0,1,.594.285l.664,1.844a.5.5,0,0,1-.277.629.47.47,0,0,1-.609-.288v0l-.012-.035Z" transform="translate(-31487.26 -5918.75)" fill="#e992ec"/>
    <path id="Path_1436" data-name="Path 1436" d="M34120.766,8378.408l-.879-1.656-.02-.032a.48.48,0,0,1,.176-.64.447.447,0,0,1,.617.182l.93,1.715a.486.486,0,0,1-.18.649.45.45,0,0,1-.625-.183v0Z" transform="translate(-31329.693 -5607.63)" fill="#e992ec"/>
    <path id="Path_1437" data-name="Path 1437" d="M33914.605,8092.871l-1.121-1.49-.023-.029a.469.469,0,0,1,.074-.644.435.435,0,0,1,.621.077l1.176,1.542a.477.477,0,0,1-.074.653.438.438,0,0,1-.629-.076v0Z" transform="translate(-31125.42 -5325.329)" fill="#e992ec"/>
    <path id="Path_1438" data-name="Path 1438" d="M33665.422,7845.635l-.668-.644c-.227-.212-.441-.435-.672-.635a.453.453,0,0,1-.062-.628.417.417,0,0,1,.6-.064l.008.007c.25.206.477.436.711.655l.7.666a.465.465,0,0,1,.023.639.426.426,0,0,1-.617.027h0Z" transform="translate(-30878.596 -5080.973)" fill="#e992ec"/>
    <path id="Path_1439" data-name="Path 1439" d="M33376.586,7642.457l-1.531-1.029-.027-.02a.448.448,0,0,1-.125-.6.413.413,0,0,1,.578-.13l1.6,1.058a.454.454,0,0,1,.129.608.415.415,0,0,1-.586.134h0Z" transform="translate(-30592.551 -4880.23)" fill="#e992ec"/>
    <path id="Path_1440" data-name="Path 1440" d="M33059.613,7489.347l-1.672-.764-.031-.013a.43.43,0,0,1-.211-.557.4.4,0,0,1,.535-.217l1.738.779a.434.434,0,0,1,.215.563.407.407,0,0,1-.543.224h0Z" transform="translate(-30278.711 -4729.047)" fill="#e992ec"/>
    <path id="Path_1441" data-name="Path 1441" d="M32723.049,7388.429l-1.77-.492-.029-.008a.4.4,0,0,1-.273-.49.386.386,0,0,1,.471-.284l1.83.486a.411.411,0,0,1,.287.5.394.394,0,0,1-.482.3h0Z" transform="translate(-29945.549 -4629.523)" fill="#e992ec"/>
    <path id="Path_1442" data-name="Path 1442" d="M32374.566,7340.766l-1.822-.2-.031,0a.379.379,0,0,1-.324-.417.372.372,0,0,1,.4-.337l1.883.188a.384.384,0,0,1,.336.425.379.379,0,0,1-.41.351h0Z" transform="translate(-29600.637 -4582.7)" fill="#e992ec"/>
    <path id="Path_1443" data-name="Path 1443" d="M32022.865,7337.492l-1.83.1h-.029a.358.358,0,0,1-.037-.714l1.885-.122a.36.36,0,0,1,.377.345.366.366,0,0,1-.332.391h-.033Z" transform="translate(-29252.592 -4579.685)" fill="#e992ec"/>
    <path id="Path_1444" data-name="Path 1444" d="M31677.395,7373.674l-.9.2-.447.1c-.152.03-.3.076-.445.113l-.016,0a.328.328,0,0,1-.393-.249.339.339,0,0,1,.238-.405c.152-.04.3-.088.457-.121l.461-.107.922-.213a.333.333,0,0,1,.4.263.345.345,0,0,1-.252.415h0Z" transform="translate(-28910.766 -4615.518)" fill="#e992ec"/>
    <path id="Path_1445" data-name="Path 1445" d="M31342.746,7465.8l-1.758.614,0,0a.3.3,0,0,1-.385-.2.317.317,0,0,1,.188-.4l1.762-.639a.31.31,0,0,1,.4.2.327.327,0,0,1-.191.416h0Z" transform="translate(-28579.678 -4706.698)" fill="#e992ec"/>
    <path id="Path_1446" data-name="Path 1446" d="M31008.164,7583.434l-1.791.575a.279.279,0,0,1-.354-.193.293.293,0,0,1,.182-.366l.014-.005,1.76-.587.012,0a.291.291,0,0,1,.369.2.307.307,0,0,1-.187.383Z" transform="translate(-28248.617 -4823.088)" fill="#e992ec"/>
    <path id="Path_1447" data-name="Path 1447" d="M30663.613,7681.225a15.3,15.3,0,0,1-1.873.263.273.273,0,0,1-.041-.543,14.938,14.938,0,0,0,1.809-.274.273.273,0,0,1,.322.22.285.285,0,0,1-.213.334Z" transform="translate(-27907.689 -4919.847)" fill="#e992ec"/>
    <path id="Path_1448" data-name="Path 1448" d="M30316.219,7670a7.991,7.991,0,0,1-1.867-.448.255.255,0,0,1-.148-.321.242.242,0,0,1,.307-.154,7.593,7.593,0,0,0,1.758.4.259.259,0,0,1,.227.286.254.254,0,0,1-.275.235Z" transform="translate(-27564.072 -4908.376)" fill="#e992ec"/>
    <path id="Path_1449" data-name="Path 1449" d="M30016.5,7490.874a9.108,9.108,0,0,1-1.516-1.2.235.235,0,0,1-.01-.325.218.218,0,0,1,.313-.01,8.612,8.612,0,0,0,1.453,1.122.246.246,0,0,1,.08.329.228.228,0,0,1-.318.084Z" transform="translate(-27267.945 -4730.548)" fill="#e992ec"/>
    <path id="Path_1450" data-name="Path 1450" d="M29835.236,7195.453a6.119,6.119,0,0,1-.744-1.836.211.211,0,0,1,.15-.249.2.2,0,0,1,.242.155,5.6,5.6,0,0,0,.709,1.7.223.223,0,0,1-.064.3.206.206,0,0,1-.291-.066Z" transform="translate(-27089.414 -4437.854)" fill="#e992ec"/>
    <path id="Path_1451" data-name="Path 1451" d="M29832.133,6935.04a5,5,0,0,1,.289-.953.186.186,0,0,1,.246-.1.2.2,0,0,1,.1.251,4.453,4.453,0,0,0-.26.879.191.191,0,0,1-.223.156.2.2,0,0,1-.15-.231Z" transform="translate(-27087.078 -4181.29)" fill="#e992ec"/>
  </g>
</svg>
