<svg xmlns="http://www.w3.org/2000/svg" width="28" height="24.719" viewBox="0 0 28 24.719">
  <g id="media_icon" data-name="media icon" transform="translate(0 -29.999)">
    <path id="Path_63" data-name="Path 63" d="M173.612,113.166l-6.525-3.906a.821.821,0,0,0-1.242.7v7.8a.821.821,0,0,0,1.241.7l6.525-3.9A.821.821,0,0,0,173.612,113.166Zm-6.126,3.155v-4.91l4.106,2.458Z" transform="translate(-156.775 -74.816)" fill="#e15fff"/>
    <path id="Path_64" data-name="Path 64" d="M27.725,45.9,26.3,44.64V30.819a.82.82,0,0,0-.82-.82H.82a.82.82,0,0,0-.82.82V47.28a.82.82,0,0,0,.82.82H13.705a11.289,11.289,0,0,0-1.015,5.8.821.821,0,0,0,1.5.459,8.845,8.845,0,0,1,6.7-4.46l0,1.594a.821.821,0,0,0,1.372.608l5.469-4.974A.821.821,0,0,0,27.725,45.9ZM1.641,46.46V31.64H24.664V43.179l-2.408-2.144a.821.821,0,0,0-1.366.613V43.27A9.013,9.013,0,0,0,14.8,46.46H1.641Zm20.893,3.174v-.6a.821.821,0,0,0-.82-.821,10.066,10.066,0,0,0-7.331,3.16,7.391,7.391,0,0,1,7.328-6.5.82.82,0,0,0,.82-.82v-.577l3.422,3.048Z" fill="#e15fff"/>
  </g>
</svg>
