<svg xmlns="http://www.w3.org/2000/svg" width="29.646" height="26.499" viewBox="0 0 29.646 26.499">
  <g id="members_icon" data-name="members icon" transform="translate(0 -27.171)">
    <g id="XMLID_15_" transform="translate(0 27.171)">
      <path id="XMLID_490_" d="M22.105,45.216H23.9a5.749,5.749,0,1,0-1.334-11.343,9.03,9.03,0,0,0-8.721-6.7,8.931,8.931,0,0,0-4.031.948.579.579,0,1,0,.518,1.036,7.783,7.783,0,0,1,3.513-.826,7.869,7.869,0,0,1,7.623,5.924,5.753,5.753,0,0,0-1.7,1.212.579.579,0,1,0,.831.806,4.591,4.591,0,1,1,3.3,7.787H21.889a2.534,2.534,0,0,0-2.576-1.5,3.023,3.023,0,0,0-2.208-.951h-.157a2.518,2.518,0,0,0,.407-1.375v-.712a2.533,2.533,0,0,0-5.067,0v.712a2.517,2.517,0,0,0,.407,1.375H12.54a3.027,3.027,0,0,0-2.208.951,2.534,2.534,0,0,0-2.576,1.5H5.749a4.591,4.591,0,0,1-.123-9.181.579.579,0,0,0,.549-.449,7.813,7.813,0,0,1,.72-1.926.579.579,0,0,0-1.022-.544,8.976,8.976,0,0,0-.719,1.791,5.75,5.75,0,0,0,.6,11.468H7.54v.575a2.518,2.518,0,0,0,.407,1.375H7.791a3.045,3.045,0,0,0-3.042,3.042v2.882a.579.579,0,0,0,.579.579H24.317a.579.579,0,0,0,.579-.579V50.209a3.045,3.045,0,0,0-3.042-3.042H21.7a2.518,2.518,0,0,0,.407-1.375v-.575Zm-8.658-4.983v-.712a1.375,1.375,0,0,1,2.751,0v.712a1.375,1.375,0,0,1-2.751,0Zm-.907,2.533h4.566a1.876,1.876,0,0,1,.971.269,2.531,2.531,0,0,0-1.038,2.043v.712a2.518,2.518,0,0,0,.407,1.375h-.157a3.039,3.039,0,0,0-2.466,1.264,3.039,3.039,0,0,0-2.466-1.264H12.2a2.518,2.518,0,0,0,.407-1.375v-.712a2.531,2.531,0,0,0-1.038-2.043,1.878,1.878,0,0,1,.971-.269ZM8.7,45.792v-.712a1.375,1.375,0,1,1,2.75,0v.712a1.375,1.375,0,1,1-2.75,0Zm5.542,6.72H5.907v-2.3a1.886,1.886,0,0,1,1.884-1.884h4.566a1.886,1.886,0,0,1,1.884,1.884Zm9.5-2.3v2.3H15.405v-2.3a1.886,1.886,0,0,1,1.884-1.884h4.566A1.886,1.886,0,0,1,23.738,50.209ZM18.2,45.792v-.712a1.375,1.375,0,1,1,2.75,0v.712a1.375,1.375,0,1,1-2.75,0Z" transform="translate(0 -27.171)" fill="#d840e5"/>
      <path id="XMLID_496_" d="M127.819,69.748a.579.579,0,1,0-.409-.17A.583.583,0,0,0,127.819,69.748Z" transform="translate(-119.873 -66.192)" fill="#d840e5"/>
    </g>
  </g>
</svg>
