<svg xmlns="http://www.w3.org/2000/svg" width="16" height="16" viewBox="0 0 16 16">
  <path id="menu_2" d="M709,610v3h-3v-3h3m0-2h-3a2,2,0,0,0-2,2v3a2,2,0,0,0,2,2h3a2,2,0,0,0,2-2v-3a2,2,0,0,0-2-2Zm9,2v3h-3v-3h3m0-2h-3a2,2,0,0,0-2,2v3a2,2,0,0,0,2,2h3a2,2,0,0,0,2-2v-3a2,2,0,0,0-2-2Zm-9,11v3h-3v-3h3m0-2h-3a2,2,0,0,0-2,2v3a2,2,0,0,0,2,2h3a2,2,0,0,0,2-2v-3a2,2,0,0,0-2-2Zm9,2v3h-3v-3h3m0-2h-3a2,2,0,0,0-2,2v3a2,2,0,0,0,2,2h3a2,2,0,0,0,2-2v-3a2,2,0,0,0-2-2Z" transform="translate(-704 -608)" fill="#fff" fill-rule="evenodd"/>
</svg>
