<svg xmlns="http://www.w3.org/2000/svg" width="24.001" height="24" viewBox="0 0 24.001 24">
  <path id="move_2" d="M88.01,715.925a1.469,1.469,0,0,0-.072-.372,1.333,1.333,0,0,0-.053-.15,1.478,1.478,0,0,0-.3-.451l-3-3a1.5,1.5,0,0,0-2.119,2.132l.44.438H77.523v-5.375l.44.44a1.5,1.5,0,1,0,2.122-2.122l-3-3a1.5,1.5,0,0,0-2.122,0l-3,3a1.5,1.5,0,0,0,2.122,2.122l.44-.44v5.375H69.142l.44-.438a1.5,1.5,0,0,0-2.122-2.122l-3,3a1.5,1.5,0,0,0,0,2.122l3,3a1.5,1.5,0,0,0,2.122-2.122l-.44-.44h5.376v5.385l-.436-.451a1.5,1.5,0,0,0-2.122,2.122l3,3c.014.015.032.018.047.032a1.46,1.46,0,0,0,.44.3h0a.053.053,0,0,1,.039.011,1.49,1.49,0,0,0,.475.091h.15a1.447,1.447,0,0,0,.374-.074,1.327,1.327,0,0,0,.15-.051,1.487,1.487,0,0,0,.451-.3l3-3a1.508,1.508,0,1,0-2.135-2.131l-.44.44V717.52h5.4l-.451.436a1.5,1.5,0,0,0,2.122,2.122l3-3a.48.48,0,0,0,.03-.047,1.464,1.464,0,0,0,.3-.44.057.057,0,0,1,.011-.039,1.485,1.485,0,0,0,.09-.471,1.444,1.444,0,0,0-.009-.152Z" transform="translate(-64.018 -704.021)" fill="#2699fb" fill-rule="evenodd"/>
</svg>
