<svg xmlns="http://www.w3.org/2000/svg" width="116" height="116" viewBox="0 0 116 116">
  <g id="mute_" transform="translate(0 0.001)">
    <path id="Exclusion_3" data-name="Exclusion 3" d="M-5290-14271a57.631,57.631,0,0,1-22.575-4.558,57.835,57.835,0,0,1-18.435-12.43,57.8,57.8,0,0,1-12.43-18.437A57.626,57.626,0,0,1-5348-14329a57.648,57.648,0,0,1,4.558-22.577,57.8,57.8,0,0,1,12.43-18.437,57.811,57.811,0,0,1,18.435-12.431A57.631,57.631,0,0,1-5290-14387a57.64,57.64,0,0,1,22.577,4.558,57.8,57.8,0,0,1,18.436,12.431,57.8,57.8,0,0,1,12.43,18.437A57.648,57.648,0,0,1-5232-14329a57.626,57.626,0,0,1-4.558,22.574,57.792,57.792,0,0,1-12.43,18.437,57.828,57.828,0,0,1-18.436,12.43A57.638,57.638,0,0,1-5290-14271Zm5.45-82a4.594,4.594,0,0,0-2.883,1.022l-16.389,13.309h-14.616a4.568,4.568,0,0,0-4.561,4.564v14.709a4.566,4.566,0,0,0,4.561,4.561h14.616l16.389,13.32a4.593,4.593,0,0,0,2.877,1.018,4.5,4.5,0,0,0,1.964-.444,4.579,4.579,0,0,0,2.6-4.123v-43.371a4.59,4.59,0,0,0-2.6-4.123A4.514,4.514,0,0,0-5284.551-14353Zm12,16.653a2.89,2.89,0,0,0-2.061.855,2.922,2.922,0,0,0,0,4.123l4.618,4.614-4.618,4.622a2.922,2.922,0,0,0,0,4.123,2.9,2.9,0,0,0,2.061.854,2.9,2.9,0,0,0,2.063-.854l4.618-4.621,4.618,4.621a2.905,2.905,0,0,0,2.062.853,2.905,2.905,0,0,0,2.062-.853,2.921,2.921,0,0,0,0-4.123l-4.629-4.622,4.618-4.614a2.922,2.922,0,0,0,0-4.123,2.889,2.889,0,0,0-2.061-.855,2.9,2.9,0,0,0-2.063.855l-4.607,4.618-4.618-4.618A2.9,2.9,0,0,0-5272.549-14336.347Z" transform="translate(5348 14387)" fill="#fff"/>
  </g>
</svg>
