<svg xmlns="http://www.w3.org/2000/svg" width="591.05" height="359.768" viewBox="0 0 591.05 359.768">
  <g id="my_accout_illustration" data-name="my accout illustration" transform="translate(-14961.56 -10041.377)">
    <path id="Path_1" data-name="Path 1" d="M15507.476,10996.746h-263.452q-1.862,0-3.679-.18h-160.55c-19.056,0-34.5-15.941-34.5-35.605v-8.136c0-23.565-18.513-42.668-41.348-42.668h0c-23.409,0-42.387-19.586-42.387-43.741v0c0-24.157,18.978-43.742,42.387-43.742h6.943c22.835,0,41.348-19.1,41.348-42.668h0a37.068,37.068,0,0,1,1.57-10.651,34.583,34.583,0,0,1,32.932-24.955h45.692c-11.443-7.031-19.2-20.61-19.2-36.209h0c0-22.819,16.589-41.316,37.053-41.316H15410.4c18.386,0,33.289,16.619,33.289,37.121,0,24.567,17.861,44.483,39.9,44.483h6.7c22.585,0,40.9,20.417,40.9,45.6h0c0,25.185-18.314,45.6-40.9,45.6-22.029,0-39.892,19.916-39.892,44.483v8.482a38.819,38.819,0,0,1-12.133,28.659h69.224a37.72,37.72,0,0,1,0,75.44Zm-446.9-102.284a4.615,4.615,0,0,0-4.661,4.569v2.9a4.616,4.616,0,0,0,4.661,4.571l31.966-.014h19.122v-.731h-.121s-1.865-.843-1.865-5.3a7.321,7.321,0,0,1,1.865-5.254h-.065c.039,0,.06,0,.06,0l.126,0v-.729h-1.687a1.813,1.813,0,0,0-.207-.012h-7.064c2.574,0,4.662-1.623,4.662-3.625v-2.3c0-1.889-1.854-3.437-4.222-3.611h8.919v-.585h-.106s-1.648-.672-1.648-4.234a5.582,5.582,0,0,1,1.648-4.2h-.059l.055,0h.11v-.585h-1.49c-.06,0-.12-.007-.182-.007h-43.467a3.9,3.9,0,0,0-4.117,3.648v2.318a3.839,3.839,0,0,0,3.637,3.626h-12.956c-.069,0-.139,0-.206.009h-1.687v.579l.126,0,.062,0h-.068a5.287,5.287,0,0,1,1.866,4.168c0,3.536-1.866,4.2-1.866,4.2h-.12v.581h18.665l32.442.008h-42.128Zm341.921-201.187c-.621,0-1.243.019-1.873.058a29.488,29.488,0,0,0,1.818,58.914c.616,0,1.242-.021,1.867-.059a29.487,29.487,0,0,0-1.812-58.913Z" transform="translate(0.001 -598.712)" fill="#e678ff"/>
    <path id="Path_2" data-name="Path 2" d="M18813.08,15556.234c-.8,0-1.439-.437-1.439-.971s.648-.966,1.441-.966,1.439.437,1.438.971S18813.875,15556.236,18813.08,15556.234Zm.008-3.638c.564,0,1.02.284,1.02.63s-.459.628-1.023.625-1.02-.283-1.018-.63S18812.523,15552.595,18813.088,15552.6Zm0-.767c-1.051,0-1.906,1.21-1.908,2.705s.844,2.714,1.895,2.716,1.906-1.207,1.906-2.705S18814.139,15551.834,18813.09,15551.83Z" transform="translate(-3684.793 -5274.513)" fill="#4d77ba"/>
    <path id="Path_3" data-name="Path 3" d="M18740.16,15691.6a6.575,6.575,0,0,0-.611,2.748l-.049,19.844a2.185,2.185,0,0,0,2.188,2.176l11.346.027a2.177,2.177,0,0,0,2.2-2.164l.049-19.846a6.558,6.558,0,0,0-.6-2.75Z" transform="translate(-3616.181 -5408.298)" fill="#74499b"/>
    <path id="Path_4" data-name="Path 4" d="M18740.16,15691.6a6.575,6.575,0,0,0-.611,2.748l-.049,19.844a2.185,2.185,0,0,0,2.188,2.176l11.346.027a2.177,2.177,0,0,0,2.2-2.164l.049-19.846a6.558,6.558,0,0,0-.6-2.75Z" transform="translate(-3616.181 -5408.298)" fill="#74499b"/>
    <path id="Path_5" data-name="Path 5" d="M18755.33,15694.445l-.051,19.846a2.179,2.179,0,0,1-2.2,2.164l-11.348-.028a2.181,2.181,0,0,1-2.187-2.176l.051-19.843a6.553,6.553,0,0,1,.609-2.748l14.521.037A6.556,6.556,0,0,1,18755.33,15694.445Z" transform="translate(-3616.228 -5408.356)" fill="#f37d65"/>
    <path id="Path_6" data-name="Path 6" d="M18742.551,15714.188l.047-19.844a6.608,6.608,0,0,1,.611-2.748l-3.01-.007a6.568,6.568,0,0,0-.609,2.747l-.049,19.843a2.182,2.182,0,0,0,2.188,2.176l3.008.006A2.177,2.177,0,0,1,18742.551,15714.188Z" transform="translate(-3616.22 -5408.289)" fill="#f58e82"/>
    <path id="Path_7" data-name="Path 7" d="M18954.174,15695.028l-.049,19.845a2.18,2.18,0,0,1-2.2,2.165l-4.639-.01a2.2,2.2,0,0,0,2.221-2.166l.049-19.845a6.526,6.526,0,0,0-.605-2.748l4.623.012a6.554,6.554,0,0,1,.6,2.748Z" transform="translate(-3815.073 -5408.939)" fill="#b46153"/>
    <path id="Path_8" data-name="Path 8" d="M18769.4,15666.11l-14.523-.035a1.153,1.153,0,0,1,1.162-1.146l12.205.029a1.154,1.154,0,0,1,1.156,1.15Z" transform="translate(-3630.901 -5382.77)" fill="#2b4663"/>
    <path id="Path_9" data-name="Path 9" d="M18755.338,16127.743l-15.73-.044-.008,2.467,15.73.039Z" transform="translate(-3616.276 -5825.725)" fill="#426291"/>
    <path id="Path_10" data-name="Path 10" d="M17373.223,15535.489h1.736a1.834,1.834,0,0,0-1.025-.31h-43.467a3.9,3.9,0,0,0-4.117,3.65v2.317a3.9,3.9,0,0,0,4.117,3.65l42.979-.013Z" transform="translate(-2263.537 -5258.576)" fill="#80abda"/>
    <path id="Path_11" data-name="Path 11" d="M17756.676,15535.4a3.733,3.733,0,0,0-3.937,3.49v2.621a3.733,3.733,0,0,0,3.938,3.49h27.059v-.585h-.113l-6.879-.578-1.391-4.836s2.684-2.67,2.859-2.739,5.41-.277,5.41-.277l.113,0v-.584Z" transform="translate(-2671.669 -5258.785)" fill="#4d77ba"/>
    <path id="Path_12" data-name="Path 12" d="M17801.555,15553.3a5.577,5.577,0,0,1,1.648-4.2h-26.395a3.429,3.429,0,0,0-3.619,3.2v2.019a3.431,3.431,0,0,0,3.619,3.206h26.395S17801.555,15556.866,17801.555,15553.3Z" transform="translate(-2691.245 -5271.909)" fill="#f8dcad"/>
    <path id="Path_13" data-name="Path 13" d="M17773.172,15671.134v0Zm0-.021v0Zm0-.015v0Zm0-.022a.054.054,0,0,1,0-.018h0A.054.054,0,0,0,17773.172,15671.076Z" transform="translate(-2691.226 -5388.636)" fill="#4672b6"/>
    <path id="Path_14" data-name="Path 14" d="M17773.336,15555.081a2.932,2.932,0,0,1-.105-.693v-2.094a3.431,3.431,0,0,1,3.617-3.2h26.4s-16.48.207-24.062,1.6A7.56,7.56,0,0,0,17773.336,15555.081Z" transform="translate(-2691.284 -5271.89)" fill="#ccc9a6"/>
    <path id="Path_15" data-name="Path 15" d="M17218.393,15982.78h1.965a1.918,1.918,0,0,0-1.162-.391H17170a4.615,4.615,0,0,0-4.66,4.57v2.9a4.616,4.616,0,0,0,4.66,4.571l48.645-.019Z" transform="translate(-2109.421 -5686.637)" fill="#55c0a9"/>
    <path id="Path_16" data-name="Path 16" d="M17652.467,15982.6a4.415,4.415,0,0,0-4.457,4.369v3.279a4.415,4.415,0,0,0,4.457,4.369h30.625v-.732h-.127l-7.785-.725-1.574-6.051s3.037-3.344,3.234-3.432,6.125-.346,6.125-.346l.127,0v-.73Z" transform="translate(-2571.425 -5686.838)" fill="#4b9483"/>
    <path id="Path_17" data-name="Path 17" d="M17703.168,16005.042a7.32,7.32,0,0,1,1.865-5.253h-29.877a4.054,4.054,0,0,0-4.094,4.014v2.522a4.053,4.053,0,0,0,4.094,4.015h29.877S17703.168,16009.5,17703.168,16005.042Z" transform="translate(-2593.49 -5703.292)" fill="#f8dcad"/>
    <path id="Path_18" data-name="Path 18" d="M17671.09,16152.8Zm0-.014v0Zm0-.014v0Z" transform="translate(-2593.517 -5849.722)" fill="#428a7e"/>
    <path id="Path_19" data-name="Path 19" d="M17671.229,16007.2a4.052,4.052,0,0,1-.117-.917h0v-2.571a4.054,4.054,0,0,1,4.092-4.015h29.879s-18.652.261-27.236,2.007a8.748,8.748,0,0,0-6.615,5.494Z" transform="translate(-2593.537 -5703.206)" fill="#ccc9a6"/>
    <path id="Path_20" data-name="Path 20" d="M17083.484,15759.528h-1.965a2.27,2.27,0,0,1,1.16-.308h49.215c2.574,0,4.664,1.623,4.664,3.626v2.3c0,2-2.088,3.625-4.664,3.625l-48.664-.012.254-9.234Z" transform="translate(-2029.19 -5473.024)" fill="#f37d65"/>
    <path id="Path_21" data-name="Path 21" d="M17095.088,15759.391c2.461,0,4.457,1.554,4.457,3.467v2.6c0,1.916-2,3.466-4.457,3.466h-30.639v-.581h.127l7.789-.572,1.572-4.8s-3.039-2.654-3.234-2.721-6.127-.277-6.127-.277l-.127,0v-.579Z" transform="translate(-2012.851 -5473.187)" fill="#b46153"/>
    <path id="Path_22" data-name="Path 22" d="M17069.088,15777.219a5.288,5.288,0,0,0-1.867-4.168h29.889c2.262,0,4.1,1.426,4.1,3.186v2c0,1.759-1.834,3.185-4.1,3.185h-29.889S17069.088,15780.755,17069.088,15777.219Z" transform="translate(-2015.503 -5486.262)" fill="#f8dcad"/>
    <path id="Path_23" data-name="Path 23" d="M17861,15894.525h0Zm0-.012v0Zm0-.012v0Z" transform="translate(-2775.295 -5602.511)" fill="#995b4f"/>
    <path id="Path_24" data-name="Path 24" d="M17101.133,15779.041c-1.008-1.92-2.939-3.768-6.615-4.361-8.588-1.387-27.248-1.592-27.248-1.592h29.889c2.262,0,4.1,1.426,4.1,3.186v2.039A2.476,2.476,0,0,1,17101.133,15779.041Z" transform="translate(-2015.55 -5486.297)" fill="#ccc9a6"/>
    <path id="Path_25" data-name="Path 25" d="M20776.512,15972.122l-4.609-.877,19.934-105.745,4.617.873Z" transform="translate(-5561.563 -5574.752)" fill="#2d515c"/>
    <path id="Path_26" data-name="Path 26" d="M24012.24,15972.6h5.555l-20.686-107.1-4.609.873Z" transform="translate(-8644.265 -5574.752)" fill="#2d515c"/>
    <path id="Path_27" data-name="Path 27" d="M21639.15,15972.6h5.549l-20.682-107.1-4.615.873Z" transform="translate(-6372.775 -5574.752)" fill="#2d515c"/>
    <path id="Path_28" data-name="Path 28" d="M23171.9,15983.322l-4.5.052,19.828-106.674,4.613.873Z" transform="translate(-7854.493 -5585.473)" fill="#2d515c"/>
    <path id="Path_29" data-name="Path 29" d="M20396.959,12486.366c18.271,1.957,41.916,4.021,65.654,44.3,25.941,44.027,12.287,109.79-8.189,128.063s-87.355,40.838-143.572,7.058c0,0-33.943-20.471-16.523-54.446,26.809-52.283,23.021-63.186,35.006-83.676S20358.178,12482.214,20396.959,12486.366Z" transform="translate(-5099.677 -2339.865)" fill="#f8dcad"/>
    <path id="Path_30" data-name="Path 30" d="M20709.156,12610.595c-16.2-27.493-32.357-37.181-46.791-41.185a121.045,121.045,0,0,1,16.908,22.827c25.943,44.026,12.287,109.788-8.189,128.063-18.16,16.205-72.809,35.778-124.154,16.443a52.142,52.142,0,0,0,10.465,8.972c56.221,33.78,123.1,11.218,143.574-7.058S20735.1,12654.621,20709.156,12610.595Z" transform="translate(-5346.222 -2419.791)" fill="#f4c781"/>
    <path id="Path_31" data-name="Path 31" d="M16881.336,13021.934c-.518,4.085,3.734,7.326,7.518,7.071a9.31,9.31,0,0,0,8.34-7.822c.662-4.447-2.01-8-6.146-8.33a5.158,5.158,0,0,0-5.436,6.88c.832,2.592,3.2,3.559,4.391,2.843a1.183,1.183,0,0,0-.252-2.21,1.161,1.161,0,0,0-1.154.5c-.984-.392-1.922-2.184-1.285-4.118.811-2.472,3.938-2.613,5.877-1.46,2.471,1.467,2.857,4.626,1.953,7.145a7.6,7.6,0,0,1-6.375,4.926,5.926,5.926,0,0,1-6.277-5.416.578.578,0,0,0-1.154,0Z" transform="translate(-1837.536 -2844.228)" fill="#ae3dc9"/>
    <path id="Path_32" data-name="Path 32" d="M22689.17,10041.378c-18.91-.112-34.295,9.214-34.363,20.83-.037,5.809,3.764,11.09,9.939,14.933l-7.777,17.081,16.23-13.218a52.15,52.15,0,0,0,15.721,2.44c18.91.112,34.3-9.213,34.365-20.83S22708.078,10041.49,22689.17,10041.378Z" transform="translate(-7363.847)" fill="#ae3dc9"/>
    <path id="Path_33" data-name="Path 33" d="M23142.615,10244.52a11.933,11.933,0,1,0,8.5-14.582A11.928,11.928,0,0,0,23142.615,10244.52Z" transform="translate(-7830.389 -180.107)" fill="#fff"/>
    <path id="Path_34" data-name="Path 34" d="M23300.508,10513.1a6.379,6.379,0,1,1-12.336,3.253Z" transform="translate(-7970.093 -451.524)" fill="#570880"/>
    <path id="Path_35" data-name="Path 35" d="M18844.215,13007.8l52.209-.392a2.159,2.159,0,0,0,2.143-2.175l-.262-34.905a2.161,2.161,0,0,0-2.176-2.143l-52.209.391a2.161,2.161,0,0,0-2.143,2.176l.264,34.905A2.156,2.156,0,0,0,18844.215,13007.8Z" transform="translate(-3714.079 -2801.496)" fill="#ae3dc9"/>
    <path id="Path_36" data-name="Path 36" d="M20036.539,13421.6l16.857,17.179-20.8-3.88Z" transform="translate(-4853.914 -3235.492)" fill="#ae3dc9"/>
    <path id="Path_37" data-name="Path 37" d="M19188.59,13083.619l-5.074-.091s-6.393-4.773-6.59-6.462.855-5.257-.137-5.705a3.324,3.324,0,0,0-4.418,1.432c-.965,1.622-.162,7.541-.758,7.938-.375.247-3.289.277-5.42.266a3.757,3.757,0,0,0-3.348,2l0,0a2,2,0,0,0,.484,2.479l1.131.946-.889,1.183a2,2,0,0,0,.385,2.8l.893.682-.611.7a2,2,0,0,0,.357,2.964l.793.557-.119.22a2.009,2.009,0,0,0,.654,2.629l.8.527,13.512.239a9.291,9.291,0,0,0,3.693-.693l4.768-.7a1.047,1.047,0,0,0,.893-1.031l.031-11.827a1.047,1.047,0,0,0-1.025-1.048Z" transform="translate(-4021.174 -2899.931)" fill="#fefefe"/>
    <path id="Path_38" data-name="Path 38" d="M21327.494,14059.5l-4.693,14.087,14.313-5.631Z" transform="translate(-6088.873 -3846.08)" fill="#f69b8d"/>
    <path id="Path_39" data-name="Path 39" d="M21343.18,13080.3c-.953.039-3.568.911-7.393,8.112-4.883,9.2-12.018,36.975-12.018,36.975l21.3,7.905,2.734-5.8,4.508-44.639S21343.443,13080.287,21343.18,13080.3Z" transform="translate(-6089.8 -2908.805)" fill="#293b4f"/>
    <path id="Path_40" data-name="Path 40" d="M21775.053,12986.8c-6.092.009-21.16,1.779-28.156,4.007,0,0-5.139,44.015,4.625,77.46,2.188,7.487-1.807,31.038-1.807,31.038l63.117-.829s-7.479-56.933-4.662-66.128,2.885-41.245,2.885-41.245-.432-.067-14.182-2.435a143.2,143.2,0,0,0-21.82-1.867Z" transform="translate(-6493.517 -2819.309)" fill="#2c4664"/>
    <path id="Path_41" data-name="Path 41" d="M22493.143,17522.4s-1.4,16.063-3.963,20.51.135,12.008.27,13.047,5.4,2.521,13.783,1.629,8.24-2.816,7.564-5.93-5.135-7.117-5.4-10.08,2.568-13.641,2.568-13.641Z" transform="translate(-7204.255 -7160.709)" fill="#f7a190"/>
    <path id="Path_42" data-name="Path 42" d="M20730.307,15282.793s-43.568-2.41-53.3,3.461,1.762,17.932,1.762,17.932,35.469,15.368,94.85,18.784c14.061.81,15.273-36.541,12.645-39.631s-55.959-.546-55.959-.546Z" transform="translate(-5466.99 -5016.053)" fill="#0a2a4e"/>
    <path id="Path_43" data-name="Path 43" d="M22483.973,18038.91c8.627-.918,7.561-5.141,6.863-8.348-.434-2.006-2.908-4.373-4.385-6.611a14.4,14.4,0,0,1-5.771,2.8c-3.891,1.145-9.223-1.121-12.621-2.541a41.466,41.466,0,0,0-1.152,11.09C22467.045,18036.365,22475.346,18039.826,22483.973,18038.91Z" transform="translate(-7183.954 -7640.786)" fill="#426291"/>
    <path id="Path_44" data-name="Path 44" d="M22523.637,15323.5c-1.738,13.126-10.355,78.477-10.355,78.477l20,2.47s24.59-85.295,23.332-98.341-10.469-14.145-10.469-14.145S22528.246,15288.754,22523.637,15323.5Z" transform="translate(-7228.381 -5025.7)" fill="#042347"/>
    <path id="Path_45" data-name="Path 45" d="M21923.83,11629.351s6.645-7,11.99,1.517a5.311,5.311,0,0,1,7,1.806s7.439-2.239,9.244,8.884c0,0,3.828-.724,4.332,3.827a11.253,11.253,0,0,1-1.807,7.583s2.152,1.613,1.176,5.795a5.179,5.179,0,0,1-3.773,4.1s-.793,5.994-3.393,7.8-6.141.938-6.141.938-.937,3.25-3.973,2.962-6.787-3.179-10.182-1.878-12.205-.072-12.205-.072-9.895-4.405-6.934-14.517c0,0-5.2-4.694-.648-10.327,0,0-3.324-8.812,3.25-14.01S21923.83,11629.351,21923.83,11629.351Z" transform="translate(-6647.728 -1517.39)" fill="#2c4664"/>
    <path id="Path_46" data-name="Path 46" d="M22284.816,12486.424l-1.2,8.924s-2.7,12.855.77,15.332,14.742-15.7,14.742-15.7l-1.187-22.609Z" transform="translate(-7007.591 -2326.907)" fill="#f7a190"/>
    <path id="Path_47" data-name="Path 47" d="M22324.744,12479.707c-2.865,7.713-9.684,12.453-14.523,14.292l1.02-7.564,13.119-14.054.385,7.328Z" transform="translate(-7034.015 -2326.916)" fill="#f37d65"/>
    <path id="Path_48" data-name="Path 48" d="M22082.713,11903.192a11.922,11.922,0,0,0-15.6,9.5,90.279,90.279,0,0,0-.971,11.448c-.187,10.422,5.205,20.563,9.939,20.563s17.813-6.746,18.285-21.541C22094.654,11914.031,22090.1,11905.732,22082.713,11903.192Z" transform="translate(-6800.379 -1781.481)" fill="#f7a190"/>
    <path id="Path_49" data-name="Path 49" d="M22644,12318.343c0,2.3,1.527,4.163,3.406,4.163s3.4-1.863,3.4-4.163-1.523-4.162-3.4-4.162S22644,12316.044,22644,12318.343Z" transform="translate(-7353.502 -2175.489)" fill="#f7a190"/>
    <path id="Path_50" data-name="Path 50" d="M21859.244,11725.334c-4.889,3.872-6.6,9.756-3.828,13.142s8.988,2.991,13.877-.88,6.6-9.757,3.826-13.144S21864.131,11721.462,21859.244,11725.334Z" transform="translate(-6597.412 -1608.808)" fill="#2c4664"/>
    <path id="Path_51" data-name="Path 51" d="M21652.391,13200.006c-5.9-2.205-8.787,50.785-9.584,72.6-10.449,1-28.666.006-33.2-.334-2.135-.16-7.051-1.955-9.174-2.23a21.338,21.338,0,0,0-5.211-.248c-.393.07-11.287,4.508-12.219,5.48-1.154,1.209-4.279,4.254-3.752,5.57s6.008-3.67,6.008-3.67l2.68-1.5c-3.336,3.248-9.7,7.523-8.779,9.08.895,1.52,6.631-2.82,10.721-5.775-3.508,3.156-7.865,8.8-6.861,9.686.9.793,5.857-5.75,11.154-7.633,1.965-.7,3.92,1.236,5.465,1.469a11.132,11.132,0,0,0,4,.223l5.738-1.621c1.951.176,2,1.326,3.973,1.746,2.293.484,6.051,1,8.965,1.707,16.8,4.092,22.4,5.99,27.543,5.986C21665.434,13290.531,21666.338,13205.221,21652.391,13200.006Z" transform="translate(-6334.17 -3023.323)" fill="#f7a190"/>
    <path id="Path_52" data-name="Path 52" d="M23017.971,13139.155c1.1-22.342.939-49.879-11.625-54.577-4.959-1.854-13.7,9.293-12.129,55.029C23000.926,13140.159,23010.775,13140.605,23017.971,13139.155Z" transform="translate(-7688.546 -2912.718)" fill="#2c4664"/>
    <path id="Path_53" data-name="Path 53" d="M21911,14139.3h1.283l19.254,47.159-1.322-.2Z" transform="translate(-6651.887 -3922.462)" fill="#f69b8d"/>
    <path id="Path_54" data-name="Path 54" d="M20776.369,17843.2s1.742,5.574-1.381,9.264-16.109,7.3-17.811,9.3a5.58,5.58,0,0,0-1.578,3.7l36.439-1-.4-10.969-1.678-7.883Z" transform="translate(-5545.956 -7467.771)" fill="#f7a190"/>
    <path id="Path_55" data-name="Path 55" d="M20647.055,18083.822s9.363,3.773,13.887,1.539,4.387-2.855,5.7-2.021,1.777,11.115,1.777,11.115l-40.973,1.2c-2.852-.064-4.3-2.158-1.977-3.949a32.974,32.974,0,0,1,4.465-2.646C20633.137,18087.227,20647.055,18083.822,20647.055,18083.822Z" transform="translate(-5420.29 -7697.292)" fill="#426291"/>
    <path id="Path_56" data-name="Path 56" d="M20555.779,15312.976c-2.816-5.906-9.221-13.6-20.492-8.965-10.746,4.418-13.633,15.275-10.24,26.393s25.719,76.477,26.5,85.46l17.826.118s-3.24-51.75-4.037-64.26c-.762-12.034-4.678-28.521-9.553-38.747Z" transform="translate(-5323.988 -5035.946)" fill="#042347"/>
    <path id="Path_57" data-name="Path 57" d="M20510.037,14139.3h59.59a3.878,3.878,0,0,1,3.594,2.413l18.35,44.75h32.852a1.662,1.662,0,1,1,0,3.323h-93.5a6.522,6.522,0,0,1-5.951-3.854l-18.477-41.155A3.885,3.885,0,0,1,20510.037,14139.3Z" transform="translate(-5307.186 -3922.462)" fill="#f37d65"/>
    <path id="Path_58" data-name="Path 58" d="M21344.457,14651.046a3.281,3.281,0,1,0,2.461-4.276A3.51,3.51,0,0,0,21344.457,14651.046Z" transform="translate(-6109.523 -4408.15)" fill="#fefefe"/>
    <path id="Path_59" data-name="Path 59" d="M24601.283,11342.462a29.488,29.488,0,0,1-1.818-58.914c.631-.039,1.252-.059,1.873-.059a29.488,29.488,0,0,1,1.816,58.913C24602.527,11342.441,24601.9,11342.462,24601.283,11342.462Z" transform="translate(-9198.844 -1188.929)" fill="#c0d8f0"/>
    <path id="Path_60" data-name="Path 60" d="M24520.1,11959.435h10.846v-.835H24520.1Z" transform="translate(-9149.273 -1835.133)" fill="#2d515c"/>
    <path id="Path_61" data-name="Path 61" d="M25746.4,11959.435h10.846v-.835H25746.4Z" transform="translate(-10323.066 -1835.133)" fill="#2d515c"/>
    <path id="Path_62" data-name="Path 62" d="M25248.4,11247.671h.83V11236.8h-.83Z" transform="translate(-9846.389 -1144.239)" fill="#2d515c"/>
    <path id="Path_63" data-name="Path 63" d="M25248.4,12471.666h.83V12460.8h-.83Z" transform="translate(-9846.389 -2315.83)" fill="#2d515c"/>
    <path id="Path_64" data-name="Path 64" d="M25240.035,11952.08a.9.9,0,1,1-.9-.9A.9.9,0,0,1,25240.035,11952.08Z" transform="translate(-9836.664 -1828.031)" fill="#2d515c"/>
    <path id="Path_65" data-name="Path 65" d="M24889.5,11602.17a.4.4,0,0,1-.281-.117l-16.133-16.168a.4.4,0,1,1,.566-.569l16.129,16.168a.4.4,0,0,1,0,.569A.394.394,0,0,1,24889.5,11602.17Z" transform="translate(-9487.026 -1477.719)" fill="#2d515c"/>
    <path id="Path_66" data-name="Path 66" d="M25260.131,11988.528a.294.294,0,0,1-.145-.169l-5.215-15.785a.291.291,0,1,1,.553-.185l5.217,15.785a.293.293,0,0,1-.41.354Z" transform="translate(-9852.474 -1848.141)" fill="#2d515c"/>
    <path id="Path_67" data-name="Path 67" d="M26360.9,13164.556l2.35-3.832-3.732-1.514-2.35,3.83Zm-9.518,3.416,2.633-4.265-2.111-.855a.9.9,0,1,1,.678-1.671l2.436.986,2.344-3.831-2.252-.913a.9.9,0,1,1,.676-1.672l2.578,1.045,2.727-4.387a.9.9,0,0,1,1.105-.359l.393.158a.9.9,0,0,1,.43,1.308l-2.535,4.14,3.734,1.515,2.725-4.387a.9.9,0,0,1,1.1-.36l.432.174a.9.9,0,0,1,.43,1.308l-2.535,4.139,2.111.855a.9.9,0,0,1-.682,1.671l-2.432-.986-2.311,3.845,2.254.913a.9.9,0,1,1-.678,1.672l-2.574-1.045-2.791,4.524a.9.9,0,0,1-1.1.362l-.459-.187a.9.9,0,0,1-.428-1.309l2.625-4.266-3.736-1.515-2.783,4.523a.9.9,0,0,1-1.107.362l-.459-.186a.9.9,0,0,1-.432-1.308Z" transform="translate(-10902.025 -2977.42)" fill="#2c4664"/>
    <path id="Path_68" data-name="Path 68" d="M20953.432,10430.679l4.582-10.354-5.926-9.648a1.556,1.556,0,0,1,1.484-2.361l11.262,1.162,7.348-8.619a1.554,1.554,0,0,1,2.7.684l2.375,11.072,10.465,4.32a1.555,1.555,0,0,1,.188,2.783l-9.793,5.68-.879,11.289a1.555,1.555,0,0,1-2.59,1.039l-8.43-7.562-11,2.658A1.554,1.554,0,0,1,20953.432,10430.679Z" transform="translate(-5746.811 -349.565)" fill="#fff"/>
    <path id="Path_69" data-name="Path 69" d="M25501.16,10521.59l2.66-6.014-3.437-5.6a.9.9,0,0,1,.863-1.371l6.535.674,4.27-5a.9.9,0,0,1,1.566.4l1.375,6.426,6.078,2.51a.9.9,0,0,1,.109,1.617l-5.691,3.3-.508,6.555a.9.9,0,0,1-1.5.6l-4.895-4.391-6.387,1.541A.9.9,0,0,1,25501.16,10521.59Z" transform="translate(-10087.451 -442.774)" fill="#fff"/>
    <path id="Path_70" data-name="Path 70" d="M24967.459,13590.929l-.68-7.99-6.961-3.973a1.1,1.1,0,0,1,.113-1.973l7.395-3.113,1.621-7.857a1.1,1.1,0,0,1,1.914-.494l5.25,6.068,7.965-.881a1.108,1.108,0,0,1,1.07,1.666l-4.156,6.861,3.313,7.313a1.106,1.106,0,0,1-1.258,1.525l-7.812-1.826-5.93,5.4a1.105,1.105,0,0,1-1.844-.721Z" transform="translate(-9569.633 -3372.893)" fill="#fff"/>
    <path id="Path_71" data-name="Path 71" d="M18002.178,12341.461l2.1-4.744-2.717-4.424a.713.713,0,0,1,.682-1.082l5.16.533,3.367-3.951a.716.716,0,0,1,1.244.313l1.086,5.076,4.8,1.98a.716.716,0,0,1,.086,1.277l-4.494,2.6-.4,5.176a.713.713,0,0,1-1.187.477l-3.861-3.467-5.047,1.217a.713.713,0,0,1-.82-.982Z" transform="translate(-2914.765 -2188.28)" fill="#fff"/>
    <path id="Path_72" data-name="Path 72" d="M20672.5,12206.914l3.063-6.914-3.957-6.441a1.041,1.041,0,0,1,.992-1.58l7.52.779,4.906-5.758a1.041,1.041,0,0,1,1.809.455l1.582,7.4,6.992,2.885a1.037,1.037,0,0,1,.121,1.859l-6.543,3.795-.582,7.539a1.035,1.035,0,0,1-1.727.691l-5.633-5.047-7.348,1.775a1.038,1.038,0,0,1-1.2-1.43Z" transform="translate(-5478.15 -2053.406)" fill="#fff"/>
    <path id="Path_73" data-name="Path 73" d="M19348.928,11042.762l5.852-.853,2.406,9.271,8.709-.188,2.938,6.642,3.361-1.487-3.926-8.879-8.254.176-2.506-9.644-8.809,1.28Z" transform="translate(-4199.296 -953.758)" fill="#fff"/>
    <path id="Path_74" data-name="Path 74" d="M19011.506,14581.155l4.43-3.923,7.1,6.431,7.18-4.933,6.1,3.948,2-3.088-8.152-5.274-6.8,4.672-7.381-6.689-6.666,5.9Z" transform="translate(-3874.43 -4336.922)" fill="#2c4664"/>
    <path id="Path_75" data-name="Path 75" d="M17445.264,14381.592l3.322-5.421-5.285-2.145-3.324,5.422Zm-13.471,4.836,3.719-6.036-2.984-1.213a1.275,1.275,0,0,1,.957-2.364l3.443,1.4,3.322-5.422-3.186-1.292a1.276,1.276,0,1,1,.957-2.365l3.646,1.478,3.857-6.208a1.278,1.278,0,0,1,1.566-.509l.555.225a1.278,1.278,0,0,1,.609,1.851l-3.59,5.856,5.287,2.146,3.857-6.209a1.275,1.275,0,0,1,1.563-.51l.607.247a1.274,1.274,0,0,1,.609,1.85l-3.588,5.859,2.984,1.21a1.276,1.276,0,1,1-.959,2.364l-3.443-1.394-3.271,5.44,3.188,1.293a1.276,1.276,0,1,1-.959,2.364l-3.645-1.478-3.941,6.4a1.283,1.283,0,0,1-1.568.514l-.65-.264a1.279,1.279,0,0,1-.607-1.853l3.717-6.037-5.285-2.144-3.941,6.4a1.276,1.276,0,0,1-1.566.513l-.65-.262a1.277,1.277,0,0,1-.607-1.853Z" transform="translate(-2364.286 -4137.348)" fill="#fff"/>
    <path id="Path_76" data-name="Path 76" d="M24278.238,14750.89c-.377-3.341-.824-6.754-2.375-9.734-1.885-3.624-5.2-6.237-8.088-9.117a50.581,50.581,0,0,1-12.057-19.22c-1.932-5.578-2.893-11.521-5.555-16.785-1.623-3.217-3.838-6.092-5.684-9.186-4.357-7.314-6.734-15.956-12.646-22.078a26.553,26.553,0,0,0,5.994,20.993,35.222,35.222,0,0,1,4.254,5.173c2.016,3.528,1.832,7.833,2.07,11.891a52.166,52.166,0,0,0,6.244,21.854c3.875,7.124,9.479,13.468,11.549,21.312,1.555,5.879,1.09,12.474,4.406,17.568a4.474,4.474,0,0,1,.857,1.76,3.885,3.885,0,0,1-.062,1.1c-.074.473-.15.948-.225,1.421-.752,4.811-1.535,10.932,2.6,14.532,2.861,2.5,6.549,2.552,8.611-.763,2.074-3.338,1.885-8.223,1.734-11.979C24279.611,14763.38,24278.945,14757.106,24278.238,14750.89Z" transform="translate(-8873.073 -4425.434)" fill="#4b9483"/>
    <path id="Path_77" data-name="Path 77" d="M24980.416,14234.438c-1.605-5.568-4.105-10.874-5.355-16.534-1.211-5.49-1.225-11.166-1.227-16.791q0-9.242-.014-18.488a69.257,69.257,0,0,0-.639-11.475c-1.365-8.142-5.6-15.67-6.311-23.892-.314-3.558.045-7.152-.344-10.7a16.84,16.84,0,0,0-1.684-5.895,2.624,2.624,0,0,0-4.709.132c-2.055,4.454-3.359,9.267-2.527,14.037.5,2.861,1.738,5.53,2.664,8.283,4.121,12.258,1.932,25.829,5.119,38.365.963,3.784,2.416,7.494,2.588,11.395.4,9.339-6.566,17.865-5.928,27.188.523,7.646,6.02,13.97,8.324,21.276,1.295,4.09,1.568,8.455,2.955,12.512,1.074,3.157,3.572,6.985,7.459,6.028,3.68-.908,2.57-3.916,2.4-6.792C24982.635,14253.367,24983.158,14243.936,24980.416,14234.438Z" transform="translate(-9567.806 -3912.854)" fill="#418674"/>
    <path id="Path_78" data-name="Path 78" d="M25343.555,14363.743c-.16-2.895-.648-5.8-.246-8.676a50.989,50.989,0,0,1,2-7.054,63.589,63.589,0,0,0,1.926-13.6q.855-12.479,1.7-24.956c.887-12.933,1.771-25.9,4.189-38.631.672-3.535,1.424-7.366-.162-10.595-.336-.681-1-1.4-1.715-1.175-.516.162-.77.728-.953,1.235-5.289,14.363-7.287,29.826-13.184,43.946-1.412,3.384-3.057,6.711-3.789,10.3-.879,4.314-.4,8.771-.281,13.174a62.319,62.319,0,0,1-2.2,18.743c-.912,3.174-2.135,6.279-2.635,9.543-.625,4.074-.1,8.223.291,12.324a189.518,189.518,0,0,1,.762,23.733c-.143,4.655,3.783,4.533,6.385,1.674,1.822-2,1.8-4.2,2.43-6.686,2.047-8.173,5.979-14.447,5.479-23.308Z" transform="translate(-9922.505 -4037.056)" fill="#4b9483"/>
    <path id="Path_79" data-name="Path 79" d="M24593.084,16403.588c-3.477-5.58-10.4-8.756-12.615-14.947-.568-1.574-.787-3.27-1.477-4.8-1.535-3.385-5.021-5.3-8.445-6.856a.726.726,0,0,0-1.025.653,2.478,2.478,0,0,0,1.07,2.092,13.907,13.907,0,0,1,5.543,7.556c1.055,3.629.594,7.605,1.914,11.148,1.1,2.973,3.379,5.406,4.443,8.395.977,2.729.875,5.711,1.336,8.578s1.729,5.9,4.359,7.117c9.518,4.383,7.141-15.332,4.9-18.937Z" transform="translate(-9196.58 -6064.278)" fill="#418674"/>
    <path id="Path_80" data-name="Path 80" d="M25658.27,16122.378c-.148,2.7.266,5.528-.791,8.015a24.346,24.346,0,0,1-2.889,4.289c-3.5,4.956-4.771,11.977-10.158,14.765a1.794,1.794,0,0,1-1.141.276,1.763,1.763,0,0,1-1.139-1.152c-1.318-3.074.16-6.536,1.041-9.767a2.414,2.414,0,0,0,.012-1.715c-.293-.571-.971-.819-1.432-1.269-.918-.893-.834-2.374-.65-3.646a82.951,82.951,0,0,1,1.918-9.426,16.385,16.385,0,0,1,2.021-5.041,22.356,22.356,0,0,1,4.248-4.21,50.376,50.376,0,0,0,14.713-21.713,14.244,14.244,0,0,1,2.461-5.146c1.285-1.419,3.576-2.148,5.141-1.049,1.111.785-3.445,8.122-3.979,9-1.518,2.515-1.539,4.7-2.4,7.493C25663.145,16108.925,25658.676,16115.048,25658.27,16122.378Z" transform="translate(-10222.187 -5784.909)" fill="#4b9483"/>
    <path id="Path_81" data-name="Path 81" d="M25443.883,15583.115a33.16,33.16,0,0,0,2.324-7.923c.367-3.048-.117-6.164.4-9.189.668-3.889,2.938-7.31,4.059-11.091a72.388,72.388,0,0,0,1.5-8.409c1.391-8.03,5.168-15.875,4.086-23.951-.238-1.757-1.027-3.8-2.773-4.1-1.578-.272-3.012,1.172-3.422,2.724a14.692,14.692,0,0,0,0,4.787,19.758,19.758,0,0,1-3.535,12.673c-2.484,3.51-6.082,6.151-8.312,9.823-2.734,4.5-3.109,10-4.5,15.088-2.781,10.11-9.742,18.932-11.016,29.341-.5,4.143.469,9.179,4.289,10.832,11.055,4.787,14.395-14.123,16.9-20.6Z" transform="translate(-10013.102 -5242.53)" fill="#418674"/>
    <path id="Path_82" data-name="Path 82" d="M24841.545,17329.3h-25.369a2.686,2.686,0,0,0-2.613,3.314l9.246,39a2.689,2.689,0,0,0,2.617,2.068h30.479a2.682,2.682,0,0,0,2.611-2.068l9.254-39a2.692,2.692,0,0,0-2.617-3.314Z" transform="translate(-9430.099 -6975.878)" fill="#f37d65"/>
    <path id="Path_83" data-name="Path 83" d="M16642.5,16269.465h123.338v-6.365H16642.5Z" transform="translate(-1608.968 -5955.328)" fill="#2d515c"/>
    <path id="Path_84" data-name="Path 84" d="M16694.6,17131.674h80.637v-5.574H16694.6Z" transform="translate(-1658.837 -6781.377)" fill="#2d515c"/>
    <path id="Path_85" data-name="Path 85" d="M19118.9,16424.283h5.207V16337.4h-5.207Z" transform="translate(-3979.337 -6026.448)" fill="#2d515c"/>
    <path id="Path_86" data-name="Path 86" d="M17400.5,16424.283h5.2V16337.4h-5.2Z" transform="translate(-2334.513 -6026.448)" fill="#2d515c"/>
    <path id="Path_87" data-name="Path 87" d="M18141.082,16407.631l28.023-86.137-4.594-1.494-28.512,87.631Z" transform="translate(-3038.521 -6009.792)" fill="#2d515c"/>
    <path id="Path_88" data-name="Path 88" d="M16301.314,16407.916l23.968-86.324-4.653-1.293-24.329,87.617Z" transform="translate(-1277.591 -6010.078)" fill="#2d515c"/>
    <path id="Path_89" data-name="Path 89" d="M24492.785,11231.852a29.485,29.485,0,1,1,27.523-31.273A29.447,29.447,0,0,1,24492.785,11231.852Zm-1.844-63.861a34.435,34.435,0,1,0,34.367,34.436A34.4,34.4,0,0,0,24490.941,11167.99Z" transform="translate(-9088.472 -1078.375)" fill="#2d515c"/>
    <path id="Path_90" data-name="Path 90" d="M15534.4,18358.039h566.522v-3.84H15534.4Z" transform="translate(-548.314 -7956.894)" fill="#293b4f"/>
    <path id="Path_91" data-name="Path 91" d="M22198.3,12613.65l9.162-.15a4.006,4.006,0,0,1-4.182,3.665C22198.373,12617.388,22198.3,12613.65,22198.3,12613.65Z" transform="translate(-6926.887 -2461.993)" fill="#fefefe"/>
  </g>
</svg>
