<svg xmlns="http://www.w3.org/2000/svg" width="25.537" height="25.537" viewBox="0 0 25.537 25.537">
  <path id="my_account_icon" data-name="my account icon" d="M16.769,7.033a3.352,3.352,0,1,1-3.352,3.352,3.351,3.351,0,0,1,3.352-3.352m0,14.365c4.74,0,9.736,2.33,9.736,3.352V26.5H7.033V24.749c0-1.021,5-3.352,9.736-3.352m0-17.4a6.384,6.384,0,1,0,6.384,6.384A6.383,6.383,0,0,0,16.769,4Zm0,14.365C12.507,18.365,4,20.5,4,24.749v4.788H29.537V24.749C29.537,20.5,21.03,18.365,16.769,18.365Z" transform="translate(-4 -4)" fill="#f7fafc"/>
</svg>
