<svg xmlns="http://www.w3.org/2000/svg" width="20.348" height="30.521" viewBox="0 0 20.348 30.521">
  <g id="my_account" data-name="my account" transform="translate(-85.325)">
    <path id="Path_95" data-name="Path 95" d="M94.8,298.686a10.415,10.415,0,0,0-9.477,10.51v.276a1.908,1.908,0,0,0,1.908,1.908h0a1.908,1.908,0,0,0,1.908-1.908v-.352a6.553,6.553,0,0,1,5.723-6.613,6.366,6.366,0,0,1,6.963,5.707q.031.31.031.622v.636a1.908,1.908,0,0,0,1.908,1.908h0a1.908,1.908,0,0,0,1.908-1.908v-.636a10.185,10.185,0,0,0-10.2-10.174Q95.14,298.663,94.8,298.686Z" transform="translate(0 -280.859)" fill="#e15fff"/>
    <path id="Path_96" data-name="Path 96" d="M135.638,15.26a7.63,7.63,0,1,0-7.63-7.63A7.63,7.63,0,0,0,135.638,15.26Zm0-11.445a3.815,3.815,0,1,1-3.815,3.815A3.815,3.815,0,0,1,135.638,3.815Z" transform="translate(-40.138)" fill="#e15fff"/>
  </g>
</svg>
