<svg xmlns="http://www.w3.org/2000/svg" width="20.599" height="13" viewBox="0 0 20.599 13">
  <path id="options_icon" data-name="options icon" d="M19.41,22.447H9.369a1.205,1.205,0,0,1-1.21-1.21V18.21A1.205,1.205,0,0,1,9.369,17H19.388a1.205,1.205,0,0,1,1.21,1.21v3.026A1.173,1.173,0,0,1,19.41,22.447ZM9.952,20.653h8.876v-1.86H9.952ZM19.41,30H9.369a1.205,1.205,0,0,1-1.21-1.21V25.764a1.205,1.205,0,0,1,1.21-1.21H19.388a1.205,1.205,0,0,1,1.21,1.21V28.79A1.173,1.173,0,0,1,19.41,30ZM9.952,28.207h8.876v-1.86H9.952Zm-4.64-5.76H1.255A1.253,1.253,0,0,1,0,21.191V18.255A1.253,1.253,0,0,1,1.255,17H5.312a1.253,1.253,0,0,1,1.255,1.255v2.959A1.249,1.249,0,0,1,5.312,22.447ZM1.793,20.653H4.774v-1.86H1.793ZM5.312,30H1.255A1.253,1.253,0,0,1,0,28.745V25.786a1.253,1.253,0,0,1,1.255-1.255H5.312a1.253,1.253,0,0,1,1.255,1.255v2.959A1.253,1.253,0,0,1,5.312,30ZM1.793,28.207H4.774v-1.86H1.793Z" transform="translate(0 -17)" fill="#f7fafc"/>
</svg>
