<svg xmlns="http://www.w3.org/2000/svg" width="23.952" height="23.952" viewBox="0 0 23.952 23.952">
  <path id="overlay_ads_icon" data-name="overlay ads icon" d="M595.461,688.467V674.994A3,3,0,0,0,592.467,672H578.994A3,3,0,0,0,576,674.994v13.473a3,3,0,0,0,2.994,2.994h13.473A3,3,0,0,0,595.461,688.467Zm-16.467-13.473h13.473v13.473H578.994Zm19.461,1.5a1.418,1.418,0,0,0-.614.135,1.5,1.5,0,0,0-.883,1.362v14.97h-14.97a1.5,1.5,0,0,0-1.362.883,1.42,1.42,0,0,0-.135.614,1.5,1.5,0,0,0,1.5,1.5h14.97a3,3,0,0,0,2.994-2.994v-14.97A1.5,1.5,0,0,0,598.455,676.491Z" transform="translate(-576 -672)" fill="#f7fafc" fill-rule="evenodd"/>
</svg>
