<svg xmlns="http://www.w3.org/2000/svg" width="35.869" height="30.023" viewBox="0 0 35.869 30.023">
  <g id="picture_in_picture_icon" data-name="picture in picture icon" transform="translate(-1026.654 -283.086)">
    <path id="Image-path" d="M32.134,0H3.736A3.738,3.738,0,0,0,0,3.738V26.284a3.738,3.738,0,0,0,3.736,3.738h28.4a3.738,3.738,0,0,0,3.736-3.738V3.738A3.738,3.738,0,0,0,32.134,0Z" transform="translate(1026.654 283.086)" fill="#fff"/>
    <path id="Image-path-2" data-name="Image-path" d="M23.406,13.451H1.372a1.373,1.373,0,0,1-.94-2.372L8.512.371a1.373,1.373,0,0,1,1.878,0l4.6,5.982a1.371,1.371,0,0,0,1.906-.038l.94-.94a1.368,1.368,0,0,1,1.932,0L24.377,11.1a1.371,1.371,0,0,1-.971,2.349Z" transform="translate(1032.278 293.319)" fill="#9413e6"/>
  </g>
</svg>
