<svg id="pinterest" xmlns="http://www.w3.org/2000/svg" width="60" height="60" viewBox="0 0 60 60">
  <g id="Group_753" data-name="Group 753">
    <g id="Group_752" data-name="Group 752">
      <path id="Path_1500" data-name="Path 1500" d="M44.177,0H15.817A15.652,15.652,0,0,0,0,15.821V44.181A15.65,15.65,0,0,0,15.817,60H44.177A15.653,15.653,0,0,0,60,44.179V15.821A15.654,15.654,0,0,0,44.177,0ZM56.129,44.179A11.687,11.687,0,0,1,44.177,56.127H15.817A11.683,11.683,0,0,1,3.871,44.179V15.821A11.685,11.685,0,0,1,15.817,3.871H44.177a11.687,11.687,0,0,1,11.952,11.95Z" fill="#e15fff"/>
    </g>
  </g>
  <g id="Group_755" data-name="Group 755" transform="translate(15.819 12.275)">
    <g id="Group_754" data-name="Group 754">
      <path id="Path_1501" data-name="Path 1501" d="M145.8,101.472c-10,0-15.037,6.937-15.037,12.72,0,3.5,1.37,6.617,4.306,7.781a1,1,0,0,0,.36.074.705.705,0,0,0,.695-.585c.1-.356.327-1.256.432-1.635a.965.965,0,0,0-.3-1.132,5.754,5.754,0,0,1-1.392-3.991c0-5.148,3.983-9.753,10.363-9.753,5.65,0,8.754,3.341,8.754,7.8,0,5.87-2.685,10.827-6.67,10.827a3.182,3.182,0,0,1-3.321-3.923c.633-2.58,1.86-5.363,1.86-7.223a2.762,2.762,0,0,0-2.839-3.056c-2.253,0-4.061,2.251-4.061,5.27a7.636,7.636,0,0,0,.672,3.223s-2.3,9.441-2.7,11.1a22.083,22.083,0,0,0-.064,7.736.262.262,0,0,0,.271.225.285.285,0,0,0,.228-.108,21.482,21.482,0,0,0,3.8-6.664c.261-.906,1.481-5.6,1.481-5.6a6.092,6.092,0,0,0,5.143,2.535c6.763,0,11.352-5.963,11.352-13.951C159.129,107.1,153.843,101.472,145.8,101.472Z" transform="translate(-130.768 -101.472)" fill="#e15fff"/>
    </g>
  </g>
</svg>
