<svg xmlns="http://www.w3.org/2000/svg" width="24.856" height="21.73" viewBox="0 0 24.856 21.73">
  <path id="player_roll_action_icon" data-name="player roll action icon" d="M678.214,170.314a1.553,1.553,0,1,0,1.553,1.553A1.553,1.553,0,0,0,678.214,170.314Zm17.087,9.32H690.47a10.864,10.864,0,1,0-7.6,3.107,10.664,10.664,0,0,0,1.205-.071,1.459,1.459,0,0,0,.348.071H695.3a1.553,1.553,0,0,0,0-3.107Zm-20.194-7.767a7.767,7.767,0,1,1,7.767,7.767A7.767,7.767,0,0,1,675.107,171.867Zm12.427,1.553a1.553,1.553,0,1,0-1.553-1.553A1.553,1.553,0,0,0,687.534,173.421Zm-4.66-4.66a1.553,1.553,0,1,0-1.553-1.553A1.553,1.553,0,0,0,682.874,168.761Zm1.553,7.767a1.553,1.553,0,1,0-1.553,1.553A1.553,1.553,0,0,0,684.428,176.527Zm-1.553-3.107a1.553,1.553,0,1,0-1.553-1.553A1.553,1.553,0,0,0,682.874,173.421Z" transform="translate(-671.999 -161.011)" fill="#fff" fill-rule="evenodd"/>
</svg>
