<svg xmlns="http://www.w3.org/2000/svg" width="23.917" height="23.935" viewBox="0 0 23.917 23.935">
  <path id="player_control_icon" data-name="player control icon" d="M433.938,68.484h-4.484v-2.99a1.495,1.495,0,1,0-2.99,0v2.99h-4.484c-2.233,0-5.979,1.359-5.979,10.464,0,7.8,3.746,8.969,5.979,8.969a4.112,4.112,0,0,0,4.408-3.265c.344-1.033.406-1.22,1.571-1.22s1.227.187,1.572,1.22a4.109,4.109,0,0,0,4.407,3.265c2.233,0,5.979-1.164,5.979-8.969C439.917,69.843,436.171,68.484,433.938,68.484Zm0,16.443c-1.164,0-1.226-.187-1.573-1.22a4.608,4.608,0,0,0-8.819,0c-.339,1.033-.4,1.22-1.567,1.22-1.984,0-2.99-2.012-2.99-5.979,0-2.242.292-7.474,2.99-7.474h11.958c2.7,0,2.99,5.232,2.99,7.474C436.927,82.915,435.921,84.927,433.938,84.927Zm-2.99-11.958a1.495,1.495,0,1,0,1.495,1.495A1.495,1.495,0,0,0,430.948,72.969Zm2.99,2.99a1.495,1.495,0,1,0,1.495,1.495A1.495,1.495,0,0,0,433.938,75.958Zm-7.474-1.495h-.747v-.747a1.495,1.495,0,0,0-2.99,0v.747h-.747a1.495,1.495,0,1,0,0,2.99h.747V78.2a1.495,1.495,0,0,0,2.99,0v-.747h.747a1.495,1.495,0,1,0,0-2.99Z" transform="translate(-416 -64)" fill="#fff" fill-rule="evenodd"/>
</svg>
