<svg xmlns="http://www.w3.org/2000/svg" width="20" height="25" viewBox="0 0 20 25">
  <path id="play_back_icon" data-name="play back icon" d="M14,6V1L7.75,7.25,14,13.5v-5A7.5,7.5,0,1,1,6.5,16H4A10,10,0,1,0,14,6ZM12.625,19.75H11.5V15.625L10.25,16v-.875l2.25-.75h.125V19.75ZM18,17.5a2.437,2.437,0,0,1-.125,1l-.375.75s-.375.375-.625.375-.5.125-.75.125a1.585,1.585,0,0,1-.75-.125c-.25-.125-.375-.25-.625-.375s-.25-.375-.375-.75a2.752,2.752,0,0,1-.125-1v-.875a2.437,2.437,0,0,1,.125-1l.375-.75s.375-.375.625-.375.5-.125.75-.125a1.585,1.585,0,0,1,.75.125c.25.125.375.25.625.375s.25.375.375.75a2.752,2.752,0,0,1,.125,1V17.5Zm-1.125-1v-.625a1.259,1.259,0,0,1-.125-.375c0-.125-.125-.125-.25-.25a.625.625,0,0,0-.75,0l-.25.25a1.259,1.259,0,0,0-.125.375v2.5a1.259,1.259,0,0,1,.125.375c0,.125.125.125.25.25a.625.625,0,0,0,.75,0l.25-.25a1.259,1.259,0,0,0,.125-.375Z" transform="translate(-4 -1)" fill="#f7fafc"/>
</svg>
