<svg xmlns="http://www.w3.org/2000/svg" width="19.778" height="20" viewBox="0 0 19.778 20">
  <path id="project_icon" data-name="project icon" d="M689.346,554l-2.473,7.5h-9.885l-2.473-7.5h14.835m0-2.5h-14.84a2.464,2.464,0,0,0-2,1.039,2.52,2.52,0,0,0-.34,2.25l2.473,7.5A2.475,2.475,0,0,0,676.989,564h9.89a2.475,2.475,0,0,0,2.345-1.71l2.473-7.5a2.52,2.52,0,0,0-.34-2.25,2.464,2.464,0,0,0-2-1.039h0Zm0,5Zm-1.236-6.25H675.753a1.25,1.25,0,0,1-1.236-1.25h0a1.25,1.25,0,0,1,1.236-1.25h12.362a1.25,1.25,0,0,1,1.236,1.25h0a1.25,1.25,0,0,1-1.237,1.25Zm-2.473-3.75h-7.418a1.25,1.25,0,0,1-1.236-1.25h0a1.25,1.25,0,0,1,1.236-1.25h7.417a1.25,1.25,0,0,1,1.236,1.25h0a1.25,1.25,0,0,1-1.241,1.25Z" transform="translate(-672.045 -544)" fill="#e15fff" fill-rule="evenodd"/>
</svg>
