<svg id="screen_only_icon" data-name="screen only icon" xmlns="http://www.w3.org/2000/svg" width="36.244" height="31.999" viewBox="0 0 36.244 31.999">
  <path id="Browser" d="M31.722,32H4.546A4.555,4.555,0,0,1,0,27.47V5.38a5.4,5.4,0,0,1,1.57-3.8A5.334,5.334,0,0,1,5.373,0l25.5.007a5.345,5.345,0,0,1,3.8,1.575,5.408,5.408,0,0,1,1.573,3.8V27.46A4.526,4.526,0,0,1,31.722,32ZM7.675,10.37a3.138,3.138,0,0,0-2.209.916,3.1,3.1,0,0,0-.916,2.209V24.511a3.122,3.122,0,0,0,3.116,3.131h20.9a3.151,3.151,0,0,0,2.213-.916,3.106,3.106,0,0,0,.911-2.216V13.495a3.122,3.122,0,0,0-3.124-3.124Z" transform="translate(0 0)" fill="#fff"/>
</svg>
