<svg xmlns="http://www.w3.org/2000/svg" width="21.377" height="21.377" viewBox="0 0 21.377 21.377">
  <path id="share_2_u_sq" d="M436.041,684.025a1.336,1.336,0,0,0-1.336,1.336V690.7H418.672V674.672h5.344a1.336,1.336,0,0,0,0-2.672h-5.344A2.68,2.68,0,0,0,416,674.672V690.7a2.68,2.68,0,0,0,2.672,2.672H434.7a2.68,2.68,0,0,0,2.672-2.672v-5.344A1.336,1.336,0,0,0,436.041,684.025Zm1.327-10.737a1.364,1.364,0,0,0-.092-.464h0c0-.012-.015-.02-.02-.032a1.3,1.3,0,0,0-.238-.354,1.61,1.61,0,0,0-.381-.279.993.993,0,0,0-.134-.061,1.334,1.334,0,0,0-.462-.1h-6.68a1.336,1.336,0,0,0,0,2.672h3.455l-11.08,11.08a1.336,1.336,0,1,0,1.889,1.889l11.08-11.08v3.455a1.336,1.336,0,0,0,2.672,0v-6.68C437.377,673.319,437.368,673.3,437.368,673.288Z" transform="translate(-416 -672)" fill="#fff" fill-rule="evenodd"/>
</svg>
