<svg xmlns="http://www.w3.org/2000/svg" width="26" height="26" viewBox="0 0 26 26">
  <path id="share_icon" data-name="share icon" d="M405.123,685.083a1.629,1.629,0,0,0-1.625,1.624v8.117H387.25V678.576h3.25a1.615,1.615,0,0,0,1.442-.8,1.633,1.633,0,0,0,0-1.655,1.615,1.615,0,0,0-1.442-.8h-3.25a3.258,3.258,0,0,0-3.25,3.249v16.247a3.258,3.258,0,0,0,3.25,3.249H403.5a3.258,3.258,0,0,0,3.25-3.249V686.7A1.629,1.629,0,0,0,405.123,685.083ZM410,677.018a1.338,1.338,0,0,0,0-.163,1.566,1.566,0,0,0-.078-.405c-.018-.054-.034-.106-.057-.163a1.634,1.634,0,0,0-.325-.49l-3.25-3.249a1.625,1.625,0,1,0-2.3,2.3l.621.621c-13.933,1.036-14.1,14.337-14.1,14.476a1.629,1.629,0,0,0,1.625,1.622h0a1.629,1.629,0,0,0,1.625-1.617,11.314,11.314,0,0,1,10.506-11.178l-.278.278a1.625,1.625,0,0,0,2.3,2.3l3.25-3.249c.015-.015.019-.034.034-.051a1.569,1.569,0,0,0,.325-.477.058.058,0,0,1,.011-.042,1.616,1.616,0,0,0,.091-.506Z" transform="translate(-384 -672.072)" fill="#fff" fill-rule="evenodd"/>
</svg>
