<svg xmlns="http://www.w3.org/2000/svg" width="46.936" height="46.936" viewBox="0 0 46.936 46.936">
  <path id="share_link_icon" data-name="share link icon" d="M44.192,30.613V16.322a4.144,4.144,0,1,0-2.763,0v5.764H35.813A12.458,12.458,0,0,0,24.85,11.217V5.507h5.764a4.149,4.149,0,0,0,8.052-1.382,4.149,4.149,0,0,0-8.052-1.381H16.323A4.149,4.149,0,0,0,8.271,4.125a4.149,4.149,0,0,0,8.052,1.381h5.764v5.711A12.458,12.458,0,0,0,11.123,22.086H5.507V16.322A4.149,4.149,0,0,0,4.126,8.27a4.149,4.149,0,0,0-1.382,8.052V30.613a4.149,4.149,0,0,0,1.382,8.052,4.149,4.149,0,0,0,1.381-8.052V24.849H11.1A12.457,12.457,0,0,0,22.087,35.932v5.5H16.323a4.144,4.144,0,1,0,0,2.763H30.614a4.144,4.144,0,1,0,0-2.763H24.85v-5.5A12.457,12.457,0,0,0,35.838,24.849h5.591v5.764a4.144,4.144,0,1,0,2.763,0ZM34.521,2.744a1.382,1.382,0,1,1-1.382,1.382A1.383,1.383,0,0,1,34.521,2.744ZM12.415,5.507A1.382,1.382,0,1,1,13.8,4.125,1.383,1.383,0,0,1,12.415,5.507Zm-8.29,5.526a1.382,1.382,0,1,1-1.382,1.382A1.383,1.383,0,0,1,4.126,11.033Zm0,24.869A1.382,1.382,0,1,1,5.507,34.52,1.383,1.383,0,0,1,4.126,35.9Zm8.29,8.29A1.382,1.382,0,1,1,13.8,42.809,1.383,1.383,0,0,1,12.415,44.191Zm22.105-2.763a1.382,1.382,0,1,1-1.382,1.382A1.383,1.383,0,0,1,34.521,41.428ZM23.468,27.612a4.149,4.149,0,0,1,4.145,4.145v.554a9.736,9.736,0,0,1-8.29,0v-.554A4.149,4.149,0,0,1,23.468,27.612ZM20.7,22.086a2.763,2.763,0,1,1,2.763,2.763A2.766,2.766,0,0,1,20.7,22.086Zm9.547,8.374a6.922,6.922,0,0,0-2.921-4.427,5.524,5.524,0,1,0-7.726,0,6.923,6.923,0,0,0-2.921,4.427,9.668,9.668,0,1,1,13.568,0ZM42.81,11.033a1.382,1.382,0,1,1-1.382,1.382A1.383,1.383,0,0,1,42.81,11.033Zm0,24.869a1.382,1.382,0,1,1,1.382-1.382A1.383,1.383,0,0,1,42.81,35.9Z" transform="translate(0 0)" fill="#f7fafc"/>
</svg>
