<svg xmlns="http://www.w3.org/2000/svg" width="32.214" height="24.164" viewBox="0 0 32.214 24.164">
  <path id="speaker_" data-name="speaker " d="M302.1,198.027v16.109l-5.727-4.027h-4.341v-8.054h4.027l6.041-4.027m0-4.027a4.028,4.028,0,0,0-2.233.677l-5.034,3.351h-2.8A4.027,4.027,0,0,0,288,202.054v8.054a4.027,4.027,0,0,0,4.027,4.027h3.067l4.684,3.294a4.027,4.027,0,0,0,6.345-3.294V198.027A4.027,4.027,0,0,0,302.1,194Zm7.142,8.161-.054.095a1.917,1.917,0,0,0,.324,2.354,2.014,2.014,0,0,1-.012,2.954,1.911,1.911,0,0,0-.324,2.35l.052.093a1.945,1.945,0,0,0,2.952.552,6.008,6.008,0,0,0,.018-8.938,1.943,1.943,0,0,0-2.956.542Zm3.032-5.308-.054.1a2.014,2.014,0,0,0,.654,2.618,8.034,8.034,0,0,1-.014,13.022,2.014,2.014,0,0,0-.646,2.636l.056.095a1.949,1.949,0,0,0,2.779.666,12.082,12.082,0,0,0,0-19.818,1.947,1.947,0,0,0-2.775.685Z" transform="translate(-288 -194)" fill="#fff" fill-rule="evenodd"/>
</svg>
