<svg xmlns="http://www.w3.org/2000/svg" width="39.762" height="28.401" viewBox="0 0 39.762 28.401">
  <path id="step_forward" data-name="step  forward" d="M230.49,748.656l-11.361-8.52a5.68,5.68,0,0,0-9.088,4.544v1.42l-7.952-5.964A5.68,5.68,0,0,0,193,744.68v17.041a5.68,5.68,0,0,0,9.088,4.544l7.952-5.964v1.42a5.68,5.68,0,0,0,9.088,4.544l11.36-8.521a5.68,5.68,0,0,0,0-9.088ZM198.68,761.721V744.68l11.361,8.52Zm17.041,0V744.68l11.361,8.52Z" transform="translate(-193 -739)" fill="#fff" fill-rule="evenodd"/>
</svg>
