<svg xmlns="http://www.w3.org/2000/svg" width="26.418" height="26.418" viewBox="0 0 26.418 26.418">
  <g id="tabs" transform="translate(-0.906 -0.906)">
    <g id="Group_985" data-name="Group 985" transform="translate(0.906 0.906)">
      <path id="Path_758" data-name="Path 758" d="M5.254,22.43H17.676a4.759,4.759,0,0,0,4.754-4.754V5.254A4.759,4.759,0,0,0,17.676.5H5.254A4.759,4.759,0,0,0,.5,5.254V17.676A4.759,4.759,0,0,0,5.254,22.43ZM3.093,5.254A2.163,2.163,0,0,1,5.254,3.093H17.676a2.163,2.163,0,0,1,2.161,2.161V17.676a2.163,2.163,0,0,1-2.161,2.161H5.254a2.163,2.163,0,0,1-2.161-2.161Z" transform="translate(-0.5 -0.5)" fill="#e15fff"/>
      <path id="Path_759" data-name="Path 759" d="M27.515,11.687a1.3,1.3,0,0,0-1.3,1.3v9.346a3.894,3.894,0,0,1-3.889,3.889H12.983a1.3,1.3,0,0,0,0,2.593h9.346a6.489,6.489,0,0,0,6.482-6.482V12.983A1.3,1.3,0,0,0,27.515,11.687Z" transform="translate(-2.393 -2.393)" fill="#e15fff"/>
    </g>
    <path id="Path_760" data-name="Path 760" d="M8.5,13.671h2.579v2.578a1.3,1.3,0,0,0,2.593,0V13.671h2.579a1.3,1.3,0,0,0,0-2.593H13.671V8.5a1.3,1.3,0,1,0-2.593,0v2.579H8.5a1.3,1.3,0,0,0,0,2.593Z" transform="translate(-0.939 -0.939)" fill="#e15fff"/>
  </g>
</svg>
