<svg xmlns="http://www.w3.org/2000/svg" width="44.622" height="37" viewBox="0 0 44.622 37">
  <g id="team_icon" data-name="team icon" transform="translate(0 -43.729)">
    <g id="Group_83" data-name="Group 83" transform="translate(0 59.935)">
      <g id="Group_82" data-name="Group 82" transform="translate(0 0)">
        <path id="Path_54" data-name="Path 54" d="M38.086,233.033H33.718a6.518,6.518,0,0,0-1.718.231,6.542,6.542,0,0,0-5.829-3.584H18.451a6.542,6.542,0,0,0-5.829,3.584,6.518,6.518,0,0,0-1.718-.231H6.536A6.544,6.544,0,0,0,0,239.569v6.983a3.926,3.926,0,0,0,3.922,3.922H40.7a3.926,3.926,0,0,0,3.922-3.922V239.57A6.544,6.544,0,0,0,38.086,233.033Zm-26.172,3.184v11.643H3.922a1.309,1.309,0,0,1-1.307-1.307V239.57a3.926,3.926,0,0,1,3.922-3.922H10.9a3.909,3.909,0,0,1,1.026.137C11.921,235.928,11.914,236.072,11.914,236.217Zm18.179,11.643H14.529V236.217a3.926,3.926,0,0,1,3.922-3.922h7.721a3.926,3.926,0,0,1,3.922,3.922Zm11.914-1.307a1.309,1.309,0,0,1-1.307,1.307H32.708V236.217c0-.145-.006-.289-.016-.432a3.912,3.912,0,0,1,1.026-.137h4.368a3.926,3.926,0,0,1,3.922,3.922Z" transform="translate(0 -229.68)" fill="#f7fafc"/>
      </g>
    </g>
    <g id="Group_85" data-name="Group 85" transform="translate(2.912 50.943)">
      <g id="Group_84" data-name="Group 84">
        <path id="Path_55" data-name="Path 55" d="M39.222,126.5a5.808,5.808,0,1,0,5.808,5.808A5.815,5.815,0,0,0,39.222,126.5Zm0,9a3.194,3.194,0,1,1,3.194-3.194A3.2,3.2,0,0,1,39.222,135.506Z" transform="translate(-33.414 -126.504)" fill="#f7fafc"/>
      </g>
    </g>
    <g id="Group_87" data-name="Group 87" transform="translate(14.551 43.729)">
      <g id="Group_86" data-name="Group 86" transform="translate(0 0)">
        <path id="Path_56" data-name="Path 56" d="M174.722,43.729a7.76,7.76,0,1,0,7.76,7.76A7.769,7.769,0,0,0,174.722,43.729Zm0,12.905a5.145,5.145,0,1,1,5.145-5.145A5.151,5.151,0,0,1,174.722,56.634Z" transform="translate(-166.962 -43.729)" fill="#f7fafc"/>
      </g>
    </g>
    <g id="Group_89" data-name="Group 89" transform="translate(30.093 50.943)">
      <g id="Group_88" data-name="Group 88">
        <path id="Path_57" data-name="Path 57" d="M351.1,126.5a5.808,5.808,0,1,0,5.808,5.808A5.815,5.815,0,0,0,351.1,126.5Zm0,9a3.194,3.194,0,1,1,3.194-3.194A3.2,3.2,0,0,1,351.1,135.506Z" transform="translate(-345.294 -126.504)" fill="#f7fafc"/>
      </g>
    </g>
  </g>
</svg>
