<svg xmlns="http://www.w3.org/2000/svg" width="41" height="33.953" viewBox="0 0 41 33.953">
  <path id="text_to_specch_icon" data-name="text to specch icon" d="M22.657,77.953a3.55,3.55,0,0,1-3.588-3.115L15.163,47.514a.315.315,0,0,0-.359-.31h0a.316.316,0,0,0-.359.311l-2.782,19.5a3.6,3.6,0,0,1-7.073.317l0-.018-.9-4A2.268,2.268,0,0,0,1.6,61.537a1.6,1.6,0,1,1,0-3.2,5.468,5.468,0,0,1,5.2,4.25l0,.018.9,4a.4.4,0,0,0,.784-.043l2.782-19.5A3.5,3.5,0,0,1,14.8,44h0a3.5,3.5,0,0,1,3.527,3.059l3.905,27.325a.428.428,0,0,0,.849-.014l.545-4.844a1.6,1.6,0,1,1,3.183.358l-.545,4.845a3.553,3.553,0,0,1-3.554,3.224h-.061ZM36.21,66.131l0-.019.566-2.4A2.84,2.84,0,0,1,39.4,61.537a1.6,1.6,0,1,0,0-3.2,6.039,6.039,0,0,0-5.729,4.614l0,.019-.566,2.4a.2.2,0,0,1-.241.174c-.2-.008-.215-.124-.227-.2l-1.257-7.667a3.24,3.24,0,0,0-6.416.168l-.678,5.994a1.6,1.6,0,1,0,3.183.36l.678-5.994c0-.012,0-.022,0-.03a.179.179,0,0,1,.063,0c0,.007,0,.015.005.025l1.257,7.667a3.415,3.415,0,0,0,3.262,2.875l.141,0a3.413,3.413,0,0,0,3.336-2.613Z" transform="translate(0 -44)" fill="#f7fafc"/>
</svg>
