<svg xmlns="http://www.w3.org/2000/svg" width="21.358" height="18.689" viewBox="0 0 21.358 18.689">
  <path id="thumbnails_image_VIDEO_ICON" data-name="thumbnails ( image &amp; VIDEO) ICON" d="M461.349,163.67l1.335,2.67h4v10.679H450.67V166.34h4l1.335-2.67h5.34m0-2.67h-5.34a2.67,2.67,0,0,0-2.388,1.468l-.6,1.2H450.67a2.67,2.67,0,0,0-2.67,2.67v10.679a2.67,2.67,0,0,0,2.67,2.67h16.019a2.67,2.67,0,0,0,2.67-2.67V166.34a2.67,2.67,0,0,0-2.67-2.67h-2.355l-.6-1.2A2.67,2.67,0,0,0,461.349,161Zm-2.67,9.344a1.335,1.335,0,1,1-1.335,1.335,1.335,1.335,0,0,1,1.335-1.335m0-2.67a4,4,0,1,0,4,4,4,4,0,0,0-4-4Z" transform="translate(-448 -161)" fill="#fff" fill-rule="evenodd"/>
</svg>
