<svg id="twitter" xmlns="http://www.w3.org/2000/svg" width="60" height="60" viewBox="0 0 60 60">
  <g id="Group_757" data-name="Group 757">
    <g id="Group_756" data-name="Group 756">
      <path id="Path_1502" data-name="Path 1502" d="M44.154,0H15.846A15.677,15.677,0,0,0,0,15.846V44.154A15.677,15.677,0,0,0,15.846,60H44.154A15.677,15.677,0,0,0,60,44.154V15.846A15.678,15.678,0,0,0,44.154,0ZM56.129,44.154A11.847,11.847,0,0,1,44.154,56.129H15.846A11.848,11.848,0,0,1,3.871,44.154V15.846A11.848,11.848,0,0,1,15.846,3.871H44.154A11.847,11.847,0,0,1,56.129,15.846Z" fill="#e15fff"/>
      <path id="Path_1503" data-name="Path 1503" d="M124.208,116.415a1.935,1.935,0,0,0-2.117-.106,11.184,11.184,0,0,1-3.306.735c-.244.033-.484.064-.716.1a9.3,9.3,0,0,0-5.921-2.133,9.16,9.16,0,0,0-9.182,8.539,18.843,18.843,0,0,1-11.367-6.53,1.935,1.935,0,0,0-3.265.455c-.124.283-1.2,2.94-1.2,9.513,0,5.692,4.492,9.875,7.574,12.075a13.228,13.228,0,0,1-6.844,1.055,1.936,1.936,0,0,0-1.25,3.561,22.763,22.763,0,0,0,12.165,3.509,22.2,22.2,0,0,0,22.581-21.645c.4-.579,1.159-1.705,2.445-3.681a13.221,13.221,0,0,0,1.157-3.461A1.934,1.934,0,0,0,124.208,116.415Zm-6.345,7.366a1.94,1.94,0,0,0-.368,1.134c0,7.639-5.808,18.4-18.72,18.4A19.081,19.081,0,0,1,95.317,143a16.6,16.6,0,0,0,4.258-2.385,1.935,1.935,0,0,0-.308-3.259C99.184,137.313,91,133.01,91,126.987a41.165,41.165,0,0,1,.252-4.814,22.789,22.789,0,0,0,13.723,5.479c.039,0,.079,0,.116,0a1.935,1.935,0,0,0,1.8-2.688,5.215,5.215,0,0,1,5.253-6.087,5.393,5.393,0,0,1,3.894,1.655,1.942,1.942,0,0,0,1.769.565c.439-.083.946-.149,1.479-.219l.577-.077C118.413,123.017,117.889,123.747,117.864,123.782Z" transform="translate(-75.339 -101.096)" fill="#e15fff"/>
    </g>
  </g>
</svg>
