<svg xmlns="http://www.w3.org/2000/svg" width="18.485" height="17.779" viewBox="0 0 18.485 17.779">
  <g id="update_white" data-name="update white" transform="translate(0.007 -0.907)">
    <path id="Path_97" data-name="Path 97" d="M17.259,7.908A6.366,6.366,0,0,0,13.838,5.55,6.3,6.3,0,1,0,2,9.736,4.452,4.452,0,0,0,.143,14.6a4.505,4.505,0,0,0,4.432,3.315H7.7v-2.31H4.575a2.227,2.227,0,0,1-2.19-1.572,2.156,2.156,0,0,1,1.54-2.653l1.659-.429L4.564,9.575a3.981,3.981,0,0,1,2.6-6.313,4.239,4.239,0,0,1,.6-.043,3.957,3.957,0,0,1,2.4.8,4.015,4.015,0,0,1,1.551,2.655l.116.874.875.118A4.026,4.026,0,0,1,15.4,9.274a3.9,3.9,0,0,1-1.54,5.9v2.482a6.252,6.252,0,0,0,3.4-9.745Z" transform="translate(0 0)" fill="#fff"/>
    <path id="Path_98" data-name="Path 98" d="M16.159,15.175,13.624,12.64a.77.77,0,0,0-1.089,0L10,15.175h1.925v6.159h2.31V15.175Z" transform="translate(-2.303 -2.648)" fill="#fff"/>
  </g>
</svg>
