<svg xmlns="http://www.w3.org/2000/svg" width="33.521" height="33.521" viewBox="0 0 33.521 33.521">
  <path id="update" d="M25.14,11.872A3.492,3.492,0,1,1,21.648,8.38,3.492,3.492,0,0,1,25.14,11.872ZM23.267,24.739a15.416,15.416,0,0,1-1.156,3.1A10.662,10.662,0,0,1,12.57,33.52h-1.4V26.736a4.489,4.489,0,0,0-4.39-4.39H0v-1.4a10.662,10.662,0,0,1,5.677-9.541,15.417,15.417,0,0,1,3.1-1.156C13.911,3.324,19.862.249,28.573,0h.059A4.873,4.873,0,0,1,33.52,4.96c-.251,8.835-3.232,14.594-10.253,19.78ZM29.33,4.9a.7.7,0,0,0-.677-.71c-7.627.226-12.345,2.746-16.813,8.982a39.722,39.722,0,0,0-3.081,5.219,8.781,8.781,0,0,1,6.37,6.37,39.632,39.632,0,0,0,5.219-3.081C26.6,17.2,29.115,12.5,29.33,4.9ZM2.278,26.157C1.2,27.235.531,30.491.295,31.844L0,33.52l1.676-.3c1.342-.237,4.578-.906,5.659-1.99a3.6,3.6,0,0,0,0-5.077,3.649,3.649,0,0,0-5.057,0Z" transform="translate(0 0)" fill="#e15fff"/>
</svg>
