<svg xmlns="http://www.w3.org/2000/svg" width="29.81" height="29.767" viewBox="0 0 29.81 29.767">
  <path id="upgrade_icon" data-name="upgrade icon" d="M29.652,1.254a1.316,1.316,0,0,0-1.2-1.2A19.42,19.42,0,0,0,10.739,8.379a7.659,7.659,0,0,0-6.153.68A11.25,11.25,0,0,0,.052,14.143a1.287,1.287,0,0,0,.291,1.49,1.272,1.272,0,0,0,1.49.194,4.9,4.9,0,0,1,5.8.518l5.7,5.7.032.032a4.9,4.9,0,0,1,.518,5.8,1.325,1.325,0,0,0,.194,1.49,1.3,1.3,0,0,0,.939.389,1.064,1.064,0,0,0,.551-.13,11.436,11.436,0,0,0,5.085-4.534,7.47,7.47,0,0,0,.68-6.186,22.628,22.628,0,0,0,3.886-3.53A18.191,18.191,0,0,0,29.652,1.254ZM4.294,12.557a5.777,5.777,0,0,1,4.987-1.878A26.255,26.255,0,0,0,7.954,13.4,6.787,6.787,0,0,0,4.294,12.557Zm12.922,12.89a7.47,7.47,0,0,0-.842-3.692,26.418,26.418,0,0,0,2.72-1.328A5.749,5.749,0,0,1,17.216,25.446Zm-2.591-5.8-4.566-4.566c2.3-6.121,8-12.663,17.1-12.5C27.45,13.431,18.512,18.127,14.625,19.649ZM23.013,6.727a2.105,2.105,0,0,1-1.49,3.595,2,2,0,0,1-1.49-.615,2.2,2.2,0,0,1-.615-1.49,2.107,2.107,0,0,1,3.595-1.49ZM4.78,20.2c-1.49,1.49-1.555,4.469-1.555,5.052a1.3,1.3,0,0,0,1.3,1.3h.032c.68,0,3.53-.1,4.987-1.555a3.454,3.454,0,0,0,1.1-2.461,3.37,3.37,0,0,0-1.036-2.4A3.246,3.246,0,0,0,4.78,20.2Zm2.947,2.947a3.371,3.371,0,0,1-1.781.648,3.726,3.726,0,0,1,.648-1.749.944.944,0,0,1,.648-.356.84.84,0,0,1,.551.291.84.84,0,0,1,.291.551A1.335,1.335,0,0,1,7.727,23.147Z" transform="translate(0.068 0.014)" fill="#f7fafc"/>
</svg>
