<svg xmlns="http://www.w3.org/2000/svg" width="28.078" height="27.861" viewBox="0 0 28.078 27.861">
  <g id="usage_icon" data-name="usage icon" transform="translate(0.001 -0.488)">
    <path id="Path_504" data-name="Path 504" d="M19.775,23.277a10.648,10.648,0,1,1-8.06-19.361.484.484,0,0,0,.385-.471V.974a.483.483,0,0,0-.561-.479A14.04,14.04,0,1,0,22.075,25.822a.483.483,0,0,0,.057-.735l-1.75-1.75a.484.484,0,0,0-.607-.06Zm0,0" transform="translate(0 0)" fill="#59a9f7"/>
    <path id="Path_505" data-name="Path 505" d="M298.418,20.593a.485.485,0,0,1-.062-.605,10.638,10.638,0,0,0-6.686-16.064.485.485,0,0,1-.385-.471V.982A.483.483,0,0,1,291.847.5a14.043,14.043,0,0,1,9.062,21.786.483.483,0,0,1-.737.059Zm0,0" transform="translate(-275.313 -0.007)" fill="#9a14f0"/>
  </g>
</svg>
