<svg xmlns="http://www.w3.org/2000/svg" width="40.589" height="25.576" viewBox="0 0 40.589 25.576">
  <path id="video_footage_icon" data-name="video footage icon" d="M40.168,2.281a.861.861,0,0,0-.851-.015L30,7.351V4.3A4.3,4.3,0,0,0,25.7,0H4.3A4.3,4.3,0,0,0,0,4.3V21.277a4.3,4.3,0,0,0,4.3,4.3H25.7a4.3,4.3,0,0,0,4.3-4.3v-3l9.313,5.085a.86.86,0,0,0,1.272-.755V3.02a.86.86,0,0,0-.421-.739Zm-11.885,19a2.582,2.582,0,0,1-2.58,2.58H4.3a2.583,2.583,0,0,1-2.58-2.58V4.3A2.583,2.583,0,0,1,4.3,1.72H25.7a2.583,2.583,0,0,1,2.58,2.58Zm10.586-.115L30,16.322V9.31L38.87,4.47Zm0,0" transform="translate(0 0)" fill="#f7fafc"/>
</svg>
