<svg id="video_icon_only" data-name="video icon only" xmlns="http://www.w3.org/2000/svg" width="45.435" height="32.163" viewBox="0 0 45.435 32.163">
  <path id="Combined-Shape" d="M34.7,21.119a1.035,1.035,0,0,0-1.652.828v6.085a4.132,4.132,0,0,1-4.132,4.132H4.132A4.132,4.132,0,0,1,0,28.031V4.132A4.132,4.132,0,0,1,4.132,0H28.914a4.132,4.132,0,0,1,4.132,4.132v6.085a1.032,1.032,0,0,0,1.652.828l7.435-6.351a2.093,2.093,0,0,1,2.6.081,2.064,2.064,0,0,1,.7,1.623V25.818a2.064,2.064,0,0,1-3.3,1.652Z" transform="translate(0 0)" fill="#fff"/>
</svg>
