<svg xmlns="http://www.w3.org/2000/svg" width="21.777" height="21.777" viewBox="0 0 21.777 21.777">
  <path id="Video_setting_icon" data-name="Video setting icon" d="M620.25,66.722V68.8a1.149,1.149,0,0,0,.709,1.06h.014a1.178,1.178,0,0,0,.456.093,1.141,1.141,0,0,0,.817-.335l1.469-1.469,1.919,1.919-1.469,1.469a1.152,1.152,0,0,0-.242,1.266v.014a1.149,1.149,0,0,0,1.06.709h2.073v2.722h-2.074a1.149,1.149,0,0,0-1.059.709v.014a1.151,1.151,0,0,0,.242,1.266l1.469,1.469-1.919,1.919-1.469-1.469a1.141,1.141,0,0,0-.817-.335,1.177,1.177,0,0,0-.456.093h-.014a1.149,1.149,0,0,0-.709,1.06v2.087h-2.722V80.981a1.149,1.149,0,0,0-.709-1.06H616.8a1.177,1.177,0,0,0-.456-.093,1.141,1.141,0,0,0-.817.335l-1.462,1.463-1.919-1.919,1.469-1.469a1.151,1.151,0,0,0,.241-1.266.068.068,0,0,0,0-.014,1.149,1.149,0,0,0-1.066-.709h-2.073V73.528H612.8a1.149,1.149,0,0,0,1.06-.709.056.056,0,0,0,0-.014,1.152,1.152,0,0,0-.241-1.266l-1.463-1.469,1.919-1.919,1.469,1.469a1.141,1.141,0,0,0,.817.335,1.177,1.177,0,0,0,.456-.093h.014a1.149,1.149,0,0,0,.7-1.067V66.722h2.722m0-2.722h-2.722a2.722,2.722,0,0,0-2.484,1.608,2.722,2.722,0,0,0-2.9.617l-1.919,1.919a2.722,2.722,0,0,0-.618,2.9A2.722,2.722,0,0,0,608,73.528V76.25a2.722,2.722,0,0,0,1.608,2.484,2.722,2.722,0,0,0,.619,2.9l1.919,1.919a2.722,2.722,0,0,0,2.9.618,2.722,2.722,0,0,0,2.485,1.609h2.722a2.722,2.722,0,0,0,2.485-1.609,2.722,2.722,0,0,0,2.9-.618l1.919-1.919a2.722,2.722,0,0,0,.618-2.9,2.722,2.722,0,0,0,1.609-2.484V73.528a2.722,2.722,0,0,0-1.609-2.485,2.722,2.722,0,0,0-.618-2.9l-1.919-1.919a2.722,2.722,0,0,0-2.9-.618A2.722,2.722,0,0,0,620.25,64Zm1.361,10.889a2.722,2.722,0,1,1-2.722-2.722A2.722,2.722,0,0,1,621.611,74.889Z" transform="translate(-608 -64)" fill="#fff" fill-rule="evenodd"/>
</svg>
