<svg id="video_to_gif" data-name="video to gif" xmlns="http://www.w3.org/2000/svg" width="14.346" height="14.346" viewBox="0 0 14.346 14.346">
  <g id="Group_81" data-name="Group 81" transform="translate(0 0)">
    <path id="Path_46" data-name="Path 46" d="M60.818,73.935a1.052,1.052,0,0,0,.643-.23v-.89h-.712v.4h.276v.259a.281.281,0,0,1-.144.034c-.333,0-.488-.2-.488-.546s.19-.54.442-.54a.433.433,0,0,1,.322.126l.27-.3a.834.834,0,0,0-.6-.247.918.918,0,0,0-.942.982A.88.88,0,0,0,60.818,73.935Z" transform="translate(-57.823 -69.517)" fill="#e15fff"/>
    <rect id="Rectangle_18" data-name="Rectangle 18" width="0.494" height="1.866" transform="translate(3.999 2.519)" fill="#e15fff"/>
    <path id="Path_47" data-name="Path 47" d="M142.75,74.191h.62v-.414h-.62v-.356h.723v-.414h-1.217v1.866h.494Z" transform="translate(-137.35 -70.49)" fill="#e15fff"/>
    <rect id="Rectangle_19" data-name="Rectangle 19" width="1" height="1" rx="0.5" transform="translate(1 3.346)" fill="#e15fff"/>
    <path id="Path_48" data-name="Path 48" d="M11.506.081a.275.275,0,0,0-.2-.081H4.138A1.381,1.381,0,0,0,2.759,1.379H1.379A1.381,1.381,0,0,0,0,2.759V4.138A1.381,1.381,0,0,0,1.379,5.518H2.759v6.345a1.381,1.381,0,0,0,1.379,1.379h.828a.276.276,0,0,0,0-.552H4.138a.829.829,0,0,1-.828-.828V5.518H8.552A1.381,1.381,0,0,0,9.932,4.138V2.759A1.381,1.381,0,0,0,8.552,1.379H3.311A.829.829,0,0,1,4.138.552H10.76V2.207a1.381,1.381,0,0,0,1.379,1.379h1.655v8.277a.829.829,0,0,1-.828.828h-.828a.276.276,0,0,0,0,.552h.828a1.381,1.381,0,0,0,1.379-1.379V3.035a.275.275,0,0,0-.081-.2ZM8.552,1.931a.829.829,0,0,1,.828.828V4.138a.829.829,0,0,1-.828.828H1.379a.829.829,0,0,1-.828-.828V2.759a.829.829,0,0,1,.828-.828Z" transform="translate(0 0)" fill="#e15fff"/>
    <path id="Path_49" data-name="Path 49" d="M164.69,261.518a1.381,1.381,0,0,0,1.379-1.379v-2.759A1.381,1.381,0,0,0,164.69,256h-3.311A1.381,1.381,0,0,0,160,257.379v2.759a1.381,1.381,0,0,0,1.379,1.379Zm-4.138-1.379v-2.759a.829.829,0,0,1,.828-.828h3.311a.829.829,0,0,1,.828.828v2.759a.829.829,0,0,1-.828.828h-3.311A.829.829,0,0,1,160.552,260.138Z" transform="translate(-154.482 -247.172)" fill="#e15fff"/>
    <path id="Path_50" data-name="Path 50" d="M208.552,296.552h.552V296H208v1.1h.552Z" transform="translate(-200.827 -285.792)" fill="#e15fff"/>
    <path id="Path_51" data-name="Path 51" d="M209.1,344.552h-.552V344H208v1.1h1.1Z" transform="translate(-200.827 -332.137)" fill="#e15fff"/>
    <path id="Path_52" data-name="Path 52" d="M256.552,297.1h.552V296H256v.552h.552Z" transform="translate(-247.172 -285.792)" fill="#e15fff"/>
    <path id="Path_53" data-name="Path 53" d="M257.1,344h-.552v.552H256v.552h1.1Z" transform="translate(-247.172 -332.137)" fill="#e15fff"/>
  </g>
</svg>
