<svg xmlns="http://www.w3.org/2000/svg" width="25.08" height="18.861" viewBox="0 0 25.08 18.861">
  <path id="visibility_and_privacy_icon" data-name="visibility and privacy icon" d="M684.562,198.715a4.715,4.715,0,1,0,4.7,4.715,4.715,4.715,0,0,0-4.7-4.715Zm0,6.287a1.572,1.572,0,1,1,1.572-1.572A1.572,1.572,0,0,1,684.562,205Zm12.43-2.156c-.148-.358-3.628-8.846-12.43-8.846s-12.283,8.488-12.428,8.846a1.571,1.571,0,0,0,0,1.168c.14.36,3.626,8.847,12.428,8.847s12.286-8.488,12.43-8.847a1.573,1.573,0,0,0,0-1.168Zm-12.43,6.872c-5.559,0-8.395-4.607-9.244-6.287.849-1.657,3.716-6.287,9.244-6.287,5.564,0,8.4,4.61,9.245,6.287C692.955,205.084,690.088,209.718,684.562,209.718Z" transform="translate(-672.021 -194)" fill="#fff" fill-rule="evenodd"/>
</svg>
