<svg xmlns="http://www.w3.org/2000/svg" width="24.766" height="23" viewBox="0 0 24.766 23">
  <path id="your_teams" data-name="your teams" d="M21.856,31.485a9.449,9.449,0,0,0-4.484-7.769,5.01,5.01,0,1,0-9.979,0,9.449,9.449,0,0,0-4.484,7.769A5.01,5.01,0,1,0,7.9,40.129a9.488,9.488,0,0,0,8.972,0,5.01,5.01,0,1,0,4.988-8.643ZM12.382,20.191a3.075,3.075,0,1,1-3.075,3.075A3.079,3.079,0,0,1,12.382,20.191ZM2.348,37.571a3.075,3.075,0,1,1,4.2,1.126A3.074,3.074,0,0,1,2.348,37.571ZM9.28,38.655a5.011,5.011,0,0,0-4.4-7.633,7.517,7.517,0,0,1,3.1-5.371,5.009,5.009,0,0,0,8.81,0,7.517,7.517,0,0,1,3.1,5.371,5.011,5.011,0,0,0-4.4,7.633,7.561,7.561,0,0,1-6.206,0Zm13.137-1.085a3.075,3.075,0,1,1-1.126-4.2A3.079,3.079,0,0,1,22.417,37.571Z" transform="translate(0.001 -18.256)" fill="#f7fafc"/>
</svg>
